<?xml version="1.0" encoding="utf-8"?>
<!-- Generator: Adobe Illustrator 24.0.0, SVG Export Plug-In . SVG Version: 6.00 Build 0)  -->
<svg version="1.1" id="Calque_1" xmlns="http://www.w3.org/2000/svg" xmlns:xlink="http://www.w3.org/1999/xlink" x="0px" y="0px"
	 viewBox="0 0 1756 1745.3" style="enable-background:new 0 0 1756 1745.3;" xml:space="preserve">
<style type="text/css">
	.st0{fill:#BBB4A1;}
</style>
<path class="st0" d="M1700.4,824.5c0,32.1,0,64.3,0,96.4c-0.9,4.6-2.4,9.2-2.7,13.9c-8,114.7-38.4,223.4-93.9,323.9
	c-128,231.6-322.2,373.5-582.5,423.5c-31.4,6-63.4,8.7-95.1,13c-32.1,0-64.2,0-96.4,0c-4.1-0.9-8.2-2.4-12.4-2.7
	c-114.8-7.8-223.9-37.4-324.1-93.5C223.2,1447.7,75.8,1216.4,57.1,907C47.3,744.9,86,591.8,171.4,453.3
	c154-249.6,379.2-384.6,672.1-401.8c148.4-8.7,289.8,23.6,420.2,95.3c231.9,127.6,373.7,322.2,423.7,582.7
	C1693.4,760.9,1696.2,792.9,1700.4,824.5z M1115.8,1267.6c-10.5,3.5-18.2,7.5-26.3,8.5c-26.3,3.2-52.8,7.8-79,7.1
	c-28.4-0.8-42.4-14.7-45.2-42.8c-2-19.9-1.2-41,3.4-60.4c13.5-57.2,29.2-113.9,44.6-170.6c14-51.5,30.7-102.4,32.4-156.6
	c1.5-48.8-12.8-89.7-54.8-117.5c-41.1-27.2-87.4-30.3-134.4-25c-53.1,6-102,27.3-151.2,46.5c-3.7,1.5-7.8,5.8-8.9,9.6
	c-4.5,15.7-8,31.7-12.4,49.8c6.7-1.9,11.2-2.9,15.5-4.4c30.7-11,61.7-17.1,94.4-10.1c22.9,4.9,35.9,15,37,37.9
	c1.3,25.8,0.9,52.7-4.9,77.7c-13,56.3-29.4,111.7-45,167.2c-14.2,50.5-28.6,100.9-29.9,153.8c-1.4,54.9,27.7,100.7,77.6,121.9
	c42.8,18.2,88.2,21.8,132.2,11.5c46-10.7,90.2-29.3,135.1-44.8c3-1,6.5-4.5,7.3-7.5C1107.7,1303.2,1111.3,1286.6,1115.8,1267.6z
	 M1003.7,365.4c-14.6,2.9-29.6,4.5-43.6,9.1c-73.3,23.5-105.4,108.7-63.3,171.1c30.8,45.6,76.2,61.1,130,54.2
	c63.2-8.1,109.7-68.6,101.1-131.6C1120,410.5,1066.7,366.9,1003.7,365.4z"/>
</svg>
