<?xml version="1.0" encoding="utf-8"?>
<!-- Generator: Adobe Illustrator 24.0.0, SVG Export Plug-In . SVG Version: 6.00 Build 0)  -->
<svg version="1.1" id="Calque_1" xmlns="http://www.w3.org/2000/svg" xmlns:xlink="http://www.w3.org/1999/xlink" x="0px" y="0px"
	 viewBox="0 0 21.7 21.7" style="enable-background:new 0 0 21.7 21.7;" xml:space="preserve">
<style type="text/css">
	.st0{fill:#DD2E44;}
	.st1{fill:#EA596E;}
	.st2{fill:#A0041E;}
	.st3{fill:#AA8DD8;}
	.st4{fill:#77B255;}
	.st5{fill:#3DC863;}
	.st6{fill:#9266CC;}
	.st7{fill:#FFCB46;}
</style>
<path class="st0" d="M7.3,4.8C7.2,4.9,7.2,5,7.2,5l0,0L0.9,19.3l0,0C0.8,19.5,1,20,1.4,20.4c0.4,0.4,0.9,0.6,1.1,0.5l0,0l14-6.3l0,0
	c0.1,0,0.2-0.1,0.2-0.2c0.9-0.9-0.5-3.7-3.1-6.4C11,5.4,8.2,3.9,7.3,4.8z"/>
<path class="st1" d="M8.1,7.4L1.1,19l-0.2,0.4l0,0C0.8,19.5,1,20,1.4,20.4c0.1,0.1,0.3,0.2,0.4,0.3l8.5-10.5L8.1,7.4z"/>
<path class="st2" d="M13.6,8c2.6,2.6,4,5.4,3.2,6.3c-0.8,0.8-3.6-0.6-6.2-3.3c-2.6-2.6-4-5.5-3.2-6.3C8.3,3.9,11,5.3,13.6,8z"/>
<path class="st3" d="M11.2,8.3c-0.1,0.1-0.3,0.1-0.4,0.1c-0.5-0.1-0.9-0.2-1.2-0.5C9.3,7.6,9.1,7.2,9.2,6.9c0.1-0.7,0.7-1.3,1.9-1.2
	c0.4,0,0.6-0.1,0.6-0.2c0-0.1-0.2-0.3-0.6-0.3C10.6,5.2,10.2,5,9.9,4.7C9.6,4.4,9.5,4.1,9.5,3.7c0.1-0.7,0.7-1.3,1.9-1.2
	c0.3,0,0.5,0,0.6-0.1C12,2.4,12,2.4,12,2.4c0-0.1-0.2-0.3-0.6-0.3c-0.3,0-0.5-0.3-0.5-0.6c0-0.3,0.3-0.5,0.6-0.5
	c1.1,0.1,1.7,0.9,1.6,1.5c-0.1,0.7-0.7,1.3-1.9,1.2c-0.3,0-0.5,0-0.6,0.1c-0.1,0-0.1,0.1-0.1,0.1c0,0.1,0.2,0.3,0.6,0.3
	c1.1,0.1,1.7,0.9,1.6,1.5c-0.1,0.7-0.7,1.3-1.9,1.2c-0.3,0-0.5,0-0.6,0.1c-0.1,0-0.1,0.1-0.1,0.1c0,0.1,0.2,0.3,0.6,0.3
	c0.3,0,0.5,0.3,0.5,0.6C11.4,8.1,11.3,8.2,11.2,8.3z"/>
<path class="st4" d="M17.9,13.5c1.1-0.3,1.9,0.2,2,0.8c0.2,0.7-0.2,1.5-1.3,1.8c-0.4,0.1-0.6,0.3-0.5,0.4c0,0.1,0.2,0.2,0.7,0.1
	c1.1-0.3,1.9,0.2,2,0.8c0.2,0.7-0.2,1.5-1.3,1.8c-0.4,0.1-0.6,0.3-0.5,0.4c0,0.1,0.2,0.2,0.7,0.1c0.3-0.1,0.6,0.1,0.7,0.4
	c0.1,0.3-0.1,0.6-0.4,0.7c-1.1,0.3-1.9-0.2-2-0.8c-0.2-0.7,0.2-1.5,1.3-1.8c0.4-0.1,0.6-0.3,0.5-0.4c0-0.1-0.2-0.2-0.7-0.1
	c-1.1,0.3-1.9-0.2-2-0.8c-0.2-0.7,0.2-1.5,1.3-1.8c0.4-0.1,0.6-0.3,0.5-0.4c0-0.1-0.2-0.2-0.7-0.1c-0.3,0.1-0.6-0.1-0.7-0.4
	C17.4,13.9,17.6,13.6,17.9,13.5z"/>
<path class="st3" d="M13.6,12c-0.2,0-0.3-0.1-0.4-0.2C13,11.5,13,11.2,13.3,11c0.1-0.1,3-2.4,7.1-1.8c0.3,0,0.5,0.3,0.5,0.6
	c0,0.3-0.3,0.5-0.6,0.5c-3.6-0.5-6.2,1.6-6.2,1.6C13.9,11.9,13.7,12,13.6,12z"/>
<path class="st4" d="M4,9.6c-0.1,0-0.1,0-0.2,0C3.6,9.5,3.4,9.2,3.5,8.9C4.1,6.8,4.7,3.4,4,2.5C3.9,2.4,3.8,2.3,3.5,2.3
	C3,2.4,3.1,3.5,3.1,3.5c0,0.3-0.2,0.6-0.5,0.6C2.3,4.1,2,3.9,2,3.6C1.9,2.8,2.1,1.3,3.5,1.2c0.6,0,1.1,0.2,1.4,0.6
	c1.3,1.7,0,6.5-0.3,7.4C4.5,9.5,4.3,9.6,4,9.6z"/>
<path class="st5" d="M15,6.8c0.5,0,0.8-0.4,0.8-0.8c0-0.5-0.4-0.8-0.8-0.8c-0.5,0-0.8,0.4-0.8,0.8C14.2,6.4,14.6,6.8,15,6.8z"/>
<path class="st6" d="M2,11.9c0.6,0,1.1-0.5,1.1-1.1c0-0.6-0.5-1.1-1.1-1.1c-0.6,0-1.1,0.5-1.1,1.1C0.8,11.4,1.3,11.9,2,11.9z"/>
<path class="st5" d="M18.9,12.5c0.5,0,0.8-0.4,0.8-0.8s-0.4-0.8-0.8-0.8c-0.5,0-0.8,0.4-0.8,0.8S18.4,12.5,18.9,12.5z"/>
<path class="st5" d="M13.9,19.2c0.5,0,0.8-0.4,0.8-0.8c0-0.5-0.4-0.8-0.8-0.8c-0.5,0-0.8,0.4-0.8,0.8C13.1,18.9,13.4,19.2,13.9,19.2
	z"/>
<path class="st7" d="M16.4,4c0.6,0,1.1-0.5,1.1-1.1c0-0.6-0.5-1.1-1.1-1.1c-0.6,0-1.1,0.5-1.1,1.1C15.3,3.5,15.8,4,16.4,4z"/>
<path class="st7" d="M18.9,6.2c0.5,0,0.8-0.4,0.8-0.8c0-0.5-0.4-0.8-0.8-0.8c-0.5,0-0.8,0.4-0.8,0.8C18.1,5.9,18.4,6.2,18.9,6.2z"/>
<path class="st7" d="M17.2,8.5c0.5,0,0.8-0.4,0.8-0.8c0-0.5-0.4-0.8-0.8-0.8s-0.8,0.4-0.8,0.8C16.4,8.1,16.8,8.5,17.2,8.5z"/>
<path class="st7" d="M5,14.7c0.5,0,0.8-0.4,0.8-0.8C5.8,13.4,5.5,13,5,13c-0.5,0-0.8,0.4-0.8,0.8C4.2,14.3,4.6,14.7,5,14.7z"/>
</svg>
