<?xml version="1.0" encoding="utf-8"?>
<!-- Generator: Adobe Illustrator 24.0.0, SVG Export Plug-In . SVG Version: 6.00 Build 0)  -->
<svg version="1.1" id="Calque_1" xmlns="http://www.w3.org/2000/svg" xmlns:xlink="http://www.w3.org/1999/xlink" x="0px" y="0px"
	 viewBox="0 0 378.7 1427.2" style="enable-background:new 0 0 378.7 1427.2;" xml:space="preserve">
<style type="text/css">
	.st0{opacity:5.000000e-02;}
	.st1{fill:#FFB9A6;}
	.st2{fill:#222E54;}
	.st3{fill:#FFA126;}
	.st4{fill:#F2746D;}
	.st5{fill:#FFCB46;}
	.st6{fill:#FB8B68;}
	.st7{fill:#FFC968;}
	.st8{fill:#F9B285;}
	.st9{fill:#FF6332;}
</style>
<g class="st0">
	<g>
		<path class="st1" d="M128.2,217.3c4.8-20.5-7.9-41.1-28.4-46s-41.1,7.9-46,28.4c-4.8,20.5,7.9,41.1,28.4,46
			C102.8,250.5,123.4,237.8,128.2,217.3z"/>
		<path class="st2" d="M66.4,241.9c-12.6-0.1-25-1.9-37.1-5.4c-0.4-0.1-0.7-0.3-1-0.5c-0.3-0.3-0.6-0.6-0.8-0.9
			c-0.2-0.4-0.3-0.7-0.3-1.1c0-0.4,0-0.8,0.1-1.2s0.3-0.7,0.6-1c0.3-0.3,0.6-0.6,0.9-0.7c0.4-0.2,0.7-0.3,1.1-0.3s0.8,0,1.2,0.1
			c0.4,0.1,36.7,11.3,64.4,0.1c29.9-12.1,61.7,2,63,2.7c0.7,0.3,1.3,0.9,1.6,1.7c0.3,0.7,0.3,1.6-0.1,2.3c-0.3,0.7-0.9,1.3-1.7,1.6
			c-0.7,0.3-1.6,0.3-2.3-0.1c-0.3-0.1-30.8-13.6-58.2-2.5C87.6,240.5,76.5,241.9,66.4,241.9z"/>
		<path class="st2" d="M168,255.6c-0.5,0-1.1-0.1-1.5-0.4c-0.3-0.2-28.2-16.6-54.1-7c-28,10.3-61.5,4.3-62.9,4.1
			c-0.8-0.1-1.5-0.6-1.9-1.3c-0.5-0.7-0.6-1.5-0.5-2.2c0.1-0.8,0.6-1.5,1.3-1.9c0.7-0.5,1.5-0.6,2.2-0.5c0.3,0,33.2,5.9,59.7-3.8
			c28.6-10.5,58,6.8,59.3,7.5c0.6,0.3,1,0.9,1.2,1.5s0.3,1.3,0.1,1.9c-0.2,0.6-0.6,1.2-1.1,1.6C169.3,255.5,168.7,255.7,168,255.6
			L168,255.6z"/>
		<path class="st2" d="M92.7,223.6c-0.6,0-1.3-0.2-1.8-0.6c-0.5-0.4-0.9-0.9-1.1-1.5c-1.7-5.6-2.9-5.8-8.9-6.3
			c-6.7-0.4-13.4-2-19.6-4.6c-5.4-2.3-8.8-5.9-10.1-10.8c-3.2-12.1,8.4-27.3,8.9-27.9c0.5-0.6,1.2-1,2-1.1s1.6,0.1,2.2,0.6
			c0.6,0.5,1,1.2,1.1,2c0.1,0.8-0.1,1.6-0.6,2.2c-2.9,3.7-9.9,15.1-7.9,22.7c0.8,3,3,5.2,6.6,6.8c5.6,2.4,11.7,3.8,17.8,4.1
			c6.3,0.5,11.2,1,14.1,10.5c0.1,0.4,0.2,0.8,0.1,1.2c0,0.4-0.2,0.8-0.3,1.1c-0.2,0.3-0.4,0.7-0.7,0.9c-0.3,0.2-0.7,0.4-1,0.5
			C93.3,223.5,93,223.5,92.7,223.6z"/>
		<path class="st2" d="M57.6,236.9c-0.8,0-1.5-0.3-2.1-0.9c-0.6-0.6-0.9-1.3-0.9-2.1c-0.2-18.1,12.7-24.8,13.3-25.1
			c0.7-0.4,1.5-0.4,2.3-0.2s1.4,0.8,1.7,1.5c0.4,0.7,0.4,1.5,0.2,2.3c-0.2,0.8-0.8,1.4-1.5,1.7c-0.5,0.2-10.1,5.5-10,19.7
			c0,0.8-0.3,1.6-0.9,2.1C59.1,236.6,58.4,236.9,57.6,236.9L57.6,236.9z"/>
		<path class="st2" d="M85.7,196.5c0.7-4.5-2.3-8.8-6.9-9.5s-8.8,2.3-9.5,6.9c-0.7,4.5,2.3,8.8,6.9,9.5
			C80.7,204.1,85,201,85.7,196.5z"/>
		<path class="st2" d="M145.5,218.6c-0.6,0-1.3-0.2-1.8-0.6c-0.5-0.4-0.9-0.9-1.1-1.5c-1.7-5.6-2.9-5.8-8.9-6.3
			c-6.7-0.4-13.4-1.9-19.6-4.6c-5.4-2.3-8.8-5.9-10.2-10.8c-3.2-12.1,8.4-27.3,8.9-27.9c0.5-0.6,1.2-1,2-1.1s1.6,0.1,2.2,0.6
			s1,1.2,1.1,2s-0.1,1.6-0.6,2.2c-2.9,3.7-9.9,15.1-7.9,22.7c0.8,3,3,5.2,6.6,6.8c5.6,2.4,11.7,3.8,17.8,4.1
			c6.3,0.5,11.3,1,14.1,10.5c0.2,0.8,0.1,1.6-0.2,2.3c-0.4,0.7-1,1.2-1.8,1.5C146,218.6,145.8,218.6,145.5,218.6z"/>
		<path class="st2" d="M110.3,232c-0.8,0-1.6-0.3-2.1-0.9c-0.6-0.6-0.9-1.3-0.9-2.1c-0.2-18.1,12.7-24.8,13.3-25.1
			c0.4-0.2,0.7-0.3,1.1-0.3s0.8,0,1.2,0.1c0.4,0.1,0.7,0.3,1,0.6s0.5,0.6,0.7,0.9c0.2,0.3,0.3,0.7,0.3,1.1c0,0.4,0,0.8-0.1,1.2
			s-0.3,0.7-0.6,1c-0.3,0.3-0.6,0.5-0.9,0.7c-0.5,0.2-10.1,5.5-10,19.7c0,0.4-0.1,0.8-0.2,1.2s-0.4,0.7-0.6,1
			c-0.3,0.3-0.6,0.5-1,0.7C111.2,231.9,110.8,232,110.3,232L110.3,232z"/>
		<path class="st2" d="M130.3,198.6c4.6,0,8.3-3.7,8.3-8.3s-3.7-8.3-8.3-8.3s-8.3,3.7-8.3,8.3C122,194.8,125.7,198.6,130.3,198.6z"
			/>
		<path class="st3" d="M317.5,225.6c14.9-14.9,14.9-39.1,0-54s-39.1-14.9-54,0s-14.9,39.1,0,54S302.6,240.5,317.5,225.6z"/>
		<path class="st2" d="M311.7,232.5c-9.6,0-19.1-2.2-27.8-6.4c-25.9-12.7-48.9,4.7-49.2,4.9c-0.6,0.5-1.4,0.7-2.2,0.6
			c-0.8-0.1-1.5-0.5-2-1.1s-0.7-1.4-0.6-2.2s0.5-1.5,1.1-2c1.1-0.8,26.4-19.9,55.5-5.5c27.1,13.3,53.8,1,58.8-7
			c0.2-0.3,0.5-0.6,0.8-0.9c0.3-0.2,0.7-0.4,1.1-0.5s0.8-0.1,1.2,0c0.4,0.1,0.8,0.2,1.1,0.4c0.3,0.2,0.6,0.5,0.9,0.8
			c0.2,0.3,0.4,0.7,0.5,1.1c0.1,0.4,0.1,0.8,0,1.2s-0.2,0.8-0.4,1.1C345.8,224.5,330.2,232.5,311.7,232.5z"/>
		<path class="st2" d="M329.3,209.6c-0.5,0-1-0.1-1.4-0.4c-0.4-0.2-0.8-0.6-1.1-1c-1.6-2.2-3.8-3.9-6.4-4.7
			c-2.6-0.9-5.3-0.9-7.9-0.1c-12.6,3.6-27.7,6-46.1-12c-6.1-6-19.5,3.2-19.6,3.3c-0.7,0.5-1.5,0.6-2.2,0.5c-0.8-0.1-1.5-0.6-1.9-1.2
			s-0.6-1.5-0.5-2.2c0.1-0.8,0.6-1.5,1.2-1.9c0.7-0.5,17.5-12.1,27.3-2.7c16.1,15.7,28.3,13.9,40.3,10.5c3.8-1.2,7.9-1.1,11.7,0.2
			c3.8,1.3,7,3.8,9.3,7.1c0.3,0.5,0.5,1,0.5,1.5s-0.1,1.1-0.4,1.5c-0.3,0.5-0.6,0.9-1.1,1.1C330.4,209.5,329.9,209.7,329.3,209.6
			L329.3,209.6z"/>
		<path class="st2" d="M265.6,221.4c-0.6,0-1.3-0.2-1.8-0.6c-0.5-0.4-0.9-0.9-1.1-1.5s-0.2-1.3,0.1-1.9c0.2-0.6,0.6-1.1,1.2-1.5
			c11.9-7.7,16.5-16.8,16.6-16.9c0.2-0.4,0.4-0.7,0.7-0.9c0.3-0.3,0.6-0.5,1-0.6s0.8-0.2,1.2-0.2c0.4,0,0.8,0.1,1.1,0.3
			c0.4,0.2,0.7,0.4,0.9,0.7c0.3,0.3,0.5,0.6,0.6,1s0.2,0.8,0.2,1.2s-0.1,0.8-0.3,1.1c-0.2,0.4-5.3,10.7-18.7,19.3
			C266.7,221.3,266.2,221.4,265.6,221.4z"/>
		<path class="st2" d="M318.1,251.8c-8.6,0-17.5-2.6-26.5-8c-18.3-10.8-32.6-0.6-33.2-0.2c-0.3,0.2-0.7,0.4-1.1,0.5
			c-0.4,0.1-0.8,0.1-1.2,0.1s-0.8-0.2-1.1-0.4s-0.6-0.5-0.9-0.8c-0.2-0.3-0.4-0.7-0.5-1.1c-0.1-0.4-0.1-0.8-0.1-1.2
			c0.1-0.4,0.2-0.8,0.4-1.1s0.5-0.6,0.8-0.9c0.7-0.5,18.1-13.1,39.9-0.2c19.2,11.4,37.1,9.1,53.3-6.6c0.3-0.3,0.6-0.5,1-0.7
			s0.8-0.2,1.2-0.2c0.4,0,0.8,0.1,1.2,0.2c0.4,0.2,0.7,0.4,1,0.7s0.5,0.6,0.6,1s0.2,0.8,0.2,1.2s-0.1,0.8-0.3,1.2
			c-0.2,0.4-0.4,0.7-0.7,1C341.6,246.6,330.1,251.8,318.1,251.8z"/>
		<path class="st2" d="M294.5,194.3c6.8,0,12.3-5.5,12.3-12.3s-5.5-12.3-12.3-12.3s-12.3,5.5-12.3,12.3S287.7,194.3,294.5,194.3z"/>
		<path class="st4" d="M141.3,73.3c4.8-20.5-7.9-41.1-28.4-46c-20.5-4.8-41.1,7.9-46,28.4c-4.8,20.5,7.9,41.1,28.4,46
			C115.9,106.6,136.4,93.8,141.3,73.3z"/>
		<path class="st2" d="M60.1,74.5c-2.4,0-4.8-0.5-7-1.5s-4.2-2.4-5.8-4.3c-0.2-0.3-0.4-0.7-0.5-1c-0.1-0.4-0.1-0.8-0.1-1.2
			c0.1-0.8,0.5-1.5,1.1-2s1.4-0.7,2.2-0.6c0.8,0.1,1.5,0.5,2,1.1c0.7,0.8,6.8,7.7,19.2-0.6c4.1-3,8-6.2,11.6-9.8
			c8.8-8.1,17.8-16.4,26.9-15.1c4.7,0.6,8.8,3.8,12.2,9.3c0.4,0.7,0.5,1.5,0.3,2.2s-0.7,1.4-1.3,1.8c-0.7,0.4-1.4,0.5-2.2,0.4
			c-0.8-0.2-1.4-0.6-1.9-1.2c-2.5-4-5-6.1-7.9-6.5c-6.3-0.9-14.3,6.5-22,13.6c-3.9,3.7-8,7.2-12.4,10.3C69,73.3,64.1,74.5,60.1,74.5
			z"/>
		<path class="st2" d="M148.5,107.3c-0.3,0-0.5,0-0.8-0.1c-14.3-4-24.8-13.9-31-29.3C112.1,66.5,91.8,61.1,84.4,60
			c-0.4-0.1-0.8-0.2-1.1-0.4c-0.3-0.2-0.6-0.5-0.9-0.8c-0.2-0.3-0.4-0.7-0.5-1.1c-0.1-0.4-0.1-0.8-0.1-1.2c0.1-0.4,0.2-0.8,0.4-1.1
			c0.2-0.3,0.5-0.6,0.8-0.9c0.3-0.2,0.7-0.4,1.1-0.5s0.8-0.1,1.2-0.1c1.2,0.2,30.2,4.7,36.9,21.5c5.6,13.9,14.5,22.3,27.1,25.8
			c0.7,0.2,1.3,0.6,1.7,1.2s0.6,1.3,0.5,2.1c-0.1,0.7-0.5,1.4-1,1.9S149.3,107.3,148.5,107.3L148.5,107.3z"/>
		<path class="st2" d="M113.2,120.9c-0.6,0-1.2-0.2-1.7-0.5c-5.8-4-24.7-17.8-22.8-27.7c1.8-9.6,22.5-21.1,26.6-23.3
			c0.7-0.4,1.5-0.5,2.3-0.2c0.8,0.2,1.4,0.8,1.8,1.5c0.4,0.7,0.5,1.5,0.2,2.3c-0.2,0.8-0.8,1.4-1.5,1.8
			c-9.2,4.9-22.6,14.1-23.5,19.2c-0.8,4.1,9.9,14.5,20.3,21.7c0.5,0.4,0.9,0.9,1.2,1.5c0.2,0.6,0.2,1.3,0,1.9s-0.6,1.2-1.1,1.5
			C114.5,120.8,113.9,121,113.2,120.9L113.2,120.9z"/>
		<path class="st2" d="M83.5,45.1c1.4-6.1-2.3-12.2-8.4-13.7C69,30,62.9,33.7,61.4,39.8s2.3,12.2,8.4,13.7S82,51.2,83.5,45.1z"/>
		<path class="st5" d="M335.8,565.6c14.9-14.9,14.9-39.1,0-54c-14.9-14.9-39.1-14.9-54,0c-14.9,14.9-14.9,39.1,0,54
			C296.7,580.5,320.9,580.5,335.8,565.6z"/>
		<path class="st2" d="M323,571.7l-1.1-2.6c0,0-3.3-7.5-5.8-13.3c-0.4-0.9-1.7-1.7-3.1-2.5c-2.3-1.5-5.3-3.2-6-6.9
			c-0.7-3.5,0.8-7.7,4.8-13.4c0.2-0.3,0.5-0.6,0.9-0.8c0.3-0.2,0.7-0.4,1.1-0.4c0.4-0.1,0.8-0.1,1.2,0c0.4,0.1,0.7,0.3,1.1,0.5
			c0.3,0.2,0.6,0.5,0.8,0.9c0.2,0.3,0.3,0.7,0.4,1.1c0.1,0.4,0.1,0.8,0,1.2s-0.3,0.7-0.5,1.1c-3.8,5.3-4,7.7-3.8,8.7s1.4,1.9,3.3,3
			c1.9,1.2,4.3,2.6,5.4,5.3c1.6,3.7,3.5,8,4.7,10.7l8.4-3.1l-6.3-44.6c-13.8,2.1-20.3,11.7-26.5,21c-6.3,9.3-12.8,19-26.2,18.5
			c-22.4-0.8-28,8.4-28,8.4c-0.4,0.7-1.1,1.2-1.8,1.4c-0.8,0.2-1.6,0.1-2.3-0.3c-0.7-0.4-1.2-1-1.4-1.8s-0.1-1.6,0.2-2.3
			c0.3-0.5,7.1-12.4,33.5-11.5c10.2,0.3,15-6.8,21.1-15.9c7.1-10.6,15.1-22.6,33.8-24l2.8-0.2l7.8,55L323,571.7z"/>
		<path class="st2" d="M281.4,594.9c-0.5,0-1-0.1-1.4-0.4c-0.4-0.2-0.8-0.6-1.1-1c-0.3-0.4-0.4-0.9-0.5-1.4c0-0.5,0.1-1,0.3-1.5
			c8.3-17.4,11-26.8,4.6-33.1c-9.1-8.9-10.5-36.3-10.7-39.4c0-0.6,0.1-1.2,0.5-1.7c0.3-0.5,0.8-0.9,1.4-1.2c0.6-0.2,1.2-0.3,1.8-0.2
			s1.1,0.4,1.6,0.9c0.2,0.2,17.6,18.4,33.6,21.5c0.8,0.1,1.5,0.6,1.9,1.3c0.5,0.7,0.6,1.5,0.5,2.2c-0.1,0.8-0.6,1.5-1.3,1.9
			c-0.7,0.5-1.5,0.6-2.2,0.5c-12-2.3-24.1-11.6-31-17.8c1.1,9.6,3.5,23,8.2,27.6c10.6,10.4,3.2,26.1-3.4,40c-0.2,0.5-0.6,1-1.1,1.3
			C282.5,594.8,281.9,594.9,281.4,594.9z"/>
		<path class="st2" d="M275.6,511.6c6.3,0,11.4-5.1,11.4-11.4s-5.1-11.4-11.4-11.4s-11.4,5.1-11.4,11.4S269.3,511.6,275.6,511.6z"/>
		<path class="st1" d="M128.6,545.7c14.9-14.9,14.9-39.1,0-54c-14.9-14.9-39.1-14.9-54,0s-14.9,39.1,0,54
			C89.5,560.7,113.7,560.7,128.6,545.7z"/>
		<path class="st2" d="M101.1,544.6c-11.5,0-20.7-3.4-27.3-10.1c-10.7-10.9-10.6-26.5-10.6-27.2c0-0.8,0.4-1.5,0.9-2.1
			c0.6-0.5,1.3-0.9,2.1-0.9s1.6,0.3,2.1,0.9c0.6,0.6,0.9,1.3,0.8,2.1c0,0.2-0.1,13.8,8.9,22.9c5.5,5.5,13.2,8.3,23.1,8.3
			s17.2-2.8,22.1-8.2c8.2-9,7-22.7,7-22.8c-0.1-0.8,0.2-1.6,0.7-2.2s1.2-1,2-1.1c0.8-0.1,1.6,0.2,2.2,0.7s1,1.2,1.1,2
			c0.1,0.7,1.5,16.4-8.4,27.4C121.6,541.2,112.7,544.6,101.1,544.6z"/>
		<path class="st2" d="M91.2,600.3c-0.8,0-1.5-0.3-2.1-0.8s-0.9-1.3-0.9-2.1c-0.5-17.6,6.7-25.7,10-28.4v-27.5
			c0-0.8,0.3-1.6,0.9-2.1c0.6-0.6,1.3-0.9,2.1-0.9c0.8,0,1.6,0.3,2.1,0.9c0.6,0.6,0.9,1.3,0.9,2.1v30.7l-1.5,0.9
			c-0.3,0.2-9,5.8-8.5,24.2c0,0.4-0.1,0.8-0.2,1.2s-0.4,0.7-0.6,1c-0.3,0.3-0.6,0.5-1,0.7C92,600.3,91.6,600.4,91.2,600.3
			L91.2,600.3z"/>
		<path class="st2" d="M111.1,600.3c-0.4,0-0.8-0.1-1.1-0.2s-0.7-0.4-1-0.7s-0.5-0.6-0.7-1s-0.2-0.8-0.2-1.1
			c0-21.5-7.6-23.8-7.7-23.9c-0.4-0.1-0.8-0.2-1.1-0.4c-0.3-0.2-0.6-0.5-0.8-0.8c-0.2-0.3-0.4-0.7-0.4-1.1c-0.1-0.4-0.1-0.8,0-1.2
			c0.2-0.8,0.6-1.5,1.3-1.9c0.7-0.4,1.5-0.6,2.3-0.5c1.3,0.2,12.4,3.1,12.4,29.7c0,0.8-0.3,1.5-0.9,2.1
			C112.6,600,111.9,600.3,111.1,600.3z"/>
		<path class="st2" d="M56,521.9c-0.8,0-1.6-0.3-2.1-0.9c-0.6-0.6-0.9-1.3-0.9-2.1v-32.4c0-0.8,0.3-1.6,0.9-2.1
			c0.6-0.6,1.3-0.9,2.1-0.9s1.6,0.3,2.1,0.9c0.6,0.6,0.9,1.3,0.9,2.1v32.4c0,0.8-0.3,1.6-0.9,2.1C57.5,521.5,56.7,521.8,56,521.9z"
			/>
		<path class="st2" d="M45.4,518.7c-0.8,0-1.6-0.3-2.1-0.9c-0.6-0.6-0.9-1.3-0.9-2.1v-26.1c0-0.8,0.3-1.6,0.9-2.1
			c0.6-0.6,1.3-0.9,2.1-0.9s1.6,0.3,2.1,0.9c0.6,0.6,0.9,1.3,0.9,2.1v26.2c0,0.8-0.3,1.5-0.9,2.1C46.9,518.4,46.2,518.7,45.4,518.7z
			"/>
		<path class="st2" d="M142.2,521.9c-0.8,0-1.6-0.3-2.1-0.9c-0.6-0.6-0.9-1.3-0.9-2.1v-32.4c0-0.4,0-0.8,0.2-1.2
			c0.1-0.4,0.4-0.7,0.6-1c0.3-0.3,0.6-0.5,1-0.7s0.8-0.2,1.2-0.2s0.8,0.1,1.2,0.2s0.7,0.4,1,0.7c0.3,0.3,0.5,0.7,0.6,1
			c0.1,0.4,0.2,0.8,0.2,1.2v32.4c0,0.8-0.3,1.6-0.9,2.1C143.8,521.5,143,521.8,142.2,521.9z"/>
		<path class="st2" d="M152.8,518.7c-0.8,0-1.6-0.3-2.1-0.9c-0.6-0.6-0.9-1.3-0.9-2.1v-26.1c0-0.8,0.4-1.5,0.9-2
			c0.6-0.5,1.3-0.8,2.1-0.8s1.5,0.3,2.1,0.8s0.9,1.2,0.9,2v26.2c0,0.8-0.3,1.5-0.9,2.1C154.4,518.4,153.6,518.7,152.8,518.7z"/>
		<path class="st2" d="M152.8,505.6H45.4c-0.8,0-1.6-0.3-2.1-0.9c-0.6-0.6-0.9-1.3-0.9-2.1c0-0.8,0.3-1.6,0.9-2.1
			c0.6-0.6,1.3-0.9,2.1-0.9h107.5c0.8,0,1.6,0.3,2.1,0.9c0.6,0.6,0.9,1.3,0.9,2.1c0,0.8-0.3,1.6-0.9,2.1
			C154.4,505.3,153.6,505.6,152.8,505.6z"/>
		<path class="st2" d="M101.1,534.2c6.2,0,11.2-5,11.2-11.2s-5-11.2-11.2-11.2s-11.2,5-11.2,11.2S94.9,534.2,101.1,534.2z"/>
		<path class="st6" d="M149.5,705.6c4.8-20.5-7.9-41.1-28.4-46c-20.5-4.8-41.1,7.9-46,28.4c-4.8,20.5,7.9,41.1,28.4,46
			C124.1,738.8,144.7,726.1,149.5,705.6z"/>
		<path class="st2" d="M70.7,710.1c-9.3,0-21.5-4.5-26.1-6.3c-0.8-0.3-1.5-1-1.9-1.8s-0.4-1.8,0-2.6c0.3-0.8,1-1.5,1.8-1.9
			s1.8-0.4,2.6,0c12.7,5.1,26.1,7.4,28.1,5c1.4-1.7,3.3-5.6,5.4-9.7c5.6-11.1,12.5-25,22.6-26.6c13.4-2.1,26.7,9.2,27.2,9.7
			c0.7,0.6,1.1,1.4,1.2,2.3c0.1,0.9-0.2,1.8-0.8,2.5s-1.4,1.1-2.3,1.2c-0.9,0.1-1.8-0.2-2.5-0.8c-0.1-0.1-11.4-9.7-21.7-8.1
			c-6.6,1-13.2,14.2-17.6,22.9c-2.3,4.6-4.3,8.6-6.2,11S74.8,710.1,70.7,710.1z"/>
		<path class="st2" d="M97.6,763.9c-0.5,0-0.9-0.1-1.4-0.3c-0.4-0.2-0.8-0.5-1.2-0.8c-1.5-1.7-14.9-17.1-15.3-28.6
			c-0.2-7.3,8.7-9.7,18.2-12.3c11.7-3.2,19.8-6,18.6-12.2c-3.1-14.9-28.7-21.3-28.9-21.4c-0.8-0.2-1.5-0.8-2-1.6
			c-0.4-0.8-0.6-1.6-0.4-2.5c0.2-0.8,0.7-1.6,1.5-2.1c0.7-0.5,1.6-0.6,2.5-0.5c1.2,0.3,30.1,7.4,34.1,26.6
			c2.6,12.9-12.4,17-23.4,20.1c-4.3,1.2-13.2,3.6-13.2,5.5c0.3,7.7,9.9,20.1,13.6,24.3c0.6,0.7,0.9,1.6,0.8,2.5s-0.5,1.7-1.1,2.3
			C99.3,763.6,98.5,763.9,97.6,763.9z"/>
		<path class="st2" d="M154.8,748c-0.2,0-0.4,0-0.6,0c-25.3-4.9-37-36.5-37.5-37.8c-0.2-0.4-0.2-0.9-0.2-1.3c0-0.4,0.1-0.9,0.3-1.3
			c0.2-0.4,0.5-0.8,0.8-1.1s0.7-0.5,1.1-0.7s0.9-0.2,1.3-0.2s0.9,0.1,1.3,0.3s0.8,0.5,1.1,0.8c0.3,0.3,0.5,0.7,0.7,1.1
			c0.1,0.3,11,29.3,32.4,33.4c0.8,0.2,1.6,0.6,2.1,1.3s0.8,1.5,0.7,2.4c-0.1,0.8-0.5,1.6-1.1,2.2C156.4,747.8,155.6,748.1,154.8,748
			L154.8,748z"/>
		<path class="st2" d="M69.7,689.2c7,0,12.7-5.7,12.7-12.7s-5.7-12.7-12.7-12.7S57,669.5,57,676.5C57.1,683.6,62.7,689.2,69.7,689.2
			z"/>
		<path class="st4" d="M315.2,695.6c14.9-14.9,14.9-39.1,0-54s-39.1-14.9-54,0s-14.9,39.1,0,54S300.3,710.5,315.2,695.6z"/>
		<path class="st2" d="M299.8,702.2c-4.3-0.1-8.6-1.3-12.4-3.3c-24.4-12.1-26.5-52.7-26.6-54.5c0-0.4,0-0.8,0.2-1.2
			c0.1-0.4,0.3-0.7,0.6-1s0.6-0.5,0.9-0.7c0.4-0.2,0.7-0.3,1.1-0.3s0.8,0,1.2,0.2c0.4,0.1,0.7,0.3,1,0.6s0.5,0.6,0.7,0.9
			c0.2,0.4,0.3,0.7,0.3,1.1c0,0.4,2.1,38.9,23.3,49.4c7.3,3.6,13.3,3.6,16.8-0.2c4.8-5.2,4.6-16-0.5-24.6c-0.2-0.3-0.3-0.7-0.4-1.1
			c-0.1-0.4,0-0.8,0.1-1.2s0.3-0.7,0.5-1.1c0.2-0.3,0.5-0.6,0.9-0.8c0.3-0.2,0.7-0.3,1.1-0.4c0.4-0.1,0.8,0,1.2,0.1
			c0.4,0.1,0.7,0.3,1.1,0.5c0.3,0.2,0.6,0.5,0.8,0.9c6.5,11,6.4,24.6-0.2,31.8c-1.5,1.6-3.2,2.8-5.2,3.6
			C304,701.9,301.9,702.3,299.8,702.2z"/>
		<path class="st2" d="M291.3,769.2c-0.7,0-1.3-0.2-1.9-0.7c-0.9-0.8-23.1-18.8-25.7-42.5c-2.7-24.3,15.8-36.6,16.5-37.1
			c0.7-0.4,1.5-0.6,2.3-0.4c0.8,0.2,1.5,0.6,1.9,1.3s0.6,1.5,0.4,2.3s-0.6,1.5-1.3,1.9c-4.9,3.5-8.8,8.3-11.2,13.8
			c-2.4,5.5-3.4,11.6-2.7,17.6c2.3,21.3,23.3,38.3,23.5,38.5c0.5,0.4,0.8,0.9,1,1.5s0.2,1.2-0.1,1.8c-0.2,0.6-0.6,1.1-1.1,1.5
			C292.5,768.9,291.9,769.1,291.3,769.2L291.3,769.2z"/>
		<path class="st2" d="M298,742.7h-1c-16.9-0.7-32.1-24.1-32.8-25.1c-0.4-0.7-0.6-1.5-0.4-2.3s0.6-1.5,1.3-1.9
			c0.7-0.4,1.5-0.6,2.3-0.4c0.8,0.2,1.5,0.6,1.9,1.3c0.1,0.2,14.2,21.8,28,22.3c13.1,0.5,18.9-14.3,19.2-14.9
			c0.3-0.7,0.9-1.3,1.6-1.6s1.5-0.3,2.2,0s1.3,0.8,1.6,1.5c0.3,0.7,0.4,1.5,0.2,2.2C321.8,724.7,314.8,742.7,298,742.7z"/>
		<path class="st2" d="M300.9,686.7c4.4-4.4,4.4-11.5,0-15.8c-4.4-4.4-11.5-4.4-15.8,0c-4.4,4.4-4.4,11.5,0,15.8
			C289.5,691.1,296.5,691.1,300.9,686.7z"/>
		<path class="st2" d="M284.7,658.6c-2.3,0-4.5-0.7-6.3-1.9c-1.9-1.3-3.3-3-4.2-5.1s-1.1-4.4-0.6-6.6c0.4-2.2,1.5-4.2,3.1-5.8
			s3.6-2.7,5.8-3.1c2.2-0.4,4.5-0.2,6.6,0.6c2.1,0.9,3.9,2.3,5.1,4.2c1.3,1.9,1.9,4.1,1.9,6.3c0,3-1.2,5.9-3.3,8.1
			C290.6,657.4,287.7,658.6,284.7,658.6z M284.7,641.8c-1.1,0-2.1,0.3-3,0.9s-1.6,1.4-2,2.4s-0.5,2.1-0.3,3.1s0.7,2,1.5,2.8
			s1.7,1.3,2.8,1.5c1,0.2,2.1,0.1,3.1-0.3c1-0.4,1.8-1.1,2.4-2s0.9-1.9,0.9-3c0-1.4-0.6-2.8-1.6-3.8S286.1,641.8,284.7,641.8z"/>
		<path class="st4" d="M112.7,431.5c19.5-8.1,28.8-30.4,20.7-49.9s-30.4-28.8-49.9-20.7C64,369,54.7,391.3,62.8,410.8
			C70.8,430.3,93.2,439.6,112.7,431.5z"/>
		<path class="st2" d="M95.8,422.8c-0.8,0-1.5-0.3-2-0.8c-0.6-0.5-0.9-1.2-1-2c-0.5-6.2-1.9-26.9,1.8-31.9
			c3.2-4.4,12.8-17.6,10.3-27.1c-0.8-3.2-10.1-1.9-16.9-1c-9.9,1.3-19.2,2.6-22.4-3.7c-4.8-9.5-7.3-31.6-7.4-32.6
			c0-0.4,0-0.8,0.1-1.2c0.1-0.4,0.3-0.7,0.5-1s0.6-0.6,0.9-0.8c0.3-0.2,0.7-0.3,1.1-0.4c0.4,0,0.8,0,1.2,0.1s0.7,0.3,1,0.5
			s0.6,0.6,0.8,0.9c0.2,0.3,0.3,0.7,0.4,1.1c0,0.2,2.5,22,6.8,30.5c1.2,2.5,10.2,1.2,16.2,0.4c10-1.4,21.3-2.9,23.5,5.4
			c3.3,12.3-7.6,27.2-11.2,32.1c-1.7,2.4-1.7,16.3-0.7,28c0.1,0.8-0.2,1.6-0.7,2.2s-1.2,1-2,1L95.8,422.8z"/>
		<path class="st2" d="M107.9,363.2c-0.5,0-1-0.1-1.5-0.4s-0.8-0.6-1.1-1.1c-0.3-0.4-0.4-0.9-0.4-1.5c0-0.5,0.1-1,0.3-1.5
			c0.1-0.2,6.8-14.3-0.2-38.3c-0.1-0.4-0.1-0.8-0.1-1.2c0-0.4,0.2-0.8,0.4-1.1c0.2-0.3,0.4-0.6,0.8-0.9c0.3-0.2,0.7-0.4,1-0.5
			c0.8-0.2,1.6-0.1,2.3,0.3c0.3,0.2,0.6,0.4,0.9,0.8c0.2,0.3,0.4,0.7,0.5,1c7.7,26.6,0.1,42-0.2,42.7c-0.2,0.5-0.6,0.9-1.1,1.2
			C109,363.1,108.4,363.2,107.9,363.2z"/>
		<path class="st2" d="M111.2,422.8c-0.5,0-1-0.1-1.5-0.4s-0.8-0.6-1.1-1.1l-15.4-26.4c-0.2-0.3-0.4-0.7-0.5-1.1s-0.1-0.8,0-1.2
			c0.1-0.4,0.3-0.8,0.5-1.1c0.2-0.3,0.6-0.6,0.9-0.8c0.4-0.2,0.7-0.3,1.2-0.4c0.4,0,0.8,0,1.2,0.1c0.4,0.1,0.8,0.3,1.1,0.6
			c0.3,0.3,0.6,0.6,0.8,1l15.3,26.4c0.2,0.3,0.3,0.7,0.4,1.1s0,0.8-0.1,1.2c-0.1,0.4-0.3,0.7-0.5,1s-0.5,0.6-0.9,0.8
			C112.2,422.6,111.7,422.8,111.2,422.8z"/>
		<path class="st2" d="M80.9,398.8c5.4,0,9.8-4.4,9.8-9.8s-4.4-9.8-9.8-9.8s-9.8,4.4-9.8,9.8S75.5,398.8,80.9,398.8z"/>
		<path class="st2" d="M155.1,427h-112c-0.7-0.1-1.4-0.5-1.9-1c-0.5-0.6-0.7-1.3-0.7-2s0.3-1.4,0.7-2c0.5-0.6,1.1-0.9,1.9-1h112.1
			c0.7,0.1,1.4,0.5,1.9,1c0.5,0.6,0.7,1.3,0.7,2s-0.3,1.4-0.7,2C156.5,426.6,155.9,426.9,155.1,427z"/>
		<path class="st6" d="M319.3,399.2c4.8-20.5-7.9-41.1-28.4-46c-20.5-4.8-41.1,7.9-46,28.4c-4.8,20.5,7.9,41.1,28.4,46
			C293.9,432.4,314.5,419.7,319.3,399.2z"/>
		<path class="st2" d="M303.7,378.8c-0.6,0-1.2-0.2-1.7-0.5s-0.9-0.8-1.1-1.3s-0.3-1.1-0.2-1.7c0.1-0.6,0.4-1.1,0.8-1.5
			c0.1-0.1,11.5-12.1,5.9-19.9c-4.7-6.6-9-5.6-26.2-0.2c-2.5,0.8-5.2,1.6-8.2,2.6c-7.4,2.2-13.1,1.6-16.9-2
			c-7.1-6.6-4.3-20.3-3.9-21.9c0.2-0.8,0.7-1.5,1.3-1.9c0.3-0.2,0.7-0.4,1.1-0.4c0.4-0.1,0.8-0.1,1.2,0s0.7,0.2,1.1,0.5
			c0.3,0.2,0.6,0.5,0.8,0.8c0.2,0.3,0.4,0.7,0.4,1.1c0.1,0.4,0.1,0.8,0,1.2c-0.7,3.3-1.8,12.5,2.2,16.2c2.2,2,5.9,2.2,11.1,0.6
			c3-0.9,5.7-1.8,8.2-2.5c17-5.4,25.5-8,33,2.4c8.4,11.9-5.9,26.9-6.5,27.5c-0.3,0.3-0.6,0.5-1,0.7
			C304.5,378.7,304.1,378.8,303.7,378.8z"/>
		<path class="st2" d="M256.4,422c-0.7,0-1.3-0.2-1.8-0.6s-0.9-1-1.1-1.6c-1.3-4.7-4.3-21.2,13.7-38.7c8.8-8.5,14.3-19.9,15.4-32
			c0-0.4,0.1-0.8,0.3-1.1c0.2-0.4,0.4-0.7,0.7-1c0.3-0.3,0.6-0.5,1-0.6s0.8-0.2,1.2-0.2c0.4,0,0.8,0.1,1.1,0.3
			c0.4,0.2,0.7,0.4,1,0.7c0.3,0.3,0.5,0.6,0.6,1s0.2,0.8,0.2,1.2c-1.2,13.7-7.3,26.6-17.2,36.1c-15.6,15.2-13.2,28.9-12.1,32.7
			c0.1,0.4,0.1,0.8,0.1,1.2c0,0.4-0.2,0.8-0.4,1.1c-0.2,0.3-0.5,0.7-0.8,0.9c-0.3,0.2-0.7,0.4-1.1,0.5
			C256.9,422,256.7,422,256.4,422z"/>
		<path class="st2" d="M305.8,401.8c-16.6,0-33.8-20.2-34.6-21.1c-0.5-0.6-0.7-1.4-0.6-2.2c0.1-0.8,0.5-1.5,1.1-2s1.4-0.8,2.1-0.7
			c0.8,0.1,1.5,0.4,2,1c0.2,0.2,17.4,20.4,31.4,18.9c13.4-1.4,18.5-24,18.6-24.2c0.2-0.8,0.6-1.5,1.3-1.9c0.7-0.4,1.5-0.6,2.3-0.4
			s1.5,0.6,1.9,1.3c0.4,0.7,0.6,1.5,0.4,2.3c-0.2,1.1-6.1,27.1-23.8,28.9C307.1,401.7,306.4,401.8,305.8,401.8z"/>
		<path class="st2" d="M291.5,333.1c0,2.2-0.7,4.4-1.9,6.3c-1.2,1.9-3,3.3-5.1,4.2c-2.1,0.9-4.4,1.1-6.6,0.6
			c-2.2-0.4-4.2-1.5-5.8-3.1c-1.6-1.6-2.7-3.6-3.1-5.8c-0.4-2.2-0.2-4.5,0.6-6.6c0.9-2.1,2.3-3.8,4.2-5.1c1.9-1.2,4.1-1.9,6.3-1.9
			c3,0,5.9,1.2,8,3.3C290.3,327.2,291.5,330,291.5,333.1z"/>
		<path class="st2" d="M278.3,420.8c-2.1,0-4.2-0.6-5.9-1.8c-1.8-1.2-3.1-2.8-3.9-4.8s-1-4.1-0.6-6.2s1.4-4,2.9-5.5s3.4-2.5,5.5-2.9
			s4.2-0.2,6.2,0.6c2,0.8,3.6,2.2,4.8,3.9c1.2,1.8,1.8,3.8,1.8,5.9c0,2.8-1.1,5.5-3.1,7.5C283.8,419.7,281.1,420.8,278.3,420.8z
			 M278.3,405.4c-0.9,0-1.8,0.3-2.6,0.8c-0.8,0.5-1.4,1.2-1.7,2.1c-0.4,0.9-0.4,1.8-0.3,2.7c0.2,0.9,0.6,1.7,1.3,2.4
			c0.7,0.7,1.5,1.1,2.4,1.3c0.9,0.2,1.8,0.1,2.7-0.3c0.9-0.4,1.6-1,2.1-1.7s0.8-1.7,0.8-2.6c0-1.2-0.5-2.4-1.4-3.3
			C280.7,406,279.5,405.5,278.3,405.4L278.3,405.4z"/>
		<path class="st7" d="M328.7,101.9c4.8-20.5-7.9-41.1-28.4-46c-20.5-4.8-41.1,7.9-46,28.4c-4.8,20.5,7.9,41.1,28.4,46
			C303.3,135.1,323.8,122.4,328.7,101.9z"/>
		<path class="st2" d="M291.5,83.7c-34.4,0-58-13.4-58.4-13.6c-0.7-0.4-1.2-1.1-1.4-1.8c-0.2-0.8-0.1-1.6,0.3-2.3
			c0.4-0.7,1.1-1.2,1.8-1.4c0.8-0.2,1.6-0.1,2.3,0.3c0.5,0.3,51,28.7,111-0.1c0.4-0.2,0.8-0.3,1.2-0.4c0.4,0,0.8,0,1.2,0.1
			c0.4,0.1,0.8,0.3,1.1,0.6c0.3,0.3,0.6,0.6,0.7,1c0.2,0.4,0.3,0.8,0.3,1.2s-0.1,0.8-0.2,1.2s-0.4,0.7-0.7,1c-0.3,0.3-0.6,0.5-1,0.7
			C331.5,79.1,311.6,83.7,291.5,83.7z"/>
		<path class="st2" d="M288.1,54.9c-23.2,0-36.9-9.2-37.8-9.8c-0.6-0.5-1-1.2-1.1-1.9c-0.1-0.8,0.1-1.5,0.5-2.2
			c0.4-0.6,1.1-1.1,1.8-1.2c0.7-0.1,1.5,0,2.2,0.4c0.3,0.2,29.3,19.5,74.3-0.3c0.4-0.2,0.8-0.3,1.2-0.3c0.4,0,0.8,0.1,1.2,0.2
			c0.4,0.1,0.7,0.4,1,0.6c0.3,0.3,0.5,0.6,0.7,1c0.2,0.4,0.2,0.8,0.3,1.2c0,0.4-0.1,0.8-0.2,1.2s-0.4,0.7-0.7,1
			c-0.3,0.3-0.6,0.5-1,0.7C314.2,52.5,299.9,54.9,288.1,54.9z"/>
		<path class="st2" d="M291.5,82.5c-0.4,0-0.8-0.1-1.1-0.2c-0.4-0.2-0.7-0.4-1-0.7c-0.3-0.3-0.5-0.6-0.7-1c-0.1-0.4-0.2-0.8-0.2-1.1
			V51.8c0-0.4,0-0.8,0.2-1.2c0.1-0.4,0.4-0.7,0.6-1c0.3-0.3,0.6-0.5,1-0.7s0.8-0.2,1.2-0.2c0.4,0,0.8,0.1,1.2,0.2
			c0.4,0.2,0.7,0.4,1,0.7s0.5,0.7,0.6,1c0.1,0.4,0.2,0.8,0.2,1.2v27.8c0,0.8-0.3,1.6-0.9,2.1C293.1,82.2,292.3,82.5,291.5,82.5z"/>
		<path class="st2" d="M290.7,44.4c6.3,0,11.4-5.1,11.4-11.4s-5.1-11.4-11.4-11.4s-11.4,5.1-11.4,11.4
			C279.3,39.3,284.4,44.4,290.7,44.4z"/>
		<path class="st2" d="M355.1,112.5H228c-0.8,0-1.5-0.4-2-0.9c-0.5-0.6-0.8-1.3-0.8-2.1s0.3-1.5,0.8-2.1s1.2-0.9,2-0.9h127.1
			c0.4,0,0.8,0,1.2,0.2c0.4,0.1,0.7,0.4,1,0.6c0.3,0.3,0.5,0.6,0.7,1s0.2,0.8,0.2,1.2s-0.1,0.8-0.2,1.2c-0.2,0.4-0.4,0.7-0.7,1
			c-0.3,0.3-0.7,0.5-1,0.6S355.5,112.5,355.1,112.5z"/>
		<path class="st2" d="M228,130.3c-0.8,0-1.6-0.3-2.1-0.9c-0.6-0.6-0.9-1.3-0.9-2.1v-17.8c0-0.4,0-0.8,0.2-1.2
			c0.1-0.4,0.4-0.7,0.6-1c0.3-0.3,0.6-0.5,1-0.7s0.8-0.2,1.2-0.2s0.8,0.1,1.2,0.2c0.4,0.2,0.7,0.4,1,0.7c0.3,0.3,0.5,0.7,0.6,1
			c0.1,0.4,0.2,0.8,0.2,1.2v17.9c0,0.4-0.1,0.8-0.2,1.2c-0.2,0.4-0.4,0.7-0.7,1s-0.6,0.5-1,0.7C228.8,130.3,228.4,130.3,228,130.3z"
			/>
		<path class="st2" d="M355.1,130.3c-0.4,0-0.8-0.1-1.1-0.2c-0.4-0.2-0.7-0.4-1-0.7s-0.5-0.6-0.6-1c-0.2-0.4-0.2-0.8-0.2-1.1v-17.8
			c0-0.4,0-0.8,0.2-1.2c0.1-0.4,0.4-0.7,0.6-1c0.3-0.3,0.6-0.5,1-0.7s0.8-0.2,1.2-0.2c0.4,0,0.8,0.1,1.2,0.2c0.4,0.2,0.7,0.4,1,0.7
			c0.3,0.3,0.5,0.7,0.6,1c0.1,0.4,0.2,0.8,0.2,1.2v17.9c0,0.4-0.1,0.8-0.2,1.2s-0.4,0.7-0.7,1c-0.3,0.3-0.6,0.5-1,0.7
			S355.5,130.3,355.1,130.3z"/>
		<path class="st8" d="M109.6,1043.4c19.5-8.1,28.8-30.4,20.7-49.9s-30.4-28.8-49.9-20.7s-28.8,30.4-20.7,49.9
			C67.7,1042.3,90.1,1051.5,109.6,1043.4z"/>
		<path class="st2" d="M89.2,1048.6c-0.6-0.4-1-0.9-1.3-1.6c-8.3-25.3,6.1-34.2,16.6-40.7c4.7-2.9,9.1-5.7,10.9-9.2
			c2.2-4.2,1.5-8.2-1.9-10.6c-2-1.4-4.4-1.9-6.8-1.6c-2.4,0.3-4.6,1.5-6.2,3.3c-9.9,10.4-25.7,18.1-26.4,18.5
			c-0.7,0.3-1.5,0.4-2.3,0.1c-0.8-0.3-1.4-0.8-1.7-1.5s-0.4-1.5-0.1-2.3s0.8-1.4,1.5-1.7c0.2-0.1,15.5-7.6,24.7-17.2
			c2.6-2.9,6.1-4.7,10-5.1c3.8-0.4,7.7,0.5,10.9,2.7c5.8,4.2,7.3,11.3,3.7,18.2c-2.6,5-7.7,8.2-13.1,11.5c-10.7,6.7-20.9,13-14,33.7
			c0.2,0.8,0.2,1.6-0.2,2.3c-0.4,0.7-1,1.3-1.7,1.5c-0.4,0.1-0.9,0.2-1.3,0.1C90,1049,89.6,1048.9,89.2,1048.6z"/>
		<path class="st2" d="M41.3,1057.5c-3.8-2.4-6.7-5.8-8.6-9.9c-1.8-4.1-2.4-8.6-1.6-13c0.7-4.4,2.8-8.5,5.8-11.7
			c3.1-3.2,7-5.5,11.3-6.5s8.9-0.7,13,0.9c4.2,1.6,7.8,4.4,10.3,8c2.6,3.6,4,7.9,4.2,12.4c0.1,4.4-1.1,8.8-3.4,12.6
			c-3.2,5.1-8.2,8.7-14.1,10C52.4,1061.7,46.3,1060.7,41.3,1057.5z M62,1024.4c-2.8-1.7-6-2.6-9.2-2.5c-3.3,0.1-6.4,1.2-9.1,3.1
			s-4.7,4.5-5.8,7.6c-1.2,3-1.4,6.4-0.7,9.5c0.7,3.2,2.4,6.1,4.7,8.3c2.4,2.2,5.3,3.7,8.6,4.3c3.2,0.6,6.5,0.1,9.5-1.2
			c3-1.3,5.5-3.5,7.2-6.3c2.3-3.7,3.1-8.2,2.1-12.5C68.3,1030.5,65.7,1026.8,62,1024.4z"/>
		<path class="st2" d="M117.6,1056.5c-3.8-2.4-6.8-5.8-8.6-9.9c-1.8-4.1-2.4-8.6-1.7-13c0.7-4.4,2.8-8.5,5.8-11.7
			c3-3.2,7-5.5,11.3-6.5s8.9-0.7,13,0.9c4.2,1.6,7.8,4.4,10.3,8c2.6,3.6,4,7.9,4.2,12.4c0.1,4.5-1.1,8.9-3.4,12.6
			c-3.2,5.1-8.2,8.6-14.1,10C128.8,1060.7,122.7,1059.7,117.6,1056.5z M138.3,1023.4c-2.8-1.7-6-2.6-9.2-2.5c-3.3,0.1-6.4,1.2-9.1,3
			c-2.7,1.9-4.7,4.5-5.8,7.6c-1.2,3-1.4,6.4-0.7,9.5c0.7,3.2,2.4,6.1,4.7,8.3c2.4,2.2,5.3,3.7,8.6,4.3c3.2,0.5,6.5,0.1,9.5-1.2
			c3-1.3,5.5-3.5,7.2-6.3c1.2-1.8,1.9-3.9,2.3-6s0.3-4.3-0.2-6.4s-1.4-4.1-2.6-5.9C141.8,1026.1,140.2,1024.6,138.3,1023.4z"/>
		<path class="st2" d="M101.5,971c-1.3,2.1-3.2,3.7-5.4,4.7c-2.2,1-4.7,1.3-7.1,0.9c-2.4-0.4-4.6-1.5-6.4-3.2s-3-3.8-3.5-6.2
			s-0.4-4.9,0.5-7.1c0.9-2.3,2.4-4.2,4.4-5.6c2-1.4,4.3-2.2,6.8-2.3c2.4-0.1,4.8,0.6,6.9,1.9c2.8,1.7,4.7,4.5,5.4,7.7
			C103.8,964.9,103.2,968.3,101.5,971z"/>
		<path class="st9" d="M89.4,1189.6c21.1,0,38.2-17.1,38.2-38.2s-17.1-38.2-38.2-38.2s-38.2,17.1-38.2,38.2
			C51.2,1172.5,68.3,1189.6,89.4,1189.6z"/>
		<path class="st2" d="M149,1157.5c-0.6,0-1.1-0.2-1.6-0.5s-0.9-0.8-1.1-1.3c-3.5-6.6-8.6-12.3-14.8-16.4c-6.1-4-10-0.9-17,5.3
			c-2,1.8-4.1,3.7-6.4,5.4c-10,7.3-36.1,5.5-39.1,5.3c-0.4,0-0.8-0.1-1.1-0.3c-0.4-0.2-0.7-0.4-0.9-0.7c-0.3-0.3-0.5-0.6-0.6-1
			s-0.2-0.8-0.1-1.2c0-0.4,0.1-0.8,0.3-1.1c0.2-0.4,0.4-0.7,0.7-0.9c0.3-0.3,0.6-0.4,1-0.6c0.4-0.1,0.8-0.2,1.2-0.1
			c7.4,0.6,28.1,1,35.1-4.1c2.1-1.6,4-3.2,5.9-5c6.6-5.9,14-12.6,24.3-5.9c7.2,4.8,13,11.3,17,18.9c0.2,0.4,0.3,0.7,0.3,1.1
			s0,0.8-0.2,1.2c-0.1,0.4-0.3,0.7-0.6,1s-0.6,0.5-0.9,0.7C149.9,1157.4,149.5,1157.5,149,1157.5z"/>
		<path class="st2" d="M152.4,1210.8c-0.6,0-1.2-0.2-1.7-0.5c-15.6-10.8-45.7-59-46.9-61c-0.4-0.7-0.6-1.5-0.4-2.3s0.7-1.5,1.3-1.9
			c0.7-0.4,1.5-0.6,2.3-0.4s1.4,0.7,1.9,1.3c0.3,0.5,30.7,49.1,45.3,59.2c0.5,0.4,0.9,0.9,1.1,1.5c0.2,0.6,0.2,1.3,0,1.9
			s-0.6,1.2-1.1,1.5C153.7,1210.6,153.1,1210.8,152.4,1210.8L152.4,1210.8z"/>
		<path class="st2" d="M126,1213.6c-0.4,0-0.7-0.1-1.1-0.2c-9-3.8-29.9-13.5-27.6-22.8c2.1-8.8,21.3-18,25.1-19.8
			c0.4-0.2,0.8-0.3,1.1-0.3c0.4,0,0.8,0.1,1.2,0.2c0.4,0.1,0.7,0.3,1,0.6s0.5,0.6,0.7,1s0.3,0.8,0.3,1.2c0,0.4-0.1,0.8-0.2,1.2
			c-0.1,0.4-0.3,0.7-0.6,1c-0.3,0.3-0.6,0.5-1,0.7c-8.4,3.9-20.7,11.3-21.8,15.7c-0.6,2.4,10,10,24.1,15.8c0.6,0.3,1.2,0.8,1.5,1.4
			c0.3,0.6,0.4,1.3,0.3,2c-0.1,0.7-0.5,1.3-1,1.7C127.4,1213.4,126.7,1213.6,126,1213.6L126,1213.6z"/>
		<path class="st2" d="M66.2,1161.3c-0.8,0-1.6-0.3-2.1-0.9c-0.6-0.6-0.9-1.3-0.9-2.1v-13.7c0-0.4,0-0.8,0.2-1.2
			c0.1-0.4,0.4-0.7,0.6-1c0.3-0.3,0.6-0.5,1-0.7s0.8-0.2,1.2-0.2c0.4,0,0.8,0.1,1.2,0.2c0.4,0.2,0.7,0.4,1,0.7
			c0.3,0.3,0.5,0.7,0.6,1c0.1,0.4,0.2,0.8,0.2,1.2v13.7c0,0.4-0.1,0.8-0.2,1.2c-0.1,0.4-0.4,0.7-0.7,1s-0.6,0.5-1,0.7
			C66.9,1161.2,66.6,1161.3,66.2,1161.3z"/>
		<path class="st2" d="M66.2,1154.4H30.3c-0.4,0-0.8,0-1.2-0.2c-0.4-0.1-0.7-0.4-1-0.6c-0.3-0.3-0.5-0.6-0.7-1s-0.2-0.8-0.2-1.2
			s0.1-0.8,0.2-1.2c0.2-0.4,0.4-0.7,0.7-1c0.3-0.3,0.7-0.5,1-0.6c0.4-0.1,0.8-0.2,1.2-0.2h35.8c0.4,0,0.8,0,1.2,0.2
			c0.4,0.1,0.7,0.4,1,0.6c0.3,0.3,0.5,0.6,0.7,1s0.2,0.8,0.2,1.2s-0.1,0.8-0.2,1.2c-0.2,0.4-0.4,0.7-0.7,1s-0.7,0.5-1,0.6
			C67,1154.4,66.6,1154.5,66.2,1154.4z"/>
		<path class="st2" d="M99.3,1143.7c5.8-2.4,8.5-9.1,6.1-14.8c-2.4-5.8-9-8.6-14.8-6.1c-5.8,2.4-8.5,9-6.1,14.8
			S93.5,1146.1,99.3,1143.7z"/>
		<path class="st5" d="M142.4,878c14.9-14.9,14.9-39.1,0-54s-39.1-14.9-54,0s-14.9,39.1,0,54C103.3,893,127.4,893,142.4,878z"/>
		<path class="st2" d="M127.6,924.2c-0.7,0-1.4-0.3-2-0.7c-0.5-0.5-0.9-1.1-1-1.9c0-0.3-4.7-32.6-25.4-47.4
			C78.1,859,39.1,854,38.7,854c-0.4,0-0.8-0.2-1.1-0.4s-0.6-0.5-0.9-0.8c-0.2-0.3-0.4-0.7-0.5-1c-0.1-0.4-0.1-0.8-0.1-1.2
			s0.2-0.8,0.4-1.1c0.2-0.3,0.5-0.6,0.8-0.9c0.3-0.2,0.7-0.4,1-0.5c0.4-0.1,0.8-0.1,1.2-0.1c1.7,0.2,40.9,5.3,63.3,21.3
			c22.8,16.3,27.6,50,27.8,51.5c0.1,0.8-0.1,1.6-0.6,2.2c-0.5,0.6-1.2,1-2,1.2C127.8,924.2,127.7,924.2,127.6,924.2z"/>
		<path class="st2" d="M139.2,895.1c-0.6,0-1.3-0.2-1.8-0.6c-0.6-0.5-1.1-1.2-1.2-2c-0.1-0.8,0.1-1.6,0.6-2.2
			c0.4-0.5,8.6-12-0.2-26.6c-7.7-12.8-47.6-28-62.3-32.7c-0.7-0.3-1.3-0.8-1.7-1.5c-0.3-0.7-0.4-1.5-0.2-2.2
			c0.2-0.7,0.8-1.4,1.4-1.7c0.7-0.4,1.5-0.5,2.2-0.3c2.2,0.7,55.2,18,65.6,35.4c10.9,18.1,0.3,32.6-0.2,33.2
			c-0.3,0.4-0.6,0.7-1.1,0.9C140.1,895,139.7,895.1,139.2,895.1z"/>
		<path class="st2" d="M101,874.8c-0.6,0-1.2-0.2-1.7-0.5s-0.9-0.8-1.1-1.4c-0.2-0.6-0.3-1.2-0.1-1.8c0.2-0.6,0.5-1.1,0.9-1.5
			c7.6-6.6,13.9-14.7,18.4-23.7c0.3-0.7,0.9-1.3,1.7-1.6c0.7-0.3,1.6-0.3,2.3,0.1c0.7,0.3,1.3,0.9,1.6,1.7c0.3,0.7,0.3,1.6-0.1,2.3
			c-4.9,9.8-11.7,18.5-20,25.7C102.4,874.5,101.7,874.8,101,874.8z"/>
		<path class="st2" d="M139.3,833.4c1.4-6-2.3-12-8.3-13.5c-6-1.4-12,2.3-13.5,8.3c-1.4,6,2.3,12,8.3,13.5
			C131.9,843.1,137.9,839.4,139.3,833.4z"/>
		<path class="st8" d="M343.1,1329c4.8-20.5-7.9-41.1-28.4-45.9s-41.1,7.9-46,28.4c-4.8,20.5,7.9,41.1,28.4,46
			C317.6,1362.3,338.2,1349.6,343.1,1329z"/>
		<path class="st2" d="M333.2,1390.6c-0.4,0-0.8-0.1-1.1-0.2c-11.4-4.7-17.5-9.7-19.3-15.8c-2.1-7,2.2-13.3,6.1-18.8
			c2.5-3.7,5.1-7.4,4.7-10.1c-2.1-12-7.6-21.5-12.9-22.2c-2.2-0.3-4.3,2-7.5,5.9c-2.9,3.6-6.2,7.7-11.1,9.5
			c-10,3.8-22.6-3.1-23.1-3.4c-0.7-0.4-1.2-1-1.4-1.8c-0.2-0.8-0.1-1.6,0.3-2.3c0.4-0.7,1-1.2,1.8-1.4c0.8-0.2,1.6-0.1,2.3,0.3
			c0.2,0.1,10.7,5.8,18.1,3c3.3-1.2,6-4.5,8.5-7.6c3.5-4.4,7.2-8.8,12.9-8.1c10.1,1.3,16,15.5,18,27.1c0.9,5-2.5,9.9-5.7,14.5
			s-6.5,9.4-5.3,13.7c1.3,4.2,6.5,8.1,15.8,11.9c0.6,0.3,1.2,0.7,1.5,1.3s0.4,1.3,0.3,2s-0.5,1.3-1,1.7
			C334.7,1390.4,334,1390.6,333.2,1390.6L333.2,1390.6z"/>
		<path class="st2" d="M289.1,1390.6h-0.2c-0.8-0.1-1.5-0.4-2.1-1s-0.8-1.4-0.7-2.2c2.6-36.6,39.1-40.4,39.4-40.4
			c0.4,0,0.8,0,1.2,0.1c0.4,0.1,0.7,0.3,1,0.6c0.3,0.3,0.6,0.6,0.7,0.9c0.2,0.3,0.3,0.7,0.3,1.1s0,0.8-0.1,1.2
			c-0.1,0.4-0.3,0.7-0.6,1c-0.3,0.3-0.6,0.5-0.9,0.7s-0.7,0.3-1.1,0.3c-1.3,0.1-31.7,3.5-34.1,34.9c-0.1,0.7-0.4,1.4-0.9,1.9
			C290.6,1390.3,289.9,1390.6,289.1,1390.6z"/>
		<path class="st2" d="M272.5,1320l-2.8-0.1l-0.3-2.6c-0.2-2-2.1-20.2,5.2-28.4c3.7-4.1,9.2-5.2,15.6-2.8c9.5,3.5,9.9,9.4,9.4,12.7
			C297.7,1309.1,280.6,1320,272.5,1320z M283.7,1290.9c-0.9,0-1.8,0.1-2.6,0.5c-0.8,0.4-1.5,0.9-2.1,1.6c-3.9,4.4-4.3,14.6-4,20.6
			c6.6-1.9,17.5-9.7,18.6-15.8c0.2-1,0.7-3.7-5.5-6C286.7,1291.2,285.2,1290.9,283.7,1290.9z"/>
		<path class="st2" d="M260.7,1341.2c-0.5,0-1-0.1-1.5-0.4s-0.8-0.6-1.1-1.1c-0.3-0.4-0.4-0.9-0.4-1.5c0-0.5,0.1-1,0.4-1.5
			l11.6-21.2c0.4-0.7,1-1.1,1.8-1.3c0.7-0.2,1.5-0.1,2.2,0.3s1.2,1,1.4,1.7c0.2,0.7,0.2,1.5-0.1,2.2l-11.6,21.2
			c-0.3,0.5-0.6,0.9-1.1,1.2C261.8,1341,261.2,1341.2,260.7,1341.2z"/>
		<path class="st2" d="M311.3,1314.3c6.2,0,11.2-5,11.2-11.2s-5-11.2-11.2-11.2s-11.2,5-11.2,11.2
			C300.1,1309.2,305.1,1314.3,311.3,1314.3z"/>
		<path class="st2" d="M339.6,1319.1c0,1-0.3,1.9-0.8,2.7c-0.5,0.8-1.3,1.4-2.2,1.8s-1.9,0.5-2.9,0.3s-1.8-0.7-2.5-1.3
			c-0.7-0.7-1.2-1.6-1.4-2.5c-0.2-0.9-0.1-1.9,0.3-2.8s1-1.7,1.8-2.2s1.8-0.8,2.7-0.8c0.6,0,1.3,0.1,1.9,0.4s1.1,0.6,1.6,1.1
			s0.8,1,1.1,1.6C339.5,1317.8,339.6,1318.5,339.6,1319.1z"/>
		<path class="st5" d="M340,1022.6c4.8-20.5-7.9-41.1-28.4-45.9c-20.5-4.8-41.1,7.9-46,28.4c-4.8,20.5,7.9,41.1,28.4,46
			C314.6,1055.8,335.2,1043.1,340,1022.6z"/>
		<path class="st2" d="M279.3,1030.4c-1.7,0-3.3-0.3-4.8-0.9s-2.9-1.6-4-2.9c-8.5-9.3-4.1-32.8-3.6-35.5c0.1-0.4,0.2-0.7,0.4-1
			c0.2-0.3,0.5-0.6,0.8-0.8s0.7-0.4,1-0.4c0.4-0.1,0.7-0.1,1.1,0s0.7,0.2,1,0.4s0.6,0.5,0.8,0.8c0.2,0.3,0.4,0.7,0.4,1
			c0.1,0.4,0.1,0.7,0,1.1c-1.3,6.4-3.3,24.4,2.2,30.5c0.7,0.8,1.6,1.3,2.6,1.7c1,0.3,2.1,0.4,3.1,0.2c9.3-1,15.9-12.6,22.3-23.8
			c5-8.8,9.8-17.1,16-20.3c0.7-0.3,1.4-0.3,2.1-0.1s1.3,0.7,1.6,1.4c0.3,0.7,0.4,1.4,0.2,2.1c-0.2,0.7-0.7,1.3-1.3,1.7
			c-4.7,2.4-9.1,10-13.7,18.1c-6.8,11.9-14.5,25.4-26.7,26.7C280.4,1030.3,279.9,1030.4,279.3,1030.4z"/>
		<path class="st2" d="M287,1087.3c-0.7,0-1.3-0.2-1.8-0.7c-0.6-0.5-0.9-1.2-1-1.9c-0.1-0.8,0.2-1.5,0.6-2.1
			c26.8-32.4,11.4-66.1,10.7-67.5c-0.3-0.7-0.4-1.5-0.1-2.2s0.8-1.3,1.5-1.6s1.5-0.4,2.2-0.1c0.7,0.3,1.3,0.8,1.6,1.4
			c0.2,0.4,17.7,38.3-11.4,73.5c-0.3,0.3-0.6,0.6-1,0.8C287.8,1087.2,287.4,1087.3,287,1087.3z"/>
		<path class="st2" d="M313.5,1092.1c-0.5,0-1-0.2-1.5-0.4c-0.4-0.3-0.8-0.7-1-1.1c-0.2-0.5-0.3-1-0.3-1.5s0.2-1,0.5-1.4
			c0.2-0.2,16.5-23.2,10.2-37.1c-6.2-13.5-17.9-12.3-18-12.3c-0.7,0.1-1.5-0.1-2.1-0.6s-1-1.2-1.1-1.9c-0.1-0.7,0.1-1.5,0.6-2.1
			s1.1-1,1.9-1.1c5.5-0.7,17.6,1.7,23.8,15.6c7.7,16.9-10,41.7-10.7,42.8c-0.3,0.4-0.6,0.7-1,0.8
			C314.4,1092,313.9,1092.1,313.5,1092.1z"/>
		<path class="st2" d="M288.5,1008.8c5.9,0,10.8-4.8,10.8-10.8s-4.8-10.8-10.8-10.8s-10.8,4.8-10.8,10.8S282.6,1008.8,288.5,1008.8z
			"/>
		<path class="st2" d="M274.7,973.1c-0.8,0-1.7-0.1-2.5-0.3c-1.8-0.5-3.6-1.4-5-2.7s-2.5-2.9-3.2-4.7c-1.6-3.8-1.8-8.1-0.8-12.1
			c1.9-7.9,7.9-13.6,14.3-13.6c0.8,0,1.7,0.1,2.5,0.3c7.1,1.7,11.2,10.4,9,19.4C287.1,967.4,281.1,973.1,274.7,973.1z M277.5,945.5
			c-3.8,0-7.5,4-8.8,9.2c-0.7,2.8-0.6,5.8,0.5,8.5c0.3,1,0.9,1.8,1.6,2.5s1.6,1.2,2.6,1.5c4,1,8.6-3.3,10-9.1s-0.8-11.6-4.8-12.6
			C278.3,945.5,277.9,945.5,277.5,945.5z"/>
		<path class="st2" d="M265.5,1000.9c-0.2,0-0.5,0-0.7-0.1c-0.4-0.1-0.7-0.3-1-0.5s-0.5-0.5-0.7-0.8s-0.3-0.7-0.4-1
			c-0.1-0.4,0-0.7,0.1-1.1l7.4-28c0.2-0.7,0.7-1.3,1.3-1.6c0.6-0.3,1.4-0.4,2.1-0.3c0.7,0.2,1.3,0.6,1.7,1.2
			c0.4,0.6,0.5,1.4,0.4,2.1l-7.4,28c-0.2,0.6-0.5,1.1-1,1.5C266.7,1000.7,266.1,1000.9,265.5,1000.9z"/>
		<path class="st2" d="M303.1,978.4c-0.4,0-0.8-0.1-1.2-0.3c-0.4-0.2-0.7-0.4-1-0.7c-0.3-0.4-0.6-0.8-0.7-1.3s-0.1-1,0.1-1.5l6-16.7
			c0.1-0.4,0.3-0.7,0.6-1c0.3-0.3,0.6-0.5,0.9-0.7s0.7-0.3,1.1-0.3s0.7,0,1.1,0.2c0.4,0.1,0.7,0.3,1,0.6s0.5,0.6,0.7,0.9
			c0.2,0.3,0.3,0.7,0.3,1.1c0,0.4,0,0.7-0.2,1.1l-4.3,11.8l11.1-2.5c0.4-0.1,0.8-0.2,1.2-0.2c0.4,0,0.8,0.1,1.2,0.3
			c0.4,0.2,0.7,0.5,0.9,0.8c0.2,0.3,0.4,0.7,0.5,1.1c0.1,0.4,0.1,0.8,0,1.2s-0.2,0.8-0.5,1.1c-0.2,0.3-0.5,0.6-0.9,0.8
			s-0.7,0.3-1.1,0.4l-16.2,3.7C303.5,978.3,303.3,978.4,303.1,978.4z"/>
		<path class="st3" d="M116.4,1337.9c14.9-14.9,14.9-39.1,0-54s-39.1-14.9-54,0s-14.9,39.1,0,54S101.5,1352.8,116.4,1337.9z"/>
		<path class="st2" d="M116,1403.6c-0.5,0-1-0.1-1.4-0.3c-0.4-0.2-0.8-0.6-1.1-0.9c-0.3-0.4-0.5-0.9-0.5-1.3c-0.1-0.5,0-1,0.2-1.4
			c0.1-0.2,8-21.5,6.5-34.3c-1.1-9.3-9.9-28.8-14.7-39.3c-3.4-7.5-3.7-8.2-3.7-9.2c0-2.1,1.5-3.1,5.3-5.6c4.4-2.8,12.6-8.1,13-13
			c0.7-8.1-5.8-19.3-5.8-19.4c-0.4-0.7-0.4-1.5-0.2-2.2c0.2-0.7,0.7-1.4,1.4-1.8c0.7-0.4,1.5-0.5,2.2-0.3c0.8,0.2,1.4,0.6,1.8,1.3
			c0.3,0.5,7.5,13,6.6,23c-0.7,7.8-10.1,13.9-15.7,17.5c-0.7,0.4-1.4,0.9-2,1.3c0.6,1.4,1.6,3.7,2.6,5.9c5.2,11.5,14,30.9,15.2,41.1
			c1.7,14.3-6.5,36.2-6.9,37.1c-0.2,0.6-0.6,1.1-1.1,1.4C117.2,1403.4,116.6,1403.6,116,1403.6z"/>
		<path class="st2" d="M85.3,1401.1c-0.6,0-1.3-0.2-1.8-0.6s-0.9-0.9-1.1-1.5s-0.2-1.3,0.1-1.9c0.2-0.6,0.6-1.1,1.2-1.5
			c14.1-9,32.8-44.4,33-44.8c0.4-0.7,1-1.1,1.8-1.3c0.7-0.2,1.5-0.1,2.2,0.2c0.7,0.4,1.2,1,1.4,1.7c0.2,0.7,0.2,1.5-0.1,2.2
			c-0.8,1.5-19.7,37.1-35.1,47C86.4,1400.9,85.8,1401.1,85.3,1401.1z"/>
		<path class="st2" d="M101,1308.4c4.4-4.4,4.4-11.6,0-16.1c-4.4-4.4-11.6-4.4-16.1,0c-4.4,4.4-4.4,11.6,0,16.1
			C89.4,1312.9,96.6,1312.9,101,1308.4z"/>
		<path class="st2" d="M65.2,1318.5c-0.9,0-1.8-0.2-2.7-0.5s-1.6-0.9-2.3-1.5c-4.7-4.6-3.2-15.8-2.9-18l0.2-1.2l1-0.7
			c19.6-14.8,61.9-24.2,63.7-24.6c0.4-0.1,0.8-0.1,1.2,0c0.4,0.1,0.8,0.2,1.1,0.4c0.3,0.2,0.6,0.5,0.8,0.8c0.2,0.3,0.4,0.7,0.5,1.1
			s0.1,0.8,0,1.2c-0.1,0.4-0.2,0.8-0.4,1.1c-0.2,0.3-0.5,0.6-0.8,0.8c-0.3,0.2-0.7,0.4-1.1,0.5s-41.4,9.3-60.4,22.8
			c-0.5,4.2-0.3,10,1.3,11.5c0.2,0.2,0.4,0.4,1.4,0.3c1.7-0.3,2.1-1.1,2.2-1.3c0.9-1.9-0.5-5.8-1.2-7.2c-0.4-0.7-0.4-1.5-0.2-2.3
			s0.8-1.4,1.5-1.8s1.5-0.4,2.3-0.2c0.8,0.2,1.4,0.8,1.8,1.5c0.4,0.8,3.8,7.6,1.3,12.6c-0.6,1.2-1.6,2.3-2.7,3.1
			c-1.1,0.8-2.4,1.3-3.8,1.5C66.3,1318.5,65.8,1318.5,65.2,1318.5z"/>
		<path class="st7" d="M331.9,1183.1c14.9-14.9,14.9-39.1,0-54s-39.1-14.9-54,0s-14.9,39.1,0,54S317,1198,331.9,1183.1z"/>
		<path class="st2" d="M340.4,1184.9h-0.5c-21.7-3.5-33.1-8.1-37-14.8c-3-5.3-1-10.7,0.8-15.4c1.1-2.8,2.1-5.5,2.1-8
			c0-11-10.1-14.9-10.5-15.1c-0.7-0.3-1.3-0.8-1.6-1.6c-0.3-0.7-0.3-1.5-0.1-2.3c0.3-0.7,0.8-1.3,1.5-1.7c0.7-0.3,1.5-0.4,2.3-0.1
			c0.6,0.2,14.4,5.5,14.4,20.7c0,3.6-1.3,6.9-2.5,10.2c-1.8,4.7-2.7,7.7-1.2,10.3c2.8,4.8,13.8,8.8,32.8,11.9
			c0.8,0.1,1.4,0.5,1.9,1.1s0.7,1.3,0.6,2.1c-0.1,0.8-0.4,1.5-1,2C341.9,1184.7,341.2,1184.9,340.4,1184.9L340.4,1184.9z"/>
		<path class="st2" d="M282.4,1204.4c-3,0-5.9-0.4-8.8-1.1c-11.2-2.7-21.5-9.7-24-16.5c-0.1-0.4-0.2-0.8-0.2-1.2
			c0-0.4,0.1-0.8,0.3-1.1c0.2-0.4,0.4-0.7,0.7-0.9c0.3-0.3,0.6-0.5,1-0.6s0.8-0.2,1.2-0.2s0.8,0.1,1.1,0.3c0.4,0.2,0.7,0.4,0.9,0.7
			c0.3,0.3,0.5,0.6,0.6,1c1.6,4.2,9.9,10.3,19.8,12.7c4.8,1.1,13.6,2.2,19.4-3.2c12.3-11.5,17.2-20.4,17.3-20.5
			c0.2-0.3,0.4-0.7,0.8-0.9c0.3-0.3,0.7-0.4,1-0.6c0.4-0.1,0.8-0.1,1.2-0.1c0.4,0,0.8,0.2,1.1,0.3c0.3,0.2,0.7,0.4,0.9,0.8
			c0.2,0.3,0.4,0.7,0.5,1c0.1,0.4,0.1,0.8,0.1,1.2c0,0.4-0.2,0.8-0.4,1.1c-0.2,0.4-5.4,9.8-18.5,22
			C294.4,1202.4,288.8,1204.4,282.4,1204.4z"/>
		<path class="st2" d="M305.1,1237.6c-0.6,0-1.2-0.2-1.7-0.5c-0.5-0.4-0.9-0.8-1.1-1.4s-0.3-1.2-0.1-1.8c0.1-0.6,0.5-1.1,0.9-1.5
			c6.8-6,15.7-16.6,14.1-21.3c-2.1-6.2-14-13.4-18.4-15.7c-0.4-0.2-0.7-0.4-0.9-0.7c-0.3-0.3-0.5-0.7-0.6-1
			c-0.1-0.4-0.2-0.8-0.1-1.2c0-0.4,0.1-0.8,0.3-1.1c0.2-0.4,0.4-0.7,0.7-0.9c0.3-0.3,0.6-0.4,1-0.6c0.4-0.1,0.8-0.2,1.2-0.1
			c0.4,0,0.8,0.1,1.1,0.3c1.8,0.9,18.2,9.5,21.4,19.1c3.4,10.1-12.6,24.8-15.8,27.7C306.6,1237.4,305.9,1237.6,305.1,1237.6z"/>
		<path class="st2" d="M296.9,1163.4c4.4-4.4,4.4-11.6,0-16.1c-4.4-4.4-11.6-4.4-16.1,0c-4.4,4.4-4.4,11.6,0,16.1
			C285.2,1167.8,292.4,1167.8,296.9,1163.4z"/>
		<path class="st2" d="M233.9,1171.6c-0.5,0-0.9-0.1-1.4-0.3c-0.4-0.2-0.8-0.5-1.1-0.9c-3.1-4.3-3.8-13.1-0.1-18.3
			c1.6-2.3,5.4-5.8,12.7-3.5c4.6,1.4,7.7,1.7,9.2,0.9c1.2-0.7,1.9-2.7,2.8-6.2c2.2-8.6,20.9-13,26.6-14.1c0.4-0.1,0.8-0.1,1.2,0
			c0.4,0.1,0.8,0.2,1.1,0.4c0.3,0.2,0.6,0.5,0.9,0.8c0.2,0.3,0.4,0.7,0.5,1.1s0.1,0.8,0,1.2c-0.1,0.4-0.2,0.8-0.5,1.1
			c-0.2,0.3-0.5,0.6-0.9,0.8c-0.3,0.2-0.7,0.4-1.1,0.4c-9.9,2-21.1,6.4-22,9.7c-1.1,4.3-2.2,8-5.7,9.9c-3.1,1.7-7.3,1.6-13.9-0.4
			c-3.8-1.2-5.3,0.2-6.1,1.3c-2.1,2.9-1.8,8.9,0,11.3c0.2,0.3,0.4,0.7,0.5,1.1s0.1,0.8,0.1,1.2c-0.1,0.4-0.2,0.8-0.4,1.1
			c-0.2,0.3-0.5,0.6-0.8,0.9C235.1,1171.4,234.5,1171.6,233.9,1171.6z"/>
		<path class="st9" d="M329.8,881c4.8-20.5-7.9-41.1-28.4-46c-20.5-4.8-41.1,7.9-46,28.4c-4.8,20.5,7.9,41.1,28.4,46
			C304.4,914.2,325,901.5,329.8,881z"/>
		<path class="st2" d="M270.6,846.8c4.4-4.4,4.4-11.6,0-16.1c-4.4-4.4-11.6-4.4-16.1,0c-4.4,4.4-4.4,11.6,0,16.1
			C259,851.2,266.2,851.2,270.6,846.8z"/>
		<path class="st2" d="M245.3,871.4c-1.4,0-2.9-0.2-4.3-0.6c-1.4-0.4-2.7-1.1-3.8-2s-2-2-2.7-3.3c-0.2-0.4-0.3-0.7-0.3-1.1
			c0-0.4,0-0.8,0.2-1.2c0.1-0.4,0.3-0.7,0.6-1s0.6-0.5,0.9-0.7c0.4-0.2,0.7-0.3,1.1-0.3c0.4,0,0.8,0,1.2,0.2c0.4,0.1,0.7,0.3,1,0.6
			s0.5,0.6,0.7,0.9c0.7,1.1,1.8,1.9,3,2.2c2.2,0.6,6.3,0.6,13.3-3.5c5.5-3.4,10.7-7.2,15.6-11.5c7.5-6.3,14.6-12.3,24.3-13.2
			c7.3-0.6,11.3,0.2,13.6,2.8c2.9,3.4,1.8,8.2,0.3,14.8l-0.1,0.3c-0.3,0.7-0.8,1.2-1.4,1.6c-0.6,0.3-1.4,0.4-2.1,0.3
			s-1.3-0.6-1.8-1.2s-0.6-1.3-0.6-2l0.1-0.3c1-4.1,2-8.4,1.1-9.5c-0.4-0.4-1.9-1.4-8.5-0.8c-7.8,0.7-13.9,5.8-20.9,11.8
			c-5.1,4.5-10.6,8.6-16.5,12.2C254.1,869.8,249.4,871.4,245.3,871.4z"/>
		<path class="st2" d="M332.6,905.8c-0.1,0-0.3,0-0.4,0c-6.4-0.9-22.6-5.4-34.1-29.1c-2.3-5.1-5.9-9.6-10.3-13s-9.7-5.8-15.2-6.7
			c-0.4,0-0.8-0.2-1.1-0.4c-0.3-0.2-0.6-0.4-0.9-0.8c-0.2-0.3-0.4-0.7-0.5-1c-0.1-0.4-0.1-0.8-0.1-1.2s0.2-0.8,0.4-1.1
			c0.2-0.3,0.4-0.6,0.8-0.9c0.3-0.2,0.7-0.4,1-0.5c0.4-0.1,0.8-0.1,1.2-0.1c6.5,1.1,12.7,3.8,18,7.8s9.5,9.3,12.3,15.3
			c10.2,21.1,24,25,29.5,25.7c0.8,0.1,1.5,0.5,1.9,1.1c0.5,0.6,0.7,1.3,0.7,2.1c-0.1,0.8-0.4,1.5-1,2
			C334.1,905.5,333.4,905.8,332.6,905.8L332.6,905.8z"/>
		<path class="st2" d="M299.1,916.4c-0.4,0-0.7-0.1-1.1-0.2c-1-0.4-24.2-9.1-22-23.8c2.1-13.9,21-22.6,21.8-23
			c0.4-0.2,0.8-0.3,1.1-0.3c0.4,0,0.8,0.1,1.2,0.2c0.4,0.1,0.7,0.4,1,0.6c0.3,0.3,0.5,0.6,0.7,1s0.3,0.8,0.3,1.1
			c0,0.4-0.1,0.8-0.2,1.2s-0.4,0.7-0.6,1c-0.3,0.3-0.6,0.5-1,0.7c-0.2,0.1-16.7,7.7-18.3,18.4c-1.5,9.8,17.9,17.2,18.1,17.3
			c0.7,0.2,1.2,0.7,1.6,1.3s0.5,1.3,0.3,2c-0.1,0.7-0.5,1.3-1,1.8C300.4,916.2,299.7,916.5,299.1,916.4L299.1,916.4z"/>
		<path class="st2" d="M335.1,916.4h-73.5c-0.8,0-1.6-0.3-2.1-0.9c-0.6-0.6-0.9-1.3-0.9-2.1s0.3-1.6,0.9-2.1
			c0.6-0.6,1.3-0.9,2.1-0.9h73.5c0.8,0,1.6,0.3,2.1,0.9c0.6,0.6,0.9,1.3,0.9,2.1s-0.3,1.6-0.9,2.1
			C336.6,916.1,335.9,916.4,335.1,916.4z"/>
		<path class="st2" d="M316.2,906.1c-18,0-18.4-0.4-19.2-1.2c-0.4-0.4-0.7-1-0.8-1.5c-0.1-0.6-0.1-1.2,0.2-1.7
			c0.2-0.5,0.6-1,1.1-1.4c0.5-0.3,1.1-0.5,1.7-0.5c0.3,0,0.5,0,0.8,0.1c3.9,0.3,38.7,0.1,60.1-0.1c0.8,0,1.6,0.3,2.1,0.9
			c0.6,0.6,0.9,1.3,0.9,2.1s-0.3,1.6-0.9,2.1c-0.6,0.6-1.3,0.9-2.1,0.9C339.2,906,325.4,906.1,316.2,906.1z M301.3,900.9
			c0.5,0.5,0.7,1.2,0.7,2C302.1,902.1,301.8,901.4,301.3,900.9z"/>
	</g>
</g>
</svg>
