<?xml version="1.0" encoding="utf-8"?>
<!-- Generator: Adobe Illustrator 24.0.0, SVG Export Plug-In . SVG Version: 6.00 Build 0)  -->
<svg version="1.1" id="Calque_1" xmlns="http://www.w3.org/2000/svg" xmlns:xlink="http://www.w3.org/1999/xlink" x="0px" y="0px"
	 viewBox="0 0 22.9 22.6" style="enable-background:new 0 0 22.9 22.6;" xml:space="preserve">
<style type="text/css">
	.st0{fill:#FB8B68;}
	.st1{fill:#FFCB46;}
</style>
<path class="st0" d="M10,6h2.6c0.1-0.1,0.1-0.3,0-0.4L10,2.7L10,6L10,6z"/>
<path class="st1" d="M8.2,13.9c0-0.2-0.1-0.4-0.1-0.6C7.6,12,7.3,11.4,7.4,10c0.2-1,0.2-2.9,2.8-2.6C10.9,7.5,12,8,12.6,8
	c0.4,0,0.6-0.7,0.6-0.9c0-0.3-0.5-0.9-0.8-0.9c-0.2-0.1-1.3-0.4-1.7-0.5c-0.7-0.2-0.6-1-0.7-1.3c0-0.1,0.1-0.3,0.2-0.4
	c0.1-0.1,0.2,0,0.4,0.1l0.6,0.4c0.3,0.3-0.6,0.8-0.3,0.8c0,0,1.1,0.4,1.6,0.5c0.3,0,1.2-0.9,1.2-1.5c0-0.5-2.2-2.5-3.7-3.3
	C9.5,0.6,9.2,0.4,8.8,0.4C8.4,0.4,8.3,0.6,7.7,1C5.3,3,2.9,7.4,2.6,8.3c-1.4,3.9-1.6,6-1.7,7.2c0,0.4,0,0.7,0,1.1c0,0-0.6,3,0,3.7
	c0.6,0.6,3.4,0.6,3.4,0.6c6.3,2.4,18.1,1.8,18.1-4.4C22.3,9,10.4,10,8.2,13.9z"/>
<path class="st0" d="M13.1,19.9c-2-0.2-3.6-1.1-3.7-1.2c-0.3-0.2-0.4-0.6-0.2-0.8c0.2-0.3,0.6-0.4,0.9-0.2c0,0,2.5,1.5,5,0.9
	c1.3-0.3,2.5-1.3,3.3-2.8c0.2-0.3,0.5-0.4,0.9-0.3c0.3,0.2,0.4,0.5,0.3,0.8c-1,1.8-2.4,3-4.1,3.4C14.6,19.9,13.8,20,13.1,19.9z"/>
</svg>
