<?xml version="1.0" encoding="utf-8"?>
<!-- Generator: Adobe Illustrator 24.0.0, SVG Export Plug-In . SVG Version: 6.00 Build 0)  -->
<svg version="1.1" id="Calque_1" xmlns="http://www.w3.org/2000/svg" xmlns:xlink="http://www.w3.org/1999/xlink" x="0px" y="0px"
	 viewBox="0 0 22.9 22.6" style="enable-background:new 0 0 22.9 22.6;" xml:space="preserve">
<style type="text/css">
	.st0{fill:#99AAB5;}
	.st1{fill:#E7DFCD;}
	.st2{fill:#66757F;}
</style>
<path class="st0" d="M11.6,22.3c6,0,10.9-4.9,10.9-10.9c0-6-4.9-10.9-10.9-10.9c-6,0-10.9,4.9-10.9,10.9
	C0.7,17.4,5.6,22.3,11.6,22.3z"/>
<path class="st1" d="M11.6,19.9c4.7,0,8.5-3.8,8.5-8.5c0-4.7-3.8-8.5-8.5-8.5c-4.7,0-8.5,3.8-8.5,8.5C3.1,16.1,6.9,19.9,11.6,19.9z"
	/>
<path class="st2" d="M12.2,11.4c0,0.3-0.3,0.6-0.6,0.6c-0.3,0-0.6-0.3-0.6-0.6V4.7c0-0.3,0.3-0.6,0.6-0.6c0.3,0,0.6,0.3,0.6,0.6
	V11.4z"/>
<path class="st2" d="M14.7,6.1C15,6.3,15.1,6.6,15,6.9l-2.7,4.7c-0.2,0.3-0.5,0.4-0.8,0.2c-0.3-0.2-0.4-0.5-0.2-0.8l2.7-4.7
	C14.1,6,14.4,5.9,14.7,6.1z"/>
</svg>
