<?xml version="1.0" encoding="utf-8"?>
<!-- Generator: Adobe Illustrator 24.0.0, SVG Export Plug-In . SVG Version: 6.00 Build 0)  -->
<svg version="1.1" id="Calque_1" xmlns="http://www.w3.org/2000/svg" xmlns:xlink="http://www.w3.org/1999/xlink" x="0px" y="0px"
	 viewBox="0 0 22.9 22.6" style="enable-background:new 0 0 22.9 22.6;" xml:space="preserve">
<style type="text/css">
	.st0{fill:#E7DFCD;}
	.st1{fill:#99AAB5;}
	.st2{fill:#66757F;}
	.st3{fill:#744EAA;}
</style>
<path class="st0" d="M18.8,6.6l-5.3-5c-0.2-0.2-0.5-0.3-0.8-0.3c-0.6,0-1.2,0.5-1.2,1.1c0,0.3,0.1,0.6,0.3,0.8L9.5,5.3l5.3,5
	l2.3-2.1c0.2,0.2,0.5,0.3,0.8,0.3c0.6,0,1.2-0.5,1.2-1.1C19.1,7.1,19,6.8,18.8,6.6z"/>
<path class="st0" d="M12.6,1.3H3.8c-1.3,0-2.4,1-2.4,2.2v15.6c0,1.2,1.1,2.2,2.4,2.2h12.9c1.3,0,2.4-1,2.4-2.2V7.4h-5.3
	c-0.6,0-1.2-0.6-1.2-1.1V1.3z"/>
<path class="st1" d="M12.6,1.3h-1.2v5c0,1.2,1.1,2.2,2.4,2.2h5.3V7.4h-5.3c-0.6,0-1.2-0.6-1.2-1.1V1.3z M9.7,5.7
	c0,0.3-0.3,0.6-0.6,0.6H4.4C4.1,6.3,3.8,6,3.8,5.7c0-0.3,0.3-0.6,0.6-0.6h4.7C9.4,5.2,9.7,5.4,9.7,5.7z M9.7,7.9
	c0,0.3-0.3,0.6-0.6,0.6H4.4c-0.3,0-0.6-0.2-0.6-0.6c0-0.3,0.3-0.6,0.6-0.6h4.7C9.4,7.4,9.7,7.6,9.7,7.9z M16.7,10.2
	c0,0.3-0.3,0.6-0.6,0.6H4.4c-0.3,0-0.6-0.2-0.6-0.6c0-0.3,0.3-0.6,0.6-0.6h11.8C16.5,9.6,16.7,9.9,16.7,10.2z M16.7,12.4
	c0,0.3-0.3,0.6-0.6,0.6H4.4c-0.3,0-0.6-0.2-0.6-0.6c0-0.3,0.3-0.6,0.6-0.6h11.8C16.5,11.8,16.7,12.1,16.7,12.4z M16.7,14.6
	c0,0.3-0.3,0.6-0.6,0.6H4.4c-0.3,0-0.6-0.2-0.6-0.6c0-0.3,0.3-0.6,0.6-0.6h11.8C16.5,14.1,16.7,14.3,16.7,14.6z M16.7,16.8
	c0,0.3-0.3,0.6-0.6,0.6H4.4c-0.3,0-0.6-0.2-0.6-0.6c0-0.3,0.3-0.6,0.6-0.6h11.8C16.5,16.3,16.7,16.5,16.7,16.8z"/>
<path class="st2" d="M19.1,11.8c0,0-3.5,0-3.5,0c-0.2,0-0.5,0.1-0.7,0.3l-1.4,1.6c-0.4,0.4-0.4,1.2,0,1.6l1.4,1.6
	c0.2,0.2,0.6,0.3,0.7,0.3c0,0,2.1,0,3.5,0V11.8z"/>
<path class="st3" d="M20.3,11.8c0,0-4.7,0-4.8,0c-0.2,0-0.5,0.1-0.7,0.3l-1.4,1.3c-0.4,0.4-0.4,0.9,0,1.3l1.4,1.3
	c0.2,0.2,0.6,0.3,0.7,0.3c0,0,4.8,0,4.8,0c0.6,0,1.2-0.5,1.2-1.1v-2.2C21.4,12.3,20.9,11.8,20.3,11.8z"/>
</svg>
