<?xml version="1.0" encoding="utf-8"?>
<!-- Generator: Adobe Illustrator 24.0.0, SVG Export Plug-In . SVG Version: 6.00 Build 0)  -->
<svg version="1.1" id="Calque_1" xmlns="http://www.w3.org/2000/svg" xmlns:xlink="http://www.w3.org/1999/xlink" x="0px" y="0px"
	 viewBox="0 0 22.9 22.6" style="enable-background:new 0 0 22.9 22.6;" xml:space="preserve">
<style type="text/css">
	.st0{fill:#AFC6FF;}
	.st1{fill:#FF6332;}
	.st2{fill:#FFCB46;}
	.st3{fill:#FFE8AD;}
</style>
<path class="st0" d="M11.4,5.1L7.2,0.2H0.4L9,10.7l7.1-2.9L11.4,5.1z"/>
<path class="st1" d="M15.7,0.2l-4.3,4.9l3.3,4.5l0.8-0.9l7-8.5H15.7z"/>
<path class="st2" d="M14.7,10.1c0-0.1,0.1-0.3,0.1-0.4c0-0.7-0.6-1.2-1.2-1.2H9.4C8.8,8.4,8.2,9,8.2,9.6c0,0.2,0,0.3,0.1,0.4
	c-2,1.1-3.4,3.3-3.4,5.7c0,3.6,2.9,6.5,6.5,6.5c3.6,0,6.5-2.9,6.5-6.5C18,13.3,16.7,11.2,14.7,10.1z"/>
<path class="st3" d="M11.5,20.7c2.7,0,4.9-2.2,4.9-4.9c0-2.7-2.2-4.9-4.9-4.9s-4.9,2.2-4.9,4.9C6.6,18.5,8.8,20.7,11.5,20.7z"/>
<path class="st2" d="M13.5,19c-0.1,0-0.2,0-0.2-0.1l-1.8-1.3L9.7,19c-0.2,0.1-0.4,0.1-0.5,0C9,18.8,9,18.7,9,18.5l0.7-2.1l-1.7-1.2
	c-0.1-0.1-0.2-0.3-0.2-0.5c0.1-0.2,0.2-0.3,0.4-0.3l2.2,0l0.7-2.1c0.1-0.2,0.2-0.3,0.4-0.3c0.2,0,0.3,0.1,0.4,0.3l0.7,2.1l2.2,0
	c0.2,0,0.3,0.1,0.4,0.3c0.1,0.2,0,0.4-0.2,0.5l-1.7,1.2l0.7,2.1c0.1,0.2,0,0.4-0.2,0.5C13.6,19,13.5,19,13.5,19z"/>
</svg>
