<?xml version="1.0" standalone="no"?>
<!DOCTYPE svg PUBLIC "-//W3C//DTD SVG 1.1//EN" "http://www.w3.org/Graphics/SVG/1.1/DTD/svg11.dtd" >
<svg xmlns="http://www.w3.org/2000/svg">
<metadata>Generated by IcoMoon</metadata>
<defs>
<font id="icomoon" horiz-adv-x="1024">
<font-face units-per-em="1024" ascent="960" descent="-64" />
<missing-glyph horiz-adv-x="1024" />
<glyph unicode="&#x20;" horiz-adv-x="512" d="" />
<glyph unicode="&#xe96e;" glyph-name="1" d="M901.565 948.87h-779.13c-61.217 0-111.304-50.087-111.304-111.304v-779.13c0-61.217 50.087-111.304 111.304-111.304h779.13c61.217 0 111.304 50.087 111.304 111.304v779.13c0 61.217-50.087 111.304-111.304 111.304zM512 114.087c-38.957 0-66.783 27.826-66.783 66.783s33.391 72.348 72.348 72.348c38.957 0 66.783-27.826 66.783-72.348 0-33.391-33.391-66.783-72.348-66.783zM678.957 525.913c-44.522-61.217-83.478-83.478-105.739-122.435-5.565-11.13-11.13-16.696-11.13-33.391-5.565-27.826-22.261-44.522-50.087-44.522v0c-27.826 0-50.087 22.261-50.087 55.652 0 16.696 5.565 38.957 16.696 55.652 27.826 50.087 77.913 77.913 111.304 122.435s16.696 128-77.913 128c-38.957 0-66.783-22.261-77.913-44.522-16.696-22.261-38.957-27.826-61.217-22.261-33.391 11.13-44.522 50.087-22.261 72.348 33.391 50.087 89.043 83.478 166.957 83.478 83.478 0 139.13-38.957 166.957-83.478 22.261-38.957 33.391-111.304-5.565-166.957z" />
<glyph unicode="&#xe96f;" glyph-name="15" d="M512 948.87c-233.739 0-428.522-189.217-428.522-422.957s189.217-428.522 428.522-428.522h22.261v-150.261c244.87 116.87 400.696 350.609 400.696 578.783 5.565 233.739-189.217 422.957-422.957 422.957zM562.087 219.826h-100.174v100.174h100.174v-100.174zM584.348 464.696c0-5.565-5.565-5.565 0 0-5.565-5.565-5.565-11.13-11.13-16.696 0 0 0-5.565 0-5.565 0-5.565-5.565-5.565-5.565-11.13-5.565-11.13-5.565-22.261-5.565-33.391h-100.174c0 27.826 5.565 44.522 11.13 66.783 0 0 0 0 0 0s0 5.565 0 5.565c5.565 5.565 5.565 16.696 11.13 22.261 0 0 5.565 5.565 5.565 5.565s0 5.565 5.565 5.565v0c44.522 55.652 111.304 72.348 116.87 133.565 5.565 50.087-27.826 94.609-77.913 105.739-55.652 11.13-100.174-16.696-116.87-61.217-5.565-16.696-22.261-33.391-44.522-33.391h-11.13c-27.826 0-50.087 27.826-38.957 61.217 27.826 89.043 116.87 155.826 222.609 139.13 83.478-11.13 150.261-83.478 166.957-166.957 16.696-122.435-83.478-155.826-128-217.043z" />
<glyph unicode="&#xe970;" glyph-name="2" horiz-adv-x="829" d="M417.391-52.87c55.652 0 105.739 44.522 105.739 100.174h-211.478c0-55.652 44.522-100.174 105.739-100.174zM729.043 253.217v256c0 155.826-83.478 289.391-233.739 322.783v38.957c0 44.522-33.391 77.913-77.913 77.913s-77.913-33.391-77.913-77.913v-33.391c-150.261-33.391-233.739-166.957-233.739-322.783v-256l-66.783-66.783c-33.391-33.391-11.13-89.043 38.957-89.043h684.522c44.522 0 72.348 55.652 38.957 89.043l-72.348 61.217z" />
<glyph unicode="&#xe971;" glyph-name="31" d="M717.913 175.304l-267.13 272.696 267.13 272.696c27.826 27.826 27.826 72.348 0 100.174s-72.348 27.826-94.609 0l-317.217-322.783c-27.826-27.826-27.826-72.348 0-100.174l317.217-322.783c27.826-27.826 72.348-27.826 94.609 0 27.826 33.391 27.826 77.913 0 100.174z" />
<glyph unicode="&#xe972;" glyph-name="3" d="M828.509 717.964l-325.818-325.818-325.818 325.818c-27.927 27.927-83.782 27.927-121.018 0-27.927-37.236-27.927-83.782 0-121.018l381.673-381.673c27.927-27.927 83.782-27.927 121.018 0l381.673 381.673c27.927 27.927 27.927 83.782 0 111.709-27.927 37.236-83.782 37.236-111.709 9.309z" />
<glyph unicode="&#xe973;" glyph-name="4" d="M89.043 175.304v-150.261c0-11.13 11.13-22.261 22.261-22.261h150.261c5.565 0 11.13 0 16.696 5.565l539.826 539.826-183.652 183.652-539.826-539.826c0 0-5.565-5.565-5.565-16.696zM968.348 759.652l-116.87 116.87c-16.696 16.696-50.087 16.696-72.348 0l-89.043-89.043 183.652-183.652 89.043 89.043c22.261 16.696 22.261 50.087 5.565 66.783z" />
<glyph unicode="&#xe974;" glyph-name="5" d="M512 893.217c-244.87 0-445.217-200.348-445.217-445.217s200.348-445.217 445.217-445.217c244.87 0 445.217 200.348 445.217 445.217s-200.348 445.217-445.217 445.217zM389.565 258.783l-155.826 155.826c-16.696 16.696-16.696 44.522 0 66.783 16.696 16.696 44.522 16.696 61.217 0l128-128 306.087 306.087c16.696 16.696 44.522 16.696 61.217 0s16.696-44.522 0-61.217l-339.478-339.478c-11.13-22.261-38.957-22.261-61.217 0z" />
<glyph unicode="&#xe975;" glyph-name="6" d="M512 893.217c-244.87 0-445.217-200.348-445.217-445.217s200.348-445.217 445.217-445.217c244.87 0 445.217 200.348 445.217 445.217s-200.348 445.217-445.217 445.217zM706.783 253.217c-16.696-16.696-44.522-16.696-61.217 0l-128 128-128-128c-16.696-16.696-44.522-16.696-61.217 0s-16.696 44.522 0 61.217l128 128-133.565 133.565c-16.696 16.696-16.696 44.522 0 61.217s44.522 16.696 61.217 0l128-128 128 128c16.696 16.696 44.522 16.696 61.217 0s16.696-44.522 0-61.217l-128-128 128-128c22.261-16.696 22.261-44.522 5.565-66.783z" />
<glyph unicode="&#xe976;" glyph-name="25" d="M512-41.739c-267.13 0-484.174 222.609-484.174 489.739s217.043 484.174 484.174 484.174 484.174-217.043 484.174-484.174-217.043-489.739-484.174-489.739zM512 865.391c-228.174 0-417.391-189.217-417.391-417.391s189.217-417.391 417.391-417.391 417.391 189.217 417.391 417.391-189.217 417.391-417.391 417.391zM422.957 286.609l-128 122.435c-16.696 11.13-16.696 33.391 0 50.087s33.391 11.13 44.522 0l105.739-105.739 239.304 239.304c11.13 11.13 33.391 11.13 44.522 0s11.13-33.391 0-44.522l-261.565-261.565c-11.13-16.696-33.391-16.696-44.522 0z" />
<glyph unicode="&#xe977;" glyph-name="24" d="M384 286.609c-11.13 0-16.696 5.565-22.261 11.13-11.13 11.13-11.13 33.391 0 50.087l105.739 105.739-105.739 94.609c-11.13 11.13-11.13 33.391 0 50.087 11.13 11.13 33.391 11.13 50.087 0l105.739-105.739 105.739 105.739c11.13 11.13 33.391 11.13 50.087 0 11.13-11.13 11.13-33.391 0-50.087l-105.739-105.739 105.739-105.739c11.13-11.13 11.13-33.391 0-50.087-11.13-11.13-33.391-11.13-50.087 0l-105.739 105.739-111.304-100.174c-5.565-5.565-11.13-5.565-22.261-5.565zM512-41.739c-267.13 0-484.174 222.609-484.174 489.739s217.043 484.174 484.174 484.174 484.174-217.043 484.174-484.174-217.043-489.739-484.174-489.739zM512 865.391c-228.174 0-417.391-189.217-417.391-417.391s189.217-417.391 417.391-417.391 417.391 189.217 417.391 417.391-189.217 417.391-417.391 417.391z" />
<glyph unicode="&#xe978;" glyph-name="8" d="M133.565 492.522c-50.087 0-89.043-38.957-89.043-83.478v-300.522c0-44.522 38.957-83.478 89.043-83.478s89.043 38.957 89.043 83.478v294.957c0 50.087-44.522 89.043-89.043 89.043zM445.217 731.826c0 77.913 66.783 139.13 150.261 139.13 44.522 0 89.043-22.261 122.435-55.652 27.826 33.391 72.348 55.652 122.435 55.652 83.478 0 150.261-61.217 150.261-139.13 0-89.043-111.304-194.783-239.304-300.522-16.696-16.696-44.522-16.696-61.217 0-133.565 111.304-244.87 211.478-244.87 300.522zM890.435 236.522h-306.087c-5.565 0-11.13 0-16.696 0l-66.783 22.261c-11.13 5.565-16.696 16.696-11.13 27.826s16.696 16.696 27.826 11.13l50.087-16.696c5.565 0 11.13-5.565 16.696-5.565h116.87c27.826 0 50.087 22.261 50.087 50.087 0 22.261-11.13 38.957-33.391 50.087l-311.652 111.304c0 0-11.13 5.565-22.261 5.565h-72.348v-384l283.826-77.913c16.696-5.565 38.957-5.565 55.652 0l328.348 116.87c0 50.087-38.957 89.043-89.043 89.043z" />
<glyph unicode="&#xe979;" glyph-name="9" d="M951.652 303.304h-244.87v33.391c0 16.696-16.696 22.261-27.826 11.13l-66.783-66.783c-5.565-5.565-5.565-16.696 0-27.826l66.783-66.783c11.13-11.13 27.826-5.565 27.826 11.13v38.957h244.87v66.783zM940.522 91.826l-66.783 66.783c-11.13 11.13-27.826 5.565-27.826-11.13v-33.391h-244.87v-66.783h244.87v-33.391c0-16.696 16.696-22.261 27.826-11.13l66.783 66.783c5.565 0 5.565 11.13 0 22.261zM400.696 754.087c50.087 0 89.043 38.957 89.043 89.043s-38.957 89.043-89.043 89.043-89.043-38.957-89.043-89.043c0-50.087 44.522-89.043 89.043-89.043zM239.304 598.261l-111.304-578.783c-5.565-27.826 16.696-55.652 44.522-55.652h5.565c22.261 0 38.957 16.696 44.522 33.391l66.783 322.783 89.043-83.478v-222.609c0-22.261 22.261-44.522 44.522-44.522s44.522 22.261 44.522 44.522v256c0 22.261-11.13 44.522-27.826 61.217l-66.783 66.783 27.826 133.565c44.522-61.217 111.304-100.174 189.217-111.304 27.826-5.565 50.087 16.696 50.087 44.522 0 22.261-16.696 38.957-38.957 44.522-61.217 11.13-116.87 50.087-150.261 105.739l-38.957 72.348c-16.696 27.826-44.522 44.522-77.913 44.522-11.13 0-22.261 0-33.391-5.565l-172.522-77.913c-33.391-16.696-55.652-44.522-55.652-83.478v-105.739c0-22.261 22.261-44.522 44.522-44.522s44.522 22.261 44.522 44.522v105.739l77.913 33.391z" />
<glyph unicode="&#xe97a;" glyph-name="7" d="M946.087 303.304l38.957 38.957c22.261 22.261 22.261 50.087 0 72.348v0c-22.261 22.261-50.087 22.261-72.348 0l-144.696-144.696-434.087 428.522 144.696 144.696c22.261 22.261 22.261 50.087 0 72.348v0c-22.261 22.261-50.087 22.261-72.348 0l-38.957-38.957-33.391 38.957c-22.261 16.696-55.652 16.696-72.348 0l-72.348-72.348-33.391 33.391c-22.261 22.261-50.087 22.261-72.348 0s-22.261-50.087 0-72.348l38.957-38.957-77.913-66.783c-16.696-16.696-16.696-50.087 0-72.348l38.957-38.957-38.957-33.391c-22.261-22.261-22.261-50.087 0-72.348v0c22.261-22.261 50.087-22.261 72.348 0l144.696 144.696 428.522-428.522-144.696-144.696c-22.261-22.261-22.261-50.087 0-72.348v0c22.261-22.261 50.087-22.261 72.348 0l38.957 38.957 38.957-38.957c22.261-22.261 50.087-22.261 72.348 0l72.348 72.348 38.957-38.957c22.261-22.261 50.087-22.261 72.348 0s22.261 50.087 0 72.348l-44.522 38.957 72.348 72.348c22.261 22.261 22.261 50.087 0 72.348l-33.391 33.391z" />
<glyph unicode="&#xe97b;" glyph-name="10" d="M851.478 837.565h-50.087v44.522c0 27.826-22.261 50.087-50.087 50.087s-50.087-22.261-50.087-50.087v-50.087h-389.565v50.087c0 27.826-22.261 50.087-50.087 50.087s-38.957-22.261-38.957-50.087v-50.087h-50.087c-55.652 5.565-94.609-38.957-94.609-94.609v-678.957c0-55.652 44.522-94.609 94.609-94.609h678.957c55.652 0 94.609 44.522 94.609 94.609v678.957c0 55.652-44.522 100.174-94.609 100.174zM851.478 108.522c0-27.826-22.261-50.087-50.087-50.087h-578.783c-27.826 0-50.087 22.261-50.087 50.087v484.174h678.957v-484.174zM272.696 498.087h94.609v-94.609h-94.609v94.609zM461.913 498.087h94.609v-94.609h-94.609v94.609zM656.696 498.087h94.609v-94.609h-94.609v94.609z" />
<glyph unicode="&#xe97c;" glyph-name="11" d="M512 943.304c-272.696 0-495.304-222.609-495.304-495.304s222.609-495.304 495.304-495.304c272.696 0 495.304 222.609 495.304 495.304s-222.609 495.304-495.304 495.304zM512 52.87c-217.043 0-395.13 178.087-395.13 395.13s178.087 395.13 395.13 395.13c217.043 0 395.13-178.087 395.13-395.13s-178.087-395.13-395.13-395.13zM500.87 692.87v0c-22.261 0-38.957-16.696-38.957-33.391v-233.739c0-16.696 11.13-33.391 22.261-44.522l205.913-122.435c16.696-11.13 38.957-5.565 50.087 11.13s5.565 38.957-11.13 50.087l-189.217 111.304v222.609c-5.565 22.261-16.696 38.957-38.957 38.957z" />
<glyph unicode="&#xe97d;" glyph-name="12" d="M512 948.87c-278.261 0-500.87-222.609-500.87-500.87s222.609-500.87 500.87-500.87c278.261 0 500.87 222.609 500.87 500.87s-222.609 500.87-500.87 500.87zM512 798.609c83.478 0 150.261-66.783 150.261-150.261s-66.783-150.261-150.261-150.261c-83.478 0-150.261 66.783-150.261 150.261s72.348 150.261 150.261 150.261zM512 86.261c-128 0-233.739 66.783-300.522 161.391 5.565 100.174 200.348 155.826 300.522 155.826s300.522-55.652 300.522-155.826c-61.217-94.609-172.522-161.391-300.522-161.391z" />
<glyph unicode="&#xe97e;" glyph-name="13" d="M133.565 826.435h328.348c27.826 0 55.652 22.261 55.652 55.652s-22.261 55.652-55.652 55.652h-328.348c-61.217 0-111.304-50.087-111.304-105.739v-762.435c0-61.217 50.087-105.739 111.304-105.739h328.348c27.826 0 55.652 22.261 55.652 55.652s-22.261 55.652-55.652 55.652h-328.348v751.304zM990.609 464.696l-150.261 150.261c-16.696 16.696-44.522 5.565-44.522-16.696v-94.609h-389.565c-27.826 0-55.652-22.261-55.652-55.652 0-27.826 22.261-55.652 55.652-55.652h384v-94.609c0-22.261 27.826-38.957 44.522-16.696l150.261 150.261c16.696 5.565 16.696 27.826 5.565 33.391z" />
<glyph unicode="&#xe97f;" glyph-name="14" d="M884.87 69.565h-328.348c-27.826 0-55.652-22.261-55.652-55.652s22.261-55.652 55.652-55.652h328.348c61.217 0 111.304 50.087 111.304 105.739v762.435c0 61.217-50.087 105.739-111.304 105.739h-328.348c-27.826 0-55.652-22.261-55.652-55.652 0-27.826 22.261-55.652 55.652-55.652h328.348v-751.304zM678.957 464.696l-155.826 150.261c-16.696 22.261-44.522 5.565-44.522-16.696v-94.609h-384c-27.826 0-55.652-22.261-55.652-55.652 0-27.826 22.261-55.652 55.652-55.652h384v-94.609c0-22.261 27.826-38.957 44.522-16.696l150.261 150.261c16.696 5.565 16.696 27.826 5.565 33.391z" />
<glyph unicode="&#xe980;" glyph-name="16" d="M896 448c0 11.13 0 22.261 0 33.391l94.609 72.348c22.261 16.696 27.826 44.522 11.13 66.783l-94.609 161.391c-11.13 22.261-38.957 33.391-66.783 22.261l-111.304-44.522c-16.696 11.13-38.957 22.261-61.217 33.391l-11.13 111.304c-5.565 22.261-27.826 44.522-50.087 44.522h-189.217c-27.826 0-50.087-16.696-50.087-44.522l-16.696-116.87c-22.261-5.565-44.522-16.696-61.217-33.391l-111.304 44.522c-22.261 11.13-50.087 0-66.783-22.261l-94.609-161.391c-11.13-22.261-5.565-44.522 16.696-61.217l94.609-72.348c0-11.13 0-22.261 0-33.391s0-22.261 0-33.391l-94.609-72.348c-22.261-16.696-27.826-44.522-11.13-66.783l94.609-161.391c11.13-22.261 38.957-33.391 66.783-22.261l111.304 44.522c16.696-11.13 38.957-22.261 61.217-33.391l16.696-116.87c5.565-27.826 27.826-44.522 50.087-44.522h194.783c27.826 0 50.087 16.696 50.087 44.522l16.696 116.87c22.261 11.13 38.957 22.261 61.217 33.391l111.304-44.522c22.261-11.13 50.087 0 66.783 22.261l94.609 161.391c11.13 22.261 5.565 50.087-11.13 66.783l-94.609 72.348c-16.696 11.13-16.696 22.261-16.696 33.391zM512 275.478c-94.609 0-178.087 77.913-178.087 172.522s83.478 178.087 178.087 178.087c100.174 0 178.087-77.913 178.087-178.087s-77.913-172.522-178.087-172.522z" />
<glyph unicode="&#xe981;" glyph-name="17" d="M512 937.739c-272.696 0-489.739-222.609-489.739-489.739s222.609-489.739 489.739-489.739 489.739 222.609 489.739 489.739-217.043 489.739-489.739 489.739zM512 203.13c-27.826 0-50.087 22.261-50.087 50.087v194.783c0 27.826 22.261 50.087 50.087 50.087s50.087-22.261 50.087-50.087v-194.783c0-27.826-22.261-50.087-50.087-50.087zM562.087 598.261h-100.174v94.609h100.174v-94.609z" />
<glyph unicode="&#xe982;" glyph-name="18" d="M996.174 620.522c0 27.826-22.261 50.087-50.087 50.087h-345.043c-27.826 0-50.087-22.261-50.087-50.087s22.261-50.087 50.087-50.087h345.043c27.826 0 50.087 22.261 50.087 50.087zM550.957 225.391c0-27.826 22.261-50.087 50.087-50.087h345.043c27.826 0 50.087 22.261 50.087 50.087s-22.261 50.087-50.087 50.087h-345.043c-27.826 0-50.087-27.826-50.087-50.087zM428.522 787.478c16.696-16.696 16.696-50.087 0-72.348l-211.478-205.913c-22.261-22.261-50.087-22.261-72.348 0l-105.739 105.739c-16.696 16.696-16.696 50.087 0 66.783s50.087 22.261 72.348 0l72.348-72.348 178.087 178.087c11.13 16.696 44.522 16.696 66.783 0zM428.522 392.348c16.696-16.696 16.696-50.087 0-72.348l-211.478-211.478c-16.696-16.696-50.087-16.696-72.348 0l-105.739 105.739c-16.696 16.696-16.696 50.087 0 72.348 16.696 16.696 50.087 16.696 72.348 0l72.348-72.348 178.087 178.087c11.13 16.696 44.522 16.696 66.783 0z" />
<glyph unicode="&#xe983;" glyph-name="19" d="M250.435 709.565h523.13v-94.609c0-22.261 27.826-33.391 44.522-16.696l144.696 144.696c11.13 11.13 11.13 27.826 0 38.957l-144.696 144.696c-16.696 16.696-44.522 5.565-44.522-16.696v-94.609h-573.217c-27.826 0-50.087-22.261-50.087-50.087v-205.913c0-27.826 22.261-50.087 50.087-50.087s50.087 22.261 50.087 50.087v150.261zM773.565 186.435h-523.13v94.609c0 22.261-27.826 33.391-44.522 16.696l-144.696-144.696c-11.13-11.13-11.13-27.826 0-38.957l144.696-144.696c16.696-16.696 44.522-5.565 44.522 16.696v94.609h573.217c27.826 0 50.087 22.261 50.087 50.087v205.913c0 27.826-22.261 50.087-50.087 50.087s-50.087-22.261-50.087-50.087v-150.261z" />
<glyph unicode="&#xe984;" glyph-name="20" d="M907.13 943.304h-790.261c-55.652 0-100.174-44.522-100.174-100.174v-545.391c0-55.652 44.522-100.174 100.174-100.174h200.348v-244.87l200.348 100.174 200.348-100.174v244.87h200.348c55.652 0 100.174 44.522 100.174 100.174v550.957c-11.13 50.087-55.652 94.609-111.304 94.609zM907.13 303.304h-790.261v100.174h790.261v-100.174zM907.13 548.174h-790.261v250.435c0 27.826 22.261 50.087 50.087 50.087h695.652c27.826 0 50.087-22.261 50.087-50.087v-250.435z" />
<glyph unicode="&#xe985;" glyph-name="22" d="M517.565 937.739c-272.696 0-495.304-222.609-495.304-495.304s222.609-495.304 495.304-495.304 495.304 222.609 495.304 495.304c-5.565 278.261-222.609 495.304-495.304 495.304zM384 236.522l-178.087 172.522c-22.261 22.261-22.261 50.087 0 72.348s50.087 16.696 66.783 0l144.696-144.696 339.478 339.478c16.696 16.696 50.087 16.696 66.783 0s16.696-50.087 0-66.783l-372.87-372.87c-16.696-22.261-50.087-22.261-66.783 0z" />
<glyph unicode="&#xe986;" glyph-name="23" d="M66.783 114.087h890.435c27.826 0 55.652 27.826 55.652 55.652 0 33.391-27.826 55.652-55.652 55.652h-890.435c-33.391 0-55.652-22.261-55.652-55.652 0-27.826 22.261-55.652 55.652-55.652zM66.783 392.348h890.435c27.826 0 55.652 22.261 55.652 55.652 0 27.826-27.826 55.652-55.652 55.652h-890.435c-33.391 0-55.652-27.826-55.652-55.652 0-33.391 22.261-55.652 55.652-55.652zM11.13 726.261c0-27.826 22.261-55.652 55.652-55.652h890.435c27.826 0 55.652 27.826 55.652 55.652 0 33.391-27.826 55.652-55.652 55.652h-890.435c-33.391 0-55.652-27.826-55.652-55.652z" />
<glyph unicode="&#xe987;" glyph-name="26" d="M139.13 503.652h211.478c61.217 0 105.739 50.087 105.739 105.739v211.478c0 61.217-50.087 105.739-105.739 105.739h-211.478c-61.217 0-105.739-50.087-105.739-105.739v-211.478c0-61.217 44.522-105.739 105.739-105.739zM139.13-30.609h211.478c61.217 0 105.739 50.087 105.739 105.739v211.478c0 61.217-50.087 105.739-105.739 105.739h-211.478c-61.217 0-105.739-50.087-105.739-105.739v-211.478c0-61.217 44.522-105.739 105.739-105.739zM567.652 820.87v-211.478c0-61.217 50.087-105.739 105.739-105.739h211.478c61.217 0 105.739 50.087 105.739 105.739v211.478c0 61.217-50.087 105.739-105.739 105.739h-211.478c-61.217 0-105.739-44.522-105.739-105.739zM673.391-30.609h211.478c61.217 0 105.739 50.087 105.739 105.739v211.478c0 61.217-50.087 105.739-105.739 105.739h-211.478c-61.217 0-105.739-50.087-105.739-105.739v-211.478c0-61.217 44.522-105.739 105.739-105.739z" />
<glyph unicode="&#xe988;" glyph-name="27" d="M378.435 130.783l278.261 484.174 89.043-333.913c5.565-27.826 33.391-44.522 61.217-33.391 27.826 5.565 44.522 33.391 33.391 61.217l-116.87 445.217c-5.565 27.826-33.391 44.522-61.217 33.391l-450.783-116.87c-22.261-5.565-38.957-33.391-33.391-61.217s33.391-44.522 61.217-33.391l333.913 89.043-278.261-484.174c-11.13-22.261-5.565-55.652 16.696-66.783 22.261-16.696 55.652-11.13 66.783 16.696z" />
<glyph unicode="&#xe989;" glyph-name="28" d="M200.348 598.261l467.478-306.087-339.478-66.783c-27.826-5.565-44.522-33.391-38.957-61.217s33.391-44.522 61.217-38.957l456.348 94.609c27.826 5.565 44.522 33.391 38.957 61.217l-89.043 456.348c-5.565 27.826-33.391 44.522-61.217 38.957-27.826-11.13-44.522-38.957-38.957-66.783l66.783-339.478-467.478 311.652c-22.261 16.696-55.652 11.13-66.783-16.696-16.696-16.696-11.13-50.087 11.13-66.783z" />
<glyph unicode="&#xe98a;" glyph-name="29" d="M150.261 397.913h556.522l-244.87-244.87c-22.261-16.696-22.261-50.087 0-72.348 16.696-22.261 50.087-22.261 72.348 0l328.348 328.348c22.261 16.696 22.261 50.087 0 72.348l-322.783 333.913c-16.696 22.261-50.087 22.261-72.348 0-16.696-22.261-16.696-55.652 0-72.348l244.87-244.87h-556.522c-27.826 0-50.087-22.261-50.087-50.087-5.565-27.826 16.696-50.087 44.522-50.087z" />
<glyph unicode="&#xe98b;" glyph-name="30" d="M834.783 486.957h-556.522l244.87 244.87c22.261 16.696 22.261 50.087 0 72.348-22.261 16.696-50.087 16.696-72.348 0l-328.348-328.348c-22.261-16.696-22.261-50.087 0-72.348l328.348-328.348c16.696-22.261 50.087-22.261 72.348 0 22.261 16.696 22.261 50.087 0 72.348l-244.87 239.304h556.522c27.826 0 50.087 22.261 50.087 50.087s-22.261 50.087-50.087 50.087z" />
<glyph unicode="&#xe98c;" glyph-name="21" d="M985.043 909.913c-27.826 27.826-77.913 27.826-105.739 0l-361.739-361.739-361.739 361.739c-27.826 27.826-77.913 27.826-105.739 0s-27.826-77.913 0-105.739l361.739-361.739-361.739-361.739c-27.826-27.826-27.826-77.913 0-105.739s77.913-27.826 105.739 0l361.739 361.739 361.739-361.739c27.826-27.826 77.913-27.826 105.739 0s27.826 77.913 0 105.739l-361.739 361.739 361.739 361.739c27.826 33.391 27.826 77.913 0 105.739z" />
</font>
</defs>
</svg>
