<?xml version="1.0" encoding="utf-8"?>
<!-- Generator: Adobe Illustrator 24.0.0, SVG Export Plug-In . SVG Version: 6.00 Build 0)  -->
<svg version="1.1" id="Calque_1" xmlns="http://www.w3.org/2000/svg" xmlns:xlink="http://www.w3.org/1999/xlink" x="0px" y="0px"
	 viewBox="0 0 22.9 22.6" style="enable-background:new 0 0 22.9 22.6;" xml:space="preserve">
<style type="text/css">
	.st0{fill:#FB8B68;}
	.st1{fill:#FFCB46;}
	.st2{fill:#FF6332;}
</style>
<path class="st0" d="M3.6,5.9C4.2,5.5,5,5.6,5.5,6L5,5.2C4.5,4.5,4.7,3.8,5.3,3.3C6,2.9,7.9,4.1,7.9,4.1c-0.5-0.7-0.4-1.5,0.3-2
	c0.7-0.5,1.6-0.3,2.1,0.4l6.3,8.8l-0.8,7.7l-6.7-2.4L3.2,8C2.8,7.4,2.9,6.4,3.6,5.9z"/>
<path class="st1" d="M2.3,10.9c0,0-0.7-1,0.3-1.7c1-0.7,1.7,0.3,1.7,0.3l3.2,4.6c0.1-0.2,0.2-0.4,0.4-0.5L3.4,7.2c0,0-0.7-1,0.3-1.7
	c1-0.7,1.7,0.3,1.7,0.3l4.1,6c0.2-0.1,0.3-0.3,0.5-0.4l-4.8-7c0,0-0.7-1,0.3-1.7c1-0.7,1.7,0.3,1.7,0.3l4.8,7
	c0.2-0.1,0.3-0.2,0.5-0.3L8,3.3c0,0-0.7-1,0.3-1.7c1-0.7,1.7,0.3,1.7,0.3l4.7,6.9l0.7,1c-3,2-3.3,5.9-1.6,8.4
	c0.3,0.5,0.8,0.2,0.8,0.2c-2-3-1.4-6.3,1.6-8.4l-0.9-4.4c0,0-0.3-1.2,0.8-1.5C17.4,3.8,17.7,5,17.7,5l1,3c0.4,1.2,0.8,2.4,1.4,3.5
	c1.6,3.2,0.6,7.1-2.4,9.2c-3.3,2.3-7.8,1.4-10-1.9L2.3,10.9z"/>
<path class="st2" d="M7.9,19.7c-2.4,0-4.8-2.4-4.8-4.8c0-0.3-0.2-0.6-0.6-0.6s-0.6,0.3-0.6,0.6c0,3.6,2.4,6,6,6
	c0.3,0,0.6-0.3,0.6-0.6C8.5,19.9,8.2,19.7,7.9,19.7z"/>
<path class="st2" d="M4.9,20.9c-1.8,0-3-1.2-3-3c0-0.3-0.3-0.6-0.6-0.6c-0.3,0-0.6,0.3-0.6,0.6c0,2.4,1.8,4.2,4.2,4.2
	c0.3,0,0.6-0.3,0.6-0.6C5.5,21.1,5.2,20.9,4.9,20.9z M15.1,1.6c-0.3,0-0.6,0.3-0.6,0.6s0.3,0.6,0.6,0.6c2.4,0,4.8,2.2,4.8,4.8
	c0,0.3,0.3,0.6,0.6,0.6c0.3,0,0.6-0.3,0.6-0.6C21.1,4.3,18.7,1.6,15.1,1.6z"/>
<path class="st2" d="M18.1,0.5c-0.3,0-0.6,0.2-0.6,0.6s0.3,0.6,0.6,0.6c1.8,0,3,1.3,3,3c0,0.3,0.3,0.6,0.6,0.6
	c0.3,0,0.6-0.3,0.6-0.6C22.3,2.3,20.5,0.5,18.1,0.5z"/>
</svg>
