<?xml version="1.0" encoding="utf-8"?>
<!-- Generator: Adobe Illustrator 24.0.0, SVG Export Plug-In . SVG Version: 6.00 Build 0)  -->
<svg version="1.1" id="Calque_1" xmlns="http://www.w3.org/2000/svg" xmlns:xlink="http://www.w3.org/1999/xlink" x="0px" y="0px"
	 viewBox="0 0 36.6 36.6" style="enable-background:new 0 0 36.6 36.6;" xml:space="preserve">
<style type="text/css">
	.st0{fill:#FFCB46;}
	.st1{fill:#222E54;}
</style>
<path class="st0" d="M36,18.3c0,9.8-8,17.8-17.8,17.8c-9.8,0-17.8-8-17.8-17.8c0-9.8,8-17.8,17.8-17.8C28.1,0.6,36,8.5,36,18.3z"/>
<path class="st1" d="M25.7,30c0-0.2-1.2-4.3-7.4-4.3c-6.2,0-7.3,4.1-7.4,4.3c-0.1,0.2,0,0.4,0.2,0.5c0.2,0.1,0.4,0.1,0.6-0.1
	c0,0,1.9-1.8,6.6-1.8c4.6,0,6.5,1.8,6.6,1.8c0.1,0.1,0.2,0.1,0.3,0.1c0.1,0,0.2,0,0.2-0.1C25.6,30.5,25.7,30.2,25.7,30z M16,17.6
	c-3.2-3.2-8.4-3.2-8.6-3.2c-0.5,0-1,0.4-1,1c0,0.5,0.4,1,1,1c0,0,1.9,0,3.9,0.7c-0.6,0.6-1,1.6-1,2.7c0,1.9,1.1,3.5,2.5,3.5
	s2.5-1.5,2.5-3.5c0-0.2,0-0.3,0-0.5c0,0,0,0,0,0c0.3,0,0.5-0.1,0.7-0.3C16.4,18.6,16.4,18,16,17.6z M29.1,14.4c-0.2,0-5.4,0-8.6,3.2
	c-0.4,0.4-0.4,1,0,1.4c0.2,0.2,0.4,0.3,0.7,0.3c0,0,0,0,0,0c0,0.2,0,0.3,0,0.5c0,1.9,1.1,3.5,2.5,3.5c1.4,0,2.5-1.5,2.5-3.5
	c0-1.1-0.4-2.1-1-2.7c2-0.7,3.9-0.7,3.9-0.7c0.5,0,1-0.4,1-1C30.1,14.8,29.7,14.4,29.1,14.4z"/>
</svg>
