<?xml version="1.0" encoding="utf-8"?>
<!-- Generator: Adobe Illustrator 24.0.0, SVG Export Plug-In . SVG Version: 6.00 Build 0)  -->
<svg version="1.1" id="Calque_1" xmlns="http://www.w3.org/2000/svg" xmlns:xlink="http://www.w3.org/1999/xlink" x="0px" y="0px"
	 viewBox="0 0 36.6 36.6" style="enable-background:new 0 0 36.6 36.6;" xml:space="preserve">
<style type="text/css">
	.st0{fill:#FFCB46;}
	.st1{fill:#222E54;}
</style>
<path class="st0" d="M36,18.3c0,9.8-8,17.8-17.8,17.8s-17.8-8-17.8-17.8s8-17.8,17.8-17.8C28.1,0.6,36,8.5,36,18.3z"/>
<path class="st1" d="M11.9,20.3c1.4,0,2.5-1.5,2.5-3.5c0-1.9-1.1-3.5-2.5-3.5s-2.5,1.5-2.5,3.5C9.4,18.7,10.5,20.3,11.9,20.3z"/>
<path class="st1" d="M24.7,20.3c1.4,0,2.5-1.5,2.5-3.5c0-1.9-1.1-3.5-2.5-3.5s-2.5,1.5-2.5,3.5C22.2,18.7,23.3,20.3,24.7,20.3z"/>
<path class="st1" d="M26,28.9c0-0.2-1.2-4.3-7.4-4.3s-7.3,4.1-7.4,4.3c-0.1,0.2,0,0.4,0.2,0.5s0.4,0.1,0.6-0.1c0,0,1.9-1.8,6.6-1.8
	c4.6,0,6.5,1.8,6.6,1.8c0.1,0.1,0.2,0.1,0.3,0.1c0.1,0,0.2,0,0.2-0.1C25.9,29.4,26,29.1,26,28.9z M6.4,12.4c-0.2,0-0.4-0.1-0.6-0.2
	c-0.4-0.3-0.5-0.9-0.2-1.4c3.2-4.3,7.5-4.3,7.7-4.3c0.5,0,1,0.4,1,1c0,0.5-0.4,1-1,1c-0.2,0-3.5,0.1-6.1,3.6
	C7,12.3,6.7,12.4,6.4,12.4z M30.1,12.4c-0.3,0-0.6-0.1-0.8-0.4c-2.6-3.5-6-3.6-6.1-3.6c-0.5,0-1-0.4-1-1c0-0.5,0.4-1,1-1
	c0.2,0,4.5,0,7.7,4.3c0.3,0.4,0.2,1.1-0.2,1.4C30.5,12.3,30.3,12.4,30.1,12.4z"/>
</svg>
