<?xml version="1.0" encoding="utf-8"?>
<!-- Generator: Adobe Illustrator 24.0.0, SVG Export Plug-In . SVG Version: 6.00 Build 0)  -->
<svg version="1.1" id="Calque_1" xmlns="http://www.w3.org/2000/svg" xmlns:xlink="http://www.w3.org/1999/xlink" x="0px" y="0px"
	 viewBox="0 0 36.6 36.6" style="enable-background:new 0 0 36.6 36.6;" xml:space="preserve">
<style type="text/css">
	.st0{fill:#FFCB46;}
	.st1{fill:#664100;}
	.st2{fill:#222E54;}
	.st3{fill:#FFFFFF;}
</style>
<path class="st0" d="M36,18.3c0,9.8-8,17.8-17.8,17.8s-17.8-8-17.8-17.8s8-17.8,17.8-17.8C28.1,0.6,36,8.5,36,18.3z"/>
<path class="st1" d="M18.2,23.9"/>
<g>
	<g>
		<path class="st2" d="M26.5,18.3c-0.2,0-0.3-0.1-0.4-0.2c-1.6-1.1-3.5-1.7-5.8-2c-0.3,0-0.5-0.2-0.6-0.5s0-0.5,0.2-0.8
			c1.4-1.4,3.3-2.1,5.9-2.3c0.4,0,0.7,0.3,0.8,0.7c0,0.4-0.3,0.7-0.7,0.8c-1.5,0.1-2.8,0.4-3.8,0.9c1.8,0.3,3.5,1,4.8,2
			c0.3,0.2,0.4,0.7,0.2,1C27,18.2,26.8,18.3,26.5,18.3z"/>
	</g>
	<g>
		<path class="st2" d="M9.9,18.3c0.2,0,0.3-0.1,0.4-0.2c1.6-1.1,3.5-1.7,5.8-2c0.3,0,0.5-0.2,0.6-0.5s0-0.5-0.2-0.8
			c-1.4-1.4-3.3-2.1-5.9-2.3c-0.4,0-0.7,0.3-0.8,0.7c0,0.4,0.3,0.7,0.7,0.8c1.5,0.1,2.8,0.4,3.8,0.9c-1.8,0.3-3.5,1-4.8,2
			c-0.3,0.2-0.4,0.7-0.2,1C9.4,18.2,9.6,18.3,9.9,18.3z"/>
	</g>
</g>
<g>
	<g>
		<path class="st2" d="M29.2,10c-0.1-0.3-0.4-0.5-0.7-0.6c-3-0.2-4.1-1.1-6-3.4c-0.3-0.4-0.9-0.4-1.2-0.1c-0.4,0.3-0.4,0.8-0.1,1.2
			c2,2.6,3.6,3.8,7.2,4.1c0.5,0,0.9-0.3,0.9-0.8C29.3,10.2,29.2,10.1,29.2,10z"/>
	</g>
	<g>
		<path class="st2" d="M7.2,10c0.1-0.3,0.4-0.5,0.7-0.6c3-0.2,4.1-1.1,6-3.4c0.3-0.4,0.9-0.4,1.2-0.1c0.4,0.3,0.4,0.8,0.1,1.2
			c-2,2.6-3.6,3.8-7.2,4.1c-0.5,0-0.9-0.3-0.9-0.8C7.1,10.2,7.2,10.1,7.2,10z"/>
	</g>
</g>
<g>
	<path class="st2" d="M27.4,29.8c-6.3-2.1-12.2-2.1-18.2,0c-0.3,0.1-0.6-0.2-0.5-0.5c1.1-4.5,4.9-7.9,9.6-7.9s8.6,3.3,9.6,7.9
		C27.8,29.7,27.6,29.9,27.4,29.8z"/>
	<path class="st3" d="M23.6,24.9H12.8c0,0,0.1,0,0.1-0.1c1.5-1.3,3.3-1.9,5.4-1.9C20.1,22.9,22,23.6,23.6,24.9
		C23.6,24.8,23.6,24.8,23.6,24.9z"/>
</g>
</svg>
