<?xml version="1.0" encoding="utf-8"?>
<!-- Generator: Adobe Illustrator 24.0.0, SVG Export Plug-In . SVG Version: 6.00 Build 0)  -->
<svg version="1.1" id="Calque_1" xmlns="http://www.w3.org/2000/svg" xmlns:xlink="http://www.w3.org/1999/xlink" x="0px" y="0px"
	 viewBox="0 0 36.6 36.6" style="enable-background:new 0 0 36.6 36.6;" xml:space="preserve">
<style type="text/css">
	.st0{fill:#FFCB46;}
	.st1{fill:#222E54;}
</style>
<path class="st0" d="M36,18.3c0,9.8-8,17.8-17.8,17.8c-9.8,0-17.8-8-17.8-17.8c0-9.8,8-17.8,17.8-17.8C28.1,0.6,36,8.5,36,18.3z"/>
<path class="st1" d="M11.9,18.3c1.4,0,2.5-1.5,2.5-3.5c0-1.9-1.1-3.5-2.5-3.5c-1.4,0-2.5,1.5-2.5,3.5C9.4,16.8,10.5,18.3,11.9,18.3z
	"/>
<path class="st1" d="M24.7,18.3c1.4,0,2.5-1.5,2.5-3.5c0-1.9-1.1-3.5-2.5-3.5c-1.4,0-2.5,1.5-2.5,3.5C22.2,16.8,23.3,18.3,24.7,18.3
	z"/>
<path class="st1" d="M9.1,28.1c0.2,0.2,0.4,0.2,0.6,0c0,0,3.9-2.9,8.6-2.9c4.7,0,8.5,2.8,8.6,2.9c0.2,0.1,0.5,0.1,0.6,0
	c0.2-0.2,0.2-0.4,0.1-0.6c-0.1-0.2-3.2-5.2-9.3-5.2c-6.1,0-9.2,5-9.3,5.2C8.9,27.6,8.9,27.9,9.1,28.1z"/>
</svg>
