<?xml version="1.0" encoding="utf-8"?>
<!-- Generator: Adobe Illustrator 24.0.0, SVG Export Plug-In . SVG Version: 6.00 Build 0)  -->
<svg version="1.1" id="Calque_1" xmlns="http://www.w3.org/2000/svg" xmlns:xlink="http://www.w3.org/1999/xlink" x="0px" y="0px"
	 viewBox="0 0 36.6 36.6" style="enable-background:new 0 0 36.6 36.6;" xml:space="preserve">
<style type="text/css">
	.st0{fill:#FFCB46;}
	.st1{fill:none;stroke:#E30613;stroke-width:1.0017;stroke-miterlimit:10;}
	.st2{fill:#222E54;}
</style>
<path class="st0" d="M18.3,36.1c9.8,0,17.8-8,17.8-17.8s-8-17.8-17.8-17.8S0.5,8.5,0.5,18.3S8.5,36.1,18.3,36.1z"/>
<g id="Slightly_Frowning_Face">
	<path class="st1" d="M18.3,25.1"/>
</g>
<g>
	<ellipse class="st2" cx="24.3" cy="13.8" rx="2.3" ry="3.4"/>
	<ellipse class="st2" cx="12.3" cy="13.8" rx="2.3" ry="3.4"/>
</g>
<path class="st2" d="M25.2,28.2L25.2,28.2c-0.1,0-0.2,0-0.3-0.1c-1.2-1.1-3.7-1.8-6.7-1.8c-2.9,0-5.5,0.7-6.7,1.8
	c-0.1,0.1-0.2,0.1-0.3,0.1h0c-0.3,0-0.4-0.2-0.4-0.5c0.4-2.4,3.6-4.3,7.3-4.3c3.8,0,6.9,1.9,7.3,4.3C25.7,28,25.5,28.2,25.2,28.2z"
	/>
</svg>
