<?xml version="1.0" encoding="utf-8"?>
<!-- Generator: Adobe Illustrator 24.0.0, SVG Export Plug-In . SVG Version: 6.00 Build 0)  -->
<svg version="1.1" id="Calque_1" xmlns="http://www.w3.org/2000/svg" xmlns:xlink="http://www.w3.org/1999/xlink" x="0px" y="0px"
	 viewBox="0 0 36.6 36.6" style="enable-background:new 0 0 36.6 36.6;" xml:space="preserve">
<style type="text/css">
	.st0{fill:#FFCB46;}
	.st1{fill:#222E54;}
</style>
<path class="st0" d="M36,18.3c0,9.8-8,17.8-17.8,17.8c-9.8,0-17.8-8-17.8-17.8c0-9.8,8-17.8,17.8-17.8C28.1,0.6,36,8.5,36,18.3z"/>
<path class="st1" d="M11.9,20.3c1.4,0,2.5-1.5,2.5-3.5c0-1.9-1.1-3.5-2.5-3.5c-1.4,0-2.5,1.5-2.5,3.5C9.4,18.7,10.5,20.3,11.9,20.3z
	"/>
<path class="st1" d="M24.7,20.3c1.4,0,2.5-1.5,2.5-3.5c0-1.9-1.1-3.5-2.5-3.5s-2.5,1.5-2.5,3.5C22.2,18.7,23.3,20.3,24.7,20.3z"/>
<path class="st1" d="M25.2,26.2H11.4c-0.5,0-1-0.4-1-1c0-0.5,0.4-1,1-1h13.8c0.5,0,1,0.4,1,1C26.2,25.8,25.7,26.2,25.2,26.2z"/>
</svg>
