<?xml version="1.0" encoding="utf-8"?>
<!-- Generator: Adobe Illustrator 24.0.0, SVG Export Plug-In . SVG Version: 6.00 Build 0)  -->
<svg version="1.1" id="Calque_1" xmlns="http://www.w3.org/2000/svg" xmlns:xlink="http://www.w3.org/1999/xlink" x="0px" y="0px"
	 viewBox="0 0 36.6 36.6" style="enable-background:new 0 0 36.6 36.6;" xml:space="preserve">
<style type="text/css">
	.st0{fill:#FFCB46;}
	.st1{fill:#222E54;}
</style>
<path class="st0" d="M18.3,36.1c9.8,0,17.8-8,17.8-17.8s-8-17.8-17.8-17.8S0.5,8.5,0.5,18.3S8.5,36.1,18.3,36.1z"/>
<g id="Confused_Face">
	<g>
		<ellipse class="st1" cx="24.8" cy="16.8" rx="2.3" ry="3.4"/>
		<ellipse class="st1" cx="11.8" cy="16.8" rx="2.3" ry="3.4"/>
	</g>
	<path class="st1" d="M12.4,28.2"/>
</g>
<g>
	<path class="st1" d="M25.2,24.9l0.1,0.1C25.2,24.9,25.2,24.9,25.2,24.9z"/>
	<path class="st1" d="M25.3,25C25.3,25,25.3,25,25.3,25c0,0-0.1-0.1-0.1-0.1c-4.2-2.2-10.4-0.5-12.3,2.5c0,0,0,0,0,0
		c0,0,0,0.1-0.1,0.1c0,0,0,0,0,0c0,0,0,0,0,0c-0.3,0.5-0.3,0.9-0.3,0.9c0,0,0,0,0,0c0,0,0,0,0,0l0,0c0,0.1,0,0.3,0.1,0.3
		c0.1,0,0.2-0.1,0.4-0.3c2.8-1.9,6-3,11.9-2.3c0.1,0,0.1,0,0.2,0c0,0,0,0,0,0c0.1,0,0.2,0,0.3-0.1C25.8,25.7,25.3,25,25.3,25z"/>
</g>
</svg>
