<?xml version="1.0" encoding="utf-8"?>
<!-- Generator: Adobe Illustrator 24.0.0, SVG Export Plug-In . SVG Version: 6.00 Build 0)  -->
<svg version="1.1" id="Calque_1" xmlns="http://www.w3.org/2000/svg" xmlns:xlink="http://www.w3.org/1999/xlink" x="0px" y="0px"
	 viewBox="0 0 36.6 36.6" style="enable-background:new 0 0 36.6 36.6;" xml:space="preserve">
<style type="text/css">
	.st0{fill:#FFCB46;}
	.st1{fill:#222E54;}
</style>
<path class="st0" d="M18.3,36.1c9.8,0,17.8-8,17.8-17.8s-8-17.8-17.8-17.8S0.5,8.5,0.5,18.3S8.5,36.1,18.3,36.1z"/>
<path class="st1" d="M12.1,17.6c1.4,0,2.5-1.5,2.5-3.5s-1.1-3.5-2.5-3.5s-2.5,1.7-2.5,3.6S10.8,17.6,12.1,17.6z"/>
<path class="st1" d="M24.4,27.5c0,0-1.2-4.3-6.1-4.3s-6.1,4.3-6.1,4.3c-0.1,0.2,0,0.4,0.2,0.5c0.2,0.1,0.5,0.1,0.7-0.1
	c0,0,1.1-0.9,5.2-0.9c4,0,5.2,0.8,5.2,0.9c0.1,0.1,0.2,0.1,0.3,0.1c0.1,0,0.2,0,0.2-0.1C24.4,27.9,24.5,27.7,24.4,27.5z"/>
<path class="st1" d="M24.4,17.6c1.4,0,2.5-1.5,2.5-3.5c0-1.9-1.1-3.5-2.5-3.5s-2.5,1.5-2.5,3.5S23,17.6,24.4,17.6z"/>
</svg>
