<?xml version="1.0" encoding="utf-8"?>
<!-- Generator: Adobe Illustrator 24.0.0, SVG Export Plug-In . SVG Version: 6.00 Build 0)  -->
<svg version="1.1" id="Calque_1" xmlns="http://www.w3.org/2000/svg" xmlns:xlink="http://www.w3.org/1999/xlink" x="0px" y="0px"
	 viewBox="0 0 36.6 36.6" style="enable-background:new 0 0 36.6 36.6;" xml:space="preserve">
<style type="text/css">
	.st0{fill:#FFCB46;}
	.st1{fill:#222E54;}
</style>
<path class="st0" d="M18.3,36.1c9.8,0,17.8-8,17.8-17.8s-8-17.8-17.8-17.8c-9.8,0-17.8,8-17.8,17.8S8.5,36.1,18.3,36.1z"/>
<path class="st1" d="M10.9,23.9c0,0.2,1.2,4.3,7.4,4.3c6.2,0,7.3-4.1,7.4-4.3c0.1-0.2,0-0.4-0.2-0.5c-0.2-0.1-0.4-0.1-0.6,0.1
	c0,0-1.9,1.8-6.6,1.8c-4.6,0-6.5-1.8-6.6-1.8c-0.1-0.1-0.2-0.1-0.3-0.1c-0.1,0-0.2,0-0.2,0.1C10.9,23.4,10.8,23.6,10.9,23.9z"/>
<path class="st1" d="M12.4,17.3c1.4,0,2.5-1.5,2.5-3.5c0-1.9-1.1-3.5-2.5-3.5S9.9,12,9.9,13.9C9.9,15.8,11,17.3,12.4,17.3z"/>
<path class="st1" d="M24.2,17.3c1.4,0,2.5-1.5,2.5-3.5c0-1.9-1.1-3.5-2.5-3.5c-1.4,0-2.5,1.5-2.5,3.5C21.7,15.8,22.8,17.3,24.2,17.3
	z"/>
</svg>
