<?xml version="1.0" encoding="utf-8"?>
<!-- Generator: Adobe Illustrator 24.0.0, SVG Export Plug-In . SVG Version: 6.00 Build 0)  -->
<svg version="1.1" id="Calque_1" xmlns="http://www.w3.org/2000/svg" xmlns:xlink="http://www.w3.org/1999/xlink" x="0px" y="0px"
	 viewBox="0 0 36.6 36.6" style="enable-background:new 0 0 36.6 36.6;" xml:space="preserve">
<style type="text/css">
	.st0{fill:#FFCB46;}
	.st1{fill:#222E54;}
	.st2{fill:#FFFFFF;}
</style>
<path class="st0" d="M18.3,36.1c9.8,0,17.8-8,17.8-17.8s-8-17.8-17.8-17.8c-9.8,0-17.8,8-17.8,17.8S8.5,36.1,18.3,36.1z"/>
<path class="st1" d="M18.3,21.3c-3.6,0-5.9-0.4-8.9-1c-0.7-0.1-2,0-2,2c0,3.9,4.5,8.9,10.9,8.9c6.3,0,10.9-4.9,10.9-8.9
	c0-2-1.3-2.1-2-2C24.2,20.9,21.9,21.3,18.3,21.3z"/>
<path class="st2" d="M9.4,22.3c0,0,3,1,8.9,1s8.9-1,8.9-1s-2,3.9-8.9,3.9C11.4,26.2,9.4,22.3,9.4,22.3z"/>
<path class="st1" d="M12.4,17.3c1.4,0,2.5-1.5,2.5-3.5s-1.1-3.5-2.5-3.5S9.9,12,9.9,13.9S11,17.3,12.4,17.3z"/>
<path class="st1" d="M24.2,17.3c1.4,0,2.5-1.5,2.5-3.5s-1.1-3.5-2.5-3.5c-1.4,0-2.5,1.5-2.5,3.5S22.8,17.3,24.2,17.3z"/>
</svg>
