<?xml version="1.0" encoding="utf-8"?>
<!-- Generator: Adobe Illustrator 24.0.0, SVG Export Plug-In . SVG Version: 6.00 Build 0)  -->
<svg version="1.1" id="Calque_1" xmlns="http://www.w3.org/2000/svg" xmlns:xlink="http://www.w3.org/1999/xlink" x="0px" y="0px"
	 viewBox="0 0 36.6 36.6" style="enable-background:new 0 0 36.6 36.6;" xml:space="preserve">
<style type="text/css">
	.st0{fill:#FFCB46;}
	.st1{fill:#222E54;}
	.st2{fill:#FF4E4E;}
</style>
<path class="st0" d="M36,18.3c0,9.8-8,17.8-17.8,17.8s-17.8-8-17.8-17.8s8-17.8,17.8-17.8C28.1,0.6,36,8.5,36,18.3z"/>
<path class="st1" d="M18.3,22.1c-2.9,0-4.9-0.3-7.3-0.8c-0.5-0.1-1.6,0-1.6,1.6c0,3.2,3.7,7.3,8.9,7.3s8.9-4,8.9-7.3
	c0-1.6-1.1-1.7-1.6-1.6C23.2,21.8,21.2,22.1,18.3,22.1z"/>
<path class="st2" d="M17,3.8c-0.8-2.4-3.5-3.7-5.9-2.8C9.6,1.5,8.6,2.7,8.2,4C7,3.2,5.5,3,4,3.5C1.6,4.3,0.4,6.9,1.2,9.3
	c0.1,0.3,0.3,0.7,0.5,0.9c1.9,3.5,7.5,6,10.9,6c2.6-2.1,5.4-7.6,4.7-11.5C17.1,4.5,17.1,4.1,17,3.8z M19.6,3.8
	c0.8-2.4,3.5-3.7,5.9-2.8C27,1.5,28,2.7,28.4,4c1.2-0.8,2.7-1.1,4.2-0.6c2.4,0.8,3.7,3.5,2.8,5.9c-0.1,0.3-0.3,0.7-0.5,0.9
	c-1.9,3.5-7.5,6-10.9,6c-2.6-2.1-5.4-7.6-4.7-11.5C19.4,4.5,19.5,4.1,19.6,3.8z"/>
</svg>
