<?xml version="1.0" encoding="utf-8"?>
<!-- Generator: Adobe Illustrator 24.0.0, SVG Export Plug-In . SVG Version: 6.00 Build 0)  -->
<svg version="1.1" id="Calque_1" xmlns="http://www.w3.org/2000/svg" xmlns:xlink="http://www.w3.org/1999/xlink" x="0px" y="0px"
	 viewBox="0 0 36.6 36.6" style="enable-background:new 0 0 36.6 36.6;" xml:space="preserve">
<style type="text/css">
	.st0{fill:#FFCB4C;}
	.st1{fill:#65471B;}
	.st2{fill:#F4F7F9;}
	.st3{fill:#292F33;}
	.st4{fill:#67757F;}
	.st5{fill:#BDDDF4;}
</style>
<path class="st0" d="M36.1,18.3c0,9.8-8,17.8-17.8,17.8c-9.8,0-17.8-8-17.8-17.8c0-9.8,8-17.8,17.8-17.8
	C28.1,0.5,36.1,8.5,36.1,18.3z"/>
<path class="st1" d="M12.5,18.7c1.4,0,2.6-1.6,2.6-3.7s-1.2-3.7-2.6-3.7c-1.4,0-2.6,1.6-2.6,3.7S11.1,18.7,12.5,18.7z"/>
<path class="st2" d="M25.1,21.4c3.8,0,6.8-3,6.8-6.8s-3-6.8-6.8-6.8s-6.8,3-6.8,6.8S21.3,21.4,25.1,21.4z"/>
<path class="st1" d="M15.1,10.4c-0.3,0-0.6-0.1-0.8-0.4c-1-1.3-2-2-3-2.1C9.9,7.8,8.8,8.8,8.6,9C8.2,9.4,7.5,9.4,7.1,9
	c-0.4-0.4-0.4-1.1,0-1.5c0.5-0.5,2.1-1.9,4.3-1.8c1.7,0.1,3.2,1.1,4.6,2.9c0.3,0.5,0.3,1.1-0.2,1.5C15.6,10.3,15.4,10.4,15.1,10.4z"
	/>
<path class="st3" d="M32.9,36.1c-0.6,0-1-0.5-1-1V15.2c0-0.6,0.5-1,1-1s1,0.5,1,1V35C34,35.6,33.5,36.1,32.9,36.1z"/>
<path class="st4" d="M32.9,13.1c-0.1,0-0.1,0-0.2,0c-0.7-3.6-3.9-6.3-7.7-6.3c-4.3,0-7.8,3.5-7.8,7.8c0,4.3,3.5,7.8,7.8,7.8
	c3.4,0,6.3-2.2,7.4-5.3c0.1,0,0.3,0,0.4,0c1.2,0,2.1-0.9,2.1-2.1C35,14,34.1,13.1,32.9,13.1z M25.1,20.4c-3.2,0-5.7-2.6-5.7-5.8
	c0-3.2,2.6-5.8,5.7-5.8c3.2,0,5.8,2.6,5.8,5.8C30.8,17.8,28.3,20.4,25.1,20.4z"/>
<path class="st1" d="M21.4,28.8c-0.2,0-0.3,0-0.5-0.1c-1.8-0.9-3.5-0.9-5.3,0c-0.5,0.3-1.1,0-1.4-0.5c-0.3-0.5,0-1.1,0.5-1.4
	c2.4-1.2,4.8-1.2,7.2,0c0.5,0.3,0.7,0.9,0.5,1.4C22.2,28.6,21.8,28.8,21.4,28.8z"/>
<path class="st5" d="M28.2,9.8c-0.9-0.6-2-0.9-3.1-0.9c-3.2,0-5.8,2.6-5.8,5.8c0,1.2,0.3,2.2,0.9,3.1L28.2,9.8z M22.6,19.8
	c0.7,0.4,1.6,0.6,2.5,0.6c3.2,0,5.8-2.6,5.8-5.8c0-0.9-0.2-1.7-0.6-2.5L22.6,19.8z"/>
</svg>
