<?xml version="1.0" encoding="utf-8"?>
<!-- Generator: Adobe Illustrator 24.0.0, SVG Export Plug-In . SVG Version: 6.00 Build 0)  -->
<svg version="1.1" id="Calque_1" xmlns="http://www.w3.org/2000/svg" xmlns:xlink="http://www.w3.org/1999/xlink" x="0px" y="0px"
	 viewBox="0 0 134 132.5" style="enable-background:new 0 0 134 132.5;" xml:space="preserve">
<style type="text/css">
	.st0{fill:#FB8B68;}
	.st1{fill:#F7DF4F;}
	.st2{fill:#FBC168;}
</style>
<g>
	<path class="st0" d="M36.2,84.3c-0.6-2.8-0.9-5.7-0.9-8.7c0-20.1,13.6-36.9,32.2-41.9c0,0,11.8-3.6,23.7-5c3.7-0.4,7.7-0.7,12-0.7
		C93.2,16.5,80.8,8.5,68.4,8.3c-22.3-0.4-45.1,24-54.3,50C21.7,69.6,31.8,79.9,36.2,84.3z"/>
	<path class="st1" d="M91.4,30c-9.7,1.1-17.9,3.3-21.7,4.4c2.4,0.8,4.6,1.9,6.8,3.1c1.3,0.7,2.5,1.4,3.7,2.3l0,0
		c11.1,7.8,18.4,20.8,18.4,35.5c0,3.7-0.5,7.2-1.3,10.6l0,0c0,0.1-3.4,11.4-8.7,24.6c-1.8,4.4-3.6,8.5-5.4,12.2
		c15.2-2.9,28.6-9.9,35.5-21.3c12.1-20,2.7-51.3-14.5-72.1C99.8,29.3,95.3,29.5,91.4,30z"/>
	<path class="st2" d="M81.7,123c6.8-14.1,11.8-29.1,13.7-34.9c-7.6,6.7-17.6,10.8-28.6,10.8c-11.6,0-22.1-4.6-29.9-12
		c0-0.1-9.5-9.4-16.5-18c-2.5-3.1-4.8-6.1-6.8-9c-5,14.9-5.4,30.2,1.3,41.5C25.8,119.9,55.9,127.4,81.7,123z"/>
</g>
</svg>
