<?xml version="1.0" encoding="utf-8"?>
<!-- Generator: Adobe Illustrator 24.0.0, SVG Export Plug-In . SVG Version: 6.00 Build 0)  -->
<svg version="1.1" id="Calque_1" xmlns="http://www.w3.org/2000/svg" xmlns:xlink="http://www.w3.org/1999/xlink" x="0px" y="0px"
	 viewBox="0 0 134 132.5" style="enable-background:new 0 0 134 132.5;" xml:space="preserve">
<style type="text/css">
	.st0{fill:#FBC168;}
	.st1{fill:#FB8B68;}
	.st2{fill:#F7DF4F;}
</style>
<path class="st0" d="M89.2,92.3c-6.6,4.1-14.5,6.6-22.9,6.6c-9.7,0-18.6-3.2-25.8-8.6l0,0c-0.1-0.1-0.1-0.1-0.2-0.2
	c-0.8-0.6-1.7-1.3-2.5-2C24.3,77.1,17.2,66.8,13.7,60.8c-0.2-0.3-0.4-0.6-0.7-0.9c-5,14.9-5.4,30.2,1.3,41.5
	c10.1,17.1,36.7,24.8,61,22.4C79.2,117.2,86.3,103.9,89.2,92.3z"/>
<path class="st1" d="M96.1,28.2c2.1-0.1,4.3-0.2,6.5-0.2C92.7,16.5,80.3,8.5,67.9,8.3c-20.8-0.4-42,20.8-52.2,44.8
	c1.8,3.9,7.4,14.1,19.3,25.4c-0.1-0.9-0.1-1.9-0.1-2.9C34.8,55.8,48,39.2,66.1,34C77.9,29.7,88.5,28.4,96.1,28.2z"/>
<path class="st2" d="M106.3,32.6c-5.3-0.3-16.8-0.2-31.9,4c0.5,0.3,1.1,0.6,1.6,0.9c1.3,0.7,2.5,1.4,3.7,2.3
	c11.1,7.8,18.4,20.8,18.4,35.5c0,3.7-0.5,7.2-1.3,10.6c0,0-0.2,0.7-0.6,2c-2.3,11-6.8,21.3-10.8,28.9c-0.9,2.1-1.8,4.1-2.7,5.9
	c15.2-2.9,28.6-9.9,35.5-21.3C129.7,82.4,121.8,53.3,106.3,32.6z"/>
</svg>
