<?xml version="1.0" encoding="utf-8"?>
<!-- Generator: Adobe Illustrator 24.0.0, SVG Export Plug-In . SVG Version: 6.00 Build 0)  -->
<svg version="1.1" id="Calque_1" xmlns="http://www.w3.org/2000/svg" xmlns:xlink="http://www.w3.org/1999/xlink" x="0px" y="0px"
	 viewBox="0 0 419.5 113.4" style="enable-background:new 0 0 419.5 113.4;" xml:space="preserve">
<style type="text/css">
	.st0{clip-path:url(#SVGID_2_);}
	.st1{fill:#F18969;}
	.st2{fill:url(#SVGID_3_);}
	.st3{fill:#FABE6D;}
	.st4{fill:url(#SVGID_4_);}
	.st5{fill:url(#SVGID_5_);}
</style>
<g>
	<g>
		<defs>
			<rect id="SVGID_1_" x="4.8" y="3.8" width="410" height="105.8"/>
		</defs>
		<clipPath id="SVGID_2_">
			<use xlink:href="#SVGID_1_"  style="overflow:visible;"/>
		</clipPath>
		<g class="st0">
			<path class="st1" d="M155.4,95.2V17.9c0-0.8,0.5-1.4,1.4-1.4h13.3c0.8,0,1.4,0.5,1.4,1.4V50c0,0.5,0.3,0.5,0.8,0.3l26.1-32.9
				c0.5-0.5,1.1-0.8,1.6-0.8h15.2c1.1,0,1.6,0.8,0.8,1.6l-25.3,32.6c-0.3,0.3-0.3,0.5,0,0.8l26.9,43.5c0.5,1.1,0,1.6-0.8,1.6h-15.2
				c-0.8,0-1.4-0.3-1.6-0.8L179.9,63c-0.3-0.3-0.5-0.3-0.8,0l-7.3,8.7c0,0.3-0.3,0.5-0.3,0.8v22.8c0,0.8-0.5,1.4-1.4,1.4h-13.3
				C155.9,96.5,155.4,96,155.4,95.2z"/>
			<path class="st1" d="M225.8,95.2V17.9c0-0.8,0.5-1.4,1.4-1.4h13.3c0.8,0,1.4,0.5,1.4,1.4v77.2c0,0.8-0.5,1.4-1.4,1.4h-13.3
				C226.3,96.5,225.8,96,225.8,95.2z"/>
			<path class="st1" d="M300.6,16.6h14.1c0.8,0,1.4,0.8,1.1,1.6l-23.7,77.2c-0.3,0.8-0.8,1.1-1.4,1.1h-14.4c-0.8,0-1.4-0.5-1.4-1.1
				l-23.7-77.2c-0.3-0.8,0.3-1.6,1.1-1.6h14.4c0.8,0,1.4,0.3,1.6,1.1l15.2,56.6c0,0.5,0.5,0.5,0.8,0l15-56.6
				C299.2,16.9,299.8,16.6,300.6,16.6z"/>
			<path class="st1" d="M325,95.2V17.9c0-0.8,0.5-1.4,1.4-1.4h13.3c0.8,0,1.4,0.5,1.4,1.4v77.2c0,0.8-0.5,1.4-1.4,1.4h-13.3
				C325.6,96.5,325,96,325,95.2z"/>
			<path class="st1" d="M356,95.2V17.9c0-0.8,0.5-1.4,1.4-1.4h28.5c17.4,0,28.8,9.5,28.8,24.2v31.5c0,14.7-11.4,24.2-28.8,24.2
				h-28.3C356.9,96.5,356,96,356,95.2z M372.9,82.7h13.9c7.1,0,11.7-5.2,12-13.1V43.2c0-7.9-4.6-13.1-12-13.1h-13.6
				c-0.3,0-0.5,0.3-0.5,0.5V82C372.3,82.4,372.6,82.7,372.9,82.7z"/>
			
				<linearGradient id="SVGID_3_" gradientUnits="userSpaceOnUse" x1="4.7638" y1="169.6113" x2="102.8514" y2="169.6113" gradientTransform="matrix(1 0 0 1 8.410366e-06 -80.5613)">
				<stop  offset="0" style="stop-color:#F18969"/>
				<stop  offset="0.5004" style="stop-color:#F18867"/>
				<stop  offset="0.6826" style="stop-color:#F18664"/>
				<stop  offset="0.8129" style="stop-color:#E7805F"/>
				<stop  offset="0.9177" style="stop-color:#D67758"/>
				<stop  offset="1" style="stop-color:#C26C50"/>
			</linearGradient>
			<path class="st2" d="M29.8,109.6C30,109.6,30,109.6,29.8,109.6c6.3,0,15.5,0,25,0c19.6,0,40.8,0,40.8,0s11.4-7.1,4.9-23.7
				c0,0-53-0.3-67.4-0.3C9.7,85.6,8.3,68.5,8.3,68.5C-3.7,90,15.9,109.6,29.8,109.6z"/>
			<path class="st3" d="M41.5,14.1C31.1,28,8.6,68.5,8.6,68.5s0.3,13.6,18.5,16.6c0,0,26.4-44.3,33.7-56.3
				C73,9.5,89.6,18.5,89.6,18.5C83.1,7.9,73.3,3.8,64,3.8S46.1,7.9,41.5,14.1z"/>
			<path class="st3" d="M41.5,14.1C31.1,28,8.6,68.5,8.6,68.5s0.3,13.6,18.5,16.6c0,0,26.4-44.3,33.7-56.3
				C73,9.5,89.6,18.5,89.6,18.5C83.1,7.9,73.3,3.8,64,3.8S46.1,7.9,41.5,14.1z"/>
			
				<linearGradient id="SVGID_4_" gradientUnits="userSpaceOnUse" x1="56.4202" y1="82.5457" x2="41.3049" y2="168.2697" gradientTransform="matrix(1 0 0 1 8.410366e-06 -80.5613)">
				<stop  offset="0" style="stop-color:#FABE6D"/>
				<stop  offset="0.4532" style="stop-color:#FABC6C"/>
				<stop  offset="0.6428" style="stop-color:#F3B768"/>
				<stop  offset="0.7831" style="stop-color:#E4AE63"/>
				<stop  offset="0.8985" style="stop-color:#D3A05B"/>
				<stop  offset="0.9986" style="stop-color:#BD8F52"/>
				<stop  offset="1" style="stop-color:#BD8F52"/>
			</linearGradient>
			<path class="st4" d="M41.5,14.1C31.1,28,8.6,68.5,8.6,68.5s0.3,13.6,18.5,16.6c0,0,26.4-44.3,33.7-56.3
				C73,9.5,89.6,18.5,89.6,18.5C83.1,7.9,73.3,3.8,64,3.8S46.1,7.9,41.5,14.1z"/>
			
				<linearGradient id="SVGID_5_" gradientUnits="userSpaceOnUse" x1="94.1" y1="190.1613" x2="94.1" y2="96.9576" gradientTransform="matrix(1 0 0 1 8.410366e-06 -80.5613)">
				<stop  offset="0" style="stop-color:#FECF55"/>
				<stop  offset="0.5118" style="stop-color:#FECD54"/>
				<stop  offset="0.6983" style="stop-color:#F6C851"/>
				<stop  offset="0.8315" style="stop-color:#EABE4C"/>
				<stop  offset="0.9387" style="stop-color:#DAB048"/>
				<stop  offset="1" style="stop-color:#CBA543"/>
			</linearGradient>
			<path class="st5" d="M64.6,24.5c0,0,26.6,44,33.7,56.3c11.7,19.6-2.2,28.8-2.2,28.8c17.4-1.4,26.4-14.1,27.5-25.8v-4.6
				c-0.3-2.7-1.1-5.4-2.2-7.6c-8.2-15.2-30.7-51.1-31.8-53c0,0-3.8-2.2-9.2-2.2C75.7,16.3,70,18.2,64.6,24.5z"/>
		</g>
	</g>
</g>
</svg>
