<?xml version="1.0" encoding="utf-8"?>
<!-- Generator: Adobe Illustrator 24.0.0, SVG Export Plug-In . SVG Version: 6.00 Build 0)  -->
<svg version="1.1" id="Calque_1" xmlns="http://www.w3.org/2000/svg" xmlns:xlink="http://www.w3.org/1999/xlink" x="0px" y="0px"
	 viewBox="0 0 452.1 119.4" style="enable-background:new 0 0 452.1 119.4;" xml:space="preserve">
<style type="text/css">
	.st0{fill:#FB8B68;}
	.st1{fill:#F7DF4F;}
	.st2{fill:#FBC168;}
	.st3{fill:#F39669;}
</style>
<g>
	<path class="st0" d="M28.2,78.1c-0.6-2.8-0.9-5.7-0.9-8.7c0-20.1,13.6-36.9,32.2-41.9c0,0,11.8-3.6,23.7-5c3.7-0.4,7.7-0.7,12-0.7
		C85.2,10.3,72.8,2.3,60.4,2.1c-22.3-0.4-45.1,24-54.3,50C13.7,63.4,23.8,73.7,28.2,78.1z"/>
	<path class="st1" d="M83.4,23.8c-9.7,1.1-17.9,3.3-21.7,4.4c2.4,0.8,4.6,1.9,6.8,3.1c1.3,0.7,2.5,1.4,3.7,2.3l0,0
		c11.1,7.8,18.4,20.8,18.4,35.5c0,3.7-0.5,7.2-1.3,10.6l0,0c0,0.1-3.4,11.4-8.7,24.6c-1.8,4.4-3.6,8.5-5.4,12.2
		c15.2-2.9,28.6-9.9,35.5-21.3c12.1-20,2.7-51.3-14.5-72.1C91.8,23.1,87.3,23.3,83.4,23.8z"/>
	<path class="st2" d="M73.7,116.8c6.8-14.1,11.8-29.1,13.7-34.9c-7.6,6.7-17.6,10.8-28.6,10.8c-11.6,0-22.1-4.6-29.9-12
		c0-0.1-9.5-9.4-16.5-18c-2.5-3.1-4.8-6.1-6.8-9c-5,14.9-5.4,30.2,1.3,41.5C17.8,113.7,47.9,121.2,73.7,116.8z"/>
</g>
<polygon class="st3" points="236.5,18.7 216,18.7 175.7,60.1 175.7,18.7 159.4,18.7 159.4,104.8 175.7,104.8 175.7,81.9 187.5,69.9 
	217.8,104.8 238.1,104.8 198.7,58.3 "/>
<path class="st3" d="M254.6,14c-2.6,0-5,1-6.9,2.9s-2.9,4.2-2.9,6.7c0,2.5,1,5,2.9,6.8c1.8,1.8,4.1,2.8,6.6,2.8h0.4
	c2.6,0,5-1,6.9-2.9s2.9-4.3,2.9-6.9c0-2.4-1-4.7-2.9-6.7C259.6,14.9,257.2,14,254.6,14z"/>
<rect x="246.6" y="38.1" class="st3" width="15.9" height="66.7"/>
<polygon class="st3" points="308.7,82.2 289.2,38.1 272.2,38.1 301.7,104.8 315,104.8 344.7,38.1 328.2,38.1 "/>
<path class="st3" d="M363.2,14c-2.6,0-5,1-6.9,2.9s-2.9,4.2-2.9,6.7c0,2.5,1,5,2.9,6.8c1.8,1.8,4.1,2.8,6.6,2.8h0.4
	c2.6,0,5-1,6.9-2.9s2.9-4.3,2.9-6.9c0-2.4-1-4.7-2.9-6.7C368.2,14.9,365.8,14,363.2,14z"/>
<rect x="355.2" y="38.1" class="st3" width="15.9" height="66.7"/>
<path class="st3" d="M432.5,14v29.4c-1.1-0.8-2.3-1.5-3.6-2.2c-4.4-2.3-9.4-3.4-14.7-3.4c-6.2,0-11.7,1.4-16.7,4.1
	c-5,2.7-9.1,6.7-12.1,12.1c-2.9,5.1-4.4,11-4.4,17.5c0,6.4,1.5,12.2,4.3,17.5c2.9,5.2,6.9,9.3,12.1,12.2c5,2.9,10.7,4.4,16.9,4.4
	c5.6,0,10.7-1.2,15-3.5c1.2-0.6,2.4-1.4,3.6-2.2v5.2h15.6V14H432.5z M432.5,71.5c0,3.7-0.8,7.1-2.4,10c-1.5,2.7-3.6,4.9-6.2,6.5
	c-2.7,1.5-5.6,2.2-9.1,2.2c-3.6,0-6.5-0.7-9.2-2.2c-2.6-1.4-4.7-3.6-6.2-6.5c-1.6-3-2.4-6.3-2.4-10c0-3.7,0.8-7.1,2.4-10
	c1.5-2.7,3.6-4.9,6.2-6.5c2.7-1.5,5.6-2.2,9.2-2.2c3.5,0,6.5,0.7,9.1,2.2c2.6,1.4,4.7,3.6,6.3,6.6C431.7,64.3,432.5,67.5,432.5,71.5
	z"/>
</svg>
