<?xml version="1.0" encoding="utf-8"?>
<!-- Generator: Adobe Illustrator 24.0.0, SVG Export Plug-In . SVG Version: 6.00 Build 0)  -->
<svg version="1.1" id="Calque_1" xmlns="http://www.w3.org/2000/svg" xmlns:xlink="http://www.w3.org/1999/xlink" x="0px" y="0px"
	 viewBox="0 0 428.4 256.1" style="enable-background:new 0 0 428.4 256.1;" xml:space="preserve">
<style type="text/css">
	.st0{fill:#FFF6EC;}
	.st1{fill:#FFDA7D;}
	.st2{fill:#F4B565;}
	.st3{opacity:0.5;fill:#FFDA7D;enable-background:new    ;}
	.st4{fill:#FDE987;}
	.st5{fill:#120506;}
	.st6{fill:#300F0F;}
	.st7{fill:#43130F;}
	.st8{fill:#F49E81;}
	.st9{fill:#EF7B71;}
	.st10{fill:#67160D;}
	.st11{fill:#FCD29D;}
	.st12{fill:#F9BE91;}
	.st13{fill:#CF4B57;}
	.st14{fill:#EB5D6A;}
	.st15{fill:#FFFFFF;}
	.st16{fill:#D8D8D8;}
	.st17{fill:#C61C2D;}
	.st18{fill:#E83C49;}
	.st19{fill:#EE6F56;}
	.st20{fill:#E96846;}
	.st21{fill:#E65234;}
	.st22{fill:#D8CFBF;}
	.st23{fill:#E6DECD;}
	.st24{fill:#F4EEE4;}
</style>
<g>
	<path class="st0" d="M24.4,203.3c0,0,87.3,33.6,194.9,33.6s194.9-33.6,194.9-33.6s-87.3-33.6-194.9-33.6S24.4,203.3,24.4,203.3z"/>
	<g>
		<g>
			<g>
				<g>
					<path class="st1" d="M174.1,168.1c0,33.3,29.4,60.4,65.7,60.4c4.5,0,8.9-0.4,13.1-1.2c30-5.6,52.6-30,52.6-59.2
						c0-18-8.6-34.2-22.2-45.2c-11.6-9.4-26.8-15.2-43.6-15.2c-5.1,0-10.1,0.5-14.8,1.5c-9.8,2.1-18.8,6.2-26.4,11.8
						C183.6,132.1,174.1,149,174.1,168.1z"/>
					<path class="st2" d="M174.1,168.1c0,33.3,29.4,60.4,65.7,60.4c4.5,0,8.9-0.4,13.1-1.2c-6.8-2.5-12.8-6.8-18.4-11.6
						c-10.8-9.3-20.1-20.3-27.5-32.6c-2.5-4.2-4.9-8.6-6.2-13.3c-1.3-4.6-1.5-9.5-1.2-14.3c1.2-18.3,11-35.5,25.3-46.2
						c-9.8,2.1-18.8,6.2-26.4,11.8C183.6,132.1,174.1,149,174.1,168.1z"/>
					<path class="st3" d="M198.6,121c4.5,4.2,10.2,7.1,15.7,9.7c20.2,9.5,41.9,16.9,64.2,16.6c3.5-0.1,7.5-0.6,9.5-3.5
						c1.7-2.5,1.3-5.9,0.6-8.9c-1.1-4.3-2.8-8.4-5.1-12.1c-11.6-9.4-26.8-15.2-43.6-15.2C224.2,107.7,209.9,112.7,198.6,121z"/>
					<path class="st4" d="M241.8,204.2c9,9.9,23.7,11.3,34.3,3.3c5-3.8,9.3-8.4,12.7-13.8c5.4-8.5,8.3-18.7,8.4-28.9
						c0.1-6.7-6.9-10.8-12.4-7.3c0,0-0.1,0-0.1,0.1c-9.4,5.9-21.5,5.3-31.8,1.4c-11.5-4.2-21.4-11.9-32-18.1
						c-2.1-1.2-4.7-1.5-6.8-0.4c-4.6,2.2-3.7,7.9-2.4,12.2C217.7,171.9,228.4,189.4,241.8,204.2z"/>
				</g>
				<g>
					<g>
						<path class="st5" d="M297.7,206.8c0,0,0.1-0.1,0.4-0.2c0.3-0.1,0.7-0.3,1.2-0.5c1-0.5,2.5-1.4,4.1-2.7s3.4-3.2,4.9-5.6
							c1.6-2.4,2.9-5.2,3.9-8.4c0.9-3.2,1.4-6.3,1.6-9.1s0.1-5.4,0-7.5s-0.3-3.8-0.5-5S313,166,313,166s0,0.7-0.1,1.8
							c-0.1,1.2-0.2,2.9-0.3,5c-0.3,4.2-0.9,9.9-2.6,15.9c-1.7,5.9-4.6,10.8-7.4,13.8c-1.3,1.5-2.6,2.6-3.5,3.3
							c-0.4,0.4-0.8,0.6-1.1,0.8C297.8,206.7,297.7,206.8,297.7,206.8z"/>
					</g>
					<g>
						<path class="st5" d="M302.7,212.1c0,0,0.2,0,0.6-0.1c0.4,0,1-0.1,1.7-0.3c1.4-0.3,3.2-1.1,5-2.5c1.7-1.4,2.9-3,3.6-4.3
							c0.4-0.6,0.6-1.2,0.7-1.6c0.1-0.4,0.2-0.6,0.2-0.6s-0.2,0.1-0.5,0.4c-0.3,0.2-0.8,0.6-1.3,1c-1.1,0.8-2.6,1.9-4.2,3.2
							c-1.6,1.2-3,2.4-4.1,3.3c-0.5,0.4-1,0.8-1.3,1.1C302.9,212,302.7,212.1,302.7,212.1z"/>
					</g>
					<g>
						<path class="st5" d="M165.8,151.5c0,0,0.5-1.3,1.3-3.3s2.1-4.7,3.5-7.7c1.4-2.9,2.8-5.6,3.9-7.5c1.1-1.9,1.8-3.1,1.8-3.1
							s-0.3,0.2-0.8,0.6c-0.5,0.4-1.2,1-2,1.7c-1.6,1.6-3.6,4-5.1,7.1s-2.2,6.2-2.5,8.5c-0.1,1.1-0.2,2-0.2,2.7
							C165.8,151.2,165.8,151.5,165.8,151.5z"/>
					</g>
					<g>
						<path class="st5" d="M161.1,146.5c0,0,0.3-0.5,0.6-1.2s0.7-1.6,1-2.6s0.4-2,0.4-2.8c0.1-0.8,0.1-1.3,0.1-1.3s-0.5,0.2-1.1,0.8
							c-0.6,0.5-1.4,1.5-1.7,2.7s-0.1,2.4,0.1,3.2C160.7,146.1,161.1,146.5,161.1,146.5z"/>
					</g>
				</g>
			</g>
			<g>
				<g>
					<g>
						<g>
							<path class="st6" d="M89.8,59.3c2,12.6-19.9,24.9-26.6,26.8c-0.7,0.2-1.2,0.3-1.5,0.2c-0.1,0-0.2,0-0.4-0.1
								c-2.6-0.5-9.2-4.2-14.6-9.7c-3.3-3.4-6.2-7.5-7.2-12c-1.6-6.9,0.2-12.8,1.9-16.5c1.3-2.7,2.6-4.3,2.6-4.3s18.8-17.9,26-17.3
								C77.1,27,87.6,45.4,89.8,59.3z"/>
							<path class="st7" d="M40.5,57.5c0.3-1.2,1-2.3,1.8-3.1c-0.3,6.5,1.5,13.1,5.1,18.5c-1.3-0.9-2.6-1.7-3.9-2.6
								c1,2.1,2,4.2,3.2,6.2c-3.3-3.4-6.2-7.5-7.2-12c-1.6-6.9,0.2-12.8,1.9-16.5C40.7,51.1,40.4,54.3,40.5,57.5z"/>
						</g>
						<path class="st6" d="M117.5,55.5c-5.8,1.6-11.1,4.8-15.3,9.2c-4.2,4.4-7.3,10-8.8,16c-3-3.4-6.2-7.5-8.4-11.5
							c-1.9-3.3-3.2-6.9-4.3-10.5c-0.1-0.4-0.2-0.8-0.3-1.1c-1.2-4.3-2.3-8.6-3.6-12.8c-0.5-1.7-1.1-3.4-1.7-5
							C72.9,33.9,69.5,28,64.9,24c0.4-0.1,0.9-0.1,1.3-0.1c4.7-0.3,9.4,0.8,13.5,3c3.3,1.8,6.1,4.3,9.3,6.3c1.8,1.1,3.6,2,5.5,2.9
							s3.9,1.8,5.7,2.9C107,43,112.4,49.3,117.5,55.5z"/>
						<path class="st6" d="M93.1,81.8c-5.2,0.7-17.2,18.3-18.6,23.6c-8.1-3-9-14.8-16.1-19.8c3.4-2.9,8.1-4.4,12.5-4.8
							C78.3,80.2,86.3,78.5,93.1,81.8z"/>
					</g>
					<g>
						<path class="st8" d="M106.7,76.1c1,8.2-7.6,14.6-7.6,14.6C98,87.8,95,85.2,92,83.4c-3.4-2.2-6.7-3.5-6.7-3.5l2.1-12.2
							c1.8,1.4,4.3,2.8,7,4C100.2,74.3,106.7,76.1,106.7,76.1z"/>
						<path class="st9" d="M94.3,71.7c0.1,1.6,0.1,3.1,0,4.7c-0.1,1.8-0.3,3.7-1.2,5.4c-0.3,0.6-0.7,1.1-1.1,1.6
							c-3.4-2.2-6.7-3.5-6.7-3.5l2.1-12.2C89,69.2,91.6,70.5,94.3,71.7z"/>
					</g>
					<path class="st8" d="M44.8,53c0.1-1.6,0.3-2.4,0.3-2.4s11-17.2,21.5-16.7c8.9,0.4,20.3,21.5,23.5,35.3c0.5,2.4,0.9,4.5,0.9,6.3
						c0,0.6,0,1.1,0,1.7c-0.3,5.2-2.1,10-6,12.5c-4.7,3-12.3,2.4-23.4-5.6C45.2,72.3,44.3,58.5,44.8,53z"/>
					<g>
						<path class="st6" d="M85,42.1c0.3,0.6,0.7,1.2,1,1.8c0.1,0.1,0.1,0.2,0.2,0.3c1.2,2.3,2.2,3.9,3.3,8c0.1,0.5,0.7,4.9,0.9,4.9
							c-1.1,0.2-2.2,0.4-3.3,0.6l-2.8,0.4c-1.2,0.2-2.4,0.4-3.7,0.5c-3,0.4-5.9,0.6-8.9,0.7c-5.1,0-13.1,0.1-17.4-3.3
							c4.3,3.4,9.2,5.9,14.4,7.5c-7.7-0.3-15.1-3.4-21-8.4c-1.5-1.3-4.5-3.8-6.2-6.2c-0.6-0.9-1.2-2.7-1.2-2.7s1.6-3.5,3.3-6.6
							c0-0.1,0.1-0.2,0.1-0.2c0.9-1.7,1.7-3.2,2.3-3.9c0.8-1.1,1.7-2.1,2.6-3.1c2.1-2.4,4.5-4.4,6.9-5.8c3.2-1.9,7-3.1,10.7-2.7
							c0.8,0.1,1.6,0.2,2.4,0.5c1.8,0.6,3.4,1.6,4.8,2.9C78,31.5,82,36.6,85,42.1z"/>
						<g>
							<g>
								<path class="st6" d="M93,71.2c0,0-1-0.7-2.4-2s-3.2-3.4-4.6-6s-2.2-5.3-2.5-7.2c-0.4-1.9-0.4-3.2-0.4-3.2s0.7,1,1.6,2.7
									c1,1.6,2.3,3.9,3.6,6.4c1.3,2.5,2.5,4.8,3.3,6.5C92.5,70.1,93,71.2,93,71.2z"/>
							</g>
						</g>
						<path class="st7" d="M94.5,36.1c-2.8,2.5-6.1,4.5-9.5,6c-1.8,0.8-3.7,1.5-5.6,2c-0.9,0.3-1.8,0.5-2.7,0.7
							c-6.6,1.4-13.6,1.5-20.3,1.1c1.1,1,2.1,2.1,3.2,3.1c-6-1.6-11.5-4.9-15.8-9.5c0.9-1.7,1.7-3.2,2.3-3.9
							c0.8-1.1,1.7-2.1,2.6-3.1l0.1-0.1c2.1-2.3,4.4-4.3,6.8-5.7c3.2-1.9,7-3.1,10.7-2.7c4.7-0.3,9.4,0.8,13.5,3
							c1.6,0.9,3.2,2,4.7,3.1s3,2.2,4.6,3.2C90.8,34.3,92.7,35.2,94.5,36.1z"/>
						<path class="st10" d="M78,32.6c-4.9,1.7-10.1,2.7-15.2,2.2c1.4,1.1,2.8,2.1,4.2,3.2c-6.4-0.7-12.6-2.7-18.3-5.8
							c2.1-2.3,4.4-4.3,6.8-5.7c3.2-1.9,7-3.1,10.7-2.7c4.7-0.3,9.4,0.8,13.5,3c1.6,0.9,3.2,2,4.7,3.1C82.3,31,80.2,31.9,78,32.6z"
							/>
					</g>
					<path class="st11" d="M90.1,69.2c0.5,2.4,0.9,4.5,0.9,6.3c0.2,12.5-8.4,23.6-29.4,8.6C45.2,72.3,44.3,58.5,44.8,53
						c0.7,8.3,3.8,16.3,8.9,22.7c5.4,6.8,13,11.7,21.3,13.7c3.6,0.9,7.6,0.7,10.4-1.9C88,85,89.5,81.1,90,77.3
						C90.3,74.6,90.3,71.9,90.1,69.2z"/>
					<g>
						<path class="st12" d="M89.2,65.1c1.8-1.6,2.2-4.2,2.2-6c0-0.4-0.1-0.8-0.1-1.1c-0.3-1.8-3.3-6.5-5.4-6.6
							c-1.5,0-1.5,1.6-1.4,2.6l0,0c0.1,0.4,0.1,0.7,0.1,0.7L89.2,65.1z"/>
						<path class="st8" d="M89.2,65.1c1.8-1.6,2.2-4.2,2.2-6c0-0.2,0-0.3-0.1-0.5C91,56.8,88,52.1,85.9,52c-1.2,0-1.5,1-1.4,2l0,0
							c0.1,0.4,0.1,0.7,0.1,0.7L89.2,65.1z"/>
						<path class="st9" d="M88.7,54.7c0.3,0.3,0.5,0.7,0.7,1.2c0.6,1.9,0.3,3.9-0.1,5.8c-0.2-1-0.6-2-1.2-2.7
							c-0.2-0.3-0.5-0.5-0.7-0.8C86.5,57,86.8,52.8,88.7,54.7z"/>
						<g>
							<path class="st13" d="M88.9,62.6C88.9,62.6,89,62.5,88.9,62.6c0.1-0.2,0.1-0.2,0.1-0.4c0.1-0.2,0.1-0.6,0.1-1.1
								s-0.1-1-0.4-1.6S88,58.4,87.5,58c-0.1-0.1-0.1-0.1-0.2-0.1h-0.1l0,0l0,0l0,0l0,0l0,0v-0.1v-0.1c0-0.1,0-0.2,0-0.2
								c0-0.3-0.1-0.6-0.1-0.9c0-0.3,0-0.6,0-0.8c0-0.3,0-0.5,0.1-0.7c0-0.2,0.1-0.4,0.2-0.5s0.2-0.2,0.4-0.2c0.1,0,0.2,0,0.2,0.1
								c0.1,0,0.1,0.1,0.1,0.1s0,0-0.1-0.1c0,0-0.1-0.1-0.3-0.1c-0.1,0-0.3,0-0.5,0.1s-0.3,0.3-0.4,0.5s-0.1,0.5-0.2,0.7
								c0,0.3-0.1,0.6-0.1,0.9c0,0.3,0,0.6,0,0.9c0,0.1,0,0.2,0,0.2v0.1V58v0.1c0,0,0.1,0,0.1,0.1l0.1,0.1c0.1,0,0.1,0.1,0.2,0.1
								c0.5,0.4,0.9,0.8,1.2,1.3c0.3,0.5,0.4,1,0.5,1.4s0.1,0.8,0.1,1C89,62.3,89,62.4,88.9,62.6C88.9,62.5,88.9,62.6,88.9,62.6z"/>
						</g>
					</g>
					<g>
						<g>
							<path class="st12" d="M65.1,85.6c-1.6,1.6-3.9,1.7-5.5,1.5c-0.4-0.1-0.7-0.1-1-0.2c-1.5-0.5-5.4-3.7-5.3-5.8
								c0.1-1.4,1.6-1.3,2.4-1.1l0,0c0.4,0.1,0.6,0.2,0.6,0.2L65.1,85.6z"/>
							<path class="st8" d="M65.1,85.6c-1.6,1.6-3.9,1.7-5.5,1.5c-0.2,0-0.3-0.1-0.4-0.1c-1.5-0.5-5.4-3.7-5.3-5.8
								C54,80,55,79.9,55.8,80l0,0c0.4,0.1,0.6,0.2,0.6,0.2L65.1,85.6z"/>
							<path class="st9" d="M56.1,84.2c0.3,0.3,0.6,0.6,1,0.8c1.6,0.8,3.4,0.6,5.1,0.4c-0.9-0.3-1.7-0.8-2.3-1.4
								c-0.2-0.2-0.4-0.5-0.7-0.7C58.3,82.4,54.6,82.2,56.1,84.2z"/>
							<g>
								<path class="st13" d="M63,85.2C63,85.2,62.9,85.2,63,85.2c-0.1,0-0.2,0.1-0.3,0.1c-0.2,0-0.5,0.1-1,0
									c-0.4-0.1-0.9-0.2-1.3-0.5c-0.5-0.3-0.9-0.7-1.2-1.3c0-0.1-0.1-0.1-0.1-0.2v-0.1l0,0l0,0l0,0l0,0l0,0H59h-0.1
									c-0.1,0-0.1,0-0.2-0.1c-0.3-0.1-0.5-0.1-0.8-0.2c-0.3,0-0.5-0.1-0.7-0.1s-0.4,0-0.6,0c-0.2,0-0.3,0.1-0.4,0.2
									c-0.1,0.1-0.2,0.2-0.2,0.3c0,0.1,0,0.2,0,0.2c0,0.1,0.1,0.1,0,0.1c0,0,0,0-0.1-0.1c0,0-0.1-0.1-0.1-0.3c0-0.1,0-0.3,0.1-0.4
									s0.3-0.2,0.5-0.3c0.2-0.1,0.4-0.1,0.7-0.1c0.2,0,0.5,0,0.8,0s0.5,0.1,0.8,0.1c0.1,0,0.1,0,0.2,0.1H59h0.1h0.1v0.1l0.1,0.1
									c0,0.1,0.1,0.1,0.1,0.2c0.3,0.5,0.7,0.9,1.1,1.2c0.4,0.3,0.8,0.5,1.2,0.6s0.7,0.1,0.9,0.1C62.7,85.2,62.8,85.2,63,85.2
									C62.9,85.2,63,85.2,63,85.2z"/>
							</g>
						</g>
						<g>
							<g>
								<g>
									<path class="st6" d="M69.2,89.6c0,0-4.2-1.8-8.7-5S53,77.9,53,77.9s4.2,1.8,8.7,5S69.2,89.6,69.2,89.6z"/>
								</g>
							</g>
						</g>
					</g>
					<g>
						<g>
							<path class="st9" d="M69.1,77.2l2.6-3.4c0,0,1.1,1.9,0,3C70.6,77.8,69.1,77.2,69.1,77.2z"/>
						</g>
						<g>
							<path class="st14" d="M70,77.4c0,0-0.1-0.2-0.2-0.5s-0.3-0.7-0.5-1.2c-0.5-1-1.2-2.3-2.2-3.5s-2-2.2-2.9-2.9
								c-0.4-0.3-0.8-0.6-1-0.8c-0.3-0.2-0.4-0.3-0.4-0.3s0.2,0,0.5,0.1c0.3,0,0.8,0.1,1.3,0.3c1.1,0.4,2.5,1.2,3.6,2.6
								s1.7,3,1.8,4.2c0.1,0.6,0.1,1.1,0.1,1.4C70,77.2,70,77.4,70,77.4z"/>
						</g>
					</g>
					<g>
						<g>
							<path class="st9" d="M83.1,57.9c0.1-0.7,0-1.5-0.6-1.7c-0.5-0.2-1,0.2-1.5,0.5c-1.9,1.7-3.2,4.1-3.9,6.6
								c-0.1,0.5-0.2,1.1,0,1.7c0.8,2,3.2-1,3.8-1.8C82.1,61.7,82.9,59.8,83.1,57.9z"/>
						</g>
						<path class="st9" d="M65,80.9c0.5-0.4,1-1.1,0.7-1.7c-0.2-0.5-0.9-0.6-1.4-0.7c-2.5-0.1-5.1,0.5-7.2,1.8
							c-0.5,0.3-0.9,0.6-1.1,1.2c-0.7,2,2.9,1.6,3.9,1.5C61.7,82.9,63.5,82.1,65,80.9z"/>
					</g>
					<g>
						<g>
							<g>
								<g>
									<path class="st5" d="M55.3,69.6c-0.7,0-1.5,0.1-2,0.7c-0.3,0.4-0.4,1.1-0.3,1.6c0.1,0.6,0.4,1,0.7,1.5L51,74.8
										c1.9,0.5,3.4,0.6,5.1-0.3c-0.5-0.4-0.8-1-0.8-1.7c0-0.4,0.3-0.9,0.7-1.1s0.8-0.2,1.3-0.2c1.7,0,3.4,0.3,5,0.8
										C60.3,70.6,57.9,69.6,55.3,69.6z"/>
								</g>
							</g>
							<path class="st5" d="M60.9,72.1c1.3,1.4,1.7,3.2,1,3.8c-0.7,0.7-2.3,0.1-3.6-1.4c-1.3-1.4-1.7-3.2-1-3.8
								C58,70,59.6,70.6,60.9,72.1z"/>
							<polygon class="st15" points="56,73.5 56.8,75.6 59.8,73.3 							"/>
						</g>
						<g>
							<g>
								<path class="st7" d="M51.4,65.6c0,0-0.3,0.3-0.6,0.8c-0.4,0.4-0.7,0.9-1.2,1.2c-0.5,0.3-1.1,0.3-1.6,0.4c-0.6,0-1,0-1,0
									s-0.1-0.4,0-1.1c0.1-0.6,0.5-1.4,1.3-1.9c0.8-0.4,1.7-0.3,2.2-0.1C51.1,65.2,51.4,65.6,51.4,65.6z"/>
							</g>
						</g>
						<g>
							<path class="st14" d="M59.6,69.8c0,0-0.5-0.3-1.2-0.6c-0.8-0.4-1.9-0.8-3.1-1c-0.6-0.1-1.2-0.1-1.7,0.1
								c-0.5,0.1-0.9,0.5-1.2,0.8S52,69.8,52,70c0,0.2,0,0.4,0,0.4s-0.2-0.6,0.3-1.4c0.2-0.4,0.7-0.8,1.2-1c0.6-0.2,1.2-0.2,1.9-0.1
								c1.3,0.2,2.4,0.8,3.1,1.2C59.2,69.4,59.6,69.8,59.6,69.8z"/>
						</g>
					</g>
					<g>
						<g>
							<g>
								<g>
									<path class="st5" d="M70.7,55.8c0.3-0.7,0.7-1.4,1.3-1.7c0.5-0.2,1.1,0,1.5,0.3s0.8,0.8,1.1,1.2l2.3-2.2
										c-0.2,2-0.7,3.4-2.1,4.8c-0.2-0.7-0.6-1.2-1.2-1.4c-0.4-0.2-0.9,0-1.2,0.3c-0.3,0.3-0.5,0.7-0.7,1.1
										c-0.7,1.6-1,3.4-1.1,5.1C69.8,60.9,69.8,58.3,70.7,55.8z"/>
								</g>
							</g>
							<path class="st5" d="M71.7,60.9c1.1,1.6,2.6,2.4,3.4,1.8c0.8-0.6,0.5-2.4-0.6-4s-2.6-2.4-3.4-1.8
								C70.4,57.5,70.6,59.3,71.7,60.9z"/>
							<polygon class="st15" points="72,59.6 74,60.6 71.7,63.5 							"/>
						</g>
						<g>
							<path class="st7" d="M67.5,49.1c0,0-0.4,0.4-0.9,1.1c-0.5,0.6-1.2,1.4-1.9,2.2c-0.7,0.8-1.5,1.4-2.2,1.9
								c-0.6,0.6-1.1,0.9-1.1,0.9s0-0.1-0.1-0.4c0-0.3-0.1-0.7,0-1.1c0.1-1,0.5-2.3,1.5-3.3s2.3-1.4,3.2-1.5c0.5,0,0.8,0,1.1,0.1
								C67.3,49.1,67.5,49.1,67.5,49.1z"/>
						</g>
						<g>
							<path class="st14" d="M72.8,52.4c0,0-0.2,0-0.4,0c-0.3,0-0.6,0.1-1.1,0.4c-0.8,0.4-1.8,1.4-2.2,2.8c-0.4,1.4-0.4,2.8-0.4,3.8
								s0.1,1.6,0.1,1.6s-0.1-0.6-0.3-1.6c-0.1-1-0.3-2.4,0.2-3.9c0.2-0.7,0.6-1.4,1.1-1.9s1-0.8,1.4-1c0.5-0.2,0.9-0.2,1.1-0.2
								C72.6,52.4,72.8,52.4,72.8,52.4z"/>
						</g>
					</g>
					<g>
						<path class="st14" d="M71.2,81.4c0,0,0.7,0,1.8-0.2c1.1-0.2,2.7-0.5,4.3-1.3c1.6-0.8,2.9-2,3.6-3c0.4-0.5,0.6-0.9,0.7-1.2
							c0.1-0.3,0.2-0.5,0.2-0.5s-0.1,0.1-0.4,0.4c-0.2,0.2-0.6,0.6-1,0.9c-0.9,0.7-2.1,1.5-3.7,2.3c-1.5,0.7-2.9,1.3-4,1.8
							C71.9,81.1,71.2,81.4,71.2,81.4z"/>
					</g>
				</g>
				<g>
					<g>
						<g>
							<g>
								<path class="st9" d="M393.2,95.7c0.3,0.1,0.5,0.3,0.7,0.5c1.4,2,4,20.3,2.8,27.6c-0.3,1.8-0.8,2.9-1.6,3
									c-2.2,0.3-4.1-4.8-6.4-9.9c-1.9-4.2-4.1-8.4-7.1-9.4l-0.3-8.3c0,0,5.8-2.9,9.6-3.6C391.8,95.5,392.7,95.5,393.2,95.7z"/>
							</g>
							<path class="st9" d="M230.3,82.8c6.9,0.3,59.9,10.7,79.3,14.3c0,0,12.4-3.9,22.5-3.1c8.1,0.6,42.9,4,56,5.1
								c0.2,0,0.5,0,0.7,0.1l0.3,8.4c-14.7,1.6-71.3,7.6-81.2,9.1c0,0-69.4-3.1-76.9-4c-10.5-1.3-21.9-7.3-21.9-7.3L207,85.6
								l-0.5-4.7C206.5,80.9,223.4,82.4,230.3,82.8z"/>
							<path class="st8" d="M230.3,82.8c6.9,0.3,59.9,10.7,79.3,14.3c0,0,12.4-3.9,22.5-3.1c8.1,0.6,37.5,3.5,50.6,4.6l0,0
								c2-0.9,5.6-2.5,8.2-2.9c1-0.2,1.8-0.2,2.4,0c-4.4,0.8-8.1,4.6-9,5.5c0,0.1-0.1,0.1-0.2,0.2c-13.8-1.2-27.6-2.4-41.5-3.6
								c-5.3-0.5-10.5-0.9-15.8-0.4c-6.7,0.6-13.3,3.1-19.5,5.8l-2.8-0.1c-19.3-5.3-38.7-10.7-58.5-13.4c-12.9-1.8-26-2.4-39-4.2
								l-0.5-4.7C206.5,80.9,223.4,82.4,230.3,82.8z"/>
						</g>
						<g>
							<path class="st16" d="M392.6,95.9c1.5-0.5,3.2,0.4,4,1.7c0.9,1.3,1.2,3,1.4,4.6c1.1,6.5,2.1,13.2,0.9,19.7
								c-0.2,1.2-0.6,2.4-1.2,3.4c-0.7,1-1.8,1.7-3,1.6C395,116.9,395.1,105.6,392.6,95.9z"/>
							<path class="st17" d="M393.9,96.2c1.4,2,4,20.3,2.8,27.6c-0.3,1.8-0.8,2.9-1.6,3c-2.2,0.3-4.1-4.8-6.4-9.9
								c1-1,1.9-2.2,2.4-3.6c0.9-2.3,1.1-4.8,1.2-7.3c0.2-3.5,0.1-7.3-1.4-10.3C392.3,95.5,393.5,95.6,393.9,96.2z"/>
						</g>
					</g>
					<g>
						<g>
							<g>
								<path class="st8" d="M400.3,101.6c0.4,0.1,0.6,0.3,0.8,0.6c1.7,2.4,4.7,24,3.3,32.7c-0.3,2.1-1,3.5-1.9,3.6
									c-2.7,0.3-4.9-5.7-7.6-11.7c-2.3-5-4.9-10-8.4-11.2l-0.4-9.8c0,0,6.9-3.5,11.4-4.2C398.6,101.3,399.6,101.3,400.3,101.6z"/>
								<path class="st9" d="M386.3,113c2.9,1.4,5.6,3.6,7.9,6.1c3.6,4,6.4,8.8,9,13.6c0.4,0.7,0.8,1.4,1.2,2.2
									c-0.3,2.1-1,3.5-1.9,3.6c-4.9,0.6-8.4-20.3-16.1-22.9L386.3,113z"/>
							</g>
							<path class="st8" d="M206.9,86.2c8.1,0.4,71.1,12.7,94.1,17c0,0,14.7-4.6,26.7-3.7c9.6,0.8,50.9,4.8,66.4,6
								c0.3,0,0.6,0.1,0.9,0.1l0.4,10c-17.5,1.9-84.6,9-96.3,10.8c0,0-82.3-3.6-91.3-4.7c-12.4-1.5-26-8.6-26-8.6l-2.6-23.3
								l-0.6-5.6C178.6,84,198.8,85.7,206.9,86.2z"/>
							<path class="st11" d="M206.9,86.2c8.1,0.4,71.1,12.7,94.1,17c0,0,14.7-4.6,26.7-3.7c9.6,0.8,44.5,4.2,60,5.5l0,0
								c2.3-1.1,6.6-2.9,9.8-3.4c1.1-0.2,2.1-0.2,2.8,0.1c-5.3,0.9-9.7,5.4-10.7,6.5c0,0.1-0.1,0.2-0.2,0.2
								c-16.4-1.4-32.8-2.8-49.2-4.2c-6.2-0.5-12.5-1.1-18.8-0.5c-8,0.7-15.8,3.7-23.2,6.9l-3.4-0.1c-22.9-6.3-45.9-12.6-69.4-15.9
								c-15.4-2.1-30.9-2.9-46.3-4.9l-0.6-5.6C178.6,84,198.8,85.7,206.9,86.2z"/>
							<path class="st9" d="M235.8,115.9c22.4,2.9,44,4.8,65.7,4.6c0.2-1.5,0.1-3-0.3-4.4c-0.9-3.2-3-5.8-5-8.3
								c2.4,0.8,4.6,2.3,6.4,4.3c1.6,1.8,2.8,4.3,2.3,6.7c-0.1,0.6-0.4,1.2-0.7,1.8c10-0.2,20-0.8,30.1-2c20.5-2.2,39.6-6,56.6-2.5
								l-3,0.4c-17.5,1.9-77.2,8.2-88.9,10c0,0-82.3-3.6-91.3-4.7c-12.4-1.5-26-8.6-26-8.6l-0.6-5
								C199.5,110.7,217.3,113,235.8,115.9z"/>
						</g>
						<g>
							<path class="st15" d="M399.5,101.7c1.8-0.6,3.7,0.5,4.8,2.1c1.1,1.6,1.4,3.6,1.7,5.5c1.3,7.7,2.5,15.7,1,23.4
								c-0.3,1.4-0.7,2.8-1.5,4s-2.2,2-3.5,1.9C402.4,126.7,402.5,113.3,399.5,101.7z"/>
							<path class="st18" d="M401.1,102.2c1.7,2.4,4.7,24,3.3,32.7c-0.3,2.1-1,3.5-1.9,3.6c-2.7,0.3-4.9-5.7-7.6-11.7
								c1.2-1.1,2.2-2.7,2.8-4.3c1.1-2.7,1.3-5.7,1.4-8.7c0.2-4.2,0.1-8.6-1.6-12.3C399.2,101.2,400.6,101.3,401.1,102.2z"/>
						</g>
					</g>
					<g>
						<path class="st19" d="M181.9,120.7c20,8.6,75.2,4.9,75.2,4.9l1.5-31.4v-0.9l0.3-6.9c0,0-25.9-15.6-29.7-16.2
							c-3.7-0.6-33.4,3.4-33.4,3.4l-1.3,4.3l-11.2,37.5L181.9,120.7z"/>
						<path class="st20" d="M181.9,120.7c20,8.6,75.2,4.9,75.2,4.9l1.9-39.2c0,0-25.9-15.6-29.7-16.2c-3.7-0.6-33.4,3.4-33.4,3.4
							l-1.3,4.3c8.2-2.2,16.7-3.3,25.1-2.3c10.1,1.2,20,5.6,26.9,13.4c-8.1-2.8-18.3-5.7-26.8-6.6c4.1,1.2,23.2,9.9,25.7,13.4
							c0.2,6.9-0.6,14.8-3.2,21.2c-5,2.3-9.8,2.1-15.3,2.4c-4.1,0.2-8.2,0.3-12.4,0.5c-4.9,0.2-9.8,0.4-14.6-0.2
							c-5.7-0.7-11.2-2.4-16.6-4.3L181.9,120.7z"/>
						<path class="st20" d="M224.1,93.4c0.1,2.4-0.6,4.7-1.7,6.7c2.2,0.1,4.5-1.4,5.3-3.6s0.2-4.8-1.6-6.3c-1.1-0.9-2.6-1.6-3.9-1.9
							C223.3,89.8,224,91.5,224.1,93.4z"/>
						<g>
							<g>
								<g>
									<path class="st21" d="M184,120.2c0,0,0.5,0.1,1.3,0.1c0.4,0,0.9,0.1,1.5,0.1s1.3,0,2-0.1c0.4,0,0.8-0.1,1.2-0.1
										s0.8-0.1,1.3-0.2c0.9-0.1,1.8-0.4,2.7-0.7c1.9-0.6,3.9-1.5,5.9-2.8c1.9-1.3,3.6-2.8,5-4.3c0.7-0.8,1.3-1.5,1.8-2.3
										c0.3-0.4,0.5-0.7,0.7-1.1s0.4-0.7,0.6-1c0.4-0.7,0.7-1.3,0.9-1.8c0.3-0.5,0.4-1,0.6-1.4c0.3-0.8,0.4-1.2,0.4-1.2
										s-0.3,0.4-0.8,1.1c-0.2,0.3-0.5,0.8-0.9,1.2c-0.4,0.5-0.7,1-1.2,1.5c-0.2,0.3-0.5,0.6-0.7,0.9c-0.3,0.3-0.6,0.6-0.9,0.9
										c-0.6,0.6-1.3,1.2-1.9,1.9c-1.4,1.2-3,2.5-4.8,3.7s-3.6,2.1-5.3,2.9c-0.9,0.4-1.7,0.7-2.5,1c-0.4,0.1-0.8,0.3-1.1,0.4
										c-0.4,0.1-0.7,0.2-1.1,0.3c-0.7,0.2-1.3,0.4-1.9,0.5c-0.6,0.2-1,0.2-1.4,0.3C184.4,120.1,184,120.2,184,120.2z"/>
								</g>
								<g>
									<path class="st21" d="M212.2,83.3c0.1,0,0.2,0,0.5,0c0.4,0,0.9-0.1,1.5-0.1c1.3-0.1,3.3,0,5.6,0.4s5.1,1.1,8.1,2.1
										s6.4,2,10,3c7.1,2,13.6,3.5,18.3,4.7c0.9,0.2,1.7,0.5,2.4,0.7v-0.9c-0.7-0.3-1.4-0.6-2.1-0.9c-4.5-1.9-10.9-3.9-18-5.9
										c-3.6-1-6.9-1.9-10.1-2.6c-3.1-0.7-6-1.2-8.5-1.3c-2.5-0.1-4.5,0.1-5.8,0.4c-0.7,0.1-1.2,0.3-1.5,0.4
										C212.4,83.2,212.2,83.3,212.2,83.3z"/>
								</g>
							</g>
							<path class="st21" d="M214.6,92.7c0.6-2.1,1.5-3.8,2.3-4.9c0.3-0.4,0.5-0.7,0.7-1c0.1-0.1,0.2-0.2,0.2-0.3l0,0
								c0.1,0,0.1,0,0.2,0c0.8,0.1,1.7,0.2,2.8,0.5l0,0c0.1,0,0.2,0.1,0.3,0.1c1.6,0.5,3.4,1.3,5.2,2.6c0.9,0.7,1.9,1.7,2.3,3
								c0.4,1.4,0.2,2.9-0.4,4.2c-0.3,0.6-0.8,1.2-1.3,1.7s-1.1,0.8-1.7,1.1c-1.2,0.6-2.4,0.8-3.6,0.8c-1.4,0-2.7-0.2-3.8-0.5
								c-0.3-0.1-0.5-0.1-0.8-0.2c-0.5-0.1-0.9-0.2-1.3-0.4c-0.5-0.2-1-0.3-1.5-0.4c-0.1,0-0.2-0.1-0.4-0.1c0-0.1,0-0.3,0-0.4
								c0-0.2,0-0.3,0-0.5C213.8,96.7,214,94.7,214.6,92.7z M221.6,99.6c1.1-0.1,2.1-0.3,3.2-0.9c1-0.5,1.9-1.3,2.4-2.4
								c0.5-1,0.7-2.3,0.4-3.3s-1.1-1.9-1.9-2.6c-1.6-1.3-3.3-2.2-4.8-2.8c-0.1,0.3-0.2,0.6-0.3,1c-0.5,1.6-1.1,3.8-1.7,6.2
								c-0.4,1.6-0.7,3.1-1,4.4C219.1,99.6,220.3,99.7,221.6,99.6z M215.9,99c0.4,0.1,0.8,0.2,1.2,0.2c0.1-1.4,0.3-2.9,0.7-4.6
								c0.6-2.5,1.5-4.7,2.3-6.2c0.2-0.3,0.3-0.6,0.5-0.9c-1-0.4-1.9-0.6-2.6-0.7l0,0c-0.1,0.3-0.3,0.7-0.5,1.2
								c-0.5,1.3-1.1,3-1.7,5c-0.6,2-1,3.8-1.3,5.1c0,0.2-0.1,0.4-0.1,0.6C214.8,98.8,215.3,98.9,215.9,99z"/>
						</g>
					</g>
				</g>
				<g>
					<g>
						<g>
							<path class="st9" d="M91.7,189.8c0.3-0.7,0.7-1.3,0.8-2c0.1-0.3,0.1-0.6,0-0.9c0-0.1,0-0.1,0-0.2c-0.1-0.4-0.4-0.8-0.4-1.3
								c0-0.2,0-0.3,0-0.5c0-0.1,0.1-0.3,0.1-0.4l0,0c0.3-0.8,1-1.5,0.8-2.2v-0.1c-0.1-0.3-0.3-0.5-0.3-0.7
								c-0.2-0.7,0.3-1.4,0.9-1.9c2.1-2.1,4.4-4,6.8-5.7c2.2-1.6,2.4-2,2.5-4.6c0.2-3.9,1.3-39.8,1.3-39.8l-2.3-26.2h14.6
								c0.2,4.8,1.1,24.2,0.5,28.7c-0.4,2.8-6.4,39.5-7.6,46.4c-0.1,0.6-0.5,1.2-1,1.6c-0.5,0.4-1,0.8-1.6,1.2
								c-1.1,1.7-1.8,3.6-2,5.6s-2.5,3.4-4,4.6l0,0c-0.8,0-1.2-0.9-0.9-1.6c0.7-1.3,1.1-2.8,1.4-4.3c-1.9,1.5-3.8,3.1-5.6,4.7
								c-0.6,0.5-1.2,1-1.8,1.5c-0.4,0.3-0.9,0.7-1.4,0.7c-0.2,0-0.3-0.1-0.4-0.2c-0.1-0.1-0.2-0.2-0.3-0.4
								C91.4,191.3,91.5,190.5,91.7,189.8z"/>
							<path class="st8" d="M91.7,189.8c0.3-0.7,0.7-1.3,0.8-2c0.1-0.3,0.1-0.6,0-0.9c0-0.1,0-0.1,0-0.2c-0.1-0.4-0.4-0.8-0.4-1.3
								c0-0.2,0-0.3,0-0.5c0-0.1,0.1-0.3,0.1-0.4l0,0c0.3-0.8,1-1.5,0.8-2.2v-0.1c-0.1-0.3-0.3-0.5-0.3-0.7
								c-0.2-0.7,0.3-1.4,0.9-1.9c2.1-2.1,4.4-4,6.8-5.7c2.2-1.6,2.4-2,2.5-4.6c0.2-3.9,1.3-39.8,1.3-39.8l-2.3-26.2h2.9
								c1.4,19.9,1.3,39.8-0.5,59.6c-0.4,4.3-0.9,8.8-2.9,12.6c-1.4,2.6-3.4,4.8-4.5,7.5c-1,2.3-1.3,4.8-1.3,7.3
								c-0.6,0.5-1.2,1-1.8,1.5c-0.4,0.3-0.9,0.7-1.4,0.7c-0.2,0-0.3-0.1-0.4-0.2c-0.1-0.1-0.2-0.2-0.3-0.4
								C91.4,191.3,91.5,190.5,91.7,189.8z"/>
							<g>
								<g>
									<path class="st13" d="M91.7,191.8c0.1,0.1,0.2,0.3,0.3,0.4c0.1-0.1,0.1-0.2,0.2-0.3c0.6-0.8,1.5-1.9,2.4-3
										c1-1.1,1.9-2.2,2.6-2.9c0.6-0.7,1.1-1.1,1.1-1.2c-0.1,0-0.6,0.2-1.5,0.7s-2,1.4-3.1,2.6c-1,1.2-1.7,2.5-2.1,3.5
										C91.8,191.7,91.8,191.8,91.7,191.8z"/>
								</g>
								<g>
									<path class="st13" d="M92.5,186.9c0.1,0.3,0.1,0.6,0,0.9c0.1-0.1,0.1-0.1,0.2-0.2c0.5-0.6,1.2-1.3,1.9-2
										c0.8-0.8,1.5-1.4,2.1-1.9s0.9-0.8,0.9-0.8s-0.5,0-1.2,0.3c-0.7,0.2-1.7,0.7-2.5,1.6c-0.6,0.6-1.1,1.3-1.4,1.9
										C92.5,186.8,92.5,186.9,92.5,186.9z"/>
								</g>
								<g>
									<path class="st13" d="M92.2,184.6c0.2-0.2,0.4-0.4,0.7-0.6c0.9-0.8,1.6-1.6,2.2-2.2c0.5-0.6,0.9-1,0.9-1s-0.5,0.2-1.2,0.5
										c-0.5,0.3-1.1,0.6-1.7,1.1C93.2,183.1,92.5,183.8,92.2,184.6z"/>
								</g>
							</g>
						</g>
						<polygon class="st22" points="99.7,125.8 93.9,84.7 115.3,96.7 121.3,117.8 						"/>
					</g>
					<g>
						<g>
							<path class="st23" d="M97.3,103.5c0,0,7.5,4.2,10.8,6c0.8,0.4,1.3,0.7,1.4,0.8c0,0,0.1,0,0.1,0.1l0,0
								c0.2,0.2,0.6,0.6,1.2,1.1c0.4,0.4,0.9,0.8,1.4,1.2c3.5,3.1,9.7,8.1,14.4,7.3c4.5-0.8,8.7-4.5,12.3-6.6c1.7-1,3.2-1.6,4.6-1.5
								c1.9,0.2,19,3.4,28.6,5.2c0,0,1.7,1.2,4.1,2.7c0.4,0.2,0.8,0.5,1.2,0.7c3,1.9,6.9,4.3,10.2,6c0,0,0.1-0.3,0.4-0.9
								c2.6-6.4,17.2-43.8,16.3-55.8l-5.7,0.2l-21.4,0.6c-0.9-0.1-1.9-0.1-2.9-0.2c-10-0.6-21.8-1.5-23.3-2.3
								c-0.9-0.5-2.7-1.7-5.1-3.4c-2.1-1.5-4.7-3.3-7.5-5.2c-7-4.6-15.4-9.7-22.2-11.3c-2.7-0.7-5.1-0.8-7.1-0.1
								c-0.2,0-0.3,0.1-0.5,0.2l0,0c-1,0.5-1.9,1.4-2.9,2.5c-5.3,6.4-10.3,21.4-10.3,21.4s0.6,0.8,1.5,2c1.9,2.8,4.9,7.6,4.2,9.9
								c-0.7,2.1-3.5,1.8-5.4,1.3c-1-0.3-1.7-0.6-1.7-0.6s0.3,4,0.9,8.4c0.1,0.4,0.1,0.9,0.2,1.3c0,0.2,0,0.4,0.1,0.6
								c0,0.1,0,0.2,0.1,0.4c0.3,2.2,0.7,4.3,1.2,5.9C96.7,102.3,97,103.1,97.3,103.5z"/>
							<path class="st22" d="M105.7,50.7c16.9,3.1,32.8,12.1,44.1,25.5c5.1-1,10.9-1.6,16.1-1.3c5.2,0.3,10.5,2.2,14,6.1
								c4.9,5.4,5.5,13.6,4.3,20.9c-1.1,6.6-3.4,12.9-6.8,18.5c3,1.9,6.9,4.3,10.2,6c0,0,0.1-0.3,0.4-0.9
								c2.6-6.4,17.2-43.8,16.3-55.8l-5.7,0.2l-21.4,0.6c-0.9-0.1-1.9-0.1-2.9-0.2c-10-0.6-21.8-1.5-23.3-2.3
								c-0.9-0.5-2.7-1.7-5.1-3.4c-2.1-1.5-4.7-3.3-7.5-5.2c-7-4.6-15.4-9.7-22.2-11.3c-2.7-0.7-5.1-0.8-7.1-0.1
								c-0.2,0-0.3,0.1-0.5,0.2l0,0C107.7,48.7,106.7,49.6,105.7,50.7z"/>
						</g>
						<path class="st23" d="M93.9,84.7c0,0,0.3,4,0.9,8.4c0.1,0.5,0.1,0.9,0.2,1.3c0,0.2,0,0.4,0.1,0.6c0,0.1,0,0.2,0.1,0.4
							c0.3,1.6,0.5,3.2,0.9,4.6v0.1c0,0.2,0.1,0.3,0.1,0.5c0,0.1,0,0.2,0.1,0.2c0,0.1,0.1,0.2,0.1,0.3c0,0.1,0,0.1,0.1,0.2l0,0
							c0.3,1,0.6,1.8,1,2.2c0,0,7.5,4.2,10.8,6c0.8,0.4,1.3,0.7,1.4,0.8c0,0,0.1,0,0.1,0.1l0,0c0.2,0.2,0.6,0.6,1.2,1.1l2-0.5
							L99,98.5c-1-3.7-2.6-10.4-3.3-13.1C94.6,85,93.9,84.7,93.9,84.7z"/>
						<path class="st24" d="M140.9,107.3c-4,3.5-9.3,6.8-14.5,6.9c-4.5,0.1-8.7-2.3-12.6-4.8c-2.1-1.4-11.2-8.5-13.4-9.5
							c2.9,3,6.4,7.9,9.2,10.6l0,0c0.4,0.3,1.3,1.2,2.6,2.3c3.5,3.1,9.7,8.1,14.4,7.3c4.5-0.8,8.7-4.5,12.3-6.6
							c1.7-1,3.2-1.6,4.6-1.5c1.9,0.2,19,3.4,28.6,5.2c0,0,8.9,6.1,15.5,9.5c0,0,0.1-0.3,0.4-0.9c-1-1.8-2.6-3.3-4.5-4.6
							c-3.6-2.5-7.6-4.2-10.8-7.2C161.9,112.9,151.2,110.7,140.9,107.3z"/>
					</g>
					<path class="st6" d="M95.4,72.1c0,0,0.3,0.4,0.8,1.1c1.6-3.1,3.6-6,6-8.5c4.2-4.4,9.6-7.6,15.3-9.2c-2.2-2.7-4.4-5.3-6.8-7.9
						c-0.5,0.1-1.7-1.3-1.9-1.2C101.2,45.3,95.4,72.1,95.4,72.1z"/>
					<g>
						<g>
							<path class="st8" d="M120.7,208.6c-0.3,1.2,0.7,3.2,1.3,4.4c0.2,0.3,0.3,0.6,0.5,0.7c0.1,0.1,0.1,0.2,0.1,0.2s0,0,1.5,2.6
								c0.1,0.2,0.3,0.4,0.4,0.7c0,0.1,0.1,0.1,0.1,0.2c0.7,1.2,1.5,1.9,2.8,1.9c1.2,0,2.4,0.1,3.5-0.8c0.8-0.7,1.4-1.6,1.9-2.5
								c4.2-6.8,9.9-12.5,15.3-18.3c0.6-0.6,0.9-1.5,0.9-2.4c0.1-9.6,0.7-65.8,0.5-69.7c-0.2-7.1-8.7-33.8-8.7-33.8l-8.3,0.2
								l-9.1,0.2l-3,0.1c0,0,10.3,27,11.4,33.2c0.4,2.1,0.5,4.3,0.8,6.4c0.7,5.8,2.3,22.1,3.8,36.3c1,9.4,1.9,17.8,2.4,21.8
								c-3,0.8-14.9,3.9-17,6.6l0.9,2.6l4.1-0.2c-1.7,2.5-3.8,5.5-5.1,7.5c-0.3,0.5-0.5,0.9-0.7,1.2
								C120.9,208.1,120.8,208.4,120.7,208.6z"/>
							<path class="st9" d="M122.1,213c0.2,0.3,0.3,0.6,0.5,0.7c0.1,0.1,0.1,0.2,0.1,0.2s0,0,1.5,2.6c0.1,0.2,0.3,0.4,0.4,0.7
								c0,0.1,0.1,0.1,0.1,0.2c0.7,1.2,1.5,1.9,2.8,1.9c1.2,0,2.4,0.1,3.5-0.8c0.8-0.7,1.4-1.6,1.9-2.5c4.2-6.8,9.9-12.5,15.3-18.3
								c0.6-0.6,0.9-1.5,0.9-2.4c0.1-9.6,0.7-65.8,0.5-69.7c-0.2-7.1-8.7-33.8-8.7-33.8l-8.3,0.2c2.1,5.6,4.2,11.3,5.8,17.1
								c7.5,26.8,5.9,55.4,4.2,83.2c-0.2,2.5-0.4,5.1-2,6.9c-1.1,1.2-2.8,1.8-4.3,2.3c-4.8,1.6-9.6,3.2-14.4,4.9
								c-0.3,0.5-0.5,0.9-0.7,1.2c-0.2,0.4-0.4,0.7-0.4,0.9C120.4,209.8,121.4,211.8,122.1,213z"/>
							<g>
								<g>
									<path class="st13" d="M128,219c0-0.1,0-0.2,0-0.3c0.2-1.6,0.6-3.9,1.6-6.2s2.3-4.1,3.3-5.4c0.5-0.6,1-1.1,1.3-1.4
										c0.3-0.3,0.5-0.5,0.5-0.5s-0.1,0.2-0.4,0.6c-0.3,0.4-0.6,0.9-1,1.6c-0.8,1.3-1.9,3.3-2.8,5.5c-0.9,2.2-1.6,4.3-2,5.8
										c-0.1,0.2-0.1,0.4-0.2,0.6C128.3,219.3,128.1,219.1,128,219z"/>
								</g>
								<g>
									<path class="st13" d="M124.6,217.4c0-0.1-0.1-0.1-0.1-0.2c-0.1-0.3-0.3-0.5-0.4-0.7c0-0.5,0.1-1.1,0.2-1.7
										c0.2-1,0.4-2,0.9-3.1c0.4-1,1-2,1.5-2.8c0.6-0.8,1.1-1.5,1.6-2c0.5-0.5,1-0.9,1.3-1.1c0.3-0.2,0.5-0.4,0.5-0.4
										s-0.1,0.2-0.4,0.5c-0.3,0.3-0.6,0.8-1,1.3c-0.4,0.6-0.8,1.3-1.3,2.1c-0.4,0.8-0.9,1.7-1.3,2.7s-0.7,2-1,2.9
										C124.9,215.9,124.7,216.7,124.6,217.4z"/>
								</g>
								<g>
									<path class="st13" d="M122.5,213.8c-0.1-0.2-0.3-0.4-0.4-0.7c0.1-1,0.4-2.3,0.9-3.5c0.6-1.6,1.5-2.9,2.2-3.8
										c0.3-0.4,0.7-0.8,0.9-1c0.2-0.2,0.3-0.3,0.3-0.3s-0.3,0.6-0.8,1.6s-1.1,2.4-1.7,3.9C123.3,211.3,122.8,212.7,122.5,213.8z"
										/>
								</g>
							</g>
							<path class="st11" d="M120.6,92.3c0,0,10.3,27,11.4,33.2c0.4,2.1,0.5,4.3,0.8,6.4c0.7,5.8,2.3,22.1,3.8,36.3
								c-0.6-16.2-2.9-32.3-3.6-48.6c-0.2-5.3-2.3-10.2-4.3-15.1c-1.7-4.1-3.4-8.2-5.1-12.3L120.6,92.3z"/>
						</g>
						<path class="st23" d="M119.5,105.6c-2.3-6.6-8-25.7-3-40c2.4-6.9,9.5-9.1,14.7-4.5c3.6,3.1,7.5,8.2,10.5,16.4
							c3.8,10.4,5.5,17.9,6.2,22.6L119.5,105.6z"/>
						<path class="st22" d="M124.4,103.7c2.9-0.8,6.9-1.9,11.3-2.8s8.5-1.5,11.5-1.9c0.3,0,0.6-0.1,0.8-0.1
							c-0.5-1.1-1.1-2.6-1.8-4.2c-1.8-4.3-4.5-10-7.6-16.2c-1.5-3.1-3.1-6-4.5-8.7c-1.3-2.4-2.8-4.5-4.3-6.8
							c-0.8-1.3-1.7-2.6-2.7-3.7c-0.7-0.8-1.8-2.6-2.7-3c5.4,2.1,9.6,6.6,13,11.2c1.9,2.5,3.7,5.5,5.4,8.7c3.3,6.5,4.9,13,5.6,17.8
							c0.3,1.9,0.5,3.5,0.6,4.8c0,0.3,0,0.6,0.1,0.8l-0.7,0.3c-0.3,0.1-0.6,0.2-1,0.3c-2.8,1-6.8,2.2-11.3,3.1s-8.6,1.4-11.6,1.6
							s-4.9,0.2-4.9,0.2S121.5,104.5,124.4,103.7z"/>
						<path class="st24" d="M119.7,71.2c-2.7,11-2.8,22.7-0.3,33.7c-2.1-6.5-4.1-13-5-19.8c-0.8-6.8-0.4-13.9,2.4-20.1
							c0.9-2.1,2.2-4.1,4.1-5.3c0.7-0.5,3.5-1.7,4.3-0.9c1,1.1-0.9,2.3-1.6,3.2C121.7,64.8,120.6,68,119.7,71.2z"/>
					</g>
				</g>
			</g>
		</g>
		<g>
			<g>
				<path class="st2" d="M70.4,137.1L71,139l0.6-1.9c0.7-2.5,2.3-4.5,4.3-5.8l0,0l0,0c-2-1.2-3.6-3.3-4.3-5.8l-0.6-1.9l-0.6,1.9
					c-0.7,2.5-2.3,4.5-4.3,5.8l0,0l0,0C68.1,132.5,69.7,134.6,70.4,137.1z"/>
				<path class="st2" d="M77.1,124.4l0.4,1.3l0.4-1.3c0.5-1.7,1.6-3.1,3-4l0,0l0,0c-1.4-0.9-2.5-2.3-3-4l-0.4-1.3l-0.4,1.3
					c-0.5,1.7-1.6,3.1-3,4l0,0l0,0C75.5,121.2,76.5,122.6,77.1,124.4z"/>
			</g>
		</g>
		<g>
			<g>
				<path class="st2" d="M137.5,46.4l-0.6,1.9l-0.6-1.9c-0.7-2.5-2.3-4.5-4.3-5.8l0,0l0,0c2-1.2,3.6-3.3,4.3-5.8l0.6-1.9l0.6,1.9
					c0.7,2.5,2.3,4.5,4.3,5.8l0,0l0,0C139.8,41.9,138.2,44,137.5,46.4z"/>
				<path class="st2" d="M130.9,33.7l-0.4,1.3l-0.4-1.3c-0.5-1.7-1.6-3.1-3-4l0,0l0,0c1.4-0.9,2.5-2.3,3-4l0.4-1.3l0.4,1.3
					c0.5,1.7,1.6,3.1,3,4l0,0l0,0C132.5,30.6,131.4,32,130.9,33.7z"/>
			</g>
		</g>
	</g>
</g>
</svg>
