<?xml version="1.0" encoding="utf-8"?>
<!-- Generator: Adobe Illustrator 24.0.0, SVG Export Plug-In . SVG Version: 6.00 Build 0)  -->
<svg version="1.1" id="Calque_1" xmlns="http://www.w3.org/2000/svg" xmlns:xlink="http://www.w3.org/1999/xlink" x="0px" y="0px"
	 viewBox="0 0 373 498.9" style="enable-background:new 0 0 373 498.9;" xml:space="preserve">
<style type="text/css">
	.st0{fill:url(#SVGID_1_);}
	.st1{fill:url(#SVGID_2_);}
	.st2{fill:#F18969;}
	.st3{fill:#EC643A;}
	.st4{fill:#F59F2D;}
	.st5{opacity:0.5;fill:#F59F2D;stroke:#FBF9F5;stroke-width:15;enable-background:new    ;}
	.st6{opacity:0.48;}
	.st7{fill:#FECB48;}
	.st8{fill:#FBF9F5;}
</style>
<g>
	
		<linearGradient id="SVGID_1_" gradientUnits="userSpaceOnUse" x1="111.2565" y1="456.5108" x2="154.4245" y2="181.7648" gradientTransform="matrix(1 0 0 1 8.410366e-06 -149.5636)">
		<stop  offset="0" style="stop-color:#E2463D"/>
		<stop  offset="1" style="stop-color:#E9605A"/>
	</linearGradient>
	<path class="st0" d="M88.5,283.1c0.1,4.7-49.6,109.2-72.9,157.8c-4.2,8.8,4.5,18.2,13.6,14.7l54.6-21.3c2.2-0.8,4.5-1,6.8-0.3
		c2.2,0.6,4.2,1.9,5.6,3.8l40.3,52c5.7,7.4,17.5,4.5,19.1-4.8l30.7-177.5L88.5,283.1z"/>
</g>
<g>
	
		<linearGradient id="SVGID_2_" gradientUnits="userSpaceOnUse" x1="-71981.25" y1="340719.25" x2="-6113.248" y2="30620.248" gradientTransform="matrix(1 0 0 1 8.410366e-06 -149.5636)">
		<stop  offset="0" style="stop-color:#E2463D"/>
		<stop  offset="1" style="stop-color:#E9605A"/>
	</linearGradient>
	<path class="st1" d="M287.8,279.9c0.1,4.7,53.7,107.2,78.8,155c4.5,8.6-3.8,18.4-13,15.2l-55.3-19.2c-2.2-0.8-4.6-0.8-6.8-0.1
		c-2.2,0.7-4.1,2.1-5.5,4l-38.3,53.5c-5.4,7.6-17.3,5.1-19.3-4l-37.3-176.2L287.8,279.9z"/>
</g>
<path class="st2" d="M369.9,179.9c0,19-16.7,35-22.3,52.2c-5.8,17.7-1.9,40.5-12.6,55.3c-10.7,14.8-33.8,18.2-48.7,29.1
	c-14.9,10.8-24.9,31.6-42.7,37.4c-17.1,5.6-37.5-5.2-56.5-5.2s-39.4,10.7-56.5,5.2c-17.7-5.8-27.9-26.6-42.7-37.4
	c-14.8-10.7-37.9-14.2-48.7-29.1c-10.9-14.9-6.9-37.6-12.6-55.3C21,214.9,4.3,198.8,4.3,179.9c0-19,16.7-35.1,22.3-52.2
	c5.8-17.7,1.9-40.5,12.6-55.3C49.9,57.6,73,54.2,87.9,43.3c14.9-10.8,24.9-31.6,42.7-37.4c17.1-5.6,37.5,5.2,56.5,5.2
	s39.4-10.7,56.5-5.2c17.7,5.8,27.9,26.6,42.7,37.4C301.1,54,324.2,57.5,335,72.4c10.9,14.9,6.9,37.6,12.6,55.3
	C353.2,144.8,369.9,160.9,369.9,179.9z"/>
<path class="st3" d="M213.2,339.1c-22.7-5-29.3-5-52.1,0c-8,1.8-19.1,4.4-26.4,2.1c-12.9-4.2-23.2-24-39-35.5
	c-15.7-11.4-37.9-15.3-45.8-26.1c-7.9-10.8-4.6-32.8-10.7-51.6c-2.6-8.1-7-15.4-11.1-22.4c-14-23.6-14-27.7,0-51.3
	c4.2-7.1,8.5-14.4,11.1-22.4c6.1-18.7,2.9-40.9,10.7-51.6s30-14.7,45.8-26.2s26-31.3,39-35.5c7.3-2.4,18.3,0.3,26.4,2.1
	c22.7,5,29.3,5,52.1,0c8.1-1.8,19.1-4.4,26.4-2.1c12.9,4.2,23.2,24,39,35.5c15.7,11.4,37.9,15.3,45.8,26.1
	c7.9,10.9,4.6,32.8,10.7,51.6c2.6,8.1,7,15.4,11.2,22.4c14,23.6,14,27.7,0,51.3c-11.2,18.9-13.2,24.8-15.5,47.9
	c-2.6,26.7-4.5,29.5-29.4,40.3c-7.7,3.4-15.7,6.8-22.7,12c-15.7,11.4-26.1,31.3-39,35.5C237.6,341.8,221.5,340.9,213.2,339.1z"/>
<path class="st4" d="M328.2,205.9c14.3-77.8-37.3-152.5-115.1-166.8S60.6,76.4,46.3,154.2S83.6,306.7,161.4,321
	C239.3,335.2,313.9,283.7,328.2,205.9z"/>
<path class="st5" d="M207.7,69c61.4,11.2,102,70.1,90.7,131.5c-11.2,61.4-70.1,102-131.5,90.7c-61.4-11.3-102-70.1-90.7-131.5
	C87.4,98.3,146.3,57.7,207.7,69z"/>
<g class="st6">
	<path class="st7" d="M185.9,36.6c-30.6,0.3-60.4,10.3-84.9,28.7s-42.4,44.2-51.2,73.5s-7.9,60.7,2.4,89.6
		c10.4,28.8,29.7,53.6,55.1,70.6c78.9-20.2,136.1-79.9,136.1-150.4C243.5,104.8,221.5,65.2,185.9,36.6z"/>
</g>
<path class="st8" d="M178.4,116.5c3.9-6.3,13.1-6.3,17,0l15,24.1c1.4,2.2,3.6,3.8,6.1,4.4l27.6,6.8c7.2,1.8,10,10.5,5.2,16.2
	L231,189.7c-1.7,2-2.5,4.6-2.3,7.2l2,28.3c0.5,7.4-6.9,12.8-13.7,10l-26.3-10.7c-2.4-1-5.1-1-7.5,0l-26.3,10.7
	c-6.9,2.8-14.3-2.6-13.7-10l2-28.3c0.2-2.6-0.6-5.2-2.3-7.2L124.6,168c-4.8-5.7-1.9-14.4,5.2-16.2l27.6-6.8c2.5-0.6,4.7-2.2,6.1-4.4
	L178.4,116.5z"/>
</svg>
