<?xml version="1.0" encoding="utf-8"?>
<!-- Generator: Adobe Illustrator 24.0.0, SVG Export Plug-In . SVG Version: 6.00 Build 0)  -->
<svg version="1.1" id="Layer_1" xmlns="http://www.w3.org/2000/svg" xmlns:xlink="http://www.w3.org/1999/xlink" x="0px" y="0px"
	 viewBox="0 0 493 449.6" style="enable-background:new 0 0 493 449.6;" xml:space="preserve">
<style type="text/css">
	.st0{fill:#FFD3AE;}
	.st1{fill:#FFBC8F;}
</style>
<g>
	<path class="st0" d="M28.9,383.8c5.4-0.5,10.3,2.4,15.3,4.6c12.4,5.5,24.9,0.3,38-3.1c12.1-3.1,101.2-51.6,134.2-72.4
		c12.3-7.7,24.9-15.8,33.2-27.8c13.2-19.3,12.4-44.6,10.9-67.9C256,147.9,249.9,78.8,242.2,9.8h164.6c-0.5,2-0.8,3.8-0.9,5.4
		c-2.2,27.4-7.2,54.2-13,81.1c-6.2,28.9-12.9,57.8-15.6,87.4c-3.8,42.2-6.9,55.5,0.7,98.9c2.7,15.2,23.2,55.8,25.4,71
		c2.3,15.3,0.7,31.8-8.1,44.4c-10.4,14.8-29.1,21.8-47.2,22.9c-18,1.1-36-2.7-53.9-5.3c-38.8-5.6-78.4-5.2-117.1,1.1
		c-20,3.3-40.1,8.1-60.3,6.2c-12.2-1.2-24.2-4.9-36.5-4.8c-10.8,0-21.5,3-32.3,3.2s-22.7-3-28.6-12.1
		C13.5,400,18.2,384.8,28.9,383.8z"/>
	<path class="st1" d="M28.8,383.8c-5.3,5.1-5.9,15.6-0.7,21.8c6.6,7.8,18,9.5,28.2,8.5s20.2-4,30.4-3.4c9.8,0.6,19.1,4.6,28.9,6.1
		c14,2.1,28.2-1,41.8-5c42.1-12.1,85.2-32,127.8-21.9c14.3,3.4,27.6,10,41.7,14s30,5.2,42.8-1.9c18.6-10.3,24.7-34.9,21.4-56
		c-3.3-21-13.9-40.1-21.1-60.1c-23.5-65.9-9.3-139.4,15.5-204.8c4.8-12.7,10-25.2,14.2-38.1c1.3-4,2.4-15.6,5.5-20
		c-2.5,24.7-7,48.9-12.2,73.1c-6.2,28.9-12.9,57.8-15.6,87.4c-3.8,42.2-6.9,55.5,0.7,98.9c2.7,15.2,23.2,55.8,25.4,71
		c2.3,15.3,0.7,31.8-8.1,44.4c-10.4,14.8-29.1,21.8-47.2,22.9c-18,1.1-36-2.7-53.9-5.3c-38.8-5.6-78.4-5.2-117.1,1.1
		c-20,3.3-40.1,8.1-60.3,6.2c-12.2-1.2-24.2-4.9-36.5-4.8c-10.8,0-21.5,3-32.3,3.2s-22.7-3-28.6-12.1
		C13.5,400,18.1,384.9,28.8,383.8z"/>
</g>
</svg>
