<?xml version="1.0" encoding="utf-8"?>
<!-- Generator: Adobe Illustrator 24.0.0, SVG Export Plug-In . SVG Version: 6.00 Build 0)  -->
<svg version="1.1" id="Layer_1" xmlns="http://www.w3.org/2000/svg" xmlns:xlink="http://www.w3.org/1999/xlink" x="0px" y="0px"
	 viewBox="0 0 493 449.6" style="enable-background:new 0 0 493 449.6;" xml:space="preserve">
<style type="text/css">
	.st0{fill:#FFD3AE;}
	.st1{fill:#FFBC8F;}
	.st2{opacity:0.26;fill:#FFFFFF;enable-background:new    ;}
	.st3{opacity:0.18;fill:#FFFFFF;enable-background:new    ;}
</style>
<g>
	<path class="st0" d="M242.6,0c-0.6,14.3-0.6,29.3,0,42.7c1.2,28.6,3,42.4,0,70.9c-2,19.1-13.1,52-16.9,70.8
		c-7.3,36.7,9.1,112-11.3,113.9c-47.3,4.3-99.9,31.7-142.4,52.9C48.4,362.9,24.4,373.9,0,384v65.6c38.4-8.6,72-15,116.7-19.5
		c17.9-1.8,44.6-4.3,62.1-8.7c17-4.3,39.2-11.5,55.7-17.5c37.2-13.5,53.8-20.6,90.1-29.2c15.5-16.4,24.7-94.7,41.9-141.1
		c27.4-74.2,32-154.5,34.7-233.6L242.6,0L242.6,0z"/>
	<path class="st1" d="M346.2,9.8c3.7,22,4.4,44.5,2.8,66.7c-1.9,25.2-6.8,50.1-14,74.4c-18,60.4-30.6,143.4-75.2,174.6
		c3.6,9.9,48.7-30.9,51.8-30c4.4,1.3,6.8,5.9,8.2,10.2c4.8,14.1,4.2,30.7-4.8,42.5c-15.5,20.6-46.1,18.3-71.7,20.8
		c-26.4,2.6-51.5,12.2-76.9,19.8c-53.8,16-110.4,22.7-166.5,19.7v41c38.4-8.6,72-15,116.7-19.5c17.9-1.8,44.6-4.3,62.1-8.7
		c17-4.3,39.2-11.5,55.7-17.5c37.2-13.5,53.8-20.6,90.1-29.2c15.5-16.4,24.7-94.7,41.9-141.1c27.4-74.2,32-154.5,34.7-233.6h-57.4
		C344.8,3.5,345.7,6.9,346.2,9.8z"/>
	<path class="st2" d="M76.2,372.2c18.8-6.2,38-11.1,57.4-14.7c15.8-2.9,32.4-5.2,45.9-13.9c4.7-3.1,9.3-7.5,9.6-13.1
		C190.9,295.9,85.3,365.7,76.2,372.2z"/>
	<path class="st3" d="M255.4,20.5c-1.9,20.3,10.4,39.8,9.2,60.2c-0.7,11.8-5.8,22.7-9.6,33.8c-14.1,40.9-11.5,86.2,0.4,127.8
		c-1.4-23.2,0.3-47,8.7-68.7c10.3-26.4,30.2-48.8,37-76.3c3.8-15.4,3.2-31.7,6.8-47.1c2-8.6,5.3-17.5,2.5-25.8
		c-2.4-7.3-9.1-12.5-16.4-14.9C280.6,5,257.3,1.4,255.4,20.5z"/>
</g>
</svg>
