<?xml version="1.0" encoding="utf-8"?>
<!-- Generator: Adobe Illustrator 24.0.0, SVG Export Plug-In . SVG Version: 6.00 Build 0)  -->
<svg version="1.1" id="Layer_1" xmlns="http://www.w3.org/2000/svg" xmlns:xlink="http://www.w3.org/1999/xlink" x="0px" y="0px"
	 viewBox="0 0 493 449.6" style="enable-background:new 0 0 493 449.6;" xml:space="preserve">
<style type="text/css">
	.st0{fill:#FFD3AE;}
	.st1{fill:#FFBC8F;}
</style>
<g>
	<path class="st0" d="M359.9-239.8c-15.4-53.1-67-65.3-110.8-64.8c-43.8-0.4-95.5,11.6-110.8,64.8c-8.3,28.7-5,60,0.8,89.4
		c7.2,37.5,18.8,75.3,42.3,102.7C199-27.2,222-14,246.6-15.5c24.6,1.5,52.8-11.6,70.4-32.3c23.3-27.4,34.8-65.3,42.1-102.7
		C364.9-179.9,368.2-211.2,359.9-239.8z"/>
	<path class="st0" d="M299.3-18.9c1.2-12,9.8-27,6.6-39c-4-14.8-17.9-22.4-30.7-23.4c-8.9-0.7-18,0.7-26.1,4.7
		c-8-4-17.3-5.4-26.1-4.7c-12.8,1-26.7,8.6-30.7,23.4c-3.2,12,0.3,27,1.5,39c3.8,37-3.6,75.4-21.2,107.1c24.5,4.1,49.2,6.1,74.1,6
		c24.7,0.1,49.5-1.9,74.1-6C302.9,56.5,295.6,18.1,299.3-18.9z"/>
	<path class="st0" d="M490.1,456.5c5-55.8,2.4-220.3-0.3-276.4c-0.6-13.2-1.3-26.5-4.7-39.1c-3.4-12.7-9.8-24.9-20.2-32.5
		c-18.4-13.8-43.4-10.1-66.1-9.8c-32.8,0.2-65.4-8.6-94-25.5c-15.8-9.4-31.3-22-37.8-40.3c-3-8.3-3.8-11.9-13.2-14.8v-1.2
		c-2.5-0.4-5-0.4-7.4-0.3c-2.5-0.2-5-0.1-7.4,0.3v1.2c-9.2,3-10.2,6.5-13.2,14.8C219.3,51,203.8,63.6,188,72.9
		c-28.5,16.8-61.2,25.7-94,25.5c-22.7-0.2-47.7-4-66.1,9.8c-10.2,7.7-16.7,19.9-20.2,32.5c-3.4,12.7-4.1,26-4.7,39.1
		C0.5,236.1-2.2,400.6,3,456.4L490.1,456.5L490.1,456.5z"/>
	<path class="st1" d="M182.4,302.1c3.2-1.5,6.7-3,9.2-5.5c3.4-3.2,5.2-7.9,6.7-12.5c6.1-17.9,11.2-36.3,14.9-54.7
		c-3,24.2-6.7,48.4-11.3,72.4c-0.7,3.6-1.4,7.3-3.8,10.2c-2,2.4-4.9,3.7-7.8,4.9c-27.6,11.5-57.7,14.9-87.1,18.1
		c11.5-2.8,23.5-9.7,34.6-14.3C152.9,314.7,167.8,308.6,182.4,302.1z"/>
	<path class="st1" d="M312.3,299.3c-3.1-1.8-6.2-3.7-8.5-6.5c-3.1-3.7-4.2-8.5-5.3-13.2c-4.1-18.5-7.1-37.2-8.8-56.2
		c0.3,24.4,1.4,48.9,3.2,73.2c0.3,3.7,0.6,7.4,2.6,10.4c1.7,2.6,4.4,4.2,7.2,5.6c26.2,14.5,55.7,21.1,84.6,27.7
		c-11.2-4.1-22.2-12.4-32.9-17.9C340.2,315.2,326.2,307.4,312.3,299.3z"/>
	<path class="st1" d="M77.2,456.5c-1.1-22.2-3.1-152.5-6-174.5c-0.2-1.6-0.4-3.2-1.3-4.4c-0.9-1.3-2.3-2-3.7-2.9
		c-4.9-3.1-8.8-7.6-11.2-12.7c8.5,18.6,12.6,37.2,13.6,57.7c0.5,9.5,0.6,127.4,0.1,136.8L77.2,456.5
		C77.2,456.4,77.2,456.5,77.2,456.5z"/>
	<path class="st1" d="M402.3,456.5c1.1-22.2,3.1-152.5,6-174.5c0.2-1.6,0.4-3.2,1.3-4.4c0.9-1.3,2.3-2,3.7-2.9
		c4.9-3.1,8.8-7.6,11.2-12.7c-8.5,18.6-12.6,37.2-13.6,57.7c-0.5,9.5-0.6,127.4-0.1,136.8L402.3,456.5L402.3,456.5z"/>
	<path class="st1" d="M231.7,134.4c5.2,24.8,7.1,50,9.1,75.2c2,26.1,4,52.2,6.1,78.3c1.5,19.8,3.1,147.8,3.2,167.7
		c3.7-66.4,2.5-241.3-3.5-307.7c-0.2-2.6-0.5-5.5-1.8-7.9c-1.2-2.4-3.2-4.3-5.3-6.1c-10.6-9.4-23.6-17.9-37.6-22.6
		c3.8,3.8,9.6,7.4,14.3,10.2C221.1,124.3,231.4,132.9,231.7,134.4z"/>
</g>
</svg>
