<?xml version="1.0" encoding="utf-8"?>
<!-- Generator: Adobe Illustrator 24.0.0, SVG Export Plug-In . SVG Version: 6.00 Build 0)  -->
<svg version="1.1" id="Layer_1" xmlns="http://www.w3.org/2000/svg" xmlns:xlink="http://www.w3.org/1999/xlink" x="0px" y="0px"
	 viewBox="0 0 493 449.6" style="enable-background:new 0 0 493 449.6;" xml:space="preserve">
<style type="text/css">
	.st0{fill:#FFD3AE;}
	.st1{fill:#FFBC8F;}
</style>
<g>
	<path class="st0" d="M531.3-317.5c-20.3-70.2-88.7-86.2-146.4-85.8c-57.9-0.5-126.3,15.4-146.4,85.8c-11,37.8-6.6,79.3,1,118.2
		c9.5,49.6,24.8,99.5,55.8,135.8c23.2,27.3,57.1,44.6,89.6,42.7c32.5,2,66.3-15.4,89.6-42.7c30.8-36.2,46.1-86.2,55.7-135.8
		C537.8-238.3,542.1-279.6,531.3-317.5z"/>
	<path class="st0" d="M454.6-25.4c1.6-15.9,9.6-35.6,5.3-51.6c-5.3-19.5-23.6-29.7-40.5-31c-11.7-0.9-23.9,0.9-34.5,6.2
		c-10.6-5.3-22.8-7.1-34.5-6.2c-17,1.3-35.3,11.5-40.5,31c-4.2,15.9,3.7,35.6,5.3,51.6c5.1,48.9-4.8,99.6-28.1,141.6
		c32.4,5.4,65,8.1,97.8,8c32.7,0.1,65.5-2.5,97.8-8C459.5,74,449.6,23.4,454.6-25.4z"/>
	<path class="st0" d="M706.7,521.1c6.7-73.7,3.1-209.7-0.4-283.7c-0.8-17.4-1.7-34.9-6.2-51.8c-4.4-16.8-13-33-26.7-43.1
		c-24.4-18.3-57.3-13.2-87.4-13c-43.3,0.2-86.5-11.5-124.3-33.8c-21-12.4-41.3-29-49.9-53.3c-3.9-11-5.1-15.7-17.3-19.6v-1.6
		c-3.3-0.5-6.6-0.5-9.9-0.4c-3.3-0.2-6.6-0.1-9.9,0.4v1.6c-12.3,3.9-13.4,8.6-17.4,19.5c-8.7,24.3-29,41-49.9,53.3
		c-37.6,22.2-80.9,34-124.3,33.8c-30.1-0.2-63-5.3-87.4,13c-13.5,10.1-22.1,26.2-26.7,43.1c-4.4,16.8-5.4,34.4-6.2,51.8
		c-3.4,74.2-7,210-0.1,283.7h643.8V521.1z"/>
	<path class="st1" d="M300.1,398.6c4.3-2,8.8-3.9,12.3-7.2c4.4-4.3,6.8-10.5,8.8-16.4c8.1-23.8,14.7-47.8,19.7-72.3
		c-3.9,31.9-8.9,64.1-14.9,95.7c-0.9,4.8-1.9,9.7-5.1,13.4c-2.7,3.1-6.4,4.9-10.2,6.4c-36.4,15.3-76.2,19.6-115.1,24
		c15.3-3.7,31.1-12.9,45.7-18.8C261.2,415.4,280.7,407.1,300.1,398.6z"/>
	<path class="st1" d="M471.7,394.9c-4.1-2.4-8.3-4.9-11.4-8.6c-4.1-4.9-5.6-11.2-7-17.4c-5.4-24.5-9.4-49.2-11.6-74.3
		c0.4,32.2,1.9,64.6,4.2,96.7c0.4,4.9,0.8,9.9,3.5,13.8c2.3,3.4,5.9,5.6,9.5,7.4c34.6,19.2,73.6,35,111.8,43.7
		c-17.5-17.7-32.2-25-43.4-30.8C508.6,415.8,490,405.6,471.7,394.9z"/>
	<path class="st1" d="M161.1,493.1c-1.4-29.3-4.1-92-8-121c-0.2-2.1-0.5-4.2-1.7-5.9c-1.2-1.7-3-2.8-4.9-3.8
		c-6.4-4.1-11.6-10-14.7-16.8c11.2,24.6,16.6,49.2,18,76.2c0.6,12.5,0.8,58.8,0.1,71.3H161v0H161.1z"/>
	<path class="st1" d="M590.6,493.1c1.4-29.3,4.1-92,8-121c0.2-2.1,0.5-4.2,1.7-5.9c1.2-1.7,3-2.8,4.9-3.8c6.4-4.1,11.6-10,14.7-16.8
		c-11.2,24.6-16.6,49.2-18,76.2c-0.6,12.5-0.8,58.8-0.1,71.3h-11.2v0H590.6z"/>
	<path class="st1" d="M365.2,177c6.8,32.8,9.4,66,12,99.4c2.7,34.5,5.3,68.9,8.1,103.4c2,26.1,4.1,85.9,4.2,112.1
		c4.9-87.8,3.3-209.4-4.5-297.1c-0.2-3.5-0.6-7.2-2.4-10.5c-1.6-3.1-4.2-5.7-7-8.1c-13.9-12.4-31.2-23.6-49.7-29.9
		c5.1,5.1,12.6,9.9,18.8,13.5C351.2,163.6,364.9,175,365.2,177z"/>
</g>
</svg>
