<?xml version="1.0" encoding="utf-8"?>
<!-- Generator: Adobe Illustrator 24.0.0, SVG Export Plug-In . SVG Version: 6.00 Build 0)  -->
<svg version="1.1" id="Layer_1" xmlns="http://www.w3.org/2000/svg" xmlns:xlink="http://www.w3.org/1999/xlink" x="0px" y="0px"
	 viewBox="0 0 493 449.6" style="enable-background:new 0 0 493 449.6;" xml:space="preserve">
<style type="text/css">
	.st0{fill:#FFD3AE;}
	.st1{fill:#FFBC8F;}
</style>
<g>
	<path class="st0" d="M224.1,22.1c-39.1,10.1-91,12.6-127.8,29C91.5,53.3,79.5,76,76.1,80c-5.5,6.5-5.9,15.7-5.9,24.2
		c0.2,96.9,28.4,191.4,39.4,287.6c2,17.7,3.5,35.5,5.3,53.3h104.4c-1.8-10.3-3.5-20.6-5.3-30.9c-2.2-12.9-4.4-26-3.2-39
		c1.3-14.4,6.8-28.1,10.8-42c15.1-52.6,8.3-111.1-18.3-158.9c43.7,27.8,98.6,29.9,150.4,28.1c14.5-0.5,84.5-1.3,98.9-2.2V12.9
		C359,13,276.7,8.6,224.1,22.1z"/>
	<path class="st1" d="M353.9,202.3c14.5-0.5,84.5-1.3,98.9-2.2v-55.6c-8.8,5-18.1,9-27.7,12c-41.6,12.6-86.4,7-129.2-0.3
		c-48.3-8.3-96.2-18.6-143.6-30.9c4.7,9.7,12.1,17.6,18.5,26.2c19.1,25.4,29.6,57.3,29.3,89.1s-11.3,63.5-30.9,88.6
		c-2,2.5-4.1,5-5.3,8c-4.2,10.3,3.1,21.4,8.6,31.1c13.3,23.2,17.6,49.8,18.8,76.9h27.9c-1.8-10.3-3.5-20.6-5.3-30.9
		c-2.2-12.9-4.4-26-3.2-39c1.3-14.4,6.8-28.1,10.8-42c15.1-52.6,8.3-111.1-18.3-158.9C247.2,202,302.1,204,353.9,202.3z"/>
	<path class="st1" d="M93.2,167.3c-1.8,2.2-3.9,4.4-4.6,7.2c-0.5,2-0.3,4-0.1,6.1c1.9,18.3,3.7,36.7,5.6,55
		c0.2-12.7,1-25.3,2.5-37.9c0.4-3.8,1-7.7,2.9-11c1.7-2.9,4.3-5.2,6.5-7.7c11.3-12.9,11.9-31.7,11.8-48.9c0-4.9-3.5-8.8-8.6-5.7
		c-4.2,2.5-1.9,6.1-2.6,10C104.1,146.7,101.5,157.4,93.2,167.3z"/>
	<path class="st1" d="M133.7,296.3c10.1,7.3,17.5,20.2,29.8,21.1c8.5,0.7,16.2-4.8,22.2-10.9c6.3-6.5,11.6-14,15.6-22.1
		c-1.8,37.5-3.7,75-5.5,112.5c-4.9-0.2-8.1-5-10.4-9.3c-8.2-14.7-16.8-28.2-24.4-43.3c-4.2-8.3-8.6-16.6-13.2-24.7
		C144.3,313.4,139.4,300.4,133.7,296.3z"/>
</g>
</svg>
