<?xml version="1.0" encoding="utf-8"?>
<!-- Generator: Adobe Illustrator 24.0.0, SVG Export Plug-In . SVG Version: 6.00 Build 0)  -->
<svg version="1.1" id="Layer_1" xmlns="http://www.w3.org/2000/svg" xmlns:xlink="http://www.w3.org/1999/xlink" x="0px" y="0px"
	 viewBox="0 0 493 449.6" style="enable-background:new 0 0 493 449.6;" xml:space="preserve">
<style type="text/css">
	.st0{fill:#FFD3AE;}
	.st1{fill:#FFBC8F;}
</style>
<g>
	<path class="st0" d="M1049.7,443.2c-38.5-137.6-11.1-284.1-48.3-421.9c-4.2-15.1-9-30.3-10.6-45.8c-1.5-14.5-0.3-29,0.7-43.5
		c3.3-55.2,0.4-110.5-5.6-165.5c-4.9-44.9-30.2-146.6-32.4-151.2l-465.7-7.1l-23.1-0.4l-465.6-7.1c-2.2,4.5-30.7,105.4-37,150.1
		C-45.5-194.2-50.1-139-48.5-83.8c0.5,14.5,1.3,29-0.7,43.5c-2.2,15.4-7.5,30.4-12,45.4c-41.3,136.6-18.5,284.1-61.2,420.2
		c-2.1,6.7-4.3,13.2-6.3,20.1l129.3,2c0.4-5.4,0.6-10.8,0.7-16.1c1.7-37.2,5.7-74.4,15.5-110.3c10.6-37.5,27-73.5,42.8-109.5
		c15.1-34.6,49.6-99.6,61.1-185.6c1-6.7-3.3-73.2-2.5-79.8c0.5-5.4,3.4-10.7,6.2-15.7c27-48.8,29.4-102.2,56.4-151
		c6.8,48.1,22.8,99.5,23.7,148.1c1.7,75.7,13.4,153,15.1,228.9c1.2,50.7,2.2,101.5-4.3,152c-6.3,48.1-19.6,95.4-34.8,141.9
		l271.5,4.1l23.1,0.4l271.6,4.1c-14.1-47.1-25.7-94.4-30.5-142.9c-4.9-50.6-2.5-101.3,0.3-152.1c4-75.6,8-151.2,11.9-226.9
		c2.4-48.4,16.4-100.1,24.5-147.9c25.5,49.6,40,102.2,65.6,152.1c2.6,5.1,5.4,10.2,5.8,15.9c0.6,6.7-5.5,73-4.9,79.6
		c8.7,86.3,41.2,152.3,55.4,187.4c14.7,36.5,30.3,72.8,39.4,110.7c8.9,36.4,11.9,73.7,12.2,110.7c0.2,5.3,0.1,10.5,0.2,16.1l129.3,2
		C1053.7,456.8,1051.6,449.9,1049.7,443.2z"/>
	<path class="st1" d="M155.5-180.5c-21.4,29.8-69.3,71.7-91.2,101.3c-2.5,3.3-5,6.8-5.3,10.7c-0.3,3.9,2,7.6,4,11.2
		C95.3-0.1,85.2,69.2,60.5,129.3S-2.2,244.6-25.8,304.9c-17.8,45.9-27.4,93.7-35.4,141.8l61.8,0.9c0.4-5.4,0.6-10.8,0.7-16.1
		c1.7-37.2,5.7-74.4,15.5-110.3c10.6-37.5,27-73.5,42.8-109.5c15.1-34.6,49.6-99.6,61.1-185.6c1-6.7-3.3-73.2-2.5-79.8
		c0.5-5.4,3.4-10.7,6.2-15.7c27-48.8,39.5-92.7,66.5-141.4c1.4,9.8,16.5-51.3,16.9-79.8C208-290.9,202.2-246,155.5-180.5z"/>
	<path class="st1" d="M1049.7,443.2c-38.5-137.6-11.1-284.1-48.3-421.9c-4.2-15.1-9-30.3-10.6-45.8c-1.5-14.5-0.3-29,0.7-43.5
		c3.3-55.2,0.4-110.5-5.6-165.5c-4.9-44.9-30.2-146.6-32.4-151.2l-19.4-0.3c0.1,15.5,4.1,33.4,5.8,40.6
		c10.7,48.2,17.5,96.8,20.3,145.9c3.2,54.7,1,109.8-6.1,164.2c-1.3,10.4-3,21.1,0,31.3c2,7.5,6.3,14.4,10.5,21.3
		c43.7,74.9,47.2,162.8,44.2,246.9c-2.3,65.6-8.1,132.2,0.1,197.3l46.8,0.7C1053.7,456.8,1051.6,449.9,1049.7,443.2z"/>
	<path class="st1" d="M688.7-140c-7.4,19.9,19.3,45.4,19,66.2c-1.1,120.6-25,238.9-59.1,355.5c-1.8,6.2-3.8,12.6-2.4,19
		c1.6,7.9,32.2,13.8,37.7,20.2c40.5,49.2,20.5,87.9,25.5,137.1l37.1,0.6c-14.1-47.1-25.7-94.4-30.5-142.9
		c-4.9-50.6-2.5-101.3,0.3-152.1c4-75.6,15.2-156.5,19.2-232.1c2.4-47.2,23.3-97,31.2-143.7c-1-17.3-8.6-18-4.6-33
		c-6,22.2-21.4,43.5-33.4,63.7C718.3-164.4,695.3-157.7,688.7-140z"/>
	<path class="st1" d="M256.1-146.5c6.7,20.1-11.5,42.2-11.9,62.9c-2.5,120.6,8.7,242.1,39.1,359.8c1.6,6.2,3.4,12.7,1.9,19
		c-1.8,7.8-27.5,21.9-33.3,28.1c-35.3,37.2-27.9,78.4-34.6,127.5l-37.1-0.6c15.6-46.7,28.5-93.6,34.8-141.9
		c6.5-50.5,5.5-101.2,4.3-152c-1.7-75.7-10.5-156.9-12.2-232.6c-1-47.3-20.4-97.6-26.8-144.6c1.5-17.2,27-26.5,23.3-41.6
		c5.4,22.4,13.9,44.1,25.3,64.6C238.8-180.7,250.2-164.5,256.1-146.5z"/>
	<path class="st1" d="M487.8-391.7l-43-0.7c21.6,91.8,18.2,421.4,23.2,602.8c1.4,48.8,2.5,99-18.3,144.2c-1.8,3.9-4.6,3.9-3.8,7.9
		c0.8,3.9,11.2,7.8,14.1,10.7c9.1,9,11.8,21.1,21,30.1c-4.9-16.7,16.7-30.7,32.6-40.8c-14.8-43.7-30.8-95.1-33-140.8
		c-5.1-114.1-10.2-228.4-5.2-342.4C480.1-212,457.5-293,487.8-391.7z"/>
	<path class="st1" d="M383.8-205.3c5.8-2.7,11.5-5.5,16-10.3c6.1-6.4,9.1-15.2,11.6-23.8C422.1-273.7,431-308.6,438-344
		c-5.6,46.3-12.4,92.5-20.4,138.5c-1.2,6.8-2.6,14-6.7,19.3c-3.4,4.5-8.5,7-13.4,9.2c-47.7,21.6-99.3,27.5-150.1,33.3
		c19.9-5.1,40.4-18.4,59.8-26.7C332.9-181.6,358.3-193.2,383.8-205.3z"/>
	<path class="st1" d="M556.5-205.2c-5.5-3.3-10.9-6.6-14.8-11.6c-5.2-6.8-7.3-16-9-24.6c-7.2-35-12.3-70.8-15.7-106.7
		c0.9,46.7,2.7,93.3,6,139.6c0.6,6.9,1.1,14.1,4.6,19.8c3.1,4.7,7.9,7.7,12.4,10.3c45.3,25.8,96.1,36.2,146,46.4
		c-19.3-7-38.5-22-56.6-31.8C604.6-177.1,580.4-190.8,556.5-205.2z"/>
</g>
</svg>
