<?xml version="1.0" encoding="utf-8"?>
<!-- Generator: Adobe Illustrator 24.0.0, SVG Export Plug-In . SVG Version: 6.00 Build 0)  -->
<svg version="1.1" id="Calque_1" xmlns="http://www.w3.org/2000/svg" xmlns:xlink="http://www.w3.org/1999/xlink" x="0px" y="0px"
	 viewBox="0 0 36.6 36.6" style="enable-background:new 0 0 36.6 36.6;" xml:space="preserve">
<style type="text/css">
	.st0{fill:#FFCB46;}
	.st1{fill:#222E54;}
	.st2{fill:#FFFFFF;}
</style>
<path class="st0" d="M36,18.3c0,9.8-8,17.8-17.8,17.8c-9.8,0-17.8-8-17.8-17.8c0-9.8,8-17.8,17.8-17.8C28.1,0.6,36,8.5,36,18.3z"/>
<path class="st1" d="M28.6,18.1c-0.1-0.1-1.5-3.3-4.4-3.3c-2.9,0-4.3,3.1-4.4,3.3c-0.1,0.2,0,0.4,0.1,0.6c0.2,0.1,0.4,0.1,0.6,0
	c0,0,1.2-0.9,3.7-0.9c2.4,0,3.6,0.9,3.7,0.9c0.1,0.1,0.2,0.1,0.3,0.1c0.1,0,0.2,0,0.3-0.1C28.6,18.6,28.7,18.3,28.6,18.1z
	 M16.8,18.1c-0.1-0.1-1.5-3.3-4.4-3.3C9.4,14.9,8,18,8,18.1c-0.1,0.2,0,0.4,0.1,0.6c0.2,0.1,0.4,0.1,0.6,0c0,0,1.2-0.9,3.7-0.9
	c2.4,0,3.6,0.9,3.7,0.9c0.1,0.1,0.2,0.1,0.3,0.1c0.1,0,0.2,0,0.3-0.1C16.8,18.6,16.9,18.3,16.8,18.1z M18.3,22.3
	c-3.6,0-5.9-0.4-8.9-1c-0.7-0.1-2,0-2,2c0,3.9,4.5,8.9,10.9,8.9c6.3,0,10.9-4.9,10.9-8.9c0-2-1.3-2.1-2-2
	C24.2,21.8,21.9,22.3,18.3,22.3z"/>
<path class="st2" d="M9.4,23.2c0,0,3,1,8.9,1s8.9-1,8.9-1s-2,3.9-8.9,3.9C11.4,27.2,9.4,23.2,9.4,23.2z"/>
</svg>
