<?xml version="1.0" encoding="utf-8"?>
<!-- Generator: Adobe Illustrator 24.0.0, SVG Export Plug-In . SVG Version: 6.00 Build 0)  -->
<svg version="1.1" id="Calque_1" xmlns="http://www.w3.org/2000/svg" xmlns:xlink="http://www.w3.org/1999/xlink" x="0px" y="0px"
	 viewBox="0 0 36.6 36.6" style="enable-background:new 0 0 36.6 36.6;" xml:space="preserve">
<style type="text/css">
	.st0{fill:#FFCB46;}
	.st1{fill-rule:evenodd;clip-rule:evenodd;fill:#222E54;}
	.st2{fill:#222E54;}
</style>
<path class="st0" d="M36.3,18.3c0,9.9-8.1,18-18,18s-18-8.1-18-18c0-9.9,8.1-18,18-18S36.3,8.4,36.3,18.3z"/>
<path class="st1" d="M1.5,11.3c0.2,0.2,1.4,1,1.7,1.7c0.2,0.7,0.7,4.8,2.2,6c1.5,1.2,7.1,0.8,8.1,0.2c2.4-1.2,2.7-4.5,3.1-6.2
	c0.2-1,1.7-1,1.7-1s1.4,0,1.7,1c0.4,1.7,0.7,5,3.1,6.2c1.1,0.5,6.7,1,8.2-0.2c1.4-1.2,1.9-5.3,2.2-6c0.2-0.7,1.4-1.4,1.7-1.7
	c0.2-0.2,0.2-1.2,0-1.4C34.6,9.4,28.9,9,22.9,9.7c-1.2,0.1-1.7,0.5-4.6,0.5c-2.9,0-3.3-0.3-4.6-0.5C7.7,9,2,9.4,1.5,9.9
	C1.3,10.1,1.3,11.1,1.5,11.3z"/>
<path class="st2" d="M27.6,23.9c-0.2-0.2-0.4-0.2-0.6,0c0,0-3.9,2.9-8.7,2.9c-4.8,0-8.7-2.9-8.7-2.9c-0.2-0.1-0.5-0.1-0.6,0
	c-0.2,0.2-0.2,0.4-0.1,0.6c0.1,0.2,3.2,5.2,9.4,5.2s9.3-5,9.4-5.2C27.8,24.4,27.8,24.1,27.6,23.9z"/>
</svg>
