<?xml version="1.0" encoding="utf-8"?>
<!-- Generator: Adobe Illustrator 24.0.0, SVG Export Plug-In . SVG Version: 6.00 Build 0)  -->
<svg version="1.1" id="Calque_1" xmlns="http://www.w3.org/2000/svg" xmlns:xlink="http://www.w3.org/1999/xlink" x="0px" y="0px"
	 viewBox="0 0 428.4 230.3" style="enable-background:new 0 0 428.4 230.3;" xml:space="preserve">
<style type="text/css">
	.st0{fill:#FFF6EC;}
	.st1{fill:#FFDA7D;}
	.st2{fill:#F4B565;}
	.st3{opacity:0.5;fill:#FFDA7D;enable-background:new    ;}
	.st4{fill:#FDE987;}
</style>
<g>
	<g>
		<path class="st0" d="M32.9,177.5c0,0,81.2,38.2,181.3,38.2s181.3-38.2,181.3-38.2s-81.2-38.2-181.3-38.2S32.9,177.5,32.9,177.5z"
			/>
		<g>
			<g>
				<path class="st1" d="M124.4,107.8c0,49.3,40.8,89.4,91.2,89.4c6.2,0,12.3-0.6,18.2-1.8c41.6-8.3,73-44.4,73-87.6
					c0-26.6-11.9-50.6-30.8-66.9c-16.1-13.9-37.2-22.5-60.5-22.5c-7.1,0-14,0.7-20.5,2.2c-13.6,3.1-26.1,9.2-36.6,17.5
					C137.6,54.5,124.4,79.6,124.4,107.8z"/>
				<path class="st2" d="M124.4,107.8c0,49.3,40.8,89.4,91.2,89.4c6.2,0,12.3-0.6,18.2-1.8c-9.4-3.7-17.8-10.1-25.5-17.2
					c-15-13.8-27.9-30-38.2-48.3c-3.5-6.2-6.8-12.7-8.6-19.7c-1.8-6.8-2.1-14.1-1.7-21.2c1.7-27.1,15.3-52.5,35.1-68.4
					c-13.6,3.1-26.1,9.2-36.6,17.5C137.6,54.5,124.4,79.6,124.4,107.8z"/>
				<path class="st3" d="M158.4,38.1c6.2,6.2,14.2,10.5,21.8,14.4c28,14.1,58.1,25,89.1,24.6c4.9-0.1,10.4-0.9,13.2-5.2
					c2.4-3.7,1.8-8.7,0.8-13.2c-1.5-6.4-3.9-12.4-7.1-17.9c-16.1-13.9-37.2-22.5-60.5-22.5C194,18.4,174.1,25.8,158.4,38.1z"/>
				<path class="st4" d="M218.4,161.3c12.5,14.7,32.9,16.7,47.6,4.9c6.9-5.6,12.9-12.4,17.6-20.4c7.5-12.6,11.5-27.7,11.7-42.8
					c0.1-9.9-9.6-16-17.2-10.8c0,0-0.1,0-0.1,0.1c-13,8.7-29.8,7.8-44.1,2.1c-16-6.2-29.7-17.6-44.4-26.8c-2.9-1.8-6.5-2.2-9.4-0.6
					c-6.4,3.3-5.1,11.7-3.3,18.1C184.9,113.5,199.8,139.4,218.4,161.3z"/>
			</g>
		</g>
	</g>
</g>
</svg>
