<?xml version="1.0" encoding="utf-8"?>
<!-- Generator: Adobe Illustrator 24.0.0, SVG Export Plug-In . SVG Version: 6.00 Build 0)  -->
<svg version="1.1" id="Calque_1" xmlns="http://www.w3.org/2000/svg" xmlns:xlink="http://www.w3.org/1999/xlink" x="0px" y="0px"
	 viewBox="0 0 22.9 22.6" style="enable-background:new 0 0 22.9 22.6;" xml:space="preserve">
<style type="text/css">
	.st0{fill:#FB8B68;}
	.st1{fill:#FFCB46;}
</style>
<path class="st0" d="M6,1.3C5.8,2,5.5,2.6,4.9,2.8C4.7,3,4.4,3.1,4.1,3.1c-1.2,0-1.2-1-1.3-1.6c0-0.1,0.1-0.2,0.2-0.2
	C3,1.3,6,1.3,6,1.3z"/>
<path class="st0" d="M20.1,1.3c0.1,0,0.2,0.1,0.2,0.2c-0.1,0.6-0.2,1.6-1.3,1.6c-0.3,0-0.5-0.1-0.8-0.2c-0.6-0.3-1-0.9-1.2-1.6
	C17,1.3,20.1,1.3,20.1,1.3z"/>
<path class="st1" d="M22.5,15.4c0-0.1-0.1-0.1-0.1-0.2c-1.2-0.3-2.4-0.5-3.5-0.8c-1.2-0.4-2.4-1.1-2.9-2.2c-0.4-0.8-0.4-0.8-0.3-1.7
	c0.1-1.3,0.1-2.7,0.2-4H7.2c0.1,1.3,0.1,2.7,0.2,4c0,0.9,0.1,0.9-0.3,1.7c-0.5,1.1-1.7,1.9-2.9,2.2c-1.2,0.4-2.4,0.5-3.5,0.8
	c-0.1,0-0.1,0.1-0.1,0.2v5.7c0,0.1,0.1,0.2,0.2,0.2h21.6c0.1,0,0.2-0.1,0.2-0.2v-5.7C22.6,15.4,22.5,15.4,22.5,15.4z"/>
<path class="st1" d="M18.2,1.3c0,0.5,0,1-0.1,1.5c-0.2,1.4-0.8,2.7-1.5,3.9l-1,1.5C15,9.2,14,9.7,13,9.7h-2.7c-1,0-1.9-0.5-2.5-1.3
	L6.7,6.9C5.8,5.7,5.2,4.3,5,2.9c-0.1-0.5-0.1-1-0.2-1.5h13.4V1.3z"/>
<g>
	<path class="st0" d="M11.3,18.1c-0.2-0.5-0.5-1.2-1.1-1.6c-0.4-0.3-0.8-0.4-1.2-0.4l-5-0.6c-0.1,0-0.3,0-0.4,0.1
		c-0.1,0.1-0.2,0.2-0.2,0.4s0,0.4,0.1,0.5s0.2,0.2,0.4,0.2l4.8,0.6c0.3,0,0.6,0.1,0.8,0.2c0.3,0.2,0.5,0.6,0.7,1
		c0.1,0.3,0.4,0.4,0.6,0.4c0.1,0,0.2,0,0.2,0c0.2-0.1,0.3-0.3,0.3-0.6C11.3,18.2,11.3,18.2,11.3,18.1z"/>
	<path class="st0" d="M19.4,16L19.4,16C19.4,15.9,19.4,15.9,19.4,16C19.4,15.9,19.4,15.9,19.4,16C19.4,15.9,19.4,15.9,19.4,16
		c0-0.3-0.1-0.4-0.2-0.5s-0.2-0.1-0.4-0.1L14,16c-0.3,0.1-0.8,0.2-1.2,0.4c-0.6,0.4-0.9,1.1-1.1,1.6c-0.2,0.3,0,0.7,0.3,0.8
		c0.3,0,0.5-0.2,0.6-0.4c0.1-0.2,0.2-0.4,0.3-0.6s0.2-0.3,0.4-0.4s0.5-0.2,0.8-0.2l4.8-0.6c0.2,0,0.3-0.1,0.4-0.2
		C19.4,16.3,19.4,16.2,19.4,16L19.4,16L19.4,16z"/>
</g>
</svg>
