<?xml version="1.0" encoding="utf-8"?>
<!-- Generator: Adobe Illustrator 24.0.0, SVG Export Plug-In . SVG Version: 6.00 Build 0)  -->
<svg version="1.1" id="Calque_1" xmlns="http://www.w3.org/2000/svg" xmlns:xlink="http://www.w3.org/1999/xlink" x="0px" y="0px"
	 viewBox="0 0 22.9 22.6" style="enable-background:new 0 0 22.9 22.6;" xml:space="preserve">
<style type="text/css">
	.st0{fill:#FFCB46;}
	.st1{fill:none;stroke:#FB8B68;stroke-width:0.4;}
	.st2{fill-rule:evenodd;clip-rule:evenodd;fill:#FFCB46;}
	.st3{fill:#FB8B68;}
</style>
<path class="st0" d="M1.6,8.4C2.3,7.5,3,6.8,5.1,6.6c0.2-0.2,0.4-0.4,0.6-0.5c0.5-0.4,1.1-0.6,1.6-0.6l0,0c1-0.1,1.9,0.4,2.4,0.4
	c0.2,0,0.2,0.1,0.2,0.2l0.2,4.1l-0.3,0.2l0.3,0.3l0.1,1L9.9,12l0.2,0.2l0.1,1.2c0,0.2-0.1,0.2-0.2,0.2l-2.5,0.1
	c-0.2,0-0.2-0.1-0.2-0.2c0-0.5-0.2-0.8-0.6-1.2c-0.3-0.3-0.6-0.7-0.8-1.3c-0.1-0.4-0.2-0.8-0.3-1.4c-1.1,0.6-3.7,1.1-5.5,1.2
	c-0.2,0,0,0,0-2.4l1.4,0C1.5,8.5,1.5,8.4,1.6,8.4z"/>
<path class="st0" d="M21.5,9c-0.7-0.9-1.3-1.7-3.2-1.9c-0.2-0.2-0.3-0.4-0.5-0.6c-0.5-0.4-1-0.7-1.5-0.7l0,0
	c-0.9-0.1-1.8,0.3-2.2,0.3c-0.1,0-0.2,0.1-0.2,0.2l-0.5,4.1l0.2,0.3l-0.3,0.2l-0.1,1l0.2,0.3l-0.2,0.2L13,13.6
	c0,0.2,0.1,0.2,0.2,0.3l2.3,0.3c0.1,0,0.2-0.1,0.2-0.2c0.1-0.5,0.3-0.8,0.6-1.2c0.3-0.3,0.6-0.7,0.8-1.2c0.2-0.4,0.3-0.8,0.4-1.4
	c1,0.7,3.4,1.3,5.1,1.5c0.1,0,0,0,0.2-2.4l-1.4,0C21.5,9.1,21.6,9.1,21.5,9z"/>
<path class="st1" d="M8.9,15.9"/>
<g>
	<path class="st2" d="M16.5,7.8c0.3-0.5,0.5-1.1,0.6-1.3c0-0.1,0-0.1-0.1-0.1H6c-0.1,0-0.1,0.1-0.1,0.1C6,6.8,6.1,7.3,6.5,7.8l0,0
		c0.2,0.5,0.2,1.1,0.2,1.6c0,0.3,0.1,0.5,0.1,0.7c0.1,0.4,0.2,0.8,0.3,1.2c0.2,0.4,0.3,0.7,0.4,1.1c0.2,0.8-0.2,3.6-0.6,4.3
		c-0.4,0.8-0.5,1.5-0.6,2c0,0.1-0.2,3.3-0.2,3.8l11-0.1c0.1,0-0.3-3.7-0.3-3.7c-0.1-0.5-0.2-1.3-0.6-2c-0.3-0.7-0.7-3.5-0.6-4.3
		c0.1-0.4,0.2-0.8,0.4-1.1c0.2-0.4,0.3-0.8,0.4-1.2c0.1-0.2,0.1-0.4,0.1-0.7C16.3,8.9,16.3,8.4,16.5,7.8L16.5,7.8z"/>
	<path class="st3" d="M11.5,9.9c-0.2,0-0.4,0.2-0.4,0.4v1.4c-0.1,0.1-0.5,0.2-0.9,0.3C10,12,9.8,12.1,9.7,12.1s-0.3,0.1-0.4,0
		c0,0-0.1-0.1-0.3-0.2c0-0.1-0.2-0.4-0.3-0.5c-0.1-0.2-0.2-0.5-0.2-0.6s-0.1-0.2-0.1-0.2c-0.1-0.1,0,0-0.1-0.1l0,0l0,0
		c-0.1-0.1-0.1-0.1-0.2-0.1c-0.1,0-0.1-0.1-0.2-0.1l0,0l0,0c-0.1,0-0.1,0-0.1,0l0,0l0,0l0,0H7.9l0,0l0,0c-0.2,0.2-0.2,0.4-0.2,0.5
		l0,0c0,0,0.2,0.4,0.4,1c0.2,0.4,0.3,0.6,0.5,0.8c0.2,0.2,0.4,0.4,0.6,0.4c0.3,0.1,0.6,0,1.1-0.1c0.3-0.1,0.5-0.2,0.8-0.2v1.7
		c-0.2,0.1-0.4,0.2-0.6,0.3c-0.2,0.1-0.3,0.1-0.4,0.1c-0.2,0-0.2,0-0.3,0c0,0,0,0-0.1,0c0,0-0.1-0.1-0.1-0.1c0-0.1-0.1-0.2-0.2-0.4
		C9.2,13.8,9.1,13.4,9,13c-0.1-0.2-0.2-0.3-0.4-0.2S8.3,13,8.4,13.2l0.1-0.1l0,0l-0.1,0.1c0,0,0.1,0.2,0.1,0.4l0,0
		c0.1,0.2,0.1,0.4,0.2,0.5c0.2,0.4,0.4,0.8,0.5,1c0.2,0.2,0.3,0.2,0.4,0.2c0.2,0.1,0.5,0,0.9-0.1c0.2-0.1,0.4-0.2,0.5-0.2v1.7
		c-0.2,0.1-0.4,0.2-0.5,0.3s-0.2,0.1-0.3,0.1c-0.1,0-0.2,0-0.2,0s-0.1,0-0.1-0.1c-0.1-0.1-0.1-0.2-0.2-0.3c-0.1-0.2-0.3-0.5-0.3-0.8
		c-0.1-0.1-0.1-0.2-0.2-0.2c-0.1-0.1-0.2-0.1-0.3,0s-0.2,0.1-0.2,0.2c-0.1,0.1-0.1,0.2,0,0.3l0,0l0,0l0,0l0,0c0,0.1,0.1,0.4,0.3,0.7
		c0.1,0.3,0.3,0.5,0.4,0.7l0,0c0.2,0.2,0.3,0.3,0.4,0.4c0.1,0,0.1,0,0.2,0c0.1,0,0.2,0,0.2,0c0.1,0,0.3-0.1,0.4-0.1
		c0.3-0.1,0.5-0.2,0.7-0.4c0.2,0.1,0.4,0.2,0.7,0.4c0.2,0.1,0.3,0.1,0.4,0.1c0.1,0,0.2,0,0.2,0s0.2,0,0.2,0c0.2-0.1,0.3-0.2,0.4-0.4
		l0,0c0.1-0.2,0.3-0.4,0.4-0.7c0.2-0.4,0.3-0.7,0.3-0.7l0,0l0,0l0,0l0,0c0-0.1,0-0.2,0-0.3c-0.1-0.1-0.1-0.2-0.2-0.2
		c-0.1-0.1-0.2,0-0.3,0c-0.1,0.1-0.2,0.1-0.2,0.2c-0.1,0.3-0.2,0.6-0.3,0.8c-0.1,0.1-0.1,0.2-0.2,0.3c-0.1,0.1-0.1,0.1-0.1,0.1
		s-0.1,0-0.2,0S12.2,17,12,17c-0.2-0.1-0.4-0.2-0.5-0.3v-1.7c0.2,0.1,0.3,0.2,0.5,0.2c0.4,0.1,0.6,0.2,0.9,0.1
		c0.1,0,0.2-0.1,0.4-0.2c0.2-0.2,0.4-0.5,0.5-1c0.1-0.2,0.2-0.4,0.2-0.5l0,0c0.1-0.2,0.1-0.4,0.1-0.4L14,13.1l0,0l0.1,0.1
		c0.1-0.2-0.1-0.4-0.2-0.4c-0.2-0.1-0.4,0.1-0.4,0.2c-0.1,0.4-0.3,0.8-0.4,1.1c-0.1,0.2-0.2,0.3-0.2,0.4c-0.1,0.1-0.1,0.1-0.1,0.1
		H13c-0.1,0-0.1,0-0.3,0c-0.1,0-0.2-0.1-0.4-0.1c-0.3-0.1-0.5-0.2-0.6-0.3v-1.8c0.2,0.1,0.5,0.2,0.8,0.2c0.5,0.1,0.8,0.2,1.1,0.1
		c0.2-0.1,0.4-0.2,0.6-0.4c0.2-0.2,0.3-0.4,0.5-0.8c0.3-0.5,0.4-1,0.4-1l0,0c0.1-0.2,0-0.4-0.2-0.4l0,0l0,0c0,0,0,0-0.1,0l0,0l0,0
		l0,0c-0.1,0-0.1,0-0.1,0l0,0l0,0c-0.1,0-0.1,0-0.2,0.1c-0.1,0.1-0.1,0.1-0.2,0.2l0,0l0,0c-0.1,0.1,0,0-0.1,0.1
		c0.2-0.1,0.2,0,0.1,0.1c-0.1,0.2-0.2,0.4-0.3,0.5c-0.1,0.2-0.3,0.4-0.4,0.5C13.5,12,13.4,12,13.4,12c-0.1,0-0.2,0-0.4,0
		c-0.2,0-0.3-0.1-0.5-0.1c-0.3-0.1-0.6-0.2-0.9-0.3v-1.3C11.9,10,11.7,9.9,11.5,9.9 M10.1,17.4L10.1,17.4L10.1,17.4L10.1,17.4
		L10.1,17.4z M12.9,17.4L12.9,17.4L12.9,17.4L12.9,17.4L12.9,17.4z"/>
</g>
<path class="st3" d="M9.2,0C9.1,0.3,9,0.6,8.7,0.6C8.7,0.7,8.5,0.8,8.4,0.8c-0.5,0-0.5-0.4-0.5-0.7C7.9,0,7.9,0,8,0C8,0,9.2,0,9.2,0
	z"/>
<path class="st3" d="M15,0C15,0,15.1,0,15,0c0,0.3,0,0.8-0.5,0.8c-0.1,0-0.2,0-0.3-0.1C14,0.6,13.8,0.3,13.7,0C13.7,0,15,0,15,0z"/>
<path class="st0" d="M16,6C16,5.9,15.9,5.9,16,6c-0.5-0.2-1-0.3-1.5-0.4c-0.5-0.2-1-0.5-1.2-0.9c-0.2-0.3-0.2-0.3-0.1-0.7
	c0-0.6,0-1.1,0.1-1.7H9.7c0,0.6,0,1.1,0.1,1.7c0,0.4,0,0.4-0.1,0.7C9.4,5.1,8.9,5.4,8.4,5.6C8,5.7,7.5,5.8,7,5.9c0,0,0,0,0,0.1v2.4
	c0,0,0,0.1,0.1,0.1h8.9c0,0,0.1,0,0.1-0.1L16,6C16,6,16,6,16,6z"/>
<path class="st0" d="M14.2,0c0,0.2,0,0.4,0,0.6c-0.1,0.6-0.3,1.1-0.6,1.7l-0.4,0.6c-0.2,0.4-0.7,0.6-1.1,0.6H11
	c-0.4,0-0.8-0.2-1-0.6L9.5,2.4C9.1,1.9,8.9,1.3,8.8,0.7c0-0.2,0-0.4-0.1-0.6L14.2,0L14.2,0z"/>
<g>
	<path class="st3" d="M11.4,7.1c-0.1-0.2-0.2-0.5-0.5-0.7c-0.2-0.1-0.3-0.2-0.5-0.2L8.4,6c0,0-0.1,0-0.2,0c0,0-0.1,0.1-0.1,0.2
		c0,0.1,0,0.2,0,0.2c0,0,0.1,0.1,0.2,0.1l2,0.3c0.1,0,0.2,0,0.3,0.1c0.1,0.1,0.2,0.3,0.3,0.4c0,0.1,0.2,0.2,0.2,0.2c0,0,0.1,0,0.1,0
		C11.3,7.4,11.4,7.3,11.4,7.1C11.4,7.2,11.4,7.2,11.4,7.1z"/>
	<path class="st3" d="M14.7,6.2L14.7,6.2C14.7,6.2,14.7,6.2,14.7,6.2C14.7,6.2,14.7,6.2,14.7,6.2C14.7,6.2,14.7,6.2,14.7,6.2
		c0-0.1,0-0.2-0.1-0.2c0,0-0.1,0-0.2,0l-2,0.3c-0.1,0-0.3,0.1-0.5,0.2c-0.2,0.2-0.4,0.5-0.5,0.7c-0.1,0.1,0,0.3,0.1,0.3
		c0.1,0,0.2-0.1,0.2-0.2C11.9,7.2,12,7.1,12,7c0-0.1,0.1-0.1,0.2-0.2c0.1,0,0.2-0.1,0.3-0.1l2-0.3c0.1,0,0.1,0,0.2-0.1
		C14.7,6.4,14.7,6.3,14.7,6.2L14.7,6.2L14.7,6.2z"/>
</g>
<path class="st3" d="M14.6,12.3c0,0.1-0.1,0.2-0.2,0.2l-1.1-0.1l0-0.4l1.1,0.1C14.6,12.1,14.6,12.2,14.6,12.3z"/>
<path class="st3" d="M14.3,21.1c-0.1,0-0.1,0-0.2,0l-1.7,0.7c-0.2,0.1-0.3,0.3-0.3,0.7c0.1,0.2,0.1,0,0.3,0c0.1,0,0.1,0,0.2,0
	l1.8-0.4c0.2-0.1,0.3-0.3,0.3-0.7C14.6,21.3,14.4,21.1,14.3,21.1z"/>
<path class="st3" d="M9.1,21.1c-0.1,0-0.1,0-0.2,0c-0.2,0-0.3,0.1-0.4,0.3c-0.1,0.2,0,0.6,0.3,0.7l1.6,0.4c0.1,0,0.1,0,0.2,0
	c0.2,0,0.4,0.2,0.5,0c0.1-0.2,0-0.6-0.3-0.7L9.1,21.1z"/>
</svg>
