<?xml version="1.0" encoding="utf-8"?>
<!-- Generator: Adobe Illustrator 24.0.0, SVG Export Plug-In . SVG Version: 6.00 Build 0)  -->
<svg version="1.1" id="Calque_1" xmlns="http://www.w3.org/2000/svg" xmlns:xlink="http://www.w3.org/1999/xlink" x="0px" y="0px"
	 viewBox="0 0 452.1 119.4" style="enable-background:new 0 0 452.1 119.4;" xml:space="preserve">
<style type="text/css">
	.st0{fill:#FB8B68;}
	.st1{fill:#F7DF4F;}
	.st2{fill:#FBC168;}
	.st3{fill:#F18969;stroke:#F18969;stroke-width:5;stroke-miterlimit:10;}
</style>
<g>
	<path class="st0" d="M28.2,78.1c-0.6-2.8-0.9-5.7-0.9-8.7c0-20.1,13.6-36.9,32.2-41.9c0,0,11.8-3.6,23.7-5c3.7-0.4,7.7-0.7,12-0.7
		C85.2,10.3,72.8,2.3,60.4,2.1c-22.3-0.4-45.1,24-54.3,50C13.7,63.4,23.8,73.7,28.2,78.1z"/>
	<path class="st1" d="M83.4,23.8c-9.7,1.1-17.9,3.3-21.7,4.4c2.4,0.8,4.6,1.9,6.8,3.1c1.3,0.7,2.5,1.4,3.7,2.3l0,0
		c11.1,7.8,18.4,20.8,18.4,35.5c0,3.7-0.5,7.2-1.3,10.6l0,0c0,0.1-3.4,11.4-8.7,24.6c-1.8,4.4-3.6,8.5-5.4,12.2
		c15.2-2.9,28.6-9.9,35.5-21.3c12.1-20,2.7-51.3-14.5-72.1C91.8,23.1,87.3,23.3,83.4,23.8z"/>
	<path class="st2" d="M73.7,116.8c6.8-14.1,11.8-29.1,13.7-34.9c-7.6,6.7-17.6,10.8-28.6,10.8c-11.6,0-22.1-4.6-29.9-12
		c0-0.1-9.5-9.4-16.5-18c-2.5-3.1-4.8-6.1-6.8-9c-5,14.9-5.4,30.2,1.3,41.5C17.8,113.7,47.9,121.2,73.7,116.8z"/>
</g>
<g>
	<path class="st3" d="M185.2,64.4l-16.6,16.8v21.5H160V21.2h8.6v49.2l47.8-49.2h9.8L191,58.1l37.7,44.6h-10.2L185.2,64.4z"/>
	<path class="st3" d="M245.4,26.3c-1.2-1.2-1.8-2.6-1.8-4.2c0-1.6,0.6-3,1.8-4c1.2-1.2,2.6-1.8,4.3-1.8c1.7,0,3.2,0.6,4.3,1.7
		c1.2,1.1,1.8,2.5,1.8,4c0,1.7-0.6,3.2-1.8,4.3c-1.2,1.2-2.6,1.8-4.3,1.8C248,28.1,246.6,27.5,245.4,26.3z M245.5,41.5h8.3v61.2
		h-8.3V41.5z"/>
	<path class="st3" d="M334.1,41.5l-27.3,61.2h-8.5l-27.1-61.2h8.6l22.9,52.2L326,41.5C326,41.5,334.1,41.5,334.1,41.5z"/>
	<path class="st3" d="M351.5,26.3c-1.2-1.2-1.8-2.6-1.8-4.2c0-1.6,0.6-3,1.8-4c1.2-1.2,2.6-1.8,4.3-1.8c1.7,0,3.2,0.6,4.3,1.7
		c1.2,1.1,1.8,2.5,1.8,4c0,1.7-0.6,3.2-1.8,4.3c-1.2,1.2-2.6,1.8-4.3,1.8C354,28.1,352.7,27.5,351.5,26.3z M351.6,41.5h8.3v61.2
		h-8.3V41.5z"/>
	<path class="st3" d="M444.6,16.3v86.3h-7.9v-12c-2.5,4.1-5.8,7.3-9.8,9.5c-4,2.2-8.7,3.2-13.8,3.2c-5.7,0-10.9-1.3-15.6-3.9
		c-4.6-2.7-8.3-6.3-10.9-11c-2.7-4.7-3.9-10.1-3.9-16.1c0-6,1.3-11.4,3.9-16.1s6.3-8.4,10.9-11c4.6-2.6,9.8-3.9,15.6-3.9
		c4.9,0,9.5,1,13.5,3.1c4,2.1,7.3,5,9.8,9.1V16.3H444.6z M425.3,93c3.4-2,6.2-4.8,8.2-8.5c2-3.6,3-7.8,3-12.4s-1-8.8-3-12.4
		c-2-3.6-4.7-6.5-8.2-8.5s-7.3-3-11.6-3c-4.3,0-8.3,1-11.7,3s-6.2,4.8-8.2,8.5c-2,3.6-3,7.8-3,12.4s1,8.8,3,12.4
		c2,3.6,4.7,6.5,8.2,8.5c3.4,2,7.4,3,11.7,3C418,95.9,421.9,94.9,425.3,93z"/>
</g>
</svg>
