<?xml version="1.0" encoding="utf-8"?>
<!-- Generator: Adobe Illustrator 24.0.0, SVG Export Plug-In . SVG Version: 6.00 Build 0)  -->
<svg version="1.1" id="Calque_1"
	xmlns="http://www.w3.org/2000/svg"
	xmlns:xlink="http://www.w3.org/1999/xlink" x="0px" y="0px" viewBox="0 0 452.1 119.4" style="enable-background:new 0 0 452.1 119.4;" xml:space="preserve">
	<style type="text/css">
	.st0{fill:#FFFFFF;stroke:#FFFFFF;stroke-width:5;stroke-miterlimit:10;}
	.st1{fill:#F7DF4F;}
	.st2{fill:#FFA492;}
	.st3{fill:#FBC168;}
	</style>
	<path class="st0" d="M187.1,64l-15.2,15.4v19.7H164V24.5h7.9v45l43.7-45h9l-32.2,33.8l34.5,40.8h-9.3L187.1,64z"/>
	<path class="st0" d="M245.1,29.1c-1.1-1.1-1.6-2.4-1.6-3.8c0-1.5,0.5-2.7,1.6-3.7c1.1-1.1,2.4-1.6,3.9-1.6c1.6,0,2.9,0.5,3.9,1.6
	c1.1,1,1.6,2.3,1.6,3.7c0,1.6-0.5,2.9-1.6,3.9c-1.1,1.1-2.4,1.6-3.9,1.6C247.5,30.8,246.2,30.2,245.1,29.1z M245.2,43.1h7.6v56h-7.6
	V43.1z"/>
	<path class="st0" d="M329.3,43.1l-25,56h-7.8l-24.8-56h7.9l21,47.8l21.3-47.8H329.3z"/>
	<path class="st0" d="M347.2,29.1c-1.1-1.1-1.6-2.4-1.6-3.8c0-1.5,0.5-2.7,1.6-3.7c1.1-1.1,2.4-1.6,3.9-1.6s2.9,0.5,3.9,1.6
	c1.1,1,1.6,2.3,1.6,3.7c0,1.6-0.5,2.9-1.6,3.9c-1.1,1.1-2.4,1.6-3.9,1.6C349.5,30.8,348.3,30.2,347.2,29.1z M347.3,43.1h7.6v56h-7.6
	V43.1z"/>
	<path class="st0" d="M429.4,20v79h-7.2V88c-2.3,3.8-5.3,6.7-9,8.7c-3.7,2-8,2.9-12.6,2.9c-5.2,0-10-1.2-14.3-3.6
	c-4.2-2.5-7.6-5.8-10-10.1c-2.5-4.3-3.6-9.2-3.6-14.7c0-5.5,1.2-10.4,3.6-14.7s5.8-7.7,10-10.1c4.2-2.4,9-3.6,14.3-3.6
	c4.5,0,8.7,0.9,12.4,2.8s6.7,4.6,9,8.3V20H429.4z M411.8,90.2c3.1-1.8,5.7-4.4,7.5-7.8c1.8-3.3,2.7-7.1,2.7-11.3
	c0-4.2-0.9-8.1-2.7-11.3c-1.8-3.3-4.3-5.9-7.5-7.8c-3.2-1.8-6.7-2.7-10.6-2.7c-3.9,0-7.6,0.9-10.7,2.7c-3.1,1.8-5.7,4.4-7.5,7.8
	c-1.8,3.3-2.7,7.1-2.7,11.3c0,4.2,0.9,8.1,2.7,11.3c1.8,3.3,4.3,5.9,7.5,7.8c3.1,1.8,6.8,2.7,10.7,2.7
	C405.1,92.8,408.6,91.9,411.8,90.2z"/>
	<g>
	</g>
	<g>
		<path class="st1" d="M116.6,75.1c-0.1,0.1-0.1,0.3-0.1,0.4c0,0.6,0,1.1,0,1.7c0,0.4,0,0.9-0.1,1.3c0,0.4-0.1,0.8-0.1,1.2
		c0,0.4-0.1,0.7-0.1,1c-0.1,0.4-0.1,0.8-0.2,1.3c-0.1,0.5-0.2,1.1-0.3,1.6c-0.2,1-0.5,2-0.7,3c-0.4,1.2-0.8,2.4-1.2,3.5
		c-0.4,0.9-0.8,1.8-1.2,2.7c-0.9,1.8-2,3.6-3.3,5.2c-0.8,1-1.6,1.9-2.4,2.8c-0.7,0.7-1.4,1.4-2.1,2.1c-1,0.9-2,1.7-3,2.5
		c-1.8,1.4-3.7,2.6-5.7,3.7c-1.1,0.6-2.2,1.2-3.3,1.7c-1.6,0.7-3.1,1.4-4.7,2c-1.2,0.4-2.4,0.8-3.6,1.2c-1.6,0.5-3.2,0.9-4.8,1.3
		c-1,0.2-2.1,0.5-3.1,0.7c-0.1,0-0.2,0-0.3,0.1c0,0-0.1,0-0.1-0.1c0-0.1,0-0.1,0.1-0.2c0.3-0.6,0.6-1.2,0.8-1.7
		c0.7-1.4,1.3-2.8,1.9-4.2c0.7-1.6,1.4-3.2,2.1-4.9c0.7-1.7,1.3-3.4,2-5.1c0.4-1.1,0.8-2.1,1.2-3.2c0.5-1.2,0.9-2.4,1.4-3.6
		c0.6-1.6,1.2-3.3,1.8-4.9c0.5-1.5,1-2.9,1.4-4.4c0.4-1.3,0.8-2.7,1.1-4c0.2-1,0.4-2,0.6-3c0.1-0.7,0.2-1.4,0.4-2.1
		c0.1-0.3,0.1-0.7,0.1-1c0-0.4,0.1-0.8,0.1-1.2c0-0.1,0-0.2,0-0.3c0-0.2,0-0.5,0.1-0.7c0,0,0-0.1,0-0.1c0-1.1,0.1-2.1,0.1-3.2
		c0-0.4,0-0.8-0.1-1.1c0-0.6-0.1-1.2-0.1-1.8c-0.1-1-0.2-1.9-0.4-2.9c-0.2-1.3-0.5-2.7-0.9-4c-0.8-2.9-2-5.6-3.4-8.2
		c-1.1-2-2.4-3.9-3.8-5.8C81.6,43,80.8,42,79.9,41c-0.9-0.9-1.8-1.9-2.7-2.7c-0.8-0.7-1.6-1.4-2.4-2.1c-1.7-1.4-3.5-2.6-5.3-3.6
		c-1.5-0.9-3.1-1.6-4.7-2.3c-0.7-0.3-1.5-0.6-2.2-0.8c0,0,0,0,0-0.1c0,0,0,0,0,0c0,0,0.1,0,0.1,0c1.7-0.5,3.5-1,5.2-1.4
		c1.2-0.3,2.5-0.6,3.7-0.9c1-0.2,1.9-0.4,2.9-0.6c0.7-0.1,1.4-0.3,2.2-0.4c0.5-0.1,0.9-0.1,1.4-0.2c0.5-0.1,1-0.2,1.4-0.2
		c0.3,0,0.6-0.1,1-0.1c0.3,0,0.7-0.1,1-0.1c0.2,0,0.5-0.1,0.7-0.1c0.4,0,0.7-0.1,1.1-0.1c0.4,0,0.8-0.1,1.3-0.1c0,0,0.1,0,0.1,0
		c0.5,0,0.9-0.1,1.4-0.1c0.5,0,1-0.1,1.5-0.1c0,0,0.1,0,0.1,0c0.7,0,1.5-0.1,2.2-0.1c0.1,0,0.2,0,0.4,0c0.2,0,0.4,0,0.6,0
		c0.2,0,0.5,0,0.7,0c0.3,0,0.7,0,1,0c0.1,0,0.3,0,0.4,0c1.1,0,2.3,0,3.4,0c0.1,0,0.2,0,0.3,0c0,0,0.1,0,0.1,0.1
		c0.1,0.1,0.2,0.2,0.2,0.3c0.5,0.6,1,1.2,1.5,1.8c1.1,1.5,2.2,2.9,3.3,4.5c1.2,1.7,2.3,3.5,3.4,5.3c0.8,1.4,1.7,2.9,2.4,4.4
		c0.4,0.7,0.7,1.4,1.1,2.2c0.8,1.6,1.5,3.2,2.2,4.9c1,2.3,1.8,4.7,2.6,7.1c0.6,1.8,1.1,3.6,1.5,5.5c0.3,1.1,0.5,2.3,0.7,3.5
		c0.1,0.6,0.2,1.3,0.3,1.9c0.1,0.5,0.2,1.1,0.2,1.6c0,0.4,0.1,0.8,0.1,1.1c0,0.5,0.1,1,0.1,1.5c0,0.2,0,0.4,0,0.5c0,0.7,0,1.5,0,2.2
		c0,0.1,0,0.3,0.1,0.4C116.6,73.7,116.6,74.4,116.6,75.1z"/>
		<path class="st2" d="M95.1,21c0,0-0.1-0.1-0.1-0.1c-0.4-0.5-0.9-1-1.3-1.5c-1.7-1.8-3.4-3.5-5.2-5c-1.7-1.5-3.4-2.8-5.2-4.1
		c-2.4-1.7-5-3.2-7.7-4.5c-1.9-0.9-3.9-1.7-6-2.3c-1.8-0.5-3.6-0.9-5.4-1.2c-0.6-0.1-1.3-0.1-1.9-0.2c-0.1,0-0.1,0-0.2,0
		c0,0,0,0,0-0.1c-1.2,0-2.5,0-3.7,0c0,0.1-0.1,0.1-0.1,0.1c-0.8,0.1-1.6,0.1-2.4,0.2c-0.8,0.1-1.6,0.2-2.3,0.4
		c-1.4,0.3-2.7,0.7-4.1,1.1c-1.9,0.6-3.8,1.4-5.6,2.3c-2.2,1.1-4.3,2.3-6.3,3.7c-3.2,2.2-6.2,4.6-9,7.3c-1.7,1.6-3.3,3.4-4.9,5.1
		c-1.3,1.5-2.6,3.1-3.8,4.7c-3.1,4.1-5.8,8.4-8.2,12.9c-1.6,3-2.9,6-4.1,9.1c-0.1,0.2-0.2,0.5-0.3,0.7c1.6,2.3,10.4,15,21.2,25.4
		l0,0c-0.2-1.3-0.4-3.8-0.4-7c0-0.5,0-0.9,0-1.4c0-0.4,0-0.9,0-1.3c0.1-0.6,0.1-1.3,0.1-1.9c0.1-0.7,0.1-1.3,0.2-2
		c0.1-0.7,0.2-1.4,0.3-2.1c0.3-1.5,0.6-2.9,1.1-4.4c0.5-1.6,1-3.1,1.7-4.5c2.1-5.1,5.4-10.3,10.6-14.8C60.4,19.9,94.2,21,95.1,21
		C95.1,21,95.1,21,95.1,21z"/>
		<path class="st3" d="M84.8,82.5c-0.4,0.3-0.8,0.7-1.2,1c-1.7,1.3-3.4,2.5-5.2,3.6c-2.1,1.2-4.3,2.2-6.5,3c-1.6,0.6-3.2,1.1-4.8,1.4
		c-1.2,0.3-2.3,0.5-3.5,0.7c-0.3,0-0.5,0.1-0.8,0.1c-0.4,0-0.8,0.1-1.1,0.1c-0.7,0.1-1.4,0.1-2.1,0.2c-0.4,0-0.9,0-1.3,0
		c-1.2,0-2.5,0-3.7-0.1c-0.3,0-0.7-0.1-1-0.1c-0.4,0-0.8-0.1-1.1-0.1c-0.5-0.1-1-0.1-1.6-0.2c-0.6-0.1-1.2-0.2-1.8-0.3
		c-0.8-0.2-1.7-0.4-2.5-0.6c-1.8-0.5-3.6-1.2-5.3-2c-1.8-0.9-3.6-1.9-5.3-3c-2.5-1.6-4.8-3.4-7.1-5.4c-1.4-1.2-2.8-2.6-4.2-3.9
		c-1.4-1.3-2.7-2.7-3.9-4.1c-1.1-1.2-2.1-2.4-3.1-3.6c-1-1.2-2-2.4-3-3.6c-1-1.3-2-2.5-3-3.8c-1.3-1.6-2.5-3.3-3.7-5
		c-0.7-1-1.4-1.9-2.1-2.9c-0.1-0.1-0.1-0.1-0.2-0.2c0,0,0,0,0,0c0,0,0,0-0.1,0.1c-0.1,0.3-0.2,0.6-0.3,0.9c-0.5,1.6-0.9,3.2-1.3,4.8
		c-0.3,1.2-0.6,2.4-0.8,3.6c-0.1,0.7-0.3,1.5-0.4,2.2c-0.1,0.5-0.2,1-0.2,1.5c-0.1,0.5-0.1,1-0.2,1.5c0,0.4-0.1,0.8-0.1,1.2
		c0,0.5-0.1,1-0.1,1.5c0,0.9-0.1,1.7-0.1,2.6c0,0.5,0,1,0,1.5c0,0,0,0.1,0,0.1c0,0.1,0,0.3,0,0.4c0,0.4,0,0.9,0,1.3
		C1.9,77.6,2,78.3,2,79c0,0,0,0.1,0,0.1c0,0.5,0.1,0.9,0.1,1.4c0,0.4,0.1,0.7,0.1,1.1c0.1,0.7,0.2,1.3,0.3,2
		c0.2,1.2,0.5,2.4,0.8,3.6c0.5,1.8,1.1,3.5,1.9,5.2c1.5,3.4,3.6,6.4,6.1,9.1c0.7,0.7,1.4,1.4,2.1,2.1c1.3,1.2,2.8,2.4,4.3,3.4
		c2.3,1.6,4.6,3,7.1,4.2c2,1,4.1,1.8,6.2,2.6c2,0.7,4,1.3,6,1.9c1.1,0.3,2.3,0.6,3.4,0.8c1,0.2,2,0.4,3,0.6c0.8,0.1,1.5,0.3,2.3,0.4
		c0.2,0,0.5,0.1,0.7,0.1c0.3,0,0.7,0.1,1,0.1c0.4,0,0.8,0.1,1.1,0.1c0.3,0,0.6,0.1,1,0.1c0.5,0,0.9,0.1,1.4,0.1c0.7,0,1.3,0.1,2,0.1
		c0.1,0,0.1,0,0.2,0c0.3,0,0.6,0,0.8,0.1c0.4,0,0.9,0,1.3,0c0.1,0,0.2,0,0.3,0.1c1.4,0,2.9,0,4.3,0c0.1-0.1,0.2-0.1,0.3-0.1
		c0.5,0,0.9,0,1.4,0c0.2,0,0.4,0,0.7,0c0.7,0,1.4-0.1,2.1-0.1c0.5,0,1-0.1,1.5-0.1c0.2,0,0.5,0,0.7-0.1c0.3,0,0.7-0.1,1-0.1
		c0.3,0,0.7-0.1,1-0.1c0.3,0,0.6-0.1,1-0.1c0.5-0.1,1-0.2,1.6-0.2C80.2,97.8,83.7,86.2,84.8,82.5z"/>
	</g>
</svg>
