<?xml version="1.0" encoding="utf-8"?>
<!-- Generator: Adobe Illustrator 24.0.0, SVG Export Plug-In . SVG Version: 6.00 Build 0)  -->
<svg version="1.1" id="Calque_1" xmlns="http://www.w3.org/2000/svg" xmlns:xlink="http://www.w3.org/1999/xlink" x="0px" y="0px"
	 viewBox="0 0 22.9 22.6" style="enable-background:new 0 0 22.9 22.6;" xml:space="preserve">
<style type="text/css">
	.st0{fill:#FFCB46;}
	.st1{fill:#FB8B68;}
</style>
<path class="st0" d="M16.7,0.4c0.2,0,0.6,0.1,0.7,0.3c0.1,0.2,0.2,0.4,0.1,0.8l-0.2,0.9c-0.6,2.3-0.3,4.7,0.6,6.9l0.7,1.8
	c0.8,2,1.1,4.2,0.9,6.4l-0.6,4c0,0.4-0.4,0.8-0.9,0.8h-5.8H11H4.9c-0.4,0-0.8-0.3-0.9-0.8l-0.6-4c-0.2-2.2,0.1-4.3,0.9-6.4L5,9.3
	c0.9-2.2,1.1-4.6,0.6-6.9L5.4,1.5C5.3,1.2,5.4,1,5.6,0.7C5.7,0.5,6,0.4,6.2,0.4C6.2,0.4,16.7,0.4,16.7,0.4z"/>
<path class="st1" d="M14.2,10.5c-0.1,0-0.1,0-0.2,0l-1.7,0.7c-0.2,0.1-0.3,0.3-0.3,0.7c0.1,0.2,0.2,0.3,0.4,0.3c0.1,0,0.1,0,0.2,0
	l1.7-0.7c0.2-0.1,0.3-0.3,0.3-0.7C14.5,10.7,14.3,10.5,14.2,10.5z"/>
<path class="st1" d="M9,10.5c-0.1,0-0.1,0-0.2,0c-0.2,0-0.3,0.1-0.4,0.3c-0.1,0.2,0,0.6,0.3,0.7l1.7,0.7c0.1,0,0.1,0,0.2,0
	c0.2,0,0.3-0.1,0.4-0.3c0.1-0.2,0-0.6-0.3-0.7L9,10.5z"/>
<path class="st1" d="M12.2,18.2c0.7,0.7,1.5,1,2.6,1h0.8c0.3,0,0.6-0.2,0.6-0.6S15.9,18,15.6,18h-0.8c-1.4,0-2.6-1.2-2.6-2.6v-0.6
	v-0.1c0-0.3-0.2-0.6-0.6-0.6c-0.3,0-0.6,0.2-0.6,0.6v0.7c0,1.4-1.2,2.6-2.6,2.6h-1c-0.3,0-0.6,0.2-0.6,0.6s0.2,0.6,0.6,0.6h0.9
	c1,0,1.9-0.4,2.6-1v4.1H6h6.2V18.2z"/>
</svg>
