<?xml version="1.0" encoding="utf-8"?>
<!-- Generator: Adobe Illustrator 24.0.0, SVG Export Plug-In . SVG Version: 6.00 Build 0)  -->
<svg version="1.1" id="Calque_1" xmlns="http://www.w3.org/2000/svg" xmlns:xlink="http://www.w3.org/1999/xlink" x="0px" y="0px"
	 viewBox="0 0 772.9 695.1" style="enable-background:new 0 0 772.9 695.1;" xml:space="preserve">
<style type="text/css">
	.st0{clip-path:url(#SVGID_2_);}
	.st1{fill-rule:evenodd;clip-rule:evenodd;fill:#F18969;}
	.st2{fill:#EC643A;}
	.st3{fill:#FECB48;}
</style>
<g>
	<g>
		<defs>
			<rect id="SVGID_1_" x="3" y="4" width="766" height="681"/>
		</defs>
		<clipPath id="SVGID_2_">
			<use xlink:href="#SVGID_1_"  style="overflow:visible;"/>
		</clipPath>
		<g class="st0">
			<path class="st1" d="M200.6,235.6l-20.3,3.8l-8.3,18.8l-9.9-18l-20.5-2.1l14.1-15l-4.4-20.1l18.6,8.8l17.8-10.4l-2.6,20.4
				L200.6,235.6z"/>
			<path class="st1" d="M524.3,71.4l6.9-10.8l-4.9-11.8l12.4,3.3l9.8-8.4l0.7,12.8l11,6.7l-12,4.7l-3,12.5l-8.1-9.9L524.3,71.4z"/>
			<path class="st1" d="M716.8,366.6l-16.3-0.6l-9.7,13.1l-4.5-15.6l-15.4-5.2l13.5-9.1l0.2-16.3l12.8,10l15.5-4.9l-5.6,15.3
				L716.8,366.6z"/>
			<path class="st1" d="M112.6,524.2l-19.2-4l-14.2,13.5l-2.1-19.5l-17.3-9.3l17.9-8l3.6-19.3L94.4,492l19.4-2.6l-9.8,17
				L112.6,524.2z"/>
			<path class="st1" d="M711,609.5l-14.3,0.9l-7.4,12.3l-5.3-13.3l-14-3.2l11-9.1l-1.3-14.3l12.1,7.7l13.2-5.6l-3.6,13.9L711,609.5z
				"/>
			<path class="st1" d="M208.9,74.8L220.2,63L217,46.9l14.7,7.2l14.3-8l-2.3,16.2l12.1,11.1l-16.1,2.8l-6.8,14.9l-7.7-14.5
				L208.9,74.8z"/>
			<path class="st1" d="M44.5,345.1l-12.8,1.4l-6.1,11.3l-5.3-11.7l-12.7-2.3l9.5-8.7l-1.8-12.8l11.2,6.4l11.6-5.6l-2.6,12.6
				L44.5,345.1z"/>
			<path class="st1" d="M691.1,130.3l8.4-10.3l-3.7-12.8l12.4,4.8l11-7.5l-0.8,13.3L729,126l-12.9,3.4l-4.5,12.5l-7.2-11.2
				L691.1,130.3z"/>
			<path class="st1" d="M559.1,253.2l8.9-11.8l-4.6-14l14,4.9l11.9-8.7l-0.3,14.8l12,8.6l-14.2,4.3l-4.5,14.1l-8.5-12.1L559.1,253.2
				z"/>
			<path class="st1" d="M672,505.9l-24.2,0.8l-13,20.4l-8.3-22.7l-23.4-6l19.1-14.9l-1.5-24.1l20.1,13.5l22.5-8.9l-6.6,23.2
				L672,505.9z"/>
			<path class="st1" d="M69.4,147.7H62l-4.2,6.1l-2.3-7l-7.1-2.1l6-4.3l-0.1-7.4l6,4.4l7-2.4l-2.3,7L69.4,147.7z"/>
			<path class="st1" d="M748.4,433l4.6-5.6l-2-7l6.7,2.7l6-4l-0.5,7.2l5.7,4.5l-7,1.8l-2.5,6.8l-3.9-6.1L748.4,433z"/>
			<path class="st1" d="M424.7,79.2l-7.2-1.3l-5.2,5.2l-0.9-7.3l-6.5-3.3l6.6-3.2l1.1-7.3l5.1,5.3l7.3-1.1l-3.5,6.4L424.7,79.2z"/>
			<path class="st1" d="M577.4,136.6l-4,0.3l-2,3.4l-1.5-3.7l-3.9-0.8l3-2.6l-0.4-3.9l3.4,2l3.6-1.6l-0.9,3.9L577.4,136.6z"/>
			<path class="st1" d="M130.3,371l0.7-6.9l-5.3-4.5l6.8-1.5l2.6-6.4l3.5,6l6.9,0.5l-4.6,5.2l1.7,6.7l-6.4-2.8L130.3,371z"/>
			<path class="st2" d="M211.9,160.6c-0.2,0-0.4-0.1-0.5-0.2c-0.1-0.1-0.2-0.3-0.2-0.5s0.1-0.4,0.2-0.5c3.8-4.3,2.2-11.5-1.7-15.5
				c-4.5-3.9-10.1-6.4-16-7.2l-2.9-0.6c-5.2-0.7-10.2-2.2-14.9-4.5c-3.9-2.3-7.2-5.5-9.4-9.4s-3.4-8.4-3.3-12.9
				c0.2-3.1,0.7-6.2,1.4-9.2c0.9-3.4,1.4-7,1.4-10.5c-0.4-8.2-5.9-16-16.5-23.9l-4.7-3.4c-6.8-4.8-13.9-9.8-18.2-17.1
				c-0.1-0.1-0.1-0.2-0.1-0.3s0-0.2,0-0.3s0.1-0.2,0.1-0.3c0.1-0.1,0.1-0.1,0.2-0.2c0.1,0,0.2-0.1,0.3-0.1c0.1,0,0.2,0,0.3,0
				s0.2,0.1,0.3,0.1c0.1,0.1,0.1,0.1,0.2,0.2c4.2,7,11.1,11.9,17.8,16.6c1.6,1.1,3.2,2.3,4.7,3.4c11,8.2,16.6,16.4,17,25.1
				c0,3.7-0.5,7.4-1.4,10.9c-0.7,2.9-1.2,5.8-1.4,8.8c-0.1,4.3,1,8.5,3.1,12.2s5.2,6.8,8.9,8.9c4.6,2.2,9.6,3.7,14.6,4.4l2.9,0.6
				c6.2,0.8,12.1,3.4,16.8,7.6c4.4,4.5,6.1,12.6,1.8,17.6c-0.1,0.1-0.2,0.2-0.4,0.2C212.2,160.6,212,160.6,211.9,160.6z"/>
			<path class="st2" d="M133.5,290.6c-14.9,0-29.6-3.8-42.8-10.9c-3.5-1.9-6.9-4.1-10.2-6.2c-5.8-4-12-7.4-18.5-10
				c-9.7-3.5-22.7-3.5-29.9,4.8c-0.1,0.1-0.3,0.2-0.5,0.2s-0.4-0.1-0.5-0.2s-0.1-0.2-0.2-0.2c0-0.1-0.1-0.2-0.1-0.3
				c0-0.1,0-0.2,0.1-0.3c0-0.1,0.1-0.2,0.2-0.2c7.7-8.8,21.3-8.8,31.5-5.2c6.6,2.7,12.9,6.1,18.8,10.1c3.3,2.1,6.6,4.2,10.1,6.1
				c14.2,7.7,30.3,11.4,46.5,10.6c0.1,0,0.2,0,0.3,0s0.2,0.1,0.3,0.1c0.1,0.1,0.1,0.1,0.2,0.2c0,0.1,0.1,0.2,0.1,0.3
				c0,0.1,0,0.2,0,0.3c0,0.1-0.1,0.2-0.1,0.2c-0.1,0.1-0.1,0.1-0.2,0.2c-0.1,0-0.2,0.1-0.3,0.1C136.6,290.6,135.1,290.6,133.5,290.6
				z"/>
			<path class="st2" d="M133.4,584.4c-0.1,0-0.3,0-0.4-0.1c-0.1-0.1-0.2-0.2-0.3-0.3c-0.1-0.2-0.1-0.4-0.1-0.6
				c0-0.2,0.2-0.3,0.3-0.4c15.9-9.5,27.8-24.4,33.7-41.9c2.1-7.1,3.8-14.4,4.9-21.7c1-6.4,2.4-12.7,4-18.9
				c4.7-16.2,14-27.8,25.6-31.7c0.1,0,0.2,0,0.3,0s0.2,0,0.3,0.1c0.1,0,0.2,0.1,0.2,0.2c0.1,0.1,0.1,0.2,0.1,0.3c0,0.1,0,0.2,0,0.3
				c0,0.1,0,0.2-0.1,0.3c0,0.1-0.1,0.2-0.2,0.2c-0.1,0.1-0.2,0.1-0.3,0.1c-11.1,3.8-20.1,15-24.6,30.7c-1.7,6.2-3,12.4-4,18.7
				c-1.1,7.4-2.8,14.8-5,21.9C161.8,559.5,149.6,574.6,133.4,584.4L133.4,584.4z"/>
			<path class="st2" d="M733.2,438c-0.2,0-0.4-0.1-0.5-0.3c-0.1-0.2-0.2-0.4-0.1-0.5c2.4-13.5-9.3-25.9-21.6-29
				c-14.3-3.6-28.9,2.2-38.6,7.7l-0.8,0.4c-5.2,2.9-11.1,6.3-17.1,4.6c-5-1.5-7.9-5.8-10.8-10.2c-0.9-1.3-1.8-2.8-2.9-4
				c-4.6-5.6-11.1-9.5-18.3-10.8c-7.2-1.4-14.6-0.2-21,3.3c-0.2,0.1-0.4,0.1-0.6,0.1c-0.2,0-0.4-0.2-0.5-0.3
				c-0.1-0.2-0.1-0.4-0.1-0.6s0.2-0.3,0.3-0.4c6.7-3.7,14.6-5,22.1-3.5c7.6,1.4,14.4,5.5,19.2,11.4c1,1.3,1.9,2.7,2.9,4.1
				c2.9,4.3,5.5,8.3,10,9.6c5.4,1.6,11-1.6,15.9-4.5l0.8-0.4c9.9-5.6,24.9-11.7,39.7-7.8c13,3.3,25.2,16.4,22.7,30.7
				c0,0.1-0.1,0.2-0.1,0.3c-0.1,0.1-0.1,0.2-0.2,0.2c-0.1,0.1-0.2,0.1-0.3,0.1C733.5,438,733.4,438,733.2,438z"/>
			<path class="st2" d="M576,289.6c-2.4,0-4.9-0.2-7.3-0.6c-0.2,0-0.3-0.1-0.5-0.3c-0.1-0.2-0.2-0.3-0.1-0.5c0-0.1,0-0.2,0.1-0.3
				c0-0.1,0.1-0.2,0.2-0.2c0.1-0.1,0.2-0.1,0.3-0.1s0.2,0,0.3,0c18.2,2.9,36-6.1,49.5-14.3c2.6-1.6,5.2-3.2,7.8-4.8
				c12.4-7.8,25.2-15.7,39.6-18.8c4-0.8,8.1-1.3,12.2-1.8c5-0.4,10-1.3,14.8-2.4c10.2-2.8,17.4-8.8,19.5-16.3
				c0.1-0.2,0.2-0.3,0.4-0.4c0.2-0.1,0.3-0.1,0.5-0.1s0.3,0.2,0.4,0.3c0.1,0.2,0.1,0.3,0.1,0.5c-2.2,8-9.8,14.5-20.5,17.3
				c-5,1.2-10,2-15.1,2.5c-4,0.5-8.1,0.9-12,1.8C652,254,639.3,262,627,269.7c-2.6,1.6-5.2,3.3-7.8,4.9
				C607.3,281.8,592,289.6,576,289.6z"/>
			<path class="st2" d="M514.3,153h-0.2c-0.2-0.1-0.3-0.2-0.4-0.4c-0.1-0.2-0.1-0.4,0-0.5c3.5-10.3,9.4-19.7,17.3-27.3
				c7.9-7.6,17.5-13.1,27.9-16.2c4.1-1.1,8.3-2,12.6-2.7c3.5-0.6,7.2-1.3,10.7-2.2c16.9-4.4,31.8-14.4,42.3-28.4
				c0.1-0.1,0.1-0.1,0.2-0.2c0.1-0.1,0.2-0.1,0.3-0.1s0.2,0,0.3,0s0.2,0.1,0.3,0.1c0.2,0.1,0.3,0.3,0.3,0.5s0,0.4-0.1,0.5
				c-10.6,14.3-25.8,24.5-43.1,29c-3.6,0.9-7.3,1.6-10.8,2.2c-4.1,0.7-8.4,1.5-12.4,2.6c-10.2,3-19.6,8.4-27.3,15.8
				s-13.5,16.5-16.9,26.7c0,0.1-0.1,0.3-0.3,0.3C514.6,153,514.5,153,514.3,153z"/>
			<path class="st2" d="M353.7,127.1c-0.1,0-0.3,0-0.4-0.1s-0.2-0.2-0.3-0.3c-0.1-0.1-0.1-0.3-0.1-0.4s0.1-0.3,0.2-0.4
				c5.3-6.2,10.8-12.7,13.5-20.5c2.9-8.5,1.7-17.4-3.3-22.7c-2.1-2.1-4.6-3.9-7.2-5.3c-1.2-0.8-2.5-1.6-3.7-2.4
				c-2.8-1.9-7.4-5.8-7.5-11.5c-0.1-5.6,3.8-8.9,7.6-12.5c1.2-1.2,2.5-2.4,3.6-3.7c4.1-5.2,6-11.7,5.3-18.3s-4-12.6-9.1-16.8
				c-0.1-0.1-0.1-0.1-0.2-0.2c0-0.1-0.1-0.2-0.1-0.3s0-0.2,0-0.3s0.1-0.2,0.1-0.3c0.1-0.1,0.1-0.1,0.2-0.2c0.1,0,0.2-0.1,0.3-0.1
				s0.2,0,0.3,0c0.1,0,0.2,0.1,0.3,0.1c5.4,4.4,8.8,10.8,9.6,17.7s-1.3,13.9-5.6,19.3c-1.1,1.3-2.5,2.5-3.7,3.8
				c-3.7,3.5-7.2,6.9-7.1,11.5c0,4.6,4.3,8.5,6.9,10.3c1.2,0.8,2.4,1.6,3.6,2.3c2.7,1.5,5.3,3.4,7.5,5.6c5.4,5.9,6.8,15.2,3.6,24.2
				c-2.9,8.1-8.8,14.9-13.8,20.9c0,0.1-0.1,0.2-0.2,0.3C353.9,127,353.8,127.1,353.7,127.1z"/>
			<path class="st2" d="M55.3,427.9H55c-0.2-0.1-0.3-0.2-0.4-0.4c-0.1-0.2-0.1-0.4,0-0.6c6.3-13.3,12.1-17.7,19.6-22.4
				c8.6-5.3,19.8-5.3,25.7-4.7c2.9,0.3,6.1,0.7,9.1,1.1c5.2,0.9,10.5,1.3,15.8,1.4c5.6,0,15.8-1.3,22.1-8.6c0.1-0.1,0.3-0.2,0.5-0.2
				s0.4,0.1,0.5,0.2s0.2,0.3,0.2,0.5s-0.1,0.4-0.2,0.5c-6.7,7.8-17.6,9-23.2,9.1c-5.4-0.1-10.7-0.5-16-1.4c-2.9-0.4-6-0.8-9.1-1.1
				c-8.5-1.1-17.2,0.5-24.8,4.5c-7.3,4.6-13,8.8-19.1,21.8c-0.1,0.1-0.2,0.1-0.3,0.2C55.5,427.8,55.4,427.9,55.3,427.9z"/>
			<path class="st2" d="M303.4,193.6c-0.2,0-0.4-0.1-0.5-0.3s-0.2-0.4-0.1-0.5c1.7-12.2,2.9-26-5-35.1c-2.5-2.7-5.3-5-8.4-7
				c-3.7-2.3-7-5.3-9.8-8.8c-2.7-4.2-3.8-9.2-3.1-14.2c0.7-4.9,3.3-9.4,7.1-12.7c0.1-0.1,0.1-0.1,0.2-0.2s0.2-0.1,0.3-0.1
				c0.1,0,0.2,0,0.3,0.1c0.1,0,0.2,0.1,0.2,0.2c0.1,0.1,0.2,0.3,0.2,0.5s-0.1,0.4-0.2,0.5c-3.6,3-5.9,7.1-6.6,11.7
				c-0.7,4.6,0.3,9.3,2.9,13.1c2.6,3.3,5.8,6.1,9.4,8.4c3.2,2.1,6.1,4.5,8.6,7.3c8.2,9.6,7.1,23.8,5.3,36.3c0,0.1,0,0.3,0,0.4
				c0,0.1-0.1,0.2-0.2,0.3s-0.2,0.1-0.4,0.2C303.7,193.7,303.6,193.7,303.4,193.6z"/>
			<path class="st2" d="M450,190c-0.1,0-0.3,0-0.4-0.1s-0.2-0.2-0.3-0.3c-2.6-6.3-3.5-13.2-2.7-20s3.4-13.3,7.4-18.8
				c1.8-2.4,3.8-4.6,5.9-6.8c1.7-1.8,3.5-3.7,5.1-5.9c3.6-4,5.5-9.3,5.4-14.6c0-0.2,0-0.4,0.2-0.5c0.1-0.2,0.3-0.3,0.5-0.3
				s0.4,0,0.5,0.2c0.1,0.1,0.2,0.3,0.3,0.5c0.2,5.8-1.8,11.4-5.7,15.8c-1.6,2.1-3.4,4-5.2,5.9c-2.1,2.1-4,4.3-5.9,6.7
				c-3.9,5.3-6.3,11.6-7.1,18.1c-0.8,6.5,0.1,13.2,2.6,19.3c0.1,0.2,0.1,0.4,0,0.6c-0.1,0.2-0.2,0.3-0.4,0.4L450,190z"/>
			<path class="st3" d="M122.5,177.6c0,0.7-0.2,1.3-0.6,1.9c-0.4,0.5-0.9,1-1.5,1.2c-0.6,0.3-1.3,0.3-1.9,0.2s-1.2-0.5-1.7-0.9
				c-0.5-0.5-0.8-1.1-0.9-1.7c-0.1-0.6-0.1-1.3,0.2-1.9c0.3-0.6,0.7-1.1,1.2-1.5c0.6-0.4,1.2-0.6,1.9-0.5c0.9,0,1.7,0.4,2.3,1
				C122.2,175.8,122.5,176.7,122.5,177.6z"/>
			<path class="st3" d="M430.1,116.2c2.1,0,3.7-1.7,3.7-3.7c0-2.1-1.7-3.7-3.7-3.7s-3.7,1.7-3.7,3.7
				C426.3,114.6,428,116.2,430.1,116.2z"/>
			<path class="st3" d="M654.6,158.5c0,1.2-0.3,2.3-1,3.3c-0.6,1-1.6,1.7-2.6,2.2c-1.1,0.4-2.2,0.6-3.4,0.3c-1.1-0.2-2.2-0.8-3-1.6
				s-1.4-1.9-1.6-3c-0.2-1.1-0.1-2.3,0.3-3.4c0.4-1.1,1.2-2,2.2-2.6s2.1-1,3.3-1c1.6,0,3,0.6,4.1,1.7
				C654,155.5,654.6,156.9,654.6,158.5z"/>
			<path class="st3" d="M556.6,179.7c0,0.6-0.2,1.1-0.5,1.6s-0.8,0.9-1.3,1.1c-0.5,0.2-1.1,0.3-1.7,0.2c-0.6-0.1-1.1-0.4-1.5-0.8
				c-0.4-0.4-0.7-0.9-0.8-1.5s-0.1-1.2,0.2-1.7c0.2-0.5,0.6-1,1.1-1.3s1-0.5,1.6-0.5c0.8,0,1.5,0.3,2.1,0.9
				C556.3,178.2,556.6,179,556.6,179.7z"/>
			<path class="st3" d="M721.8,294.1c0,1.1-0.3,2.1-0.9,3c-0.6,0.9-1.4,1.6-2.4,2s-2.1,0.5-3.1,0.3s-2-0.7-2.8-1.5s-1.3-1.7-1.5-2.8
				c-0.2-1-0.1-2.1,0.3-3.1c0.4-1,1.1-1.8,2-2.4s1.9-0.9,3-0.9c0.7,0,1.4,0.1,2.1,0.4c0.7,0.3,1.3,0.7,1.8,1.2s0.9,1.1,1.2,1.8
				C721.7,292.7,721.8,293.4,721.8,294.1z"/>
			<path class="st3" d="M748.4,377.8c0,0.4-0.1,0.8-0.4,1.2c-0.2,0.3-0.6,0.6-0.9,0.8c-0.4,0.2-0.8,0.2-1.2,0.1s-0.8-0.3-1.1-0.6
				c-0.3-0.3-0.5-0.7-0.6-1.1s0-0.8,0.1-1.2c0.2-0.4,0.4-0.7,0.8-0.9c0.3-0.2,0.7-0.3,1.2-0.3c0.3,0,0.5,0,0.8,0.1s0.5,0.3,0.7,0.4
				c0.2,0.2,0.3,0.4,0.5,0.7C748.3,377.3,748.4,377.5,748.4,377.8z"/>
			<path class="st3" d="M633,380.3c0,0.6-0.2,1.1-0.5,1.6s-0.8,0.9-1.3,1.1s-1.1,0.3-1.7,0.2c-0.6-0.1-1.1-0.4-1.5-0.8
				s-0.7-0.9-0.8-1.5s-0.1-1.2,0.2-1.7c0.2-0.5,0.6-1,1.1-1.3s1-0.5,1.6-0.5c0.8,0,1.5,0.3,2.1,0.9C632.7,378.8,633,379.5,633,380.3
				z"/>
			<path class="st3" d="M589.4,443.7c2.1,0,3.7-1.7,3.7-3.7c0-2.1-1.7-3.7-3.7-3.7c-2.1,0-3.7,1.7-3.7,3.7
				C585.7,442.1,587.4,443.7,589.4,443.7z"/>
			<path class="st3" d="M602.3,544c2.8,0,5-2.2,5-5c0-2.7-2.2-5-5-5c-2.7,0-5,2.2-5,5S599.5,544,602.3,544z"/>
			<path class="st3" d="M720.2,523.7c0,0.6-0.2,1.1-0.5,1.6s-0.8,0.9-1.3,1.1c-0.5,0.2-1.1,0.3-1.7,0.2c-0.6-0.1-1.1-0.4-1.5-0.8
				c-0.4-0.4-0.7-0.9-0.8-1.5s-0.1-1.2,0.2-1.7c0.2-0.5,0.6-1,1.1-1.3s1-0.5,1.6-0.5c0.8,0,1.5,0.3,2.1,0.9
				C719.8,522.2,720.2,522.9,720.2,523.7z"/>
			<path class="st3" d="M643,598.8c0,0.8-0.2,1.6-0.7,2.3s-1.1,1.2-1.9,1.5c-0.8,0.3-1.6,0.4-2.4,0.2c-0.8-0.2-1.5-0.6-2.1-1.1
				c-0.6-0.6-1-1.3-1.1-2.1s-0.1-1.6,0.2-2.4c0.3-0.8,0.9-1.4,1.5-1.9c0.7-0.5,1.5-0.7,2.3-0.7c1.1,0,2.1,0.4,2.9,1.2
				C642.5,596.6,643,597.7,643,598.8z"/>
			<path class="st3" d="M121.7,559c0,1.2-0.3,2.3-1,3.3c-0.6,1-1.6,1.7-2.6,2.2c-1.1,0.4-2.2,0.6-3.4,0.3c-1.1-0.2-2.2-0.8-3-1.6
				s-1.4-1.9-1.6-3s-0.1-2.3,0.3-3.4c0.4-1.1,1.2-2,2.2-2.6s2.1-1,3.3-1c1.6,0,3,0.6,4.1,1.7C121.1,555.9,121.7,557.4,121.7,559z"/>
			<path class="st3" d="M106.7,434.6c0,0.7-0.2,1.3-0.6,1.8s-0.9,1-1.5,1.2c-0.6,0.3-1.3,0.3-1.9,0.2c-0.6-0.1-1.2-0.4-1.7-0.9
				s-0.8-1-0.9-1.7c-0.1-0.6-0.1-1.3,0.2-1.9c0.2-0.6,0.7-1.1,1.2-1.5s1.2-0.6,1.8-0.6c0.4,0,0.9,0.1,1.3,0.2
				c0.4,0.2,0.8,0.4,1.1,0.7c0.3,0.3,0.6,0.7,0.7,1.1C106.7,433.7,106.7,434.2,106.7,434.6z"/>
			<path class="st3" d="M150.3,466.9c1.6,0,2.9-1.3,2.9-2.9s-1.3-2.9-2.9-2.9s-2.9,1.3-2.9,2.9S148.7,466.9,150.3,466.9z"/>
			<path class="st3" d="M75.2,376.1c0,0.9-0.3,1.8-0.8,2.5c-0.5,0.8-1.2,1.3-2.1,1.7c-0.8,0.3-1.8,0.4-2.6,0.3s-1.7-0.6-2.3-1.2
				c-0.6-0.6-1.1-1.5-1.3-2.3s-0.1-1.8,0.3-2.6c0.3-0.8,0.9-1.5,1.7-2c0.8-0.5,1.6-0.8,2.5-0.8c1.2,0,2.4,0.5,3.2,1.3
				C74.7,373.8,75.2,374.9,75.2,376.1z"/>
			<path class="st3" d="M66.9,294.5c1.4,0,2.5-1.1,2.5-2.5s-1.1-2.5-2.5-2.5s-2.5,1.1-2.5,2.5S65.5,294.5,66.9,294.5z"/>
			<path class="st3" d="M132.1,342.6c2.1,0,3.7-1.7,3.7-3.7c0-2.1-1.7-3.7-3.7-3.7c-2.1,0-3.7,1.7-3.7,3.7
				C128.3,340.9,130,342.6,132.1,342.6z"/>
			<path class="st3" d="M67.7,230.2c0,1.1-0.3,2.1-0.9,3s-1.4,1.6-2.4,2s-2.1,0.5-3.1,0.3s-2-0.7-2.8-1.5s-1.3-1.7-1.5-2.8
				c-0.2-1-0.1-2.1,0.3-3.1s1.1-1.8,2-2.4c0.9-0.6,1.9-0.9,3-0.9c1.4,0,2.8,0.6,3.8,1.6C67.2,227.4,67.7,228.8,67.7,230.2z"/>
			<path class="st3" d="M191.4,162.2c0,0.6-0.2,1.1-0.5,1.6s-0.8,0.9-1.3,1.1c-0.5,0.2-1.1,0.3-1.7,0.2c-0.6-0.1-1.1-0.4-1.5-0.8
				c-0.4-0.4-0.7-0.9-0.8-1.5s-0.1-1.2,0.2-1.7c0.2-0.5,0.6-1,1.1-1.3s1-0.5,1.6-0.5c0.8,0,1.5,0.3,2.1,0.9
				C191.1,160.7,191.4,161.4,191.4,162.2z"/>
			<path class="st3" d="M384.8,166c0,0.7-0.2,1.3-0.6,1.9c-0.4,0.6-0.9,1-1.5,1.2s-1.3,0.3-1.9,0.2c-0.7-0.1-1.2-0.5-1.7-0.9
				c-0.5-0.5-0.8-1.1-0.9-1.7c-0.1-0.7-0.1-1.3,0.2-1.9c0.3-0.6,0.7-1.1,1.3-1.5c0.6-0.4,1.2-0.5,1.9-0.5c0.9,0,1.7,0.4,2.3,1
				C384.5,164.3,384.8,165.1,384.8,166z"/>
			<path class="st3" d="M216.3,107.5c0,0.6-0.2,1.1-0.5,1.6s-0.8,0.9-1.3,1.1s-1.1,0.3-1.7,0.2c-0.6-0.1-1.1-0.4-1.5-0.8
				s-0.7-0.9-0.8-1.5s-0.1-1.2,0.2-1.7c0.2-0.5,0.6-1,1.1-1.3s1-0.5,1.6-0.5c0.8,0,1.5,0.3,2.1,0.9C216,106,216.3,106.7,216.3,107.5
				z"/>
			<path class="st3" d="M35.1,557.8c2.4,0,4.4-2,4.4-4.4s-2-4.4-4.4-4.4s-4.4,2-4.4,4.4C30.7,555.9,32.7,557.8,35.1,557.8z"/>
			<path class="st3" d="M10.8,470c0,0.8-0.2,1.5-0.6,2.1c-0.4,0.6-1,1.1-1.7,1.4s-1.5,0.4-2.2,0.2c-0.8-0.1-1.4-0.5-2-1
				c-0.5-0.5-0.9-1.2-1.1-2c-0.2-0.7-0.1-1.5,0.2-2.2s0.8-1.3,1.4-1.8c0.6-0.4,1.4-0.7,2.1-0.7c0.5,0,1,0.1,1.5,0.3
				c0.5,0.2,0.9,0.5,1.3,0.8c0.4,0.4,0.7,0.8,0.9,1.3C10.7,468.9,10.8,469.5,10.8,470z"/>
			<path class="st3" d="M98.7,74.8c2.7,0,5-2.2,5-5c0-2.7-2.2-5-5-5c-2.7,0-5,2.2-5,5C93.7,72.5,96,74.8,98.7,74.8z"/>
			<path class="st3" d="M756.7,191.4c0,0.8-0.2,1.5-0.6,2.2c-0.4,0.6-1,1.1-1.7,1.4c-0.7,0.3-1.5,0.4-2.3,0.2
				c-0.8-0.1-1.5-0.5-2-1.1c-0.5-0.5-0.9-1.2-1.1-2c-0.2-0.8-0.1-1.5,0.2-2.3c0.3-0.7,0.8-1.3,1.4-1.8s1.4-0.7,2.2-0.7
				c1,0,2,0.4,2.7,1.1C756.3,189.4,756.7,190.4,756.7,191.4z"/>
			<path class="st3" d="M700.7,452.3c0,0.8-0.2,1.5-0.7,2.1c-0.4,0.6-1,1.1-1.7,1.4s-1.5,0.4-2.2,0.2s-1.4-0.5-2-1.1
				c-0.5-0.5-0.9-1.2-1.1-2c-0.1-0.7-0.1-1.5,0.2-2.2s0.8-1.3,1.4-1.7c0.6-0.4,1.4-0.7,2.1-0.7c1,0,2,0.4,2.7,1.1
				C700.3,450.3,700.7,451.3,700.7,452.3z"/>
		</g>
	</g>
</g>
</svg>
