<?xml version="1.0" encoding="utf-8"?>
<!-- Generator: Adobe Illustrator 24.0.0, SVG Export Plug-In . SVG Version: 6.00 Build 0)  -->
<svg version="1.1" id="Calque_1" xmlns="http://www.w3.org/2000/svg" xmlns:xlink="http://www.w3.org/1999/xlink" x="0px" y="0px"
	 viewBox="0 0 26.4 22.6" style="enable-background:new 0 0 26.4 22.6;" xml:space="preserve">
<style type="text/css">
	.st0{fill:#BCBCBC;}
	.st1{fill:#FFFFFF;}
	.st2{opacity:0.18;}
	.st3{fill:#F7D7AD;}
	.st4{fill:#04A339;}
	.st5{opacity:0.2;fill:#9CC65A;enable-background:new    ;}
	.st6{opacity:0.4;fill:#3AAA39;enable-background:new    ;}
</style>
<path class="st0" d="M17.9,15.1c0-2.6-2.1-4.6-4.6-4.6h-1c-0.9,0.3-1.7,0.6-2.7,0.6S7.7,11,7,10.5H5.7c-2.6,0-4.6,2.1-4.6,4.6v3.3
	c3.4,3.1,8.5,4,13.2,2.2c1.4-0.6,2.6-1.4,3.6-2.3V15.1z"/>
<g>
	<path class="st0" d="M14.4,6c0-2.7-2.3-4.9-4.9-4.9C6.7,1,4.6,3.3,4.6,6c0,2.7,2.3,4.9,4.9,4.9S14.4,8.7,14.4,6z"/>
</g>
<path class="st1" d="M17.3,15.2c0-2.4-2-4.3-4.3-4.3h-0.9c-0.8,0.3-1.6,0.6-2.5,0.6s-1.9-0.2-2.5-0.6H5.8c-2.4,0-4.3,2-4.3,4.3v3.1
	c3.2,2.9,8,3.8,12.4,2.1c1.3-0.6,2.4-1.3,3.4-2.2V15.2z"/>
<g>
	<path class="st1" d="M13.9,5.8c0-2.5-2.1-4.5-4.5-4.5c-2.5,0-4.5,2.1-4.5,4.5c0,2.5,2.1,4.5,4.5,4.5S13.9,8.3,13.9,5.8z"/>
</g>
<g class="st2">
	<path class="st3" d="M18,21.5c2.7,0,4.9-2.2,4.9-4.9c0-2.2-1.5-4-3.5-4.6"/>
</g>
<circle class="st4" cx="18.9" cy="16.6" r="5.1"/>
<path class="st5" d="M18.9,11.5c-1.8,0-3.3,0.9-4.2,2.2c0.9-0.9,2.2-1.5,3.6-1.5c2.8,0,5.1,2.3,5.1,5.1c0,1.1-0.3,2.1-0.9,2.9
	c0.9-0.9,1.5-2.2,1.5-3.6C24.1,13.7,21.8,11.5,18.9,11.5z"/>
<path class="st6" d="M19.7,20.2c-2.8,0-5.1-2.3-5.1-5.1c0-0.5,0.1-1.1,0.2-1.6c-0.7,0.9-1,1.9-1,3.1c0,2.8,2.3,5.1,5.1,5.1
	c2.3,0,4.2-1.5,4.9-3.6C22.9,19.4,21.4,20.2,19.7,20.2z"/>
<path class="st1" d="M21.4,17.2h-4.7c-0.2,0-0.4-0.2-0.4-0.4v-0.3c0-0.2,0.2-0.4,0.4-0.4h4.7c0.2,0,0.4,0.2,0.4,0.4v0.3
	C21.8,17,21.6,17.2,21.4,17.2z"/>
<path class="st1" d="M18.5,19v-4.7c0-0.2,0.2-0.4,0.4-0.4h0.3c0.2,0,0.4,0.2,0.4,0.4V19c0,0.2-0.2,0.4-0.4,0.4h-0.3
	C18.7,19.4,18.5,19.2,18.5,19z"/>
</svg>
