<?xml version="1.0" encoding="utf-8"?>
<!-- Generator: Adobe Illustrator 24.0.0, SVG Export Plug-In . SVG Version: 6.00 Build 0)  -->
<svg version="1.1" id="Calque_1" xmlns="http://www.w3.org/2000/svg" xmlns:xlink="http://www.w3.org/1999/xlink" x="0px" y="0px"
	 viewBox="0 0 24.8 27.7" style="enable-background:new 0 0 24.8 27.7;" xml:space="preserve">
<style type="text/css">
	.st0{fill:#BCBCBC;}
	.st1{fill:#FFFFFF;}
	.st2{opacity:0.18;}
	.st3{fill:#F7D7AD;}
	.st4{fill:#D11B1B;}
	.st5{opacity:0.2;fill:#F78080;enable-background:new    ;}
	.st6{opacity:0.4;fill:#F72020;enable-background:new    ;}
</style>
<path class="st0" d="M22.3,18.6c0-3.3-2.6-5.8-5.8-5.8h-1.3c-1.1,0.4-2.1,0.8-3.4,0.8s-2.4-0.1-3.3-0.8H6.9c-3.3,0-5.8,2.6-5.8,5.8
	v4.2c4.3,3.9,10.7,5,16.6,2.8c1.8-0.8,3.3-1.8,4.5-2.9V18.6z"/>
<g>
	<path class="st0" d="M17.9,7.1c0-3.4-2.9-6.2-6.2-6.2C8.2,0.8,5.5,3.7,5.5,7.1s2.9,6.2,6.2,6.2S17.9,10.5,17.9,7.1z"/>
</g>
<path class="st1" d="M21.5,18.7c0-3-2.5-5.4-5.4-5.4H15c-1,0.4-2,0.8-3.2,0.8s-2.4-0.3-3.2-0.8H7c-3,0-5.4,2.5-5.4,5.4v3.9
	c4,3.7,10.1,4.8,15.6,2.6c1.6-0.8,3-1.6,4.3-2.8V18.7z"/>
<g>
	<path class="st1" d="M17.2,6.8c0-3.2-2.6-5.7-5.7-5.7c-3.2,0-5.7,2.6-5.7,5.7c0,3.2,2.6,5.7,5.7,5.7S17.2,10,17.2,6.8z"/>
</g>
<g class="st2">
	<path class="st3" d="M18.1,26.8c2.7,0,4.9-2.2,4.9-4.9c0-2.2-1.5-4-3.5-4.6"/>
</g>
<circle class="st4" cx="19" cy="21.9" r="5.1"/>
<path class="st5" d="M19,16.8c-1.8,0-3.3,0.9-4.2,2.2c0.9-0.9,2.2-1.5,3.6-1.5c2.8,0,5.1,2.3,5.1,5.1c0,1.1-0.3,2.1-0.9,2.9
	c0.9-0.9,1.5-2.2,1.5-3.6C24.2,19,21.9,16.8,19,16.8z"/>
<path class="st6" d="M19.8,25.5c-2.8,0-5.1-2.3-5.1-5.1c0-0.5,0.1-1.1,0.2-1.6c-0.7,0.9-1,1.9-1,3.1c0,2.8,2.3,5.1,5.1,5.1
	c2.3,0,4.2-1.5,4.9-3.6C23,24.7,21.5,25.5,19.8,25.5z"/>
<path class="st1" d="M21.4,22.5h-4.7c-0.2,0-0.4-0.2-0.4-0.4v-0.3c0-0.2,0.2-0.4,0.4-0.4h4.7c0.2,0,0.4,0.2,0.4,0.4v0.3
	C21.8,22.3,21.6,22.5,21.4,22.5z"/>
</svg>
