<?xml version="1.0" encoding="utf-8"?>
<!-- Generator: Adobe Illustrator 24.0.0, SVG Export Plug-In . SVG Version: 6.00 Build 0)  -->
<svg version="1.1" id="Calque_1" xmlns="http://www.w3.org/2000/svg" xmlns:xlink="http://www.w3.org/1999/xlink" x="0px" y="0px"
	 viewBox="0 0 85.04 85.04" style="enable-background:new 0 0 85.04 85.04;" xml:space="preserve">
<style type="text/css">
	.st0{fill:#FEE4BD;}
	.st1{fill:#F7D7AD;}
	.st2{fill:#FFFFFF;}
</style>
<g>
	<rect y="0" class="st0" width="85.04" height="85.04"/>
	<path class="st1" d="M96.21,86.79V70.54c-0.05-0.05-0.09-0.09-0.14-0.14c-0.06-0.06-0.11-0.12-0.17-0.17
		c-0.06-0.06-0.11-0.12-0.17-0.17c-0.06-0.06-0.11-0.12-0.17-0.17c-0.06-0.06-0.11-0.12-0.17-0.17c-0.06-0.06-0.11-0.12-0.17-0.17
		c-0.06-0.06-0.11-0.12-0.17-0.17c-0.06-0.06-0.11-0.12-0.17-0.17c-0.06-0.06-0.11-0.12-0.17-0.17c-0.06-0.06-0.11-0.12-0.17-0.17
		c-0.06-0.06-0.11-0.12-0.17-0.17c-0.06-0.06-0.11-0.12-0.17-0.17c-0.06-0.06-0.11-0.12-0.17-0.17c-0.06-0.06-0.11-0.12-0.17-0.17
		c-0.06-0.06-0.11-0.12-0.17-0.17c-0.06-0.06-0.11-0.12-0.17-0.17c-0.06-0.06-0.11-0.12-0.17-0.17c-0.06-0.06-0.11-0.12-0.17-0.17
		c-0.06-0.06-0.11-0.12-0.17-0.17c-0.06-0.06-0.11-0.12-0.17-0.17c-0.06-0.06-0.11-0.12-0.17-0.17c-0.06-0.06-0.11-0.12-0.17-0.17
		c-0.06-0.06-0.11-0.12-0.17-0.17c-0.06-0.06-0.11-0.12-0.17-0.17c-0.06-0.06-0.11-0.12-0.17-0.17c-0.06-0.06-0.11-0.12-0.17-0.17
		c-0.06-0.06-0.11-0.12-0.17-0.17c-0.06-0.06-0.11-0.12-0.17-0.17c-0.06-0.06-0.11-0.12-0.17-0.17c-0.06-0.06-0.11-0.12-0.17-0.17
		c-0.06-0.06-0.11-0.12-0.17-0.17c-0.06-0.06-0.11-0.12-0.17-0.17c-0.06-0.06-0.11-0.12-0.17-0.17c-0.06-0.06-0.11-0.12-0.17-0.17
		c-0.06-0.06-0.11-0.12-0.17-0.17c-0.06-0.06-0.11-0.12-0.17-0.17c-0.06-0.06-0.11-0.12-0.17-0.17c-0.06-0.06-0.11-0.12-0.17-0.17
		c-0.06-0.06-0.11-0.12-0.17-0.17c-0.06-0.06-0.11-0.12-0.17-0.17c-0.06-0.06-0.11-0.12-0.17-0.17c-0.06-0.06-0.11-0.12-0.17-0.17
		c-0.06-0.06-0.11-0.12-0.17-0.17c-0.06-0.06-0.11-0.12-0.17-0.17c-0.06-0.06-0.11-0.12-0.17-0.17c-0.06-0.06-0.11-0.12-0.17-0.17
		c-0.06-0.06-0.11-0.12-0.17-0.17c-0.06-0.06-0.11-0.12-0.17-0.17c-0.06-0.06-0.11-0.12-0.17-0.17c-0.06-0.06-0.11-0.12-0.17-0.17
		c-0.06-0.06-0.11-0.12-0.17-0.17c-0.06-0.06-0.11-0.12-0.17-0.17c-0.06-0.06-0.11-0.12-0.17-0.17c-0.06-0.06-0.11-0.12-0.17-0.17
		c-0.06-0.06-0.11-0.12-0.17-0.17c-0.06-0.06-0.11-0.12-0.17-0.17c-0.06-0.06-0.11-0.12-0.17-0.17c-0.06-0.06-0.11-0.12-0.17-0.17
		c-0.06-0.06-0.11-0.12-0.17-0.17c-0.06-0.06-0.11-0.12-0.17-0.17c-0.06-0.06-0.11-0.12-0.17-0.17c-0.06-0.06-0.11-0.12-0.17-0.17
		c-0.06-0.06-0.11-0.12-0.17-0.17c-0.06-0.06-0.11-0.12-0.17-0.17c-0.06-0.06-0.11-0.12-0.17-0.17c-0.06-0.06-0.11-0.12-0.17-0.17
		c-0.06-0.06-0.11-0.12-0.17-0.17c-0.06-0.06-0.11-0.12-0.17-0.17c-0.06-0.06-0.11-0.12-0.17-0.17c-0.06-0.06-0.11-0.12-0.17-0.17
		c-0.06-0.06-0.11-0.12-0.17-0.17c-0.06-0.06-0.11-0.12-0.17-0.17c-0.06-0.06-0.11-0.12-0.17-0.17c-0.06-0.06-0.11-0.12-0.17-0.17
		c-0.06-0.06-0.11-0.12-0.17-0.17c-0.06-0.06-0.11-0.12-0.17-0.17c-0.06-0.06-0.11-0.12-0.17-0.17c-0.06-0.06-0.11-0.12-0.17-0.17
		c-0.06-0.06-0.11-0.12-0.17-0.17c-0.06-0.06-0.11-0.12-0.17-0.17c-0.06-0.06-0.11-0.12-0.17-0.17c-0.06-0.06-0.11-0.12-0.17-0.17
		c-0.06-0.06-0.11-0.12-0.17-0.17c-0.06-0.06-0.11-0.12-0.17-0.17c-0.06-0.06-0.11-0.12-0.17-0.17c-0.06-0.06-0.11-0.12-0.17-0.17
		c-0.06-0.06-0.11-0.12-0.17-0.17c-0.06-0.06-0.11-0.12-0.17-0.17c-0.06-0.06-0.11-0.12-0.17-0.17c-0.06-0.06-0.11-0.12-0.17-0.17
		c-0.06-0.06-0.11-0.12-0.17-0.17c-0.06-0.06-0.11-0.12-0.17-0.17c-0.06-0.06-0.11-0.12-0.17-0.17c-0.06-0.06-0.11-0.12-0.17-0.17
		c-0.06-0.06-0.11-0.12-0.17-0.17c-0.06-0.06-0.11-0.12-0.17-0.17c-0.06-0.06-0.11-0.12-0.17-0.17c-0.06-0.06-0.11-0.12-0.17-0.17
		c-0.06-0.06-0.11-0.12-0.17-0.17c-0.06-0.06-0.11-0.12-0.17-0.17c-0.06-0.06-0.11-0.12-0.17-0.17c-0.06-0.06-0.11-0.12-0.17-0.17
		c-0.06-0.06-0.11-0.12-0.17-0.17c-0.06-0.06-0.11-0.12-0.17-0.17c-0.06-0.06-0.11-0.12-0.17-0.17c-0.06-0.06-0.11-0.12-0.17-0.17
		c-0.06-0.06-0.11-0.12-0.17-0.17c-0.06-0.06-0.11-0.12-0.17-0.17c-0.06-0.06-0.11-0.12-0.17-0.17c-0.06-0.06-0.11-0.12-0.17-0.17
		c-0.06-0.06-0.11-0.12-0.17-0.17c-0.06-0.06-0.11-0.12-0.17-0.17c-0.06-0.06-0.11-0.12-0.17-0.17c-0.06-0.06-0.11-0.12-0.17-0.17
		c-0.06-0.06-0.11-0.12-0.17-0.17c-0.06-0.06-0.11-0.12-0.17-0.17c-0.06-0.06-0.11-0.12-0.17-0.17c-0.06-0.06-0.11-0.12-0.17-0.17
		c-0.06-0.06-0.11-0.12-0.17-0.17c-0.06-0.06-0.11-0.12-0.17-0.17c-0.06-0.06-0.11-0.12-0.17-0.17c-0.06-0.06-0.11-0.12-0.17-0.17
		c-0.06-0.06-0.11-0.12-0.17-0.17c-0.06-0.06-0.11-0.12-0.17-0.17c-0.06-0.06-0.11-0.12-0.17-0.17c-0.06-0.06-0.11-0.12-0.17-0.17
		c-0.06-0.06-0.11-0.12-0.17-0.17c-0.06-0.06-0.11-0.12-0.17-0.17c-0.06-0.06-0.11-0.12-0.17-0.17c-0.06-0.06-0.11-0.12-0.17-0.17
		c-0.06-0.06-0.11-0.12-0.17-0.17c-0.06-0.06-0.11-0.12-0.17-0.17c-0.06-0.06-0.11-0.12-0.17-0.17c-0.06-0.06-0.11-0.12-0.17-0.17
		c-0.06-0.06-0.11-0.12-0.17-0.17c-0.06-0.06-0.11-0.12-0.17-0.17c-0.06-0.06-0.11-0.12-0.17-0.17c-0.06-0.06-0.11-0.12-0.17-0.17
		c-0.06-0.06-0.11-0.12-0.17-0.17c-0.06-0.06-0.11-0.12-0.17-0.17c-0.06-0.06-0.11-0.12-0.17-0.17c-0.06-0.06-0.11-0.12-0.17-0.17
		c-0.06-0.06-0.11-0.12-0.17-0.17c-0.06-0.06-0.11-0.12-0.17-0.17c-0.06-0.06-0.11-0.12-0.17-0.17c-0.06-0.06-0.11-0.12-0.17-0.17
		c-0.06-0.06-0.11-0.12-0.17-0.17c-0.06-0.06-0.11-0.12-0.17-0.17c-0.06-0.06-0.11-0.12-0.17-0.17c-0.06-0.06-0.11-0.12-0.17-0.17
		c-0.06-0.06-0.11-0.12-0.17-0.17c-0.06-0.06-0.11-0.12-0.17-0.17c-0.06-0.06-0.11-0.12-0.17-0.17c-0.06-0.06-0.11-0.12-0.17-0.17
		c-0.06-0.06-0.11-0.12-0.17-0.17c-0.06-0.06-0.11-0.12-0.17-0.17c-0.06-0.06-0.11-0.12-0.17-0.17c-0.06-0.06-0.11-0.12-0.17-0.17
		c-0.06-0.06-0.11-0.12-0.17-0.17c-0.06-0.06-0.11-0.12-0.17-0.17c-0.06-0.06-0.11-0.12-0.17-0.17c-0.06-0.06-0.11-0.12-0.17-0.17
		c-0.06-0.06-0.11-0.12-0.17-0.17c-0.06-0.06-0.11-0.12-0.17-0.17c-0.06-0.06-0.11-0.12-0.17-0.17c-0.06-0.06-0.11-0.12-0.17-0.17
		c-0.06-0.06-0.11-0.12-0.17-0.17c-0.06-0.06-0.11-0.12-0.17-0.17c-0.06-0.06-0.11-0.12-0.17-0.17c-0.06-0.06-0.11-0.12-0.17-0.17
		c-0.06-0.06-0.11-0.12-0.17-0.17c-0.06-0.06-0.11-0.12-0.17-0.17c-0.06-0.06-0.11-0.12-0.17-0.17c-0.06-0.06-0.11-0.12-0.17-0.17
		c-0.06-0.06-0.11-0.12-0.17-0.17c-0.06-0.06-0.11-0.12-0.17-0.17c-0.06-0.06-0.11-0.12-0.17-0.17c-0.06-0.06-0.11-0.12-0.17-0.17
		c-0.06-0.06-0.11-0.12-0.17-0.17c-0.06-0.06-0.11-0.12-0.17-0.17c-0.06-0.06-0.11-0.12-0.17-0.17c-0.06-0.06-0.11-0.12-0.17-0.17
		c-0.06-0.06-0.11-0.12-0.17-0.17c-0.06-0.06-0.11-0.12-0.17-0.17c-0.06-0.06-0.11-0.12-0.17-0.17c-0.06-0.06-0.11-0.12-0.17-0.17
		c-0.06-0.06-0.11-0.12-0.17-0.17c-0.06-0.06-0.11-0.12-0.17-0.17c-0.06-0.06-0.11-0.12-0.17-0.17c-0.06-0.06-0.11-0.12-0.17-0.17
		c-0.06-0.06-0.11-0.12-0.17-0.17c-0.06-0.06-0.11-0.12-0.17-0.17c-0.06-0.06-0.11-0.12-0.17-0.17c-0.06-0.06-0.11-0.12-0.17-0.17
		c-0.06-0.06-0.11-0.12-0.17-0.17c-0.06-0.06-0.11-0.12-0.17-0.17c-0.06-0.06-0.11-0.12-0.17-0.17c-0.06-0.06-0.11-0.12-0.17-0.17
		c-0.06-0.06-0.11-0.12-0.17-0.17c-0.06-0.06-0.11-0.12-0.17-0.17c-0.06-0.06-0.11-0.12-0.17-0.17c-0.06-0.06-0.11-0.12-0.17-0.17
		c-0.06-0.06-0.11-0.12-0.17-0.17c-0.06-0.06-0.11-0.12-0.17-0.17c-0.06-0.06-0.11-0.12-0.17-0.17c-0.06-0.06-0.11-0.12-0.17-0.17
		c-0.06-0.06-0.11-0.12-0.17-0.17c-0.06-0.06-0.11-0.12-0.17-0.17c-0.06-0.06-0.11-0.12-0.17-0.17c-0.06-0.06-0.11-0.12-0.17-0.17
		c-0.06-0.06-0.11-0.12-0.17-0.17c-0.06-0.06-0.11-0.12-0.17-0.17c-0.06-0.06-0.11-0.12-0.17-0.17c-0.06-0.06-0.11-0.12-0.17-0.17
		c-0.06-0.06-0.11-0.12-0.17-0.17c-0.06-0.06-0.11-0.12-0.17-0.17c-0.06-0.06-0.11-0.12-0.17-0.17c-0.06-0.06-0.11-0.12-0.17-0.17
		c-0.06-0.06-0.11-0.12-0.17-0.17c-0.06-0.06-0.11-0.12-0.17-0.17c-0.06-0.06-0.11-0.12-0.17-0.17c-0.06-0.06-0.11-0.12-0.17-0.17
		c-0.06-0.06-0.11-0.12-0.17-0.17c-0.06-0.06-0.11-0.12-0.17-0.17c-0.06-0.06-0.11-0.12-0.17-0.17c-0.06-0.06-0.11-0.12-0.17-0.17
		c-0.06-0.06-0.11-0.12-0.17-0.17c-0.06-0.06-0.11-0.12-0.17-0.17c-0.06-0.06-0.11-0.12-0.17-0.17c-0.06-0.06-0.11-0.12-0.17-0.17
		c-0.06-0.06-0.11-0.12-0.17-0.17c-0.06-0.06-0.11-0.12-0.17-0.17c-0.06-0.06-0.11-0.12-0.17-0.17c-0.06-0.06-0.11-0.12-0.17-0.17
		c-0.06-0.06-0.11-0.12-0.17-0.17c-0.06-0.06-0.11-0.12-0.17-0.17c-0.06-0.06-0.11-0.12-0.17-0.17c-0.06-0.06-0.11-0.12-0.17-0.17
		c-0.06-0.06-0.11-0.12-0.17-0.17c-0.06-0.06-0.11-0.12-0.17-0.17c-0.06-0.06-0.11-0.12-0.17-0.17c-0.06-0.06-0.11-0.12-0.17-0.17
		c-0.06-0.06-0.11-0.12-0.17-0.17c-0.06-0.06-0.11-0.12-0.17-0.17c-0.06-0.06-0.11-0.12-0.17-0.17c-0.06-0.06-0.11-0.12-0.17-0.17
		c-0.06-0.06-0.11-0.12-0.17-0.17c-0.06-0.06-0.11-0.12-0.17-0.17c-0.06-0.06-0.11-0.12-0.17-0.17c-0.06-0.06-0.11-0.12-0.17-0.17
		c-0.06-0.06-0.11-0.12-0.17-0.17c-0.06-0.06-0.11-0.12-0.17-0.17c-0.06-0.06-0.11-0.12-0.17-0.17c-0.06-0.06-0.11-0.12-0.17-0.17
		c-0.06-0.06-0.11-0.12-0.17-0.17c-0.06-0.06-0.11-0.12-0.17-0.17c-0.06-0.06-0.11-0.12-0.17-0.17c-0.06-0.06-0.11-0.12-0.17-0.17
		c-0.06-0.06-0.11-0.12-0.17-0.17c-0.06-0.06-0.11-0.12-0.17-0.17c-0.06-0.06-0.11-0.12-0.17-0.17c-0.06-0.06-0.11-0.12-0.17-0.17
		c-0.06-0.06-0.11-0.12-0.17-0.17c-0.06-0.06-0.11-0.12-0.17-0.17c-0.06-0.06-0.11-0.12-0.17-0.17c-2.72-2.77-6.51-4.49-10.69-4.49
		c-8.27,0-15.01,6.73-15.01,15.01c0,4.18,1.72,7.96,4.49,10.68c0.06,0.06,0.11,0.12,0.17,0.17c0.06,0.06,0.11,0.12,0.17,0.17
		c0.06,0.06,0.11,0.12,0.17,0.17c0.06,0.06,0.11,0.12,0.17,0.17c0.06,0.06,0.11,0.12,0.17,0.17c0.06,0.06,0.11,0.12,0.17,0.17
		c0.06,0.06,0.11,0.12,0.17,0.17c0.06,0.06,0.11,0.12,0.17,0.17c0.06,0.06,0.11,0.12,0.17,0.17c0.06,0.06,0.11,0.12,0.17,0.17
		c0.06,0.06,0.11,0.12,0.17,0.17c0.06,0.06,0.11,0.12,0.17,0.17c0.06,0.06,0.11,0.12,0.17,0.17c0.06,0.06,0.11,0.12,0.17,0.17
		c0.06,0.06,0.11,0.12,0.17,0.17c0.06,0.06,0.11,0.12,0.17,0.17c0.06,0.06,0.11,0.12,0.17,0.17c0.06,0.06,0.11,0.12,0.17,0.17
		c0.06,0.06,0.11,0.12,0.17,0.17c0.06,0.06,0.11,0.12,0.17,0.17c0.06,0.06,0.11,0.12,0.17,0.17c0.06,0.06,0.11,0.12,0.17,0.17
		c0.06,0.06,0.11,0.12,0.17,0.17c0.06,0.06,0.11,0.12,0.17,0.17c0.06,0.06,0.11,0.12,0.17,0.17c0.06,0.06,0.11,0.12,0.17,0.17
		c0.06,0.06,0.11,0.12,0.17,0.17c0.06,0.06,0.11,0.12,0.17,0.17c0.06,0.06,0.11,0.12,0.17,0.17c0.06,0.06,0.11,0.12,0.17,0.17
		c0.06,0.06,0.11,0.12,0.17,0.17c0.06,0.06,0.11,0.12,0.17,0.17c0.06,0.06,0.11,0.12,0.17,0.17c0.06,0.06,0.11,0.12,0.17,0.17
		c0.06,0.06,0.11,0.12,0.17,0.17c0.06,0.06,0.11,0.12,0.17,0.17c0.06,0.06,0.11,0.12,0.17,0.17c0.06,0.06,0.11,0.12,0.17,0.17
		c0.06,0.06,0.11,0.12,0.17,0.17c0.06,0.06,0.11,0.12,0.17,0.17c0.06,0.06,0.11,0.12,0.17,0.17c0.06,0.06,0.11,0.12,0.17,0.17
		c0.06,0.06,0.11,0.12,0.17,0.17c0.06,0.06,0.11,0.12,0.17,0.17c0.02,0.02,0.03,0.03,0.05,0.05c-1.98-0.32-3.87-0.94-5.59-1.84
		h-3.21c-7.87,0-14.27,6.4-14.27,14.27v18.5h0.17v0.17h0.17v0.17h0.17v0.17h0.17v0.17h0.17v0.17h0.17v0.17h0.17v0.17h0.17v0.17h0.17
		v0.17h0.17v0.17h0.17v0.17h0.17v0.17h0.17v0.01H96.21z"/>
	<path class="st2" d="M51.86,51.93h-3.21c-2.55,1.32-5.44,2.08-8.51,2.08c-3.07,0-5.96-0.75-8.51-2.08h-3.21
		c-7.87,0-14.27,6.4-14.27,14.27v18.5h51.99v-18.5C66.13,58.34,59.73,51.93,51.86,51.93z"/>
	<path class="st2" d="M55.14,35.46c0-8.27-6.73-15.01-15.01-15.01c-8.27,0-15.01,6.73-15.01,15.01c0,8.27,6.73,15.01,15.01,15.01
		C48.41,50.47,55.14,43.74,55.14,35.46z"/>
</g>
</svg>
