<?xml version="1.0" encoding="utf-8"?>
<!-- Generator: Adobe Illustrator 24.0.0, SVG Export Plug-In . SVG Version: 6.00 Build 0)  -->
<svg version="1.1" id="Calque_1" xmlns="http://www.w3.org/2000/svg" xmlns:xlink="http://www.w3.org/1999/xlink" x="0px" y="0px"
	 viewBox="0 0 83.4 26.8" style="enable-background:new 0 0 83.4 26.8;" xml:space="preserve">
<style type="text/css">
	.st0{fill:url(#SVGID_1_);}
	.st1{fill:url(#SVGID_2_);}
	.st2{fill:url(#SVGID_3_);}
	.st3{enable-background:new    ;}
</style>
<g>
	
		<radialGradient id="SVGID_1_" cx="18.6298" cy="12.2966" r="15.4974" gradientTransform="matrix(1 0 0 -1 0 27.8898)" gradientUnits="userSpaceOnUse">
		<stop  offset="0" style="stop-color:#BF6116"/>
		<stop  offset="0.4909" style="stop-color:#EE9800"/>
		<stop  offset="1" style="stop-color:#FFD26C"/>
	</radialGradient>
	<path class="st0" d="M10.8,2.7c-1,1-2.3,2.3-3.5,3.9c2.8-2.9,5.1-0.2,6.8,1.9c1.7,1.7,4.4,5.3,4.4,7.7c0,1-0.3,2-0.9,2.7
		c2-2,6.1-6.7,4.5-10.6c-1.6-2.4-3.3-4.2-4.8-5.6C15.5,1.1,12.7,1.1,10.8,2.7z"/>
	
		<radialGradient id="SVGID_2_" cx="9.1406" cy="7.6298" r="16.7544" gradientTransform="matrix(1 0 0 -1 0 27.8898)" gradientUnits="userSpaceOnUse">
		<stop  offset="0" style="stop-color:#BF6116"/>
		<stop  offset="0.4909" style="stop-color:#EE9800"/>
		<stop  offset="1" style="stop-color:#FFD26C"/>
	</radialGradient>
	<path class="st1" d="M23.5,24.6c2.4-0.7,3.8-3.2,3.2-5.6c-0.5-2.4-1.6-5.6-3.5-8.9c-0.4-0.7-0.8-1.3-1.2-1.9
		c1.5,3.9-2.5,8.6-4.5,10.6c-0.8,1-2,1.7-3.4,1.7c-2.3,0-4.2-1.8-4.4-4c0,2.8,1.1,8.4,6.3,9.4C19,25.8,21.6,25.2,23.5,24.6z"/>
	
		<radialGradient id="SVGID_3_" cx="11.0074" cy="21.6304" r="20.2254" gradientTransform="matrix(1 0 0 -1 0 27.8898)" gradientUnits="userSpaceOnUse">
		<stop  offset="0" style="stop-color:#BF6116"/>
		<stop  offset="0.4909" style="stop-color:#EE9800"/>
		<stop  offset="1" style="stop-color:#FFD26C"/>
	</radialGradient>
	<path class="st2" d="M9.7,16.6c0-0.1,0-0.3,0-0.4c0-2.4,2.7-6,4.4-7.7c-1.7-2.1-4-4.8-6.8-1.9c-0.8,1.1-1.6,2.2-2.4,3.5
		c-1.9,3.4-2.9,6.6-3.5,9s0.9,4.9,3.2,5.6s5.6,1.4,9.4,1.4c0.7,0,1.3,0,2-0.1C10.8,25.1,9.7,19.4,9.7,16.6z"/>
</g>
<g class="st3">
	<path d="M34.1,21.3c-0.2-0.2-0.3-0.5-0.3-0.8v-14c0-0.3,0.1-0.6,0.3-0.8c0.2-0.2,0.5-0.3,0.8-0.3c0.3,0,0.6,0.1,0.8,0.3
		C35.9,6,36,6.2,36,6.5v6.2l6.9-6.9c0.2-0.2,0.3-0.3,0.4-0.3c0.1-0.1,0.3-0.1,0.4-0.1c0.3,0,0.5,0.1,0.7,0.3
		c0.2,0.2,0.2,0.4,0.2,0.6c0,0.4-0.1,0.7-0.4,0.9L39,12.6l5.4,7.3c0.1,0.2,0.2,0.4,0.2,0.7c0,0.3-0.1,0.5-0.3,0.7
		c-0.2,0.2-0.4,0.3-0.7,0.3c-0.4,0-0.7-0.2-0.9-0.5l-5.2-7.1L36,15.6v5c0,0.3-0.1,0.6-0.3,0.8c-0.2,0.2-0.5,0.3-0.8,0.3
		C34.6,21.6,34.3,21.5,34.1,21.3z"/>
	<path d="M47.7,8.1c-0.3-0.3-0.4-0.6-0.4-1s0.1-0.7,0.4-1c0.3-0.3,0.6-0.4,1-0.4s0.7,0.1,1,0.4c0.3,0.3,0.4,0.6,0.4,1
		s-0.1,0.7-0.4,1s-0.6,0.4-1,0.4S48,8.3,47.7,8.1z M47.9,21.3c-0.2-0.2-0.3-0.5-0.3-0.8v-9.2c0-0.3,0.1-0.6,0.3-0.8
		c0.2-0.2,0.5-0.3,0.8-0.3c0.3,0,0.6,0.1,0.8,0.3c0.2,0.2,0.3,0.4,0.3,0.8v9.2c0,0.3-0.1,0.6-0.3,0.8c-0.2,0.2-0.4,0.3-0.8,0.3
		C48.4,21.6,48.1,21.5,47.9,21.3z"/>
	<path d="M62.8,10.8c0.1,0.1,0.1,0.3,0.1,0.5c0,0.1,0,0.3-0.1,0.4l-4.4,9.3c-0.2,0.5-0.5,0.7-1,0.7c-0.2,0-0.4-0.1-0.6-0.2
		c-0.2-0.1-0.3-0.3-0.4-0.5l-4.4-9.3c-0.1-0.1-0.1-0.2-0.1-0.4c0-0.4,0.2-0.7,0.6-0.8c0.1-0.1,0.3-0.1,0.4-0.1s0.3,0,0.5,0.1
		c0.2,0.1,0.3,0.2,0.4,0.4l3.6,7.8l3.6-7.8c0.1-0.2,0.2-0.3,0.4-0.4c0.2-0.1,0.3-0.1,0.5-0.1c0.2,0,0.3,0,0.5,0.1
		C62.6,10.5,62.7,10.6,62.8,10.8z"/>
	<path d="M65.3,8.1c-0.3-0.3-0.4-0.6-0.4-1s0.1-0.7,0.4-1c0.3-0.3,0.6-0.4,1-0.4s0.7,0.1,1,0.4c0.3,0.3,0.4,0.6,0.4,1
		s-0.1,0.7-0.4,1c-0.3,0.3-0.6,0.4-1,0.4S65.6,8.3,65.3,8.1z M65.5,21.3c-0.2-0.2-0.3-0.5-0.3-0.8v-9.2c0-0.3,0.1-0.6,0.3-0.8
		c0.2-0.2,0.5-0.3,0.8-0.3c0.3,0,0.6,0.1,0.8,0.3c0.2,0.2,0.3,0.4,0.3,0.8v9.2c0,0.3-0.1,0.6-0.3,0.8c-0.2,0.2-0.4,0.3-0.8,0.3
		C66,21.6,65.7,21.5,65.5,21.3z"/>
	<path d="M81.8,5.7c0.2,0.2,0.3,0.4,0.3,0.8V16c0,1.1-0.3,2.1-0.8,2.9c-0.5,0.9-1.2,1.6-2.1,2.1c-0.9,0.5-1.8,0.8-2.9,0.8
		c-1.1,0-2-0.3-2.9-0.8c-0.9-0.5-1.6-1.2-2.1-2.1C71,18,70.7,17,70.7,16s0.2-2.1,0.7-2.9c0.5-0.9,1.1-1.6,1.9-2.1
		c0.8-0.5,1.7-0.7,2.7-0.7c0.8,0,1.5,0.2,2.2,0.5c0.7,0.3,1.3,0.8,1.8,1.4V6.5c0-0.3,0.1-0.6,0.3-0.8c0.2-0.2,0.5-0.3,0.8-0.3
		C81.4,5.5,81.7,5.5,81.8,5.7z M78.3,19.3c0.6-0.3,1-0.8,1.3-1.4c0.3-0.6,0.5-1.3,0.5-2c0-0.7-0.2-1.4-0.5-2c-0.3-0.6-0.8-1-1.3-1.4
		c-0.6-0.3-1.2-0.5-1.9-0.5c-0.7,0-1.3,0.2-1.9,0.5c-0.6,0.3-1,0.8-1.3,1.4c-0.3,0.6-0.5,1.2-0.5,2c0,0.7,0.2,1.4,0.5,2
		c0.3,0.6,0.8,1.1,1.3,1.4c0.6,0.3,1.2,0.5,1.9,0.5C77.1,19.9,77.8,19.7,78.3,19.3z"/>
</g>
</svg>
