<?xml version="1.0" encoding="utf-8"?>
<!-- Generator: Adobe Illustrator 24.0.0, SVG Export Plug-In . SVG Version: 6.00 Build 0)  -->
<svg version="1.1" id="Calque_1" xmlns="http://www.w3.org/2000/svg" xmlns:xlink="http://www.w3.org/1999/xlink" x="0px" y="0px"
	 viewBox="0 0 463 119.4" style="enable-background:new 0 0 463 119.4;" xml:space="preserve">
<style type="text/css">
	.st0{fill:#F7DF4F;}
	.st1{fill:#FB8B68;}
	.st2{fill:#FBC168;}
	.st3{fill:#F18969;stroke:#F18969;stroke-width:5;stroke-miterlimit:10;}
</style>
<g>
	<path class="st0" d="M116.6,75.1c-0.1,0.1-0.1,0.3-0.1,0.4c0,0.6,0,1.1,0,1.7c0,0.4,0,0.9-0.1,1.3c0,0.4-0.1,0.8-0.1,1.2
		c0,0.4-0.1,0.7-0.1,1c-0.1,0.4-0.1,0.8-0.2,1.3s-0.2,1.1-0.3,1.6c-0.2,1-0.5,2-0.7,3c-0.4,1.2-0.8,2.4-1.2,3.5
		c-0.4,0.9-0.8,1.8-1.2,2.7c-0.9,1.8-2,3.6-3.3,5.2c-0.8,1-1.6,1.9-2.4,2.8c-0.7,0.7-1.4,1.4-2.1,2.1c-1,0.9-2,1.7-3,2.5
		c-1.8,1.4-3.7,2.6-5.7,3.7c-1.1,0.6-2.2,1.2-3.3,1.7c-1.6,0.7-3.1,1.4-4.7,2c-1.2,0.4-2.4,0.8-3.6,1.2c-1.6,0.5-3.2,0.9-4.8,1.3
		c-1,0.2-2.1,0.5-3.1,0.7c-0.1,0-0.2,0-0.3,0.1c0,0-0.1,0-0.1-0.1s0-0.1,0.1-0.2c0.3-0.6,0.6-1.2,0.8-1.7c0.7-1.4,1.3-2.8,1.9-4.2
		c0.7-1.6,1.4-3.2,2.1-4.9c0.7-1.7,1.3-3.4,2-5.1c0.4-1.1,0.8-2.1,1.2-3.2c0.5-1.2,0.9-2.4,1.4-3.6c0.6-1.6,1.2-3.3,1.8-4.9
		c0.5-1.5,1-2.9,1.4-4.4c0.4-1.3,0.8-2.7,1.1-4c0.2-1,0.4-2,0.6-3c0.1-0.7,0.2-1.4,0.4-2.1c0.1-0.3,0.1-0.7,0.1-1
		c0-0.4,0.1-0.8,0.1-1.2c0-0.1,0-0.2,0-0.3c0-0.2,0-0.5,0.1-0.7v-0.1c0-1.1,0.1-2.1,0.1-3.2c0-0.4,0-0.8-0.1-1.1
		c0-0.6-0.1-1.2-0.1-1.8c-0.1-1-0.2-1.9-0.4-2.9c-0.2-1.3-0.5-2.7-0.9-4c-0.8-2.9-2-5.6-3.4-8.2c-1.1-2-2.4-3.9-3.8-5.8
		C81.6,43,80.8,42,79.9,41c-0.9-0.9-1.8-1.9-2.7-2.7c-0.8-0.7-1.6-1.4-2.4-2.1c-1.7-1.4-3.5-2.6-5.3-3.6c-1.5-0.9-3.1-1.6-4.7-2.3
		c-0.7-0.3-1.5-0.6-2.2-0.8c0,0,0,0,0-0.1l0,0h0.1c1.7-0.5,3.5-1,5.2-1.4c1.2-0.3,2.5-0.6,3.7-0.9c1-0.2,1.9-0.4,2.9-0.6
		c0.7-0.1,1.4-0.3,2.2-0.4c0.5-0.1,0.9-0.1,1.4-0.2s1-0.2,1.4-0.2c0.3,0,0.6-0.1,1-0.1c0.3,0,0.7-0.1,1-0.1c0.2,0,0.5-0.1,0.7-0.1
		c0.4,0,0.7-0.1,1.1-0.1s0.8-0.1,1.3-0.1h0.1c0.5,0,0.9-0.1,1.4-0.1s1-0.1,1.5-0.1h0.1c0.7,0,1.5-0.1,2.2-0.1c0.1,0,0.2,0,0.4,0
		c0.2,0,0.4,0,0.6,0s0.5,0,0.7,0c0.3,0,0.7,0,1,0c0.1,0,0.3,0,0.4,0c1.1,0,2.3,0,3.4,0c0.1,0,0.2,0,0.3,0c0,0,0.1,0,0.1,0.1
		c0.1,0.1,0.2,0.2,0.2,0.3c0.5,0.6,1,1.2,1.5,1.8c1.1,1.5,2.2,2.9,3.3,4.5c1.2,1.7,2.3,3.5,3.4,5.3c0.8,1.4,1.7,2.9,2.4,4.4
		c0.4,0.7,0.7,1.4,1.1,2.2c0.8,1.6,1.5,3.2,2.2,4.9c1,2.3,1.8,4.7,2.6,7.1c0.6,1.8,1.1,3.6,1.5,5.5c0.3,1.1,0.5,2.3,0.7,3.5
		c0.1,0.6,0.2,1.3,0.3,1.9c0.1,0.5,0.2,1.1,0.2,1.6c0,0.4,0.1,0.8,0.1,1.1c0,0.5,0.1,1,0.1,1.5c0,0.2,0,0.4,0,0.5c0,0.7,0,1.5,0,2.2
		c0,0.1,0,0.3,0.1,0.4C116.6,73.7,116.6,74.4,116.6,75.1z"/>
	<path class="st1" d="M95.1,21L95,20.9c-0.4-0.5-0.9-1-1.3-1.5c-1.7-1.8-3.4-3.5-5.2-5c-1.7-1.5-3.4-2.8-5.2-4.1
		c-2.4-1.7-5-3.2-7.7-4.5c-1.9-0.9-3.9-1.7-6-2.3C67.8,3,66,2.6,64.2,2.3c-0.6-0.1-1.3-0.1-1.9-0.2c-0.1,0-0.1,0-0.2,0
		c0,0,0,0,0-0.1c-1.2,0-2.5,0-3.7,0c0,0.1-0.1,0.1-0.1,0.1c-0.8,0.1-1.6,0.1-2.4,0.2c-0.8,0.1-1.6,0.2-2.3,0.4
		c-1.4,0.3-2.7,0.7-4.1,1.1c-1.9,0.6-3.8,1.4-5.6,2.3c-2.2,1.1-4.3,2.3-6.3,3.7c-3.2,2.2-6.2,4.6-9,7.3c-1.7,1.6-3.3,3.4-4.9,5.1
		c-1.3,1.5-2.6,3.1-3.8,4.7c-3.1,4.1-5.8,8.4-8.2,12.9c-1.6,3-2.9,6-4.1,9.1c-0.1,0.2-0.2,0.5-0.3,0.7c1.6,2.3,10.4,15,21.2,25.4
		l0,0c-0.2-1.3-0.4-3.8-0.4-7c0-0.5,0-0.9,0-1.4c0-0.4,0-0.9,0-1.3c0.1-0.6,0.1-1.3,0.1-1.9c0.1-0.7,0.1-1.3,0.2-2s0.2-1.4,0.3-2.1
		c0.3-1.5,0.6-2.9,1.1-4.4c0.5-1.6,1-3.1,1.7-4.5c2.1-5.1,5.4-10.3,10.6-14.8C60.4,19.9,94.2,21,95.1,21L95.1,21z"/>
	<path class="st2" d="M84.8,82.5c-0.4,0.3-0.8,0.7-1.2,1c-1.7,1.3-3.4,2.5-5.2,3.6c-2.1,1.2-4.3,2.2-6.5,3c-1.6,0.6-3.2,1.1-4.8,1.4
		c-1.2,0.3-2.3,0.5-3.5,0.7c-0.3,0-0.5,0.1-0.8,0.1c-0.4,0-0.8,0.1-1.1,0.1c-0.7,0.1-1.4,0.1-2.1,0.2c-0.4,0-0.9,0-1.3,0
		c-1.2,0-2.5,0-3.7-0.1c-0.3,0-0.7-0.1-1-0.1c-0.4,0-0.8-0.1-1.1-0.1c-0.5-0.1-1-0.1-1.6-0.2s-1.2-0.2-1.8-0.3
		c-0.8-0.2-1.7-0.4-2.5-0.6c-1.8-0.5-3.6-1.2-5.3-2c-1.8-0.9-3.6-1.9-5.3-3c-2.5-1.6-4.8-3.4-7.1-5.4c-1.4-1.2-2.8-2.6-4.2-3.9
		s-2.7-2.7-3.9-4.1c-1.1-1.2-2.1-2.4-3.1-3.6s-2-2.4-3-3.6c-1-1.3-2-2.5-3-3.8c-1.3-1.6-2.5-3.3-3.7-5c-0.7-1-1.4-1.9-2.1-2.9
		c-0.1-0.1-0.1-0.1-0.2-0.2l0,0c0,0,0,0-0.1,0.1c-0.1,0.3-0.2,0.6-0.3,0.9c-0.5,1.6-0.9,3.2-1.3,4.8c-0.3,1.2-0.6,2.4-0.8,3.6
		c-0.1,0.7-0.3,1.5-0.4,2.2c-0.1,0.5-0.2,1-0.2,1.5c-0.1,0.5-0.1,1-0.2,1.5c0,0.4-0.1,0.8-0.1,1.2c0,0.5-0.1,1-0.1,1.5
		c0,0.9-0.1,1.7-0.1,2.6c0,0.5,0,1,0,1.5v0.1c0,0.1,0,0.3,0,0.4c0,0.4,0,0.9,0,1.3C1.9,77.6,2,78.3,2,79v0.1c0,0.5,0.1,0.9,0.1,1.4
		c0,0.4,0.1,0.7,0.1,1.1c0.1,0.7,0.2,1.3,0.3,2C2.7,84.8,3,86,3.3,87.2c0.5,1.8,1.1,3.5,1.9,5.2c1.5,3.4,3.6,6.4,6.1,9.1
		c0.7,0.7,1.4,1.4,2.1,2.1c1.3,1.2,2.8,2.4,4.3,3.4c2.3,1.6,4.6,3,7.1,4.2c2,1,4.1,1.8,6.2,2.6c2,0.7,4,1.3,6,1.9
		c1.1,0.3,2.3,0.6,3.4,0.8c1,0.2,2,0.4,3,0.6c0.8,0.1,1.5,0.3,2.3,0.4c0.2,0,0.5,0.1,0.7,0.1c0.3,0,0.7,0.1,1,0.1
		c0.4,0,0.8,0.1,1.1,0.1s0.6,0.1,1,0.1c0.5,0,0.9,0.1,1.4,0.1c0.7,0,1.3,0.1,2,0.1c0.1,0,0.1,0,0.2,0c0.3,0,0.6,0,0.8,0.1
		c0.4,0,0.9,0,1.3,0c0.1,0,0.2,0,0.3,0.1c1.4,0,2.9,0,4.3,0c0.1-0.1,0.2-0.1,0.3-0.1c0.5,0,0.9,0,1.4,0c0.2,0,0.4,0,0.7,0
		c0.7,0,1.4-0.1,2.1-0.1c0.5,0,1-0.1,1.5-0.1c0.2,0,0.5,0,0.7-0.1c0.3,0,0.7-0.1,1-0.1s0.7-0.1,1-0.1s0.6-0.1,1-0.1
		c0.5-0.1,1-0.2,1.6-0.2C80.2,97.8,83.7,86.2,84.8,82.5z"/>
</g>
<path class="st3" d="M190.4,64.7l-16.8,17v21.8h-8.7V21h8.7v49.9L222,21h9.9l-35.7,37.4l38.2,45.2h-10.3L190.4,64.7z"/>
<path class="st3" d="M254.7,26.1c-1.2-1.2-1.8-2.6-1.8-4.3c0-1.6,0.6-3,1.8-4.1c1.2-1.2,2.6-1.8,4.4-1.8c1.7,0,3.2,0.6,4.4,1.7
	c1.2,1.1,1.8,2.5,1.8,4.1c0,1.7-0.6,3.2-1.8,4.4c-1.2,1.2-2.6,1.8-4.4,1.8C257.3,28,255.9,27.3,254.7,26.1z M254.8,41.5h8.4v62h-8.4
	V41.5z"/>
<path class="st3" d="M347.9,41.5l-27.7,62h-8.6l-27.5-62h8.7L316,94.4l23.6-52.9H347.9z"/>
<path class="st3" d="M367.7,26.1c-1.2-1.2-1.8-2.6-1.8-4.3c0-1.6,0.6-3,1.8-4.1c1.2-1.2,2.6-1.8,4.4-1.8c1.7,0,3.2,0.6,4.4,1.7
	c1.2,1.1,1.8,2.5,1.8,4.1c0,1.7-0.6,3.2-1.8,4.4c-1.2,1.2-2.6,1.8-4.4,1.8C370.3,28,368.9,27.3,367.7,26.1z M367.8,41.5h8.4v62h-8.4
	V41.5z"/>
<path class="st3" d="M458.7,16v87.4h-8V91.3c-2.5,4.2-5.9,7.4-9.9,9.6c-4.1,2.2-8.8,3.2-14,3.2c-5.8,0-11-1.3-15.8-4
	c-4.7-2.7-8.4-6.4-11-11.1c-2.7-4.8-4-10.2-4-16.3s1.3-11.6,4-16.3s6.4-8.5,11-11.1c4.7-2.6,9.9-4,15.8-4c5,0,9.6,1,13.7,3.1
	s7.4,5.1,9.9,9.2V16H458.7z M439.2,93.7c3.4-2,6.3-4.9,8.3-8.6c2-3.6,3-7.9,3-12.6s-1-8.9-3-12.6c-2-3.6-4.8-6.6-8.3-8.6
	s-7.4-3-11.8-3s-8.4,1-11.9,3c-3.4,2-6.3,4.9-8.3,8.6c-2,3.6-3,7.9-3,12.6s1,8.9,3,12.6c2,3.6,4.8,6.6,8.3,8.6c3.4,2,7.5,3,11.9,3
	C431.8,96.7,435.7,95.6,439.2,93.7z"/>
</svg>
