<?xml version="1.0" encoding="utf-8"?>
<!-- Generator: Adobe Illustrator 24.0.0, SVG Export Plug-In . SVG Version: 6.00 Build 0)  -->
<svg version="1.1" id="Calque_1" xmlns="http://www.w3.org/2000/svg" xmlns:xlink="http://www.w3.org/1999/xlink" x="0px" y="0px"
	 viewBox="0 0 874 202.8" style="enable-background:new 0 0 874 202.8;" xml:space="preserve">
<style type="text/css">
	.st0{fill:#F7DF4F;}
	.st1{fill:#FB8B68;}
	.st2{fill:#FBC168;}
	.st3{fill:#F18969;}
	.st4{fill:#C6BCAC;}
	.st5{fill:#DDD5CE;}
</style>
<g>
	<path class="st0" d="M152.7,98.8c-0.1,0.1-0.1,0.4-0.1,0.5c0,0.8,0,1.4,0,2.2c0,0.5,0,1.2-0.1,1.7c0,0.5-0.1,1.1-0.1,1.6
		s-0.1,0.9-0.1,1.3c-0.1,0.5-0.1,1.1-0.3,1.7c-0.1,0.7-0.3,1.4-0.4,2.1c-0.3,1.3-0.7,2.6-0.9,3.9c-0.5,1.6-1.1,3.2-1.6,4.6
		c-0.5,1.2-1.1,2.4-1.6,3.5c-1.2,2.4-2.6,4.7-4.3,6.8c-1.1,1.3-2.1,2.5-3.2,3.7c-0.9,0.9-1.8,1.8-2.8,2.8c-1.3,1.2-2.6,2.2-3.9,3.3
		c-2.4,1.8-4.9,3.4-7.5,4.9c-1.4,0.8-2.9,1.6-4.3,2.2c-2.1,0.9-4.1,1.8-6.2,2.6c-1.6,0.5-3.2,1.1-4.7,1.6c-2.1,0.7-4.2,1.2-6.3,1.7
		c-1.3,0.3-2.8,0.7-4.1,0.9c-0.1,0-0.3,0-0.4,0.1c0,0-0.1,0-0.1-0.1s0-0.1,0.1-0.3c0.4-0.8,0.8-1.6,1.1-2.2c0.9-1.8,1.7-3.7,2.5-5.5
		c0.9-2.1,1.8-4.2,2.8-6.4c0.9-2.2,1.7-4.5,2.6-6.7c0.5-1.4,1.1-2.8,1.6-4.2c0.7-1.6,1.2-3.2,1.8-4.7c0.8-2.1,1.6-4.3,2.4-6.4
		c0.7-2,1.3-3.8,1.8-5.8c0.5-1.7,1.1-3.5,1.4-5.3c0.3-1.3,0.5-2.6,0.8-3.9c0.1-0.9,0.3-1.8,0.5-2.8c0.1-0.4,0.1-0.9,0.1-1.3
		c0-0.5,0.1-1.1,0.1-1.6c0-0.1,0-0.3,0-0.4c0-0.3,0-0.7,0.1-0.9v-0.1c0-1.4,0.1-2.8,0.1-4.2c0-0.5,0-1.1-0.1-1.4
		c0-0.8-0.1-1.6-0.1-2.4c-0.1-1.3-0.3-2.5-0.5-3.8c-0.3-1.7-0.7-3.5-1.2-5.3c-1.1-3.8-2.6-7.4-4.5-10.8c-1.4-2.6-3.2-5.1-5-7.6
		c-1.4-1.8-2.5-3.2-3.7-4.5c-1.2-1.2-2.4-2.5-3.5-3.5c-1.1-0.9-2.1-1.8-3.2-2.8c-2.2-1.8-4.6-3.4-7-4.7c-2-1.2-4.1-2.1-6.2-3
		c-0.9-0.4-2-0.8-2.9-1.1c0,0,0,0,0-0.1l0,0h0.1c2.2-0.7,4.6-1.3,6.8-1.8c1.6-0.4,3.3-0.8,4.9-1.2c1.3-0.3,2.5-0.5,3.8-0.8
		c0.9-0.1,1.8-0.4,2.9-0.5c0.7-0.1,1.2-0.1,1.8-0.3c0.7-0.1,1.3-0.3,1.8-0.3c0.4,0,0.8-0.1,1.3-0.1c0.4,0,0.9-0.1,1.3-0.1
		c0.3,0,0.7-0.1,0.9-0.1c0.5,0,0.9-0.1,1.4-0.1s1.1-0.1,1.7-0.1h0.1c0.7,0,1.2-0.1,1.8-0.1c0.7,0,1.3-0.1,2-0.1h0.1
		c0.9,0,2-0.1,2.9-0.1c0.1,0,0.3,0,0.5,0c0.3,0,0.5,0,0.8,0s0.7,0,0.9,0c0.4,0,0.9,0,1.3,0c0.1,0,0.4,0,0.5,0c1.4,0,3,0,4.5,0
		c0.1,0,0.3,0,0.4,0c0,0,0.1,0,0.1,0.1c0.1,0.1,0.3,0.3,0.3,0.4c0.7,0.8,1.3,1.6,2,2.4c1.4,2,2.9,3.8,4.3,5.9c1.6,2.2,3,4.6,4.5,7
		c1.1,1.8,2.2,3.8,3.2,5.8c0.5,0.9,0.9,1.8,1.4,2.9c1.1,2.1,2,4.2,2.9,6.4c1.3,3,2.4,6.2,3.4,9.3c0.8,2.4,1.4,4.7,2,7.2
		c0.4,1.4,0.7,3,0.9,4.6c0.1,0.8,0.3,1.7,0.4,2.5c0.1,0.7,0.3,1.4,0.3,2.1c0,0.5,0.1,1.1,0.1,1.4c0,0.7,0.1,1.3,0.1,2
		c0,0.3,0,0.5,0,0.7c0,0.9,0,2,0,2.9c0,0.1,0,0.4,0.1,0.5C152.7,97,152.7,97.9,152.7,98.8z"/>
	<path class="st1" d="M124.5,27.7l-0.1-0.1c-0.5-0.7-1.2-1.3-1.7-2c-2.2-2.4-4.5-4.6-6.8-6.6c-2.2-2-4.5-3.7-6.8-5.4
		c-3.2-2.2-6.6-4.2-10.1-5.9c-2.5-1.2-5.1-2.2-7.9-3C88.7,4,86.4,3.5,84,3.1C83.2,3,82.3,3,81.5,2.8c-0.1,0-0.1,0-0.3,0
		c0,0,0,0,0-0.1c-1.6,0-3.3,0-4.9,0c0,0.1-0.1,0.1-0.1,0.1C75.1,3.1,74,3.1,73,3.2c-1.1,0.1-2.1,0.3-3,0.5c-1.8,0.4-3.5,0.9-5.4,1.4
		c-2.5,0.8-5,1.8-7.4,3c-2.9,1.4-5.6,3-8.3,4.9c-4.2,2.9-8.1,6-11.8,9.6c-2.2,2.1-4.3,4.5-6.4,6.7c-1.7,2-3.4,4.1-5,6.2
		c-4.1,5.4-7.6,11-10.8,16.9c-2.1,3.9-3.8,7.9-5.4,11.9c-0.1,0.3-0.3,0.7-0.4,0.9c2.1,3,13.7,19.7,27.8,33.4l0,0
		c-0.3-1.7-0.5-5-0.5-9.2c0-0.7,0-1.2,0-1.8c0-0.5,0-1.2,0-1.7c0.1-0.8,0.1-1.7,0.1-2.5c0.1-0.9,0.1-1.7,0.3-2.6
		c0.1-0.9,0.3-1.8,0.4-2.8c0.4-2,0.8-3.8,1.4-5.8c0.7-2.1,1.3-4.1,2.2-5.9c2.8-6.7,7.1-13.5,13.9-19.4
		C78.9,26.3,123.3,27.7,124.5,27.7L124.5,27.7z"/>
	<path class="st2" d="M110.9,108.5c-0.5,0.4-1.1,0.9-1.6,1.3c-2.2,1.7-4.5,3.3-6.8,4.7c-2.8,1.6-5.6,2.9-8.5,3.9
		c-2.1,0.8-4.2,1.4-6.3,1.8c-1.6,0.4-3,0.7-4.6,0.9c-0.4,0-0.7,0.1-1.1,0.1c-0.5,0-1.1,0.1-1.4,0.1c-0.9,0.1-1.8,0.1-2.8,0.3
		c-0.5,0-1.2,0-1.7,0c-1.6,0-3.3,0-4.9-0.1c-0.4,0-0.9-0.1-1.3-0.1c-0.5,0-1.1-0.1-1.4-0.1c-0.7-0.1-1.3-0.1-2.1-0.3
		s-1.6-0.3-2.4-0.4c-1.1-0.3-2.2-0.5-3.3-0.8c-2.4-0.7-4.7-1.6-7-2.6c-2.4-1.2-4.7-2.5-7-3.9c-3.3-2.1-6.3-4.5-9.3-7.1
		c-1.8-1.6-3.7-3.4-5.5-5.1s-3.5-3.5-5.1-5.4c-1.4-1.6-2.8-3.2-4.1-4.7c-1.3-1.6-2.6-3.2-3.9-4.7c-1.3-1.7-2.6-3.3-3.9-5
		c-1.7-2.1-3.3-4.3-4.9-6.6c-0.9-1.3-1.8-2.5-2.8-3.8c-0.1-0.1-0.1-0.1-0.3-0.3l0,0c0,0,0,0-0.1,0.1c-0.1,0.4-0.3,0.8-0.4,1.2
		c-0.7,2.1-1.2,4.2-1.7,6.3C4.4,79.9,4,81.5,3.8,83c-0.1,0.9-0.4,2-0.5,2.9c-0.1,0.7-0.3,1.3-0.3,2c-0.1,0.7-0.1,1.3-0.3,2
		c0,0.5-0.1,1.1-0.1,1.6c0,0.7-0.1,1.3-0.1,2c0,1.2-0.1,2.2-0.1,3.4c0,0.7,0,1.3,0,2V99c0,0.1,0,0.4,0,0.5c0,0.5,0,1.2,0,1.7
		c-0.3,0.9-0.1,1.8-0.1,2.8v0.1c0,0.7,0.1,1.2,0.1,1.8c0,0.5,0.1,0.9,0.1,1.4c0.1,0.9,0.3,1.7,0.4,2.6c0.3,1.6,0.7,3.2,1.1,4.7
		c0.7,2.4,1.4,4.6,2.5,6.8c2,4.5,4.7,8.4,8,11.9c0.9,0.9,1.8,1.8,2.8,2.8c1.7,1.6,3.7,3.2,5.6,4.5c3,2.1,6,3.9,9.3,5.5
		c2.6,1.3,5.4,2.4,8.1,3.4c2.6,0.9,5.3,1.7,7.9,2.5c1.4,0.4,3,0.8,4.5,1.1c1.3,0.3,2.6,0.5,3.9,0.8c1.1,0.1,2,0.4,3,0.5
		c0.3,0,0.7,0.1,0.9,0.1c0.4,0,0.9,0.1,1.3,0.1c0.5,0,1.1,0.1,1.4,0.1s0.8,0.1,1.3,0.1c0.7,0,1.2,0.1,1.8,0.1c0.9,0,1.7,0.1,2.6,0.1
		c0.1,0,0.1,0,0.3,0c0.4,0,0.8,0,1.1,0.1c0.5,0,1.2,0,1.7,0c0.1,0,0.3,0,0.4,0.1c1.8,0,3.8,0,5.6,0c0.1-0.1,0.3-0.1,0.4-0.1
		c0.7,0,1.2,0,1.8,0c0.3,0,0.5,0,0.9,0c0.9,0,1.8-0.1,2.8-0.1c0.7,0,1.3-0.1,2-0.1c0.3,0,0.7,0,0.9-0.1c0.4,0,0.9-0.1,1.3-0.1
		s0.9-0.1,1.3-0.1s0.8-0.1,1.3-0.1c0.7-0.1,1.3-0.3,2.1-0.3C104.9,128.6,109.5,113.4,110.9,108.5z"/>
</g>
<g>
	<path class="st3" d="M249.6,85.1l-22.1,22.3V136h-11.4V27.7h11.4v65.5l63.6-65.5h13l-46.9,49.1l50.2,59.4h-13.5L249.6,85.1z"/>
	<path class="st3" d="M314.5,139.5h-22.1l-43-49.5l-18.6,18.8v30.6h-18V24.5h18v60.7l58.9-60.7h22.1L261.6,77L314.5,139.5z
		 M295.4,132.9h5l-47.5-56.2L296.4,31h-3.9l-68.2,70.3V31h-4.9v101.8h4.9v-26.7l25.5-25.8L295.4,132.9z"/>
</g>
<g>
	<path class="st3" d="M334,34.4c-1.6-1.6-2.4-3.4-2.4-5.6c0-2.1,0.8-3.9,2.4-5.4c1.6-1.6,3.4-2.4,5.8-2.4c2.2,0,4.2,0.8,5.8,2.2
		c1.6,1.4,2.4,3.3,2.4,5.4c0,2.2-0.8,4.2-2.4,5.8s-3.4,2.4-5.8,2.4C337.5,36.9,335.6,36,334,34.4z M334.2,54.7h11v81.4h-11V54.7
		L334.2,54.7z"/>
	<path class="st3" d="M348.5,139.4h-17.6v-88h17.6V139.4z M337.5,132.8h4.5V58h-4.5V132.8z M339.4,40.1c-2.9,0-5.4-1.1-7.7-3.3l0,0
		c-2.2-2.2-3.3-4.9-3.3-8c0-3,1.2-5.7,3.4-7.8c2.2-2.2,4.9-3.3,8-3.3c3,0,5.8,1.1,8,3.1c2.2,2.1,3.4,4.8,3.4,7.8
		c0,3.1-1.1,5.9-3.3,8.1c-2.2,2.2-4.8,3.3-8,3.3C339.7,40.1,339.5,40.1,339.4,40.1z M336.4,32.1c1.1,1.1,2,1.5,3.3,1.4h0.2
		c1.5,0,2.5-0.4,3.5-1.4c0.9-0.9,1.4-2.1,1.4-3.5c0-1.2-0.4-2.2-1.3-3c-1-0.9-2.2-1.4-3.6-1.4c-1.5,0-2.5,0.4-3.5,1.4l-0.1,0.1
		c-0.9,0.8-1.3,1.8-1.3,3C335,30.1,335.4,31.1,336.4,32.1z"/>
</g>
<g>
	<path class="st3" d="M456.4,54.7L420,136.1h-11.3l-36.1-81.4H384l30.5,69.5l31-69.5C445.5,54.7,456.4,54.7,456.4,54.7z"/>
	<path class="st3" d="M422.2,139.4h-15.6l-39-88h18.6l28.3,64.6l28.8-64.6h18.1L422.2,139.4z M410.9,132.8h7L451.4,58h-3.7
		l-33.1,74.3L381.9,58h-4.2L410.9,132.8z"/>
</g>
<g>
	<path class="st3" d="M482.4,34.4c-1.6-1.6-2.4-3.4-2.4-5.6c0-2.1,0.8-3.9,2.4-5.4c1.6-1.6,3.4-2.4,5.8-2.4c2.2,0,4.2,0.8,5.8,2.2
		c1.6,1.4,2.4,3.3,2.4,5.4c0,2.2-0.8,4.2-2.4,5.8s-3.4,2.4-5.8,2.4C485.8,36.9,484,36,482.4,34.4z M482.6,54.7h11v81.4h-11V54.7z"/>
	<path class="st3" d="M496.9,139.4h-17.6v-88h17.6V139.4z M485.8,132.8h4.5V58h-4.5V132.8z M487.8,40.1c-2.9,0-5.4-1.1-7.7-3.3l0,0
		l0,0c-2.2-2.2-3.3-4.9-3.3-8c0-3,1.2-5.7,3.4-7.8c2.2-2.2,4.9-3.3,8-3.3c3,0,5.8,1.1,8,3.1c2.2,2.1,3.4,4.8,3.4,7.8
		c0,3.1-1.2,5.9-3.3,8.1c-2.2,2.2-4.8,3.3-8,3.3C488.1,40.1,487.9,40.1,487.8,40.1z M488.2,24.3c-1.5,0-2.5,0.4-3.5,1.4l-0.1,0.1
		c-0.9,0.8-1.3,1.8-1.3,3c0,1.3,0.4,2.3,1.4,3.3l0,0c1.1,1.1,2,1.5,3.3,1.4h0.2c1.5,0,2.5-0.4,3.5-1.4c0.9-0.9,1.4-2.1,1.4-3.5
		c0-1.2-0.4-2.2-1.3-3C490.8,24.8,489.6,24.3,488.2,24.3z"/>
</g>
<g>
	<path class="st3" d="M601.9,21.2V136h-10.5v-15.9c-3.3,5.5-7.7,9.7-13,12.6c-5.4,2.9-11.6,4.2-18.4,4.2c-7.6,0-14.4-1.7-20.7-5.3
		c-6.2-3.5-11-8.4-14.4-14.6c-3.5-6.3-5.3-13.4-5.3-21.4s1.7-15.2,5.3-21.4s8.4-11.2,14.4-14.6c6.2-3.4,13-5.3,20.7-5.3
		c6.6,0,12.6,1.3,18,4.1s9.7,6.7,13,12.1V21.2H601.9z M576.3,123.2c4.5-2.6,8.3-6.4,10.9-11.3c2.6-4.7,3.9-10.4,3.9-16.5
		c0-6.2-1.3-11.7-3.9-16.5c-2.6-4.7-6.3-8.7-10.9-11.3c-4.6-2.6-9.7-3.9-15.5-3.9s-11,1.3-15.6,3.9c-4.5,2.6-8.3,6.4-10.9,11.3
		c-2.6,4.7-3.9,10.4-3.9,16.5c0,6.2,1.3,11.7,3.9,16.5c2.6,4.7,6.3,8.7,10.9,11.3c4.5,2.6,9.8,3.9,15.6,3.9S571.7,125.7,576.3,123.2
		z"/>
	<path class="st3" d="M560,140.2c-8.3,0-15.6-1.9-22.4-5.7c-6.8-3.9-12-9.2-15.7-15.8c-3.8-6.8-5.7-14.3-5.7-23s1.9-16.5,5.7-23
		c3.9-6.8,9.2-12.1,15.7-15.8c6.9-3.8,14.2-5.7,22.4-5.7c7.2,0,13.7,1.5,19.5,4.4c3.1,1.6,5.8,3.5,8.2,5.7V17.9h17.5v121.3h-17.1
		v-9.7c-2.4,2.3-5.1,4.4-8.1,6C574.3,138.6,567.6,140.2,560,140.2z M560,57.7c-7,0-13.3,1.6-19.2,4.8c-5.4,3.1-9.9,7.6-13.2,13.3
		c-3.2,5.6-4.8,12.2-4.8,19.8c0,7.5,1.6,14,4.8,19.8c3.1,5.6,7.5,10.1,13.2,13.3c5.8,3.2,12,4.8,19.1,4.8c6.5,0,12.1-1.3,16.8-3.8
		c4.9-2.7,8.8-6.5,11.7-11.4l6.1-10.3v24.5h3.9v-108h-4.3v57.8l-6.1-10c-2.9-4.8-6.7-8.3-11.7-10.9C571.7,58.9,566.2,57.7,560,57.7z
		 M560.8,130.4c-6.4,0-12.4-1.5-17.3-4.4c-4.9-2.8-9.1-7.1-12.1-12.5c-2.9-5.4-4.4-11.4-4.4-18.1c0-6.8,1.5-12.9,4.4-18.1
		c2.8-5.2,7-9.5,12.1-12.5c5.1-2.9,10.9-4.4,17.3-4.4c6.3,0,12,1.5,17.1,4.4c5,2.8,9.2,7.2,12.1,12.5c2.9,5.4,4.4,11.4,4.4,18.1
		c0,6.8-1.5,12.9-4.4,18.1c-2.8,5.2-7,9.5-12.1,12.5l-0.1,0.1C572.6,129,566.8,130.4,560.8,130.4z M560.8,66.9
		c-5.2,0-9.9,1.2-14,3.5c-4,2.4-7.4,5.8-9.6,10c-2.4,4.2-3.5,9.3-3.5,15c0,5.6,1.2,10.6,3.5,15c2.4,4.3,5.7,7.8,9.6,10
		c3.9,2.3,8.7,3.5,14,3.5c5,0,9.5-1.2,13.9-3.5c4.1-2.4,7.4-5.9,9.6-10c2.4-4.2,3.5-9.3,3.5-15c0-5.6-1.2-10.6-3.5-15
		c-2.4-4.3-5.7-7.8-9.6-10C570.6,68,566,66.9,560.8,66.9z"/>
</g>
<g>
	<path class="st4" d="M229.6,187.7h-12.7v11.7h14v3.5h-18.3v-32.5h17.6v3.5h-13.3v10.3h12.7V187.7z"/>
	<path class="st4" d="M237.2,186c0-2.4,0-4.4-0.1-6.3h3.7l0.3,3.8h0.1c1.2-2.2,3.8-4.4,7.7-4.4c3.2,0,8.3,1.9,8.3,9.9v13.9h-4.3
		v-13.4c0-3.7-1.3-6.9-5.5-6.9c-2.8,0-5,1.9-5.8,4.3c-0.1,0.6-0.3,1.2-0.3,1.9v14H237V186H237.2z"/>
	<path class="st4" d="M292.5,202.1c-1.2,0.6-3.5,1.3-6.6,1.3c-7.1,0-11.7-4.7-11.7-12c0-7.2,4.9-12.4,12.6-12.4
		c2.5,0,4.7,0.6,5.9,1.2l-1,3.2c-1-0.6-2.7-1.2-4.9-1.2c-5.3,0-8.3,4-8.3,8.9c0,5.5,3.5,8.7,8.1,8.7c2.4,0,4-0.6,5.2-1.2
		L292.5,202.1z"/>
	<path class="st4" d="M319,191.1c0,8.6-6.1,12.4-11.7,12.4c-6.3,0-11.2-4.6-11.2-12c0-7.8,5.2-12.4,11.5-12.4
		C314.6,179,319,183.9,319,191.1z M300.6,191.3c0,5.2,3,9,7.1,9c4,0,7.1-3.8,7.1-9c0-4-1.9-9-6.9-9S300.6,186.8,300.6,191.3z"/>
	<path class="st4" d="M325.2,168.7h4.3V203h-4.3V168.7z"/>
	<path class="st4" d="M337.5,168.7h4.3V203h-4.3V168.7z"/>
	<path class="st4" d="M362.6,202.9l-0.3-3h-0.1c-1.3,1.8-3.8,3.5-7.1,3.5c-4.7,0-7.1-3.4-7.1-6.6c0-5.6,5-8.7,14-8.7v-0.4
		c0-1.9-0.6-5.5-5.3-5.5c-2.2,0-4.4,0.7-6.1,1.8l-1-2.8c1.9-1.2,4.7-2.1,7.7-2.1c7.1,0,8.9,4.9,8.9,9.6v8.7c0,2.1,0.1,4,0.4,5.6h-4
		V202.9z M362,191c-4.6-0.1-9.9,0.7-9.9,5.3c0,2.8,1.8,4,4,4c3.1,0,5-1.9,5.6-3.8c0.1-0.4,0.3-0.9,0.3-1.3V191z"/>
	<path class="st4" d="M373.5,202.9c0.1-1.6,0.1-4,0.1-6.1v-28.2h4.1v14.6h0.1c1.5-2.7,4.1-4.3,8-4.3c5.8,0,9.9,4.9,9.9,12
		c0,8.4-5.3,12.6-10.5,12.6c-3.4,0-6.1-1.3-7.8-4.4h-0.1l-0.1,3.8L373.5,202.9L373.5,202.9z M377.9,193.6c0,0.6,0.1,1,0.1,1.5
		c0.9,3,3.2,5,6.3,5c4.4,0,7.1-3.7,7.1-9c0-4.7-2.4-8.7-6.9-8.7c-3,0-5.6,1.9-6.5,5.2c-0.1,0.4-0.3,1-0.3,1.8v4.3h0.2L377.9,193.6
		L377.9,193.6z"/>
	<path class="st4" d="M423.1,191.1c0,8.6-6.1,12.4-11.7,12.4c-6.3,0-11.2-4.6-11.2-12c0-7.8,5.2-12.4,11.5-12.4
		C418.5,179,423.1,183.9,423.1,191.1z M404.5,191.3c0,5.2,3,9,7.1,9c4,0,7.1-3.8,7.1-9c0-4-1.9-9-6.9-9S404.5,186.8,404.5,191.3z"/>
	<path class="st4" d="M429.3,186.8c0-2.8,0-5.2-0.1-7.2h3.7l0.1,4.6h0.1c1-3.1,3.7-5.2,6.5-5.2c0.4,0,0.9,0,1.2,0.1v4
		c-0.4-0.1-0.9-0.1-1.5-0.1c-3,0-5.2,2.2-5.8,5.5c-0.1,0.6-0.1,1.2-0.1,1.9v12.4h-4.1L429.3,186.8L429.3,186.8z"/>
	<path class="st4" d="M458.6,202.9l-0.3-3h-0.1c-1.3,1.8-3.8,3.5-7.1,3.5c-4.7,0-7.1-3.4-7.1-6.6c0-5.6,5-8.7,14-8.7v-0.4
		c0-1.9-0.6-5.5-5.3-5.5c-2.2,0-4.4,0.7-6.1,1.8l-1-2.8c1.9-1.2,4.7-2.1,7.7-2.1c7.1,0,8.9,4.9,8.9,9.6v8.7c0,2.1,0.1,4,0.4,5.6h-4
		V202.9z M458,191c-4.6-0.1-9.9,0.7-9.9,5.3c0,2.8,1.8,4,4,4c3.1,0,5-1.9,5.6-3.8c0.1-0.4,0.3-0.9,0.3-1.3V191z"/>
	<path class="st4" d="M474.7,173v6.6h6.1v3.2h-6.1v12.6c0,3,0.9,4.6,3.2,4.6c1.2,0,1.9-0.1,2.5-0.3l0.1,3.2
		c-0.9,0.3-2.1,0.6-3.7,0.6c-1.9,0-3.5-0.6-4.6-1.8c-1.2-1.2-1.6-3.4-1.6-6.1v-12.8H467v-3.2h3.7V174L474.7,173z"/>
	<path class="st4" d="M491,173.1c0,1.5-1,2.7-2.7,2.7c-1.5,0-2.5-1.2-2.5-2.7s1.2-2.7,2.7-2.7C490,170.5,491,171.5,491,173.1z
		 M486.3,202.9v-23.3h4.3v23.3H486.3z"/>
	<path class="st4" d="M519.5,191.1c0,8.6-6.1,12.4-11.7,12.4c-6.3,0-11.2-4.6-11.2-12c0-7.8,5.2-12.4,11.5-12.4
		C515,179,519.5,183.9,519.5,191.1z M500.9,191.3c0,5.2,3,9,7.1,9c4,0,7.1-3.8,7.1-9c0-4-1.9-9-6.9-9S500.9,186.8,500.9,191.3z"/>
	<path class="st4" d="M525.7,186c0-2.4,0-4.4-0.1-6.3h3.7l0.3,3.8h0.1c1.2-2.2,3.8-4.4,7.7-4.4c3.2,0,8.3,1.9,8.3,9.9v13.9h-4.4
		v-13.4c0-3.7-1.3-6.9-5.5-6.9c-2.8,0-5,1.9-5.8,4.3c-0.1,0.6-0.3,1.2-0.3,1.9v14h-4.3V186H525.7z"/>
	<path class="st4" d="M577.3,202.9l-0.3-3h-0.3c-1.3,1.8-3.8,3.5-7.1,3.5c-4.7,0-7.1-3.4-7.1-6.6c0-5.6,5-8.7,14-8.7v-0.4
		c0-1.9-0.6-5.5-5.3-5.5c-2.2,0-4.4,0.7-6.1,1.8l-1-2.8c1.9-1.2,4.7-2.1,7.7-2.1c7.1,0,8.9,4.9,8.9,9.6v8.7c0,2.1,0.1,4,0.4,5.6
		h-3.8L577.3,202.9L577.3,202.9z M576.7,191c-4.6-0.1-9.9,0.7-9.9,5.3c0,2.8,1.8,4,4,4c3.1,0,5-1.9,5.6-3.8c0.1-0.4,0.3-0.9,0.3-1.3
		L576.7,191L576.7,191z"/>
	<path class="st4" d="M589.7,179.6l4.6,13.1c0.7,2.1,1.3,4,1.9,6.1h0.1c0.6-1.9,1.2-3.8,1.9-6.1l4.6-13.1h4.4l-9.2,23.3h-4
		l-8.9-23.3H589.7z"/>
	<path class="st4" d="M613.9,192c0.1,5.8,3.7,8.1,8,8.1c3.1,0,4.9-0.6,6.5-1.2l0.7,3.1c-1.5,0.7-4,1.5-7.8,1.5
		c-7.2,0-11.5-4.7-11.5-11.8s4.1-12.6,10.9-12.6c7.7,0,9.6,6.6,9.6,10.9c0,0.9-0.1,1.5-0.1,1.9h-16.3L613.9,192L613.9,192z
		 M626.3,189.1c0-2.7-1.2-6.9-5.9-6.9c-4.3,0-6.2,4-6.5,6.9H626.3z"/>
	<path class="st4" d="M653.2,202.1c-1.2,0.6-3.5,1.3-6.6,1.3c-7.1,0-11.7-4.7-11.7-12c0-7.2,4.9-12.4,12.6-12.4
		c2.5,0,4.7,0.6,5.9,1.2l-1,3.2c-1-0.6-2.7-1.2-4.9-1.2c-5.3,0-8.3,4-8.3,8.9c0,5.5,3.5,8.7,8.1,8.7c2.4,0,4-0.6,5.2-1.2
		L653.2,202.1z"/>
</g>
<g>
	<path class="st4" d="M764.6,203.4c-3.2,0-6.3,0-9.5,0c0-5.6,0-11.1,0-16.7h-0.1c-0.1,0.3-0.2,0.6-0.3,0.9
		c-1.6,5.1-3.2,10.3-4.7,15.3c-0.1,0.5-0.3,0.5-0.6,0.5c-2.1,0-4.2,0-6.1,0c-0.5,0-0.8-0.2-0.9-0.6c-1.6-5.1-3.2-10.4-4.7-15.5
		c0-0.1-0.1-0.3-0.2-0.5c0,5.5,0,11,0,16.5c-3.2,0-6.4,0-9.6,0c0-9,0-18.1,0-27.2c-4.8,0-9.7,0-14.6,0c0,2.1,0,4.2,0,6.4
		c3.5,0,7.1,0,10.6,0c0,2.7,0,5.5,0,8.3c-3.5,0-7.1,0-10.6,0c0,4.2,0,8.3,0,12.5c-3.5,0-7.1,0-10.7,0c0-9.1,0-18.1,0-27.2
		c-4.8,0-9.6,0-14.4,0c0,2.1,0,4.2,0,6.4c3.5,0,7.1,0,10.6,0c0,2.7,0,5.5,0,8.3c-3.5,0-7.1,0-10.6,0c0,4.2,0,8.3,0,12.5
		c-3.5,0-7.1,0-10.6,0c0-11.9,0-23.7,0-35.6c21,0,42,0,63.1,0c1.9,6.5,3.7,12.8,5.8,19.5c1.9-6.6,3.8-13.1,5.8-19.5
		c4.3,0,8.6,0,12.8,0c0,0.1,0,0.2,0,0.3c0,11.5,0,23.2,0,34.8C764.6,203.1,764.6,203.3,764.6,203.4z"/>
	<path class="st4" d="M798.7,167.8c2.3,0,4.6,0,6.9,0c3.8,0,7.8,0,11.7,0.1c1.9,0,3.7,0.5,5.5,1.1c3,1.1,4.7,3.3,5.1,6.5
		c0.2,1.6,0.2,3.3-0.1,5c-0.5,2.9-2.1,5.1-5.1,6.1c0.3,0.1,0.5,0.3,0.8,0.3c2.9,1,4.3,3.2,4.4,6.1c0.2,3.4,0.1,6.9,0.2,10.4
		c-3.4,0-6.7,0-10.1,0c0-0.3-0.1-0.7-0.1-1c0-2.2,0-4.5-0.1-6.8c0-0.5-0.1-1-0.1-1.4c-0.3-1.9-1.3-2.9-3.3-3.1
		c-1.8-0.2-3.5-0.1-5.4-0.2c0,4.2,0,8.3,0,12.5c-0.2,0-0.3,0-0.5,0c-3.3,0-6.5,0-9.8,0c-0.1,0-0.3,0-0.5,0c0,0,0,0,0-0.1
		s0-0.3,0-0.5c0-11.5,0-23,0-34.5c0-0.2,0-0.3,0-0.5C798.7,167.8,798.7,167.8,798.7,167.8z M809.2,183.1c1.8,0,3.4,0,5.1,0
		c0.6,0,1.2-0.1,1.9-0.3c1-0.3,1.8-0.9,2.1-1.9c0.6-2.3-0.6-4.5-3.1-4.7c-1.9-0.1-3.8,0-5.9,0C809.2,178.4,809.2,180.8,809.2,183.1z
		"/>
	<path class="st5" d="M798.7,203.3C798.7,203.3,798.7,203.4,798.7,203.3c-0.2,0.1-8,0.1-11.8,0.1c-0.5,0-0.6-0.1-0.8-0.5
		c-0.8-1.9-1.6-3.8-2.6-5.8c-0.3-0.6-0.8-1-1.4-1.2c-0.8-0.2-1.6-0.5-2.4-0.8c-1-0.3-1.2-1.2-0.8-1.9c0.5-0.9,1.1-1.9,1.4-2.7
		c0.2-0.5,0.3-1.1-0.1-1.6c-0.1-0.1,0-0.2,0-0.3c0-0.3,0-0.6,0-1c0.1-2.9-3.2-4-5.1-3.1c-0.1,0.1-0.3,0.5-0.3,0.5
		c0,6.1,0,12.2,0,18.3c0,0,0,0.1-0.1,0.2c-3.4,0-6.7,0-10.1,0c0-0.1,0-0.3,0-0.5c0-11.5,0-23.2,0-34.8c0-0.1,0-0.2,0-0.3
		c3.4,0,6.7,0,10.3,0c0,3.7,0,7.2,0,10.9c0,0,0.1,0,0.1,0.1c0.3-0.3,0.5-0.6,0.9-1c2.7-3.2,5.6-6.4,8.3-9.6c0.3-0.3,0.5-0.5,1.1-0.5
		c4.3,0,8.5,0,12.8,0c0.2,0,0.5,0,0.6,0v0.1c-0.1,0.1-0.1,0.1-0.2,0.2c-4.2,5.1-8.3,10.4-12.5,15.5c-0.3,0.3-0.1,0.5,0.1,0.9
		c3,4.5,5.9,9,9,13.5C796.1,199.7,797.3,201.6,798.7,203.3z"/>
</g>
</svg>
