<?xml version="1.0" encoding="utf-8"?>
<!-- Generator: Adobe Illustrator 24.0.0, SVG Export Plug-In . SVG Version: 6.00 Build 0)  -->
<svg version="1.1" id="Calque_1" xmlns="http://www.w3.org/2000/svg" xmlns:xlink="http://www.w3.org/1999/xlink" x="0px" y="0px"
	 viewBox="0 0 329.5 330.8" style="enable-background:new 0 0 329.5 330.8;" xml:space="preserve">
<style type="text/css">
	.st0{fill:url(#SVGID_1_);}
	.st1{fill:url(#SVGID_2_);}
	.st2{fill:url(#SVGID_3_);}
</style>
<g>
	
		<linearGradient id="SVGID_1_" gradientUnits="userSpaceOnUse" x1="213.43" y1="-78.7089" x2="483.8399" y2="-76.4617" gradientTransform="matrix(0 1 1 0 221.1442 -174.0187)">
		<stop  offset="0.2656" style="stop-color:#F2EEF1"/>
		<stop  offset="0.8711" style="stop-color:#C4CBD1"/>
	</linearGradient>
	<path class="st0" d="M83.2,208.6c-0.1-4.4-0.4-8.6-0.9-12.5l0,0c0-0.1-0.7-6.9-0.7-11.9c0-51.3,35.9-94.5,84.7-107.1
		c0.4-0.1,0.7-0.2,1.1-0.3c28.6-8.1,59.5-13.2,92.9-14.2c-26.3-29.6-59-49.9-91.7-50.5C110,11,50,73.5,25.6,140.1
		c9.5,13.2,20.3,27.1,32.5,41.3C66.6,191.1,75,200.2,83.2,208.6z"/>
	
		<linearGradient id="SVGID_2_" gradientUnits="userSpaceOnUse" x1="248.004" y1="21.8343" x2="438.2647" y2="27.8268" gradientTransform="matrix(0 1 1 0 221.1442 -174.0187)">
		<stop  offset="0.2656" style="stop-color:#F2EEF1"/>
		<stop  offset="0.8711" style="stop-color:#C4CBD1"/>
	</linearGradient>
	<path class="st1" d="M230.3,72.8c-21.9,2.3-41.2,6.6-57.3,11.4c7.3,2.5,17.3,6.7,27.8,14c3.8,2.7,34.8,25,45.3,64.3
		c9.7,36.6-3.3,69.4-23,119.2c-5.3,13.3-10.4,24.2-14.2,31.8c40.1-7.5,75.7-25.8,93.9-55.3c32-51.8,7.2-133.3-38.3-187.2
		C254,71,242.6,71.5,230.3,72.8z"/>
	
		<linearGradient id="SVGID_3_" gradientUnits="userSpaceOnUse" x1="319.1087" y1="-96.7184" x2="464.4259" y2="-98.9656" gradientTransform="matrix(0 1 1 0 221.1442 -174.0187)">
		<stop  offset="0.2656" style="stop-color:#F2EEF1"/>
		<stop  offset="0.8711" style="stop-color:#C4CBD1"/>
	</linearGradient>
	<path class="st2" d="M199.1,315.5c17.6-37.3,30.6-77,35.5-92.5c-19.8,17.8-45.8,28.6-74.3,28.6c0,0-13.7,0-27.4-3.4
		C92,238,56.7,193.9,39.5,172.4c-8.1-10.2-14.2-18.8-17.6-23.7c-13,39.5-14.1,79.9,3.3,109.8C53.9,307.4,132.1,327.1,199.1,315.5z"
		/>
</g>
</svg>
