<?xml version="1.0" encoding="utf-8"?>
<!-- Generator: Adobe Illustrator 24.0.0, SVG Export Plug-In . SVG Version: 6.00 Build 0)  -->
<svg version="1.1" id="Calque_1" xmlns="http://www.w3.org/2000/svg" xmlns:xlink="http://www.w3.org/1999/xlink" x="0px" y="0px"
	 viewBox="0 0 386 101.4" style="enable-background:new 0 0 386 101.4;" xml:space="preserve">
<style type="text/css">
	.st0{fill:#FFFFFF;}
	.st1{opacity:0.52;fill:#FFFFFF;enable-background:new    ;}
</style>
<g>
	<path class="st0" d="M223.3,95.2c-7.9,0-15.6,0-23.5,0c0-13.8,0-27.4,0-41.3h-0.2c-0.2,0.7-0.5,1.5-0.7,2.2
		c-4,12.6-7.9,25.5-11.6,37.8c-0.2,1.2-0.7,1.2-1.5,1.2c-5.2,0-10.4,0-15.1,0c-1.2,0-2-0.5-2.2-1.5c-4-12.6-7.9-25.7-11.6-38.3
		c0-0.2-0.2-0.7-0.5-1.2c0,13.6,0,27.2,0,40.8c-7.9,0-15.8,0-23.7,0c0-22.2,0-44.7,0-67.2c-11.9,0-24,0-36.1,0c0,5.2,0,10.4,0,15.8
		c8.6,0,17.5,0,26.2,0c0,6.7,0,13.6,0,20.5c-8.6,0-17.5,0-26.2,0c0,10.4,0,20.5,0,30.9c-8.6,0-17.5,0-26.4,0c0-22.5,0-44.7,0-67.2
		c-11.9,0-23.7,0-35.6,0c0,5.2,0,10.4,0,15.8c8.6,0,17.5,0,26.2,0c0,6.7,0,13.6,0,20.5c-8.6,0-17.5,0-26.2,0c0,10.4,0,20.5,0,30.9
		c-8.6,0-17.5,0-26.2,0c0-29.4,0-58.6,0-88c51.9,0,103.8,0,155.9,0c4.7,16.1,9.1,31.6,14.3,48.2c4.7-16.3,9.4-32.4,14.3-48.2
		c10.6,0,21.3,0,31.6,0c0,0.2,0,0.5,0,0.7c0,28.4,0,57.3,0,86C223.3,94.5,223.3,95,223.3,95.2z"/>
	<path class="st0" d="M307.5,6.7c5.7,0,11.4,0,17.1,0c9.4,0,19.3,0,29,0.2c4.7,0,9.2,1.2,13.6,2.7c7.4,2.7,11.6,8.2,12.6,16.1
		c0.5,4,0.5,8.2-0.2,12.4c-1.2,7.2-5.2,12.6-12.6,15.1c0.7,0.2,1.2,0.7,2,0.7c7.2,2.5,10.6,7.9,10.9,15.1c0.5,8.4,0.2,17.1,0.5,25.7
		c-8.4,0-16.6,0-25,0c0-0.7-0.2-1.7-0.2-2.5c0-5.4,0-11.1-0.2-16.8c0-1.2-0.2-2.5-0.2-3.5c-0.7-4.7-3.2-7.2-8.2-7.7
		c-4.5-0.5-8.7-0.2-13.4-0.5c0,10.4,0,20.5,0,30.9c-0.5,0-0.7,0-1.2,0c-8.2,0-16.1,0-24.3,0c-0.2,0-0.7,0-1.2,0c0,0,0,0,0-0.2
		s0-0.7,0-1.2c0-28.5,0-56.9,0-85.4c0-0.5,0-0.7,0-1.2C307.5,6.7,307.5,6.7,307.5,6.7z M333.5,44.6c4.5,0,8.4,0,12.6,0
		c1.5,0,3-0.2,4.7-0.7c2.5-0.7,4.5-2.2,5.2-4.7c1.5-5.7-1.5-11.1-7.7-11.6c-4.7-0.2-9.4,0-14.6,0C333.5,33,333.5,38.9,333.5,44.6z"
		/>
	<path class="st1" d="M307.7,94.7C307.7,94.7,307.7,95,307.7,94.7c-0.5,0.2-19.8,0.2-29.2,0.2c-1.2,0-1.5-0.2-2-1.2
		c-2-4.7-4-9.4-6.4-14.4c-0.7-1.5-2-2.5-3.5-3c-2-0.5-4-1.2-5.9-2c-2.5-0.7-3-3-2-4.7c1.2-2.2,2.7-4.7,3.5-6.7
		c0.5-1.2,0.7-2.7-0.2-4c-0.2-0.2,0-0.5,0-0.7c0-0.7,0-1.5,0-2.5c0.2-7.2-7.9-9.9-12.6-7.7c-0.2,0.2-0.7,1.2-0.7,1.2
		c0,15.1,0,30.2,0,45.3c0,0,0,0.2-0.2,0.5c-8.4,0-16.6,0-25,0c0-0.2,0-0.7,0-1.2c0-28.5,0-57.5,0-86.2c0-0.2,0-0.5,0-0.7
		c8.4,0,16.6,0,25.5,0c0,9.2,0,17.8,0,27c0,0,0.2,0,0.2,0.2c0.7-0.7,1.2-1.5,2.2-2.5c6.7-7.9,13.8-15.9,20.5-23.8
		c0.7-0.7,1.2-1.2,2.7-1.2c10.6,0,21,0,31.6,0c0.5,0,1.2,0,1.5,0V7c-0.2,0.2-0.2,0.2-0.5,0.5c-10.4,12.6-20.5,25.8-30.9,38.4
		c-0.7,0.7-0.2,1.2,0.2,2.2c7.4,11.2,14.6,22.3,22.2,33.5C301.3,85.8,304.3,90.5,307.7,94.7z"/>
</g>
</svg>
