<?xml version="1.0" encoding="utf-8"?>
<!-- Generator: Adobe Illustrator 24.0.0, SVG Export Plug-In . SVG Version: 6.00 Build 0)  -->
<svg version="1.1" id="Calque_1" xmlns="http://www.w3.org/2000/svg" xmlns:xlink="http://www.w3.org/1999/xlink" x="0px" y="0px"
	 viewBox="0 0 386 101.4" style="enable-background:new 0 0 386 101.4;" xml:space="preserve">
<style type="text/css">
	.st0{fill:#DDDAD2;}
	.st1{fill:#E8E6E3;}
</style>
<g>
	<path class="st0" d="M223.7,95c-7.9,0-15.6,0-23.5,0c0-13.9,0-27.5,0-41.3H200c-0.2,0.7-0.5,1.5-0.7,2.2
		c-4,12.6-7.9,25.5-11.6,37.9c-0.2,1.2-0.7,1.2-1.5,1.2c-5.2,0-10.4,0-15.1,0c-1.2,0-2-0.5-2.2-1.5c-4-12.6-7.9-25.7-11.6-38.4
		c0-0.2-0.2-0.7-0.5-1.2c0,13.6,0,27.2,0,40.8c-7.9,0-15.8,0-23.8,0c0-22.3,0-44.8,0-67.3c-11.9,0-24,0-36.1,0c0,5.2,0,10.4,0,15.8
		c8.7,0,17.6,0,26.2,0c0,6.7,0,13.6,0,20.5c-8.7,0-17.6,0-26.2,0c0,10.4,0,20.5,0,30.9c-8.7,0-17.6,0-26.5,0c0-22.5,0-44.8,0-67.3
		c-11.9,0-23.8,0-35.6,0c0,5.2,0,10.4,0,15.8c8.7,0,17.6,0,26.2,0c0,6.7,0,13.6,0,20.5c-8.7,0-17.6,0-26.2,0c0,10.4,0,20.5,0,30.9
		c-8.7,0-17.6,0-26.2,0c0-29.5,0-58.7,0-88.1c52,0,103.9,0,156.2,0c4.7,16.1,9.2,31.7,14.4,48.3c4.7-16.3,9.4-32.4,14.4-48.3
		c10.6,0,21.3,0,31.7,0c0,0.2,0,0.5,0,0.7c0,28.5,0,57.4,0,86.1C223.7,94.2,223.7,94.7,223.7,95z"/>
	<path class="st0" d="M308.1,6.8c5.7,0,11.4,0,17.1,0c9.4,0,19.3,0,29,0.2c4.7,0,9.2,1.2,13.6,2.7c7.4,2.7,11.6,8.2,12.6,16.1
		c0.5,4,0.5,8.2-0.2,12.4c-1.2,7.2-5.2,12.6-12.6,15.1c0.7,0.2,1.2,0.7,2,0.7c7.2,2.5,10.6,7.9,10.9,15.1c0.5,8.4,0.2,17.1,0.5,25.7
		c-8.4,0-16.6,0-25,0c0-0.7-0.2-1.7-0.2-2.5c0-5.4,0-11.1-0.2-16.8c0-1.2-0.2-2.5-0.2-3.5c-0.7-4.7-3.2-7.2-8.2-7.7
		c-4.5-0.5-8.7-0.2-13.4-0.5c0,10.4,0,20.5,0,30.9c-0.5,0-0.7,0-1.2,0c-8.2,0-16.1,0-24.3,0c-0.2,0-0.7,0-1.2,0c0,0,0,0,0-0.2
		c0-0.2,0-0.7,0-1.2c0-28.5,0-56.9,0-85.4c0-0.5,0-0.7,0-1.2C308.1,6.8,308.1,6.8,308.1,6.8z M334.1,44.7c4.5,0,8.4,0,12.6,0
		c1.5,0,3-0.2,4.7-0.7c2.5-0.7,4.5-2.2,5.2-4.7c1.5-5.7-1.5-11.1-7.7-11.6c-4.7-0.2-9.4,0-14.6,0C334.1,33.1,334.1,39,334.1,44.7z"
		/>
	<path class="st1" d="M308.1,94.7C308.1,94.7,308.1,95,308.1,94.7c-0.5,0.2-19.8,0.2-29.2,0.2c-1.2,0-1.5-0.2-2-1.2
		c-2-4.7-4-9.4-6.4-14.4c-0.7-1.5-2-2.5-3.5-3c-2-0.5-4-1.2-5.9-2c-2.5-0.7-3-3-2-4.7c1.2-2.2,2.7-4.7,3.5-6.7
		c0.5-1.2,0.7-2.7-0.2-4c-0.2-0.2,0-0.5,0-0.7c0-0.7,0-1.5,0-2.5c0.2-7.2-7.9-9.9-12.6-7.7c-0.2,0.2-0.7,1.2-0.7,1.2
		c0,15.1,0,30.2,0,45.3c0,0,0,0.2-0.2,0.5c-8.4,0-16.6,0-25,0c0-0.2,0-0.7,0-1.2c0-28.5,0-57.4,0-86.1c0-0.2,0-0.5,0-0.7
		c8.4,0,16.6,0,25.5,0c0,9.2,0,17.8,0,27c0,0,0.2,0,0.2,0.2c0.7-0.7,1.2-1.5,2.2-2.5c6.7-7.9,13.9-15.8,20.5-23.8
		c0.7-0.7,1.2-1.2,2.7-1.2c10.6,0,21,0,31.7,0c0.5,0,1.2,0,1.5,0v0.2c-0.2,0.2-0.2,0.2-0.5,0.5c-10.4,12.6-20.5,25.7-30.9,38.4
		c-0.7,0.7-0.2,1.2,0.2,2.2c7.4,11.1,14.6,22.3,22.3,33.4C301.7,85.8,304.6,90.5,308.1,94.7z"/>
</g>
</svg>
