<?xml version="1.0" encoding="utf-8"?>
<!-- Generator: Adobe Illustrator 24.0.0, SVG Export Plug-In . SVG Version: 6.00 Build 0)  -->
<svg version="1.1" id="Calque_1" xmlns="http://www.w3.org/2000/svg" xmlns:xlink="http://www.w3.org/1999/xlink" x="0px" y="0px"
	 viewBox="0 0 20 15" style="enable-background:new 0 0 20 15;" xml:space="preserve">
<style type="text/css">
	.st0{fill:#FECB49;}
	.st1{fill:#F18A6A;}
</style>
<path class="st0" d="M19.2,1.9c0.2-1.4-5.9-2.5-6.1-1.1S13,3.1,12.5,4.7c-0.7,2.6-3.7,3.9-6.6,3.9H5c-0.4,0-0.7,0.2-0.8,0.6
	c-0.6,0-0.9,0.3-0.9,0.7c-0.3,0-0.9,0.3-0.9,1c0,0-1.4-0.1-1.4,1.4l0,0c-1.2,0.3-0.8,2.3,0.5,2.5c1.3,0.2,1.3-0.2,2.4-0.2
	c1.1,0,1.2,0.2,2.6,0.2c2.7,0,2.6-0.5,5.2-0.9c2.8-0.4,3.5,0.6,5.2,0.6c1.7,0,2.9-1.3,2.9-3c0-2.8-1.1-2.8-1.1-5.1S19,3.3,19.2,1.9z
	"/>
<path class="st1" d="M15.5,8.7c-0.1,0-0.3-0.1-0.3-0.3c0-0.2,0.1-0.3,0.3-0.3c0.5,0,0.9-0.4,1-0.7c0.3-0.5,0.4-1.1,0.2-1.6
	c-0.1-0.1,0-0.3,0.1-0.4c0.1-0.1,0.3,0,0.4,0.1c0.3,0.6,0.2,1.4-0.2,2.1C16.6,8.3,16.1,8.6,15.5,8.7C15.5,8.7,15.5,8.7,15.5,8.7z
	 M3.8,11.4H2.3c-0.5,0-1.1,0.3-1.1,0.7c0,0,0.3-0.1,1-0.1l1.5,0c0.2,0,0.3-0.1,0.3-0.3C4.1,11.6,4,11.4,3.8,11.4z M4.3,10.4h-1
	c-0.3,0-0.6,0.2-0.7,0.5h1.6c0.1,0,0.2-0.1,0.2-0.2C4.5,10.5,4.4,10.4,4.3,10.4z M4.8,9.6H4c-0.2,0-0.4,0.1-0.4,0.3h1.2
	c0.1,0,0.2-0.1,0.2-0.2C4.9,9.7,4.9,9.6,4.8,9.6z M5.2,9H4.8C4.6,9,4.5,9.1,4.5,9.2h0.7C5.2,9.2,5.3,9.2,5.2,9C5.3,9.1,5.2,9,5.2,9z
	"/>
</svg>
