<?xml version="1.0" encoding="utf-8"?>
<!-- Generator: Adobe Illustrator 24.0.0, SVG Export Plug-In . SVG Version: 6.00 Build 0)  -->
<svg version="1.1" id="Calque_1" xmlns="http://www.w3.org/2000/svg" xmlns:xlink="http://www.w3.org/1999/xlink" x="0px" y="0px"
	 viewBox="0 0 22.9 22.6" style="enable-background:new 0 0 22.9 22.6;" xml:space="preserve">
<style type="text/css">
	.st0{fill:#FFCB46;}
	.st1{fill:#FB8B68;}
</style>
<path class="st0" d="M17.9,3h-1.3c-1,0-1.9-0.9-1.9-2c0-0.4-0.3-0.6-0.6-0.6H8.9C8.5,0.3,8.2,0.6,8.2,1c0,1.1-0.9,2-1.9,2H5
	C2.5,3,0.5,5,0.5,7.5v6.4c0,0.4,0.3,0.6,0.6,0.6h3.3v7.1c0,0.4,0.3,0.6,0.6,0.6h5.8l0.6-1.7l0.6,1.7h5.8c0.4,0,0.6-0.3,0.6-0.6v-7.1
	h3.3c0.4,0,0.6-0.3,0.6-0.6V7.5C22.4,5,20.4,3,17.9,3z"/>
<path class="st1" d="M12.1,7.5v14.8h-1.3V7.5c0-0.4,0.3-0.6,0.6-0.6S12.1,7.1,12.1,7.5z"/>
</svg>
