<?xml version="1.0" encoding="utf-8"?>
<!-- Generator: Adobe Illustrator 24.0.0, SVG Export Plug-In . SVG Version: 6.00 Build 0)  -->
<svg version="1.1" id="Calque_1" xmlns="http://www.w3.org/2000/svg" xmlns:xlink="http://www.w3.org/1999/xlink" x="0px" y="0px"
	 viewBox="0 0 22.9 22.6" style="enable-background:new 0 0 22.9 22.6;" xml:space="preserve">
<style type="text/css">
	.st0{fill:#FFCB46;}
	.st1{fill:#FB8B68;}
</style>
<path class="st0" d="M22.2,7.1c-2.1-2.1-4-3.9-9.2-4c-0.5-0.5-1-0.9-1.5-1.3c-1.4-0.9-2.8-1.4-4.2-1.4h0c-2.6,0-4.8,1.4-6,1.4
	c-0.4,0-0.6,0.3-0.6,0.6v10.8l0.7,0.6l-0.7,0.7v2.6l0.6,0.7l-0.6,0.5v3.2c0,0.4,0.3,0.6,0.6,0.6h6.4c0.4,0,0.6-0.3,0.6-0.6
	c0-1.4,0.5-2.2,1.3-3.2c0.6-0.9,1.4-1.9,1.9-3.5c0.3-1,0.5-2.2,0.6-3.7c3,1.5,5,2.2,9.6,2.2c0.4,0,0.6-0.3,0.6-0.6V7.5
	C22.3,7.3,22.3,7.2,22.2,7.1z"/>
<path class="st1" d="M9.5,8.8v0.7c0,1.3-0.5,2.6-1.5,3.5c-0.9,0.9-2.2,1.5-3.5,1.5h-4v-1.3h4c1,0,1.9-0.4,2.6-1.1
	c0.7-0.7,1.1-1.6,1.1-2.6V8.8c0-0.4,0.3-0.6,0.6-0.6C9.2,8.2,9.5,8.4,9.5,8.8z"/>
<path class="st1" d="M4.4,17.7c0,0.4-0.3,0.6-0.6,0.6H0.6v-1.3h3.2C4.1,17.1,4.4,17.4,4.4,17.7z"/>
</svg>
