<?xml version="1.0" encoding="utf-8"?>
<!-- Generator: Adobe Illustrator 24.0.0, SVG Export Plug-In . SVG Version: 6.00 Build 0)  -->
<svg version="1.1" id="Calque_1" xmlns="http://www.w3.org/2000/svg" xmlns:xlink="http://www.w3.org/1999/xlink" x="0px" y="0px"
	 viewBox="0 0 10.5 15.3" style="enable-background:new 0 0 10.5 15.3;" xml:space="preserve">
<style type="text/css">
	.st0{fill:#FECB49;}
	.st1{fill:#F18A6A;}
</style>
<path class="st0" d="M8.7,0.5C10.3,1,10.8,4,9.2,4.8C8.5,5.1,7.5,5.4,6.6,5.2c-1.2-0.3-2-0.1-2-0.1s2,0.9,2.7,2.7s0.5,3,1.4,3.9
	c0.7,0.7,1.2,1.6,0.7,2.1c-0.6,0.7-1.7,0-2.6,1c-0.6,0.7-2,0.5-3,0.1c-1.2-0.6,0.3-0.9,0.8-1c0.5,0,2.2-1,1.4-2.3
	C4.2,8.7,2.3,7.1,1.2,6.2C0.1,5.5,0,4,1.1,2.7c0.7-0.8,2.2-1.5,3.9-2C6.2,0.4,7.5,0,8.7,0.5z"/>
<path class="st1" d="M1.8,5.6L1.8,5.6C1.6,5.6,1.5,5.4,1.6,5.2c0.5-0.9,0.2-1.7,0.2-1.7C1.7,3.3,1.8,3.1,2,3.1
	c0.2-0.1,0.4,0,0.4,0.2c0,0,0.4,1.1-0.2,2.3C2.1,5.7,1.9,5.7,1.8,5.6z"/>
</svg>
