<?xml version="1.0" encoding="utf-8"?>
<!-- Generator: Adobe Illustrator 24.0.0, SVG Export Plug-In . SVG Version: 6.00 Build 0)  -->
<svg version="1.1" id="Calque_1" xmlns="http://www.w3.org/2000/svg" xmlns:xlink="http://www.w3.org/1999/xlink" x="0px" y="0px"
	 viewBox="0 0 15.1 22.6" style="enable-background:new 0 0 15.1 22.6;" xml:space="preserve">
<style type="text/css">
	.st0{fill:#FFCB46;}
	.st1{fill:#FB8B68;}
</style>
<path class="st0" d="M12.7,0.6c2.2,0.8,3,5.3,0.6,6.4c-1,0.4-2.5,0.9-3.8,0.6C7.8,7.2,6.6,7.5,6.6,7.5s3,1.4,3.9,3.9
	c1,2.6,0.7,4.4,2,5.7c1.1,1,1.7,2.3,1,3.1c-1,1.1-2.4,0-3.8,1.5c-0.9,1.1-3,0.7-4.4,0.1c-1.8-0.8,0.5-1.4,1.1-1.4
	c0.7-0.1,3.3-1.4,2.1-3.4c-2.6-4.2-5.2-6.5-7-7.8C0,8-0.2,5.8,1.5,3.9c1-1.2,3.2-2.2,5.7-2.9C8.9,0.4,10.9,0,12.7,0.6z"/>
<path class="st1" d="M2.4,8.2L2.4,8.2C2.2,8.1,2.1,7.8,2.2,7.5C2.9,6.2,2.5,5.1,2.5,5c-0.1-0.2,0-0.5,0.3-0.6c0.2-0.1,0.5,0,0.6,0.3
	C3.4,4.7,4,6.2,3.1,8C3,8.2,2.7,8.3,2.4,8.2z"/>
</svg>
