<?xml version="1.0" encoding="utf-8"?>
<!-- Generator: Adobe Illustrator 24.0.0, SVG Export Plug-In . SVG Version: 6.00 Build 0)  -->
<svg version="1.1" id="Calque_1" xmlns="http://www.w3.org/2000/svg" xmlns:xlink="http://www.w3.org/1999/xlink" x="0px" y="0px"
	 viewBox="0 0 22 25.1" style="enable-background:new 0 0 22 25.1;" xml:space="preserve">
<style type="text/css">
	.st0{fill:#FFCB46;}
	.st1{fill:#FB8B68;}
</style>
<path class="st0" d="M20.8,11.9c-0.8-0.4-2.3,0.1-3.3,1.5c-0.6,0.8-0.7,2-1.7,2.1c-0.3,0-0.4-0.1-0.5-0.4c-0.1-0.4-0.1-1.3,0.1-2.1
	l1.9-8.2c0.1-0.5-0.2-1.3-1.1-1.4c-0.8-0.2-1.5,0.2-1.7,0.8l-1.7,7.4c-0.3,1.7-1.1,1.4-0.7-0.5l0,0l0.4-8.8c0-0.6-0.4-1.3-1.3-1.4
	c-0.7,0-1.4,0.4-1.4,1.2l-0.4,8.9c-0.1,1.8-0.8,1.1-1-0.2l-1-7.2c0-0.6-0.6-1.2-1.5-1.1c-0.7,0.2-1.3,0.9-1,1.6L6,10.8
	c0.4,2.4-0.1,3.3-1.1,0.4L3.7,7.3C3.5,6.5,2.9,6.2,2,6.4C1.3,6.6,0.9,7.4,1,8l1.2,3.8c0.4,2.7,0.4,3.8,0.4,5.6s0.8,7.7,7.6,7.7
	s8.2-6.6,8.2-7.1c0,0,0.1-1.1,0.7-1.9c1.1-1.4,1.7-2,2.1-2.6C21.6,13.2,21.8,12.4,20.8,11.9z"/>
<path class="st1" d="M15.7,15.5c-0.2-0.1-0.3-0.3-0.4-0.7c-1.4,0.2-3.1,0.5-4.4,1.8c-1.8,1.6-2,3.4-2,4.7c0,1.1,0.5,1.5,0.6,0
	C9.7,19.5,11.1,15.9,15.7,15.5z"/>
</svg>
