<?xml version="1.0" encoding="utf-8"?>
<!-- Generator: Adobe Illustrator 24.0.0, SVG Export Plug-In . SVG Version: 6.00 Build 0)  -->
<svg version="1.1" id="Calque_1" xmlns="http://www.w3.org/2000/svg" xmlns:xlink="http://www.w3.org/1999/xlink" x="0px" y="0px"
	 viewBox="0 0 19.1 22.6" style="enable-background:new 0 0 19.1 22.6;" xml:space="preserve">
<style type="text/css">
	.st0{fill:#FFCB46;}
	.st1{fill:#FB8B68;}
</style>
<path class="st0" d="M18,10.2c-0.8-0.4-2.1,0.1-2.9,1.3c-0.6,0.8-0.7,1.9-1.5,2c-0.3,0-0.4-0.1-0.5-0.4c-0.1-0.4-0.1-1.1,0.1-2
	l1.7-7.5C15,3.1,14.7,2.5,14,2.4c-0.8-0.2-1.3,0.2-1.5,0.8L11,10c-0.3,1.5-0.9,1.2-0.7-0.5v0l0.4-8c0-0.6-0.4-1.1-1.1-1.2
	c-0.7,0-1.2,0.4-1.2,1L7.9,9.5c-0.1,1.7-0.7,1-0.8-0.2l-1-6.6C6.1,2.1,5.5,1.7,4.8,1.8c-0.7,0.1-1.1,0.7-1,1.3l0.9,6.1
	c0.4,2.3-0.1,3-0.9,0.4l-1-3.7C2.6,5.3,2.1,5,1.3,5.2C0.6,5.4,0.3,6,0.4,6.6l1,3.5c0.4,2.5,0.4,3.5,0.4,5.2s0.8,7,6.8,7
	c6,0,7.3-6.1,7.3-6.5c0,0,0.1-0.9,0.7-1.8c0.9-1.2,1.5-1.9,1.9-2.4C18.8,11.4,19,10.6,18,10.2z"/>
<path class="st1" d="M13.5,13.5c-0.2-0.1-0.3-0.3-0.4-0.7c-1.2,0.2-2.7,0.5-3.9,1.7c-1.6,1.5-1.8,3.2-1.8,4.3c0,0.9,0.5,1.3,0.6,0
	C8.2,17.1,9.4,13.8,13.5,13.5z"/>
</svg>
