<?xml version="1.0" encoding="utf-8"?>
<!-- Generator: Adobe Illustrator 24.0.0, SVG Export Plug-In . SVG Version: 6.00 Build 0)  -->
<svg version="1.1" id="Calque_1" xmlns="http://www.w3.org/2000/svg" xmlns:xlink="http://www.w3.org/1999/xlink" x="0px" y="0px"
	 viewBox="0 0 28.5 21.7" style="enable-background:new 0 0 28.5 21.7;" xml:space="preserve">
<style type="text/css">
	.st0{fill:#FFCB46;}
	.st1{fill:#FB8B68;}
</style>
<path class="st0" d="M27.3,2.9c0.3-2-8.5-3.5-8.6-1.6c-0.2,1.9-0.2,3.2-0.8,5.5c-1,3.7-5.2,5.6-9.4,5.6H7.1c-0.5,0-0.9,0.3-1.1,0.8
	c-0.8,0-1.3,0.5-1.3,1c-0.4,0-1.3,0.4-1.3,1.4c0,0-2-0.1-2,2l0,0c-1.7,0.5-1.2,3.3,0.7,3.5C4,21.4,4,20.9,5.6,20.9
	c1.5,0,1.8,0.3,3.6,0.3c3.9,0,3.8-0.8,7.4-1.3c4-0.6,5,0.9,7.4,0.9s4.1-1.9,4.1-4.3c0-4-1.6-4-1.6-7.2S27,4.9,27.3,2.9z"/>
<path class="st1" d="M22,12.5c-0.2,0-0.4-0.2-0.4-0.4s0.1-0.4,0.4-0.4c0.8-0.1,1.2-0.5,1.5-0.9c0.4-0.7,0.5-1.6,0.3-2.2
	c-0.1-0.2,0-0.4,0.2-0.5s0.4,0,0.5,0.2c0.4,0.8,0.2,2.1-0.3,3C23.6,12,22.9,12.5,22,12.5L22,12.5z M5.4,16.5H3.3
	c-0.6,0-1.5,0.4-1.5,1c0,0,0.5-0.2,1.5-0.2h2.1c0.2,0,0.4-0.2,0.4-0.4C5.8,16.7,5.7,16.5,5.4,16.5z M6.1,15H4.7
	c-0.4,0-0.8,0.3-0.9,0.7h2.3c0.2,0,0.3-0.2,0.3-0.3C6.5,15.2,6.3,15,6.1,15z M6.8,13.9H5.7c-0.3,0-0.5,0.2-0.6,0.4h1.7
	c0.1,0,0.2-0.1,0.2-0.2S6.9,13.9,6.8,13.9z M7.4,13H6.8c-0.2,0-0.3,0.1-0.4,0.3h1c0.1,0,0.1-0.1,0.1-0.1C7.5,13.1,7.5,13,7.4,13z"/>
</svg>
