<?xml version="1.0" encoding="utf-8"?>
<!-- Generator: Adobe Illustrator 24.0.0, SVG Export Plug-In . SVG Version: 6.00 Build 0)  -->
<svg version="1.1" id="Calque_1" xmlns="http://www.w3.org/2000/svg" xmlns:xlink="http://www.w3.org/1999/xlink" x="0px" y="0px"
	 viewBox="0 0 22.9 22.6" style="enable-background:new 0 0 22.9 22.6;" xml:space="preserve">
<style type="text/css">
	.st0{fill:none;stroke:#FB8B68;stroke-width:0.4;}
	.st1{fill-rule:evenodd;clip-rule:evenodd;fill:#FFCB46;}
	.st2{fill:#FB8B68;}
</style>
<path class="st0" d="M7.1,16.8"/>
<g>
	<path class="st1" d="M20.1,3.3c0.6-0.9,0.9-1.8,1-2.1c0-0.1,0-0.2-0.2-0.2H2C1.9,1,1.8,1.1,1.8,1.2C2,1.7,2.3,2.5,2.9,3.3l0,0
		C3.2,4.2,3.2,5.2,3.3,6c0,0.5,0.1,0.8,0.1,1.1C3.6,7.8,3.7,8.5,4,9.1c0.3,0.7,0.5,1.2,0.7,1.9c0.3,1.3-0.4,6-1,7.1
		c-0.7,1.3-0.9,2.5-1,3.4c0,0.1,0.1,0.2,0.2,0.2h17.4c0.1,0,0.2-0.1,0.2-0.2c-0.1-0.8-0.4-2.1-1-3.4c-0.6-1.1-1.2-5.8-1-7.1
		c0.1-0.7,0.4-1.3,0.7-1.9c0.3-0.7,0.6-1.3,0.7-2c0.1-0.3,0.1-0.7,0.1-1.1C19.7,5.2,19.8,4.3,20.1,3.3L20.1,3.3z"/>
	<path class="st2" d="M11.5,6.7c-0.4,0-0.7,0.3-0.7,0.6v2.4C10.6,9.8,10,10,9.3,10.2c-0.4,0.1-0.7,0.2-0.9,0.2s-0.5,0.1-0.7,0
		c0,0-0.2-0.1-0.5-0.3c0-0.2-0.3-0.6-0.5-0.9S6.4,8.4,6.4,8.2c0-0.2-0.1-0.3-0.1-0.4c-0.1-0.2,0,0-0.1-0.2l0,0l0,0
		C6.1,7.5,6,7.5,5.9,7.4c-0.1,0-0.2-0.1-0.3-0.1l0,0l0,0c-0.1,0-0.1,0-0.2,0l0,0l0,0l0,0H5.3l0,0l0,0C5,7.6,5,7.9,5,8.1l0,0
		c0,0,0.3,0.7,0.7,1.6c0.3,0.6,0.6,1,0.9,1.3c0.4,0.4,0.7,0.6,1,0.6c0.5,0.1,1,0,1.9-0.2c0.5-0.1,0.9-0.3,1.3-0.4v2.9
		c-0.3,0.1-0.7,0.3-1.1,0.5c-0.3,0.1-0.5,0.2-0.7,0.2c-0.3,0-0.4,0-0.5,0c0,0,0,0-0.1,0c0,0-0.1-0.1-0.2-0.2c0-0.1-0.1-0.3-0.3-0.6
		c-0.3-0.6-0.6-1.2-0.7-1.9c-0.1-0.3-0.4-0.5-0.7-0.4c-0.3,0.1-0.5,0.5-0.4,0.7l0.1-0.1l0,0l-0.2,0.1c0,0,0.1,0.3,0.2,0.7l0,0
		c0.1,0.3,0.2,0.6,0.3,0.8c0.3,0.7,0.7,1.3,0.9,1.6c0.3,0.3,0.6,0.4,0.7,0.4c0.4,0.1,0.8,0,1.5-0.2c0.4-0.1,0.7-0.3,0.9-0.4v2.9
		c-0.3,0.2-0.7,0.4-0.9,0.5c-0.2,0.1-0.4,0.1-0.6,0.2c-0.2,0-0.3,0-0.3,0s-0.1,0-0.2-0.2c-0.1-0.1-0.2-0.3-0.3-0.5
		c-0.2-0.4-0.5-0.9-0.6-1.4c-0.1-0.2-0.2-0.3-0.3-0.4c-0.2-0.1-0.3-0.1-0.5,0c-0.2,0.1-0.3,0.2-0.4,0.3c-0.1,0.2-0.1,0.3,0,0.5l0,0
		l0,0l0,0l0,0c0,0.1,0.2,0.7,0.5,1.2c0.2,0.5,0.5,0.8,0.7,1.1l0,0c0.3,0.3,0.5,0.5,0.7,0.6c0.1,0,0.2,0,0.4,0c0.1,0,0.3,0,0.4,0
		c0.2,0,0.5-0.1,0.7-0.2c0.5-0.2,0.9-0.4,1.2-0.6c0.3,0.2,0.7,0.4,1.2,0.6c0.3,0.1,0.6,0.2,0.7,0.2c0.2,0,0.3,0,0.4,0
		c0.1,0,0.3,0,0.4,0c0.3-0.1,0.6-0.3,0.7-0.6l0,0c0.2-0.3,0.5-0.7,0.7-1.1c0.3-0.6,0.5-1.2,0.5-1.2l0,0l0,0l0,0l0,0
		c0-0.2,0-0.3,0-0.5c-0.1-0.2-0.2-0.3-0.4-0.3c-0.2-0.1-0.3,0-0.5,0c-0.2,0.1-0.3,0.2-0.3,0.4c-0.2,0.5-0.4,1-0.6,1.4
		c-0.1,0.2-0.2,0.4-0.3,0.5c-0.1,0.1-0.2,0.2-0.2,0.2s-0.1,0-0.3,0c-0.2,0-0.3-0.1-0.6-0.2c-0.3-0.1-0.7-0.3-0.9-0.5v-2.9
		c0.3,0.1,0.6,0.3,0.9,0.4c0.7,0.2,1.1,0.3,1.5,0.2c0.1,0,0.4-0.1,0.7-0.4c0.4-0.3,0.7-0.8,0.9-1.6c0.1-0.3,0.3-0.6,0.3-0.8l0,0
		c0.1-0.4,0.2-0.7,0.2-0.7l-0.2-0.1l0,0l0.2,0.1c0.1-0.3-0.1-0.7-0.4-0.7c-0.4-0.1-0.7,0.1-0.7,0.4c-0.2,0.7-0.5,1.3-0.7,1.9
		c-0.1,0.3-0.3,0.5-0.4,0.7c-0.1,0.1-0.1,0.1-0.2,0.2H14c-0.1,0-0.2,0-0.5,0c-0.2,0-0.4-0.1-0.7-0.2c-0.5-0.2-0.8-0.4-1.1-0.5v-3
		c0.4,0.1,0.8,0.3,1.3,0.4c0.8,0.2,1.4,0.3,1.9,0.2c0.4-0.1,0.7-0.3,1-0.6c0.3-0.3,0.6-0.7,0.9-1.3c0.5-0.8,0.7-1.6,0.7-1.6l0,0
		c0.1-0.3,0-0.6-0.3-0.7l0,0l0,0c0,0,0,0-0.1,0l0,0l0,0l0,0c-0.1,0-0.1,0-0.2,0l0,0l0,0c-0.1,0-0.2,0-0.3,0.1
		c-0.1,0.1-0.2,0.2-0.3,0.3l0,0l0,0c-0.1,0.2,0,0-0.1,0.2c0.3-0.1,0.3,0,0.2,0.2c-0.1,0.3-0.3,0.6-0.5,0.9s-0.5,0.7-0.7,0.9
		c-0.3,0.3-0.4,0.3-0.5,0.3c-0.2,0-0.4,0-0.7,0c-0.3,0-0.6-0.1-0.9-0.2c-0.6-0.2-1.1-0.4-1.5-0.5V7.4C12.1,7,11.8,6.7,11.5,6.7
		 M9.1,19.2L9.1,19.2L9.1,19.2L9.1,19.2L9.1,19.2z M13.9,19.2L13.9,19.2L13.9,19.2L13.9,19.2L13.9,19.2z"/>
</g>
</svg>
