<?xml version="1.0" encoding="utf-8"?>
<!-- Generator: Adobe Illustrator 24.0.0, SVG Export Plug-In . SVG Version: 6.00 Build 0)  -->
<svg version="1.1" id="Calque_1" xmlns="http://www.w3.org/2000/svg" xmlns:xlink="http://www.w3.org/1999/xlink" x="0px" y="0px"
	 viewBox="0 0 22.9 22.6" style="enable-background:new 0 0 22.9 22.6;" xml:space="preserve">
<style type="text/css">
	.st0{fill:none;stroke:#FB8B68;stroke-width:0.4;}
	.st1{fill-rule:evenodd;clip-rule:evenodd;fill:#FFCB46;}
	.st2{fill:#FB8B68;}
</style>
<path class="st0" d="M6.8,17.2"/>
<g>
	<path class="st1" d="M20.7,2.8c0.6-1,1-1.9,1.1-2.3c0-0.1,0-0.2-0.2-0.2H1.3c-0.1,0-0.2,0.1-0.2,0.2C1.3,1,1.7,1.9,2.3,2.8h0
		c0.3,0.9,0.3,2,0.4,2.8c0,0.5,0.1,0.9,0.1,1.2C3,7.6,3.2,8.3,3.5,9c0.3,0.7,0.5,1.3,0.7,2c0.3,1.4-0.4,6.4-1.1,7.6
		c-0.7,1.4-1,2.7-1.1,3.6c0,0.1,0.1,0.2,0.2,0.2h18.6c0.1,0,0.2-0.1,0.2-0.2c-0.1-0.9-0.4-2.2-1.1-3.6c-0.6-1.2-1.3-6.2-1.1-7.6
		c0.1-0.7,0.4-1.4,0.7-2c0.3-0.7,0.6-1.4,0.7-2.1c0.1-0.3,0.1-0.7,0.1-1.2C20.3,4.8,20.4,3.8,20.7,2.8L20.7,2.8z"/>
	<path class="st2" d="M11.5,6.4c-0.4,0-0.7,0.3-0.7,0.6v2.6c-0.3,0.1-0.9,0.3-1.6,0.5c-0.4,0.1-0.7,0.2-1,0.2c-0.3,0-0.5,0.1-0.7,0
		c0,0-0.2-0.1-0.5-0.3C7,9.8,6.7,9.4,6.5,9C6.3,8.6,6.1,8.2,6,8C6,7.8,5.9,7.7,5.9,7.6c-0.1-0.2,0,0-0.1-0.2l0,0l0,0
		C5.7,7.3,5.6,7.2,5.5,7.1c-0.1,0-0.2-0.1-0.3-0.1c0,0,0,0,0,0l0,0c-0.1,0-0.1,0-0.2,0l0,0l0,0l0,0c0,0-0.1,0-0.1,0l0,0l0,0
		C4.6,7.4,4.5,7.7,4.6,7.9l0,0c0,0,0.3,0.8,0.7,1.7c0.3,0.6,0.6,1.1,1,1.4c0.4,0.4,0.7,0.6,1.1,0.6c0.5,0.1,1.1,0,2-0.2
		c0.5-0.1,1-0.3,1.4-0.4v3.1c-0.3,0.1-0.7,0.3-1.2,0.5c-0.3,0.1-0.5,0.2-0.7,0.2c-0.3,0-0.4,0-0.5,0c0,0,0,0-0.1,0
		c0,0-0.1-0.1-0.2-0.2C8.1,14.5,8,14.3,7.8,14c-0.3-0.6-0.6-1.3-0.7-2c-0.1-0.3-0.4-0.5-0.8-0.4c-0.3,0.1-0.5,0.5-0.4,0.8L6,12.3
		c0,0,0,0,0,0l-0.2,0.1c0,0,0.1,0.3,0.2,0.7v0c0.1,0.3,0.2,0.6,0.3,0.9c0.3,0.8,0.7,1.4,1,1.7c0.3,0.3,0.6,0.4,0.7,0.4
		c0.4,0.1,0.9,0,1.6-0.2c0.4-0.1,0.7-0.3,1-0.4v3.1c-0.3,0.2-0.7,0.4-1,0.5c-0.2,0.1-0.4,0.1-0.6,0.2c-0.2,0-0.3,0-0.3,0
		c0,0-0.1,0-0.2-0.2c-0.1-0.1-0.2-0.3-0.3-0.5c-0.2-0.4-0.5-1-0.6-1.5c-0.1-0.2-0.2-0.3-0.3-0.4c-0.2-0.1-0.3-0.1-0.5,0
		c-0.2,0.1-0.3,0.2-0.4,0.3c-0.1,0.2-0.1,0.3,0,0.5l0,0c0,0,0,0,0,0c0,0,0,0,0,0l0,0c0,0.1,0.2,0.7,0.5,1.3c0.2,0.5,0.5,0.9,0.7,1.2
		l0,0c0.3,0.3,0.5,0.5,0.8,0.6c0.1,0,0.2,0,0.4,0c0.1,0,0.3,0,0.4,0c0.2,0,0.5-0.1,0.8-0.2c0.5-0.2,1-0.4,1.3-0.6
		c0.3,0.2,0.8,0.4,1.3,0.6c0.3,0.1,0.6,0.2,0.8,0.2c0.2,0,0.3,0,0.4,0c0.1,0,0.3,0,0.4,0c0.3-0.1,0.6-0.3,0.8-0.6l0,0
		c0.2-0.3,0.5-0.7,0.7-1.2c0.3-0.6,0.5-1.3,0.5-1.3l0,0c0,0,0,0,0,0c0,0,0,0,0,0l0,0c0-0.2,0-0.3,0-0.5c-0.1-0.2-0.2-0.3-0.4-0.3
		c-0.2-0.1-0.3,0-0.5,0c-0.2,0.1-0.3,0.2-0.3,0.4c-0.2,0.5-0.4,1.1-0.6,1.5c-0.1,0.2-0.2,0.4-0.3,0.5c-0.1,0.1-0.2,0.2-0.2,0.2
		c0,0-0.1,0-0.3,0c-0.2,0-0.3-0.1-0.6-0.2c-0.3-0.1-0.7-0.3-1-0.5v-3.1c0.3,0.1,0.6,0.3,1,0.4c0.7,0.2,1.2,0.3,1.6,0.2
		c0.1,0,0.4-0.1,0.7-0.4c0.4-0.3,0.7-0.9,1-1.7c0.1-0.3,0.3-0.6,0.3-0.9v0c0.1-0.4,0.2-0.7,0.2-0.7l-0.2-0.1c0,0,0,0,0,0l0.2,0.1
		c0.1-0.3-0.1-0.7-0.4-0.8c-0.4-0.1-0.7,0.1-0.8,0.4c-0.2,0.7-0.5,1.4-0.7,2c-0.1,0.3-0.3,0.5-0.4,0.7c-0.1,0.1-0.1,0.1-0.2,0.2
		c0,0-0.1,0-0.1,0c-0.1,0-0.2,0-0.5,0c-0.2,0-0.4-0.1-0.7-0.2c-0.5-0.2-0.9-0.4-1.2-0.5V11c0.4,0.1,0.9,0.3,1.4,0.4
		c0.9,0.2,1.5,0.3,2,0.2c0.4-0.1,0.7-0.3,1.1-0.6c0.3-0.3,0.6-0.8,1-1.4c0.5-0.9,0.7-1.7,0.7-1.7l0,0c0.1-0.3,0-0.6-0.3-0.7l0,0l0,0
		c0,0,0,0-0.1,0l0,0l0,0l0,0c-0.1,0-0.1,0-0.2,0l0,0c0,0,0,0,0,0c-0.1,0-0.2,0-0.3,0.1c-0.1,0.1-0.2,0.2-0.3,0.3l0,0l0,0
		c-0.1,0.2,0,0-0.1,0.2C17,7.7,17,7.8,16.9,8c-0.1,0.3-0.3,0.6-0.5,1c-0.2,0.4-0.5,0.8-0.7,1c-0.3,0.3-0.4,0.3-0.5,0.3
		c-0.2,0-0.4,0-0.7,0c-0.3,0-0.6-0.1-1-0.2c-0.6-0.2-1.2-0.4-1.6-0.5V7.1C12.1,6.7,11.8,6.4,11.5,6.4 M8.9,19.8L8.9,19.8L8.9,19.8
		C8.9,19.8,8.9,19.8,8.9,19.8L8.9,19.8z M14.1,19.8L14.1,19.8L14.1,19.8L14.1,19.8C14.1,19.8,14.1,19.8,14.1,19.8z"/>
</g>
</svg>
